<?xml version="1.0" encoding="UTF-8" standalone="no"?>
<svg
   xmlns:dc="http://purl.org/dc/elements/1.1/"
   xmlns:cc="http://creativecommons.org/ns#"
   xmlns:rdf="http://www.w3.org/1999/02/22-rdf-syntax-ns#"
   xmlns:svg="http://www.w3.org/2000/svg"
   xmlns="http://www.w3.org/2000/svg"
   xmlns:sodipodi="http://sodipodi.sourceforge.net/DTD/sodipodi-0.dtd"
   xmlns:inkscape="http://www.inkscape.org/namespaces/inkscape"
   width="1405"
   height="1160"
   viewBox="0 0 371.73872 306.91425"
   version="1.1"
   id="svg221"
   sodipodi:docname="FoundryBlockDiag.svg"
   inkscape:version="0.92.3 (2405546, 2018-03-11)">
  <metadata
     id="metadata225">
    <rdf:RDF>
      <cc:Work
         rdf:about="">
        <dc:format>image/svg+xml</dc:format>
        <dc:type
           rdf:resource="http://purl.org/dc/dcmitype/StillImage" />
        <dc:title></dc:title>
      </cc:Work>
    </rdf:RDF>
  </metadata>
  <sodipodi:namedview
     pagecolor="#ffffff"
     bordercolor="#666666"
     borderopacity="1"
     objecttolerance="10"
     gridtolerance="10"
     guidetolerance="10"
     inkscape:pageopacity="0"
     inkscape:pageshadow="2"
     inkscape:window-width="1920"
     inkscape:window-height="1017"
     id="namedview223"
     showgrid="false"
     inkscape:zoom="1.8376406"
     inkscape:cx="227.56017"
     inkscape:cy="250.68949"
     inkscape:window-x="-8"
     inkscape:window-y="-8"
     inkscape:window-maximized="1"
     inkscape:current-layer="g219" />
  <defs
     id="defs89">
    <filter
       height="1"
       width="1"
       y="0"
       x="0"
       filterUnits="objectBoundingBox"
       id="a">
      <feColorMatrix
         values="0 0 0 0 1 0 0 0 0 1 0 0 0 0 1 0 0 0 1 0"
         in="SourceGraphic"
         id="feColorMatrix2" />
    </filter>
    <filter
       height="1"
       width="1"
       y="0"
       x="0"
       filterUnits="objectBoundingBox"
       id="b">
      <feColorMatrix
         values="0 0 0 0 1 0 0 0 0 1 0 0 0 0 1 0 0 0 1 0"
         in="SourceGraphic"
         id="feColorMatrix5" />
    </filter>
    <filter
       height="1"
       width="1"
       y="0"
       x="0"
       filterUnits="objectBoundingBox"
       id="c">
      <feColorMatrix
         values="0 0 0 0 1 0 0 0 0 1 0 0 0 0 1 0 0 0 1 0"
         in="SourceGraphic"
         id="feColorMatrix8" />
    </filter>
    <filter
       height="1"
       width="1"
       y="0"
       x="0"
       filterUnits="objectBoundingBox"
       id="d">
      <feColorMatrix
         values="0 0 0 0 1 0 0 0 0 1 0 0 0 0 1 0 0 0 1 0"
         in="SourceGraphic"
         id="feColorMatrix11" />
    </filter>
    <filter
       height="1"
       width="1"
       y="0"
       x="0"
       filterUnits="objectBoundingBox"
       id="e">
      <feColorMatrix
         values="0 0 0 0 1 0 0 0 0 1 0 0 0 0 1 0 0 0 1 0"
         in="SourceGraphic"
         id="feColorMatrix14" />
    </filter>
    <filter
       height="1"
       width="1"
       y="0"
       x="0"
       filterUnits="objectBoundingBox"
       id="f">
      <feColorMatrix
         values="0 0 0 0 1 0 0 0 0 1 0 0 0 0 1 0 0 0 1 0"
         in="SourceGraphic"
         id="feColorMatrix17" />
    </filter>
    <filter
       height="1"
       width="1"
       y="0"
       x="0"
       filterUnits="objectBoundingBox"
       id="g">
      <feColorMatrix
         values="0 0 0 0 1 0 0 0 0 1 0 0 0 0 1 0 0 0 1 0"
         in="SourceGraphic"
         id="feColorMatrix20" />
    </filter>
    <filter
       height="1"
       width="1"
       y="0"
       x="0"
       filterUnits="objectBoundingBox"
       id="h">
      <feColorMatrix
         values="0 0 0 0 1 0 0 0 0 1 0 0 0 0 1 0 0 0 1 0"
         in="SourceGraphic"
         id="feColorMatrix23" />
    </filter>
    <filter
       height="1"
       width="1"
       y="0"
       x="0"
       filterUnits="objectBoundingBox"
       id="i">
      <feColorMatrix
         values="0 0 0 0 1 0 0 0 0 1 0 0 0 0 1 0 0 0 1 0"
         in="SourceGraphic"
         id="feColorMatrix26" />
    </filter>
    <filter
       height="1"
       width="1"
       y="0"
       x="0"
       filterUnits="objectBoundingBox"
       id="j">
      <feColorMatrix
         values="0 0 0 0 1 0 0 0 0 1 0 0 0 0 1 0 0 0 1 0"
         in="SourceGraphic"
         id="feColorMatrix29" />
    </filter>
    <filter
       height="1"
       width="1"
       y="0"
       x="0"
       filterUnits="objectBoundingBox"
       id="k">
      <feColorMatrix
         values="0 0 0 0 1 0 0 0 0 1 0 0 0 0 1 0 0 0 1 0"
         in="SourceGraphic"
         id="feColorMatrix32" />
    </filter>
    <filter
       height="1"
       width="1"
       y="0"
       x="0"
       filterUnits="objectBoundingBox"
       id="l">
      <feColorMatrix
         values="0 0 0 0 1 0 0 0 0 1 0 0 0 0 1 0 0 0 1 0"
         in="SourceGraphic"
         id="feColorMatrix35" />
    </filter>
    <filter
       height="1"
       width="1"
       y="0"
       x="0"
       filterUnits="objectBoundingBox"
       id="m">
      <feColorMatrix
         values="0 0 0 0 1 0 0 0 0 1 0 0 0 0 1 0 0 0 1 0"
         in="SourceGraphic"
         id="feColorMatrix38" />
    </filter>
    <filter
       height="1"
       width="1"
       y="0"
       x="0"
       filterUnits="objectBoundingBox"
       id="n">
      <feColorMatrix
         values="0 0 0 0 1 0 0 0 0 1 0 0 0 0 1 0 0 0 1 0"
         in="SourceGraphic"
         id="feColorMatrix41" />
    </filter>
    <filter
       height="1"
       width="1"
       y="0"
       x="0"
       filterUnits="objectBoundingBox"
       id="o">
      <feColorMatrix
         values="0 0 0 0 1 0 0 0 0 1 0 0 0 0 1 0 0 0 1 0"
         in="SourceGraphic"
         id="feColorMatrix44" />
    </filter>
    <filter
       height="1"
       width="1"
       y="0"
       x="0"
       filterUnits="objectBoundingBox"
       id="p">
      <feColorMatrix
         values="0 0 0 0 1 0 0 0 0 1 0 0 0 0 1 0 0 0 1 0"
         in="SourceGraphic"
         id="feColorMatrix47" />
    </filter>
    <filter
       height="1"
       width="1"
       y="0"
       x="0"
       filterUnits="objectBoundingBox"
       id="q">
      <feColorMatrix
         values="0 0 0 0 1 0 0 0 0 1 0 0 0 0 1 0 0 0 1 0"
         in="SourceGraphic"
         id="feColorMatrix50" />
    </filter>
    <filter
       height="1"
       width="1"
       y="0"
       x="0"
       filterUnits="objectBoundingBox"
       id="r">
      <feColorMatrix
         values="0 0 0 0 1 0 0 0 0 1 0 0 0 0 1 0 0 0 1 0"
         in="SourceGraphic"
         id="feColorMatrix53" />
    </filter>
    <filter
       height="1"
       width="1"
       y="0"
       x="0"
       filterUnits="objectBoundingBox"
       id="s">
      <feColorMatrix
         values="0 0 0 0 1 0 0 0 0 1 0 0 0 0 1 0 0 0 1 0"
         in="SourceGraphic"
         id="feColorMatrix56" />
    </filter>
    <filter
       height="1"
       width="1"
       y="0"
       x="0"
       filterUnits="objectBoundingBox"
       id="t">
      <feColorMatrix
         values="0 0 0 0 1 0 0 0 0 1 0 0 0 0 1 0 0 0 1 0"
         in="SourceGraphic"
         id="feColorMatrix59" />
    </filter>
    <filter
       height="1"
       width="1"
       y="0"
       x="0"
       filterUnits="objectBoundingBox"
       id="u">
      <feColorMatrix
         values="0 0 0 0 1 0 0 0 0 1 0 0 0 0 1 0 0 0 1 0"
         in="SourceGraphic"
         id="feColorMatrix62" />
    </filter>
    <filter
       height="1"
       width="1"
       y="0"
       x="0"
       filterUnits="objectBoundingBox"
       id="v">
      <feColorMatrix
         values="0 0 0 0 1 0 0 0 0 1 0 0 0 0 1 0 0 0 1 0"
         in="SourceGraphic"
         id="feColorMatrix65" />
    </filter>
    <filter
       height="1"
       width="1"
       y="0"
       x="0"
       filterUnits="objectBoundingBox"
       id="w">
      <feColorMatrix
         values="0 0 0 0 1 0 0 0 0 1 0 0 0 0 1 0 0 0 1 0"
         in="SourceGraphic"
         id="feColorMatrix68" />
    </filter>
    <filter
       height="1"
       width="1"
       y="0"
       x="0"
       filterUnits="objectBoundingBox"
       id="x">
      <feColorMatrix
         values="0 0 0 0 1 0 0 0 0 1 0 0 0 0 1 0 0 0 1 0"
         in="SourceGraphic"
         id="feColorMatrix71" />
    </filter>
    <filter
       height="1"
       width="1"
       y="0"
       x="0"
       filterUnits="objectBoundingBox"
       id="y">
      <feColorMatrix
         values="0 0 0 0 1 0 0 0 0 1 0 0 0 0 1 0 0 0 1 0"
         in="SourceGraphic"
         id="feColorMatrix74" />
    </filter>
    <filter
       height="1"
       width="1"
       y="0"
       x="0"
       filterUnits="objectBoundingBox"
       id="z">
      <feColorMatrix
         values="0 0 0 0 1 0 0 0 0 1 0 0 0 0 1 0 0 0 1 0"
         in="SourceGraphic"
         id="feColorMatrix77" />
    </filter>
    <filter
       height="1"
       width="1"
       y="0"
       x="0"
       filterUnits="objectBoundingBox"
       id="A">
      <feColorMatrix
         values="0 0 0 0 1 0 0 0 0 1 0 0 0 0 1 0 0 0 1 0"
         in="SourceGraphic"
         id="feColorMatrix80" />
    </filter>
    <filter
       height="1"
       width="1"
       y="0"
       x="0"
       filterUnits="objectBoundingBox"
       id="B">
      <feColorMatrix
         values="0 0 0 0 1 0 0 0 0 1 0 0 0 0 1 0 0 0 1 0"
         in="SourceGraphic"
         id="feColorMatrix83" />
    </filter>
    <filter
       height="1"
       width="1"
       y="0"
       x="0"
       filterUnits="objectBoundingBox"
       id="C">
      <feColorMatrix
         values="0 0 0 0 1 0 0 0 0 1 0 0 0 0 1 0 0 0 1 0"
         in="SourceGraphic"
         id="feColorMatrix86" />
    </filter>
  </defs>
  <g
     transform="translate(-26.543,45.067719)"
     id="g219">
    <rect
       width="5.902"
       height="7.5999999"
       x="50.208347"
       y="201.35661"
       rx="0"
       ry="0"
       id="rect91"
       style="fill:#dcdcdc;stroke:#000000;stroke-width:0.132;paint-order:stroke markers fill" />
    <rect
       width="5.902"
       height="7.5999999"
       x="56.110348"
       y="201.35661"
       rx="0"
       ry="0"
       id="rect93"
       style="fill:#dcdcdc;stroke:#000000;stroke-width:0.132;paint-order:stroke markers fill" />
    <rect
       width="5.902"
       height="7.5999999"
       x="62.013348"
       y="201.35661"
       rx="0"
       ry="0"
       id="rect95"
       style="fill:#dcdcdc;stroke:#000000;stroke-width:0.132;paint-order:stroke markers fill" />
    <rect
       width="5.902"
       height="7.5999999"
       x="67.915344"
       y="201.35661"
       rx="0"
       ry="0"
       id="rect97"
       style="fill:#dcdcdc;stroke:#000000;stroke-width:0.132;paint-order:stroke markers fill" />
    <rect
       width="5.902"
       height="7.5999999"
       x="73.817345"
       y="201.35661"
       rx="0"
       ry="0"
       id="rect99"
       style="fill:#dcdcdc;stroke:#000000;stroke-width:0.132;paint-order:stroke markers fill" />
    <rect
       width="5.902"
       height="7.5999999"
       x="79.720345"
       y="201.35661"
       rx="0"
       ry="0"
       id="rect101"
       style="fill:#dcdcdc;stroke:#000000;stroke-width:0.132;paint-order:stroke markers fill" />
    <rect
       width="5.902"
       height="7.5999999"
       x="85.622345"
       y="201.35661"
       rx="0"
       ry="0"
       id="rect103"
       style="fill:#dcdcdc;stroke:#000000;stroke-width:0.132;paint-order:stroke markers fill" />
    <rect
       width="5.902"
       height="7.5999999"
       x="91.524345"
       y="201.35661"
       rx="0"
       ry="0"
       id="rect105"
       style="fill:#dcdcdc;stroke:#000000;stroke-width:0.132;paint-order:stroke markers fill" />
    <rect
       width="5.902"
       height="7.5999999"
       x="97.427345"
       y="201.35661"
       rx="0"
       ry="0"
       id="rect107"
       style="fill:#dcdcdc;stroke:#000000;stroke-width:0.132;paint-order:stroke markers fill" />
    <rect
       width="5.902"
       height="7.5999999"
       x="103.32934"
       y="201.35661"
       rx="0"
       ry="0"
       id="rect109"
       style="fill:#dcdcdc;stroke:#000000;stroke-width:0.132;paint-order:stroke markers fill" />
    <rect
       width="5.902"
       height="7.5999999"
       x="109.23131"
       y="201.35661"
       rx="0"
       ry="0"
       id="rect111"
       style="fill:#dcdcdc;stroke:#000000;stroke-width:0.132;paint-order:stroke markers fill" />
    <rect
       width="5.902"
       height="7.5999999"
       x="115.13328"
       y="201.35661"
       rx="0"
       ry="0"
       id="rect113"
       style="fill:#dcdcdc;stroke:#000000;stroke-width:0.132;paint-order:stroke markers fill" />
    <rect
       width="5.902"
       height="7.5999999"
       x="121.03632"
       y="201.35661"
       rx="0"
       ry="0"
       id="rect115"
       style="fill:#dcdcdc;stroke:#000000;stroke-width:0.132;paint-order:stroke markers fill" />
    <rect
       width="5.902"
       height="7.5999999"
       x="126.93832"
       y="201.35661"
       rx="0"
       ry="0"
       id="rect117"
       style="fill:#dcdcdc;stroke:#000000;stroke-width:0.132;paint-order:stroke markers fill" />
    <rect
       width="5.902"
       height="7.5999999"
       x="132.84027"
       y="201.35661"
       rx="0"
       ry="0"
       id="rect119"
       style="fill:#dcdcdc;stroke:#000000;stroke-width:0.132;paint-order:stroke markers fill" />
    <rect
       width="5.902"
       height="7.5999999"
       x="138.74316"
       y="201.35661"
       rx="0"
       ry="0"
       id="rect121"
       style="fill:#dcdcdc;stroke:#000000;stroke-width:0.132;paint-order:stroke markers fill" />
    <text
       style="font-weight:400;font-size:2.82200003px;line-height:1.25;font-family:Sniglet;-inkscape-font-specification:'Sniglet, Normal';font-variant-ligatures:normal;font-variant-caps:normal;font-variant-numeric:normal;font-feature-settings:normal;text-align:start;letter-spacing:0;word-spacing:0;stroke-width:0.26499999"
       x="33.393326"
       y="206.12361"
       font-weight="400"
       font-size="2.822"
       letter-spacing="0"
       word-spacing="0"
       id="text125">
      <tspan
         x="33.393326"
         y="206.12361"
         style="-inkscape-font-specification:'Sniglet, Normal';font-variant-ligatures:normal;font-variant-caps:normal;font-variant-numeric:normal;font-feature-settings:normal;text-align:start"
         id="tspan123">SEQUENCES</tspan>
    </text>
    <path
       style="font-weight:400;font-size:2.82200003px;line-height:1.25;font-family:Sniglet;-inkscape-font-specification:'Sniglet, Normal';font-variant-ligatures:normal;font-variant-caps:normal;font-variant-numeric:normal;font-feature-settings:normal;text-align:start;letter-spacing:0;word-spacing:0"
       d="m 52.98029,206.0142 q -0.005,-0.101 -0.008,-0.212 0,-0.11 -0.003,-0.237 -0.003,-0.127 -0.003,-0.273 v -0.686 l -0.17,0.087 q -0.07,0.046 -0.112,0.054 -0.04,0.008 -0.088,0.008 -0.042,0 -0.076,-0.037 -0.03,-0.036 -0.03,-0.087 0,-0.051 0.033,-0.088 0.037,-0.04 0.085,-0.07 0.062,-0.043 0.132,-0.085 0.074,-0.042 0.142,-0.076 0.067,-0.037 0.124,-0.057 0.059,-0.022 0.098,-0.022 0.02,0 0.04,0.006 0.023,0.006 0.04,0.022 0.02,0.017 0.03,0.054 0.015,0.034 0.017,0.093 l 0.009,0.178 0.006,0.15 q 0.002,0.07 0.002,0.149 v 0.426 q 0,0.116 -0.002,0.229 l -0.006,0.228 q -0.003,0.116 -0.009,0.243 -0.002,0.068 -0.014,0.104 -0.008,0.037 -0.025,0.057 -0.017,0.02 -0.04,0.022 -0.02,0.006 -0.048,0.006 -0.05,0 -0.084,-0.033 -0.034,-0.037 -0.04,-0.153 z m 5.914,-1.53 q -0.101,0 -0.17,0.023 -0.067,0.02 -0.112,0.054 -0.045,0.034 -0.073,0.07 l -0.051,0.07 q -0.023,0.035 -0.051,0.057 -0.025,0.02 -0.065,0.02 -0.068,0 -0.096,-0.034 -0.025,-0.037 -0.025,-0.096 0,-0.124 0.093,-0.231 0.028,-0.034 0.076,-0.07 0.05,-0.04 0.119,-0.071 0.07,-0.031 0.16,-0.051 0.094,-0.023 0.21,-0.023 0.307,0 0.476,0.15 0.17,0.15 0.17,0.42 0,0.054 -0.012,0.119 -0.008,0.065 -0.036,0.135 -0.026,0.07 -0.074,0.147 -0.048,0.076 -0.127,0.155 -0.07,0.07 -0.15,0.13 -0.078,0.06 -0.163,0.119 -0.085,0.059 -0.178,0.127 -0.09,0.065 -0.183,0.15 0.09,0.047 0.194,0.061 0.105,0.014 0.235,0.014 0.121,0 0.194,-0.006 0.074,-0.006 0.119,-0.014 l 0.07,-0.014 q 0.026,-0.006 0.054,-0.006 0.105,0 0.105,0.096 0,0.085 -0.071,0.13 -0.07,0.045 -0.17,0.068 -0.098,0.02 -0.203,0.022 -0.104,0.006 -0.172,0.006 -0.036,0 -0.104,-0.006 -0.065,-0.003 -0.141,-0.014 -0.076,-0.011 -0.155,-0.03 -0.077,-0.023 -0.142,-0.057 -0.062,-0.037 -0.101,-0.088 -0.04,-0.053 -0.04,-0.127 0,-0.098 0.07,-0.186 0.074,-0.09 0.182,-0.175 0.107,-0.087 0.23,-0.172 0.125,-0.088 0.232,-0.178 0.108,-0.093 0.178,-0.192 0.074,-0.099 0.074,-0.214 0,-0.144 -0.1,-0.215 -0.095,-0.073 -0.276,-0.073 z m 5.332,0.012 q -0.09,0 -0.133,-0.045 -0.042,-0.048 -0.042,-0.096 0,-0.051 0.048,-0.082 0.048,-0.034 0.127,-0.051 0.08,-0.02 0.18,-0.026 0.102,-0.008 0.207,-0.008 0.087,0 0.194,0.008 0.108,0.006 0.2,0.034 0.094,0.026 0.156,0.08 0.062,0.05 0.062,0.14 0,0.071 -0.053,0.147 -0.054,0.076 -0.125,0.144 -0.07,0.068 -0.14,0.122 l -0.1,0.073 q 0.3,0 0.435,0.15 0.136,0.15 0.136,0.428 0,0.175 -0.065,0.305 -0.062,0.13 -0.17,0.218 -0.104,0.084 -0.242,0.127 -0.136,0.042 -0.28,0.042 -0.118,0 -0.234,-0.02 -0.113,-0.02 -0.203,-0.068 -0.09,-0.05 -0.147,-0.132 -0.054,-0.085 -0.054,-0.21 0,-0.129 0.141,-0.129 0.043,0 0.065,0.023 0.026,0.02 0.043,0.05 0.02,0.029 0.04,0.065 0.019,0.037 0.056,0.068 0.04,0.028 0.101,0.05 0.065,0.02 0.17,0.02 0.081,0 0.16,-0.016 0.08,-0.02 0.142,-0.062 0.062,-0.043 0.098,-0.113 0.04,-0.074 0.04,-0.18 0,-0.21 -0.088,-0.297 -0.084,-0.088 -0.24,-0.088 -0.039,0 -0.073,0.014 -0.034,0.012 -0.068,0.029 l -0.07,0.028 q -0.037,0.011 -0.082,0.011 -0.045,0 -0.079,-0.04 -0.034,-0.042 -0.034,-0.107 0,-0.045 0.042,-0.104 0.046,-0.06 0.122,-0.136 0.079,-0.076 0.189,-0.166 0.11,-0.093 0.245,-0.2 h -0.067 q -0.037,0 -0.077,0.003 h -0.347 q -0.101,-0.003 -0.186,-0.003 z m 7.122,1.109 q -0.002,0.107 -0.002,0.234 0,0.127 -0.009,0.237 -0.006,0.085 -0.04,0.11 -0.03,0.023 -0.087,0.023 -0.05,0 -0.079,-0.02 -0.025,-0.017 -0.04,-0.076 -0.01,-0.062 -0.014,-0.178 -0.002,-0.118 -0.002,-0.316 -0.094,0 -0.178,0.003 -0.085,0.003 -0.164,0.003 -0.118,0 -0.217,-0.006 -0.096,-0.006 -0.167,-0.02 -0.067,-0.017 -0.107,-0.045 -0.037,-0.028 -0.037,-0.073 0,-0.062 0.051,-0.156 0.051,-0.095 0.127,-0.206 0.076,-0.11 0.161,-0.223 0.088,-0.115 0.16,-0.214 l 0.097,-0.124 q 0.065,-0.082 0.138,-0.161 0.074,-0.082 0.147,-0.141 0.073,-0.06 0.124,-0.06 0.048,0 0.085,0.032 0.036,0.03 0.042,0.144 0.011,0.163 0.014,0.344 0.003,0.178 0.003,0.353 v 0.28 q 0.079,0.005 0.127,0.013 0.048,0.008 0.073,0.026 0.026,0.014 0.034,0.036 0.009,0.023 0.009,0.057 0,0.07 -0.065,0.096 -0.065,0.022 -0.184,0.028 z m -0.276,-0.923 -0.212,0.257 -0.147,0.18 q -0.059,0.077 -0.104,0.13 l -0.076,0.096 q 0.13,-0.006 0.265,-0.006 0.138,-0.003 0.274,-0.003 z"
       font-weight="400"
       font-size="2.822"
       letter-spacing="0"
       word-spacing="0"
       id="path127"
       inkscape:connector-curvature="0" />
    <path
       style="font-weight:400;font-size:2.82200003px;line-height:1.25;font-family:Sniglet;-inkscape-font-specification:'Sniglet, Normal';font-variant-ligatures:normal;font-variant-caps:normal;font-variant-numeric:normal;font-feature-settings:normal;text-align:start;letter-spacing:0;word-spacing:0;fill:#808080"
       d="m 76.90529,204.2132 q 0.099,0 0.195,0.007 0.096,0.006 0.17,0.022 0.076,0.014 0.12,0.045 0.049,0.029 0.049,0.077 0,0.053 -0.043,0.093 -0.04,0.04 -0.172,0.04 -0.166,0 -0.265,0.002 -0.096,0 -0.155,0.003 l -0.09,0.006 -0.077,0.006 q -0.04,0.003 -0.062,0.014 -0.02,0.008 -0.031,0.034 -0.008,0.023 -0.011,0.065 -0.003,0.04 -0.003,0.102 v 0.076 q 0.003,0.03 0.003,0.068 0.211,0.008 0.39,0.036 0.18,0.028 0.31,0.099 0.132,0.068 0.206,0.19 0.073,0.12 0.073,0.318 0,0.2 -0.054,0.333 -0.053,0.13 -0.143,0.212 -0.088,0.079 -0.207,0.113 -0.115,0.03 -0.24,0.03 -0.107,0 -0.225,-0.02 -0.119,-0.022 -0.22,-0.078 -0.102,-0.057 -0.17,-0.153 -0.065,-0.098 -0.065,-0.248 0,-0.087 0.043,-0.133 0.045,-0.045 0.101,-0.045 0.048,0 0.09,0.034 0.043,0.031 0.046,0.116 0.003,0.085 0.04,0.138 0.036,0.054 0.092,0.085 0.057,0.03 0.127,0.042 0.071,0.011 0.144,0.011 0.178,0 0.269,-0.101 0.09,-0.102 0.09,-0.316 0,-0.139 -0.065,-0.218 -0.062,-0.081 -0.16,-0.12 -0.097,-0.043 -0.213,-0.055 -0.115,-0.014 -0.22,-0.016 l -0.178,-0.006 q -0.073,-0.006 -0.09,-0.029 -0.02,-0.028 -0.03,-0.07 -0.012,-0.045 -0.018,-0.093 l -0.008,-0.093 v -0.088 q 0,-0.164 0.03,-0.268 0.032,-0.104 0.108,-0.164 0.076,-0.059 0.2,-0.079 0.127,-0.022 0.32,-0.022 z m 4.96,1.186 q 0,-0.237 0.082,-0.452 0.082,-0.217 0.203,-0.38 0.122,-0.167 0.257,-0.263 0.136,-0.099 0.243,-0.099 0.045,0 0.09,0.023 0.048,0.02 0.048,0.065 0,0.04 -0.045,0.087 l -0.141,0.141 q -0.05,0.051 -0.11,0.116 -0.057,0.065 -0.11,0.138 -0.054,0.074 -0.096,0.153 -0.043,0.079 -0.062,0.155 0.096,-0.085 0.214,-0.116 0.119,-0.03 0.209,-0.03 0.113,0 0.217,0.041 0.105,0.04 0.184,0.122 0.079,0.079 0.124,0.2 0.048,0.119 0.048,0.277 0,0.138 -0.045,0.254 -0.045,0.113 -0.13,0.197 -0.082,0.082 -0.2,0.13 -0.116,0.045 -0.26,0.045 -0.141,0 -0.274,-0.034 -0.13,-0.036 -0.228,-0.127 -0.1,-0.09 -0.158,-0.245 -0.06,-0.155 -0.06,-0.398 z m 0.322,0.164 q 0,0.186 0.096,0.282 0.099,0.096 0.293,0.096 0.071,0 0.136,-0.02 0.065,-0.02 0.116,-0.065 0.05,-0.048 0.079,-0.124 0.03,-0.076 0.03,-0.19 0,-0.07 -0.027,-0.132 -0.026,-0.062 -0.077,-0.107 -0.048,-0.048 -0.115,-0.073 -0.068,-0.029 -0.147,-0.029 -0.18,0 -0.282,0.1 -0.102,0.098 -0.102,0.262 z m 6.441,0.386 q -0.046,0.127 -0.085,0.186 -0.04,0.06 -0.113,0.06 -0.057,0 -0.093,-0.026 -0.037,-0.028 -0.037,-0.07 0,-0.026 0.005,-0.054 l 0.02,-0.056 q 0.06,-0.18 0.13,-0.376 l 0.147,-0.395 0.15,-0.398 q 0.073,-0.197 0.135,-0.384 -0.099,0.006 -0.192,0.006 h -0.209 q -0.141,0 -0.231,-0.003 -0.088,-0.003 -0.139,-0.014 -0.05,-0.014 -0.07,-0.042 -0.02,-0.028 -0.02,-0.079 0,-0.048 0.031,-0.082 0.031,-0.037 0.147,-0.045 0.116,-0.008 0.2,-0.011 0.085,-0.006 0.192,-0.006 h 0.121 q 0.054,0 0.105,0.003 l 0.107,0.006 0.124,0.006 q 0.02,0 0.048,0.006 0.029,0.006 0.051,0.02 0.023,0.014 0.04,0.039 0.017,0.025 0.017,0.065 0,0.056 -0.037,0.18 -0.037,0.122 -0.093,0.283 -0.054,0.158 -0.124,0.336 l -0.133,0.341 q -0.062,0.164 -0.116,0.3 -0.053,0.132 -0.079,0.205 z m 5.804,-1.769 q 0.138,0 0.245,0.045 0.108,0.042 0.181,0.118 0.073,0.074 0.11,0.17 0.037,0.093 0.037,0.194 0,0.108 -0.043,0.21 -0.04,0.098 -0.121,0.171 0.135,0.071 0.206,0.2 0.073,0.128 0.073,0.314 0,0.144 -0.042,0.263 -0.042,0.115 -0.13,0.2 -0.087,0.082 -0.217,0.127 -0.13,0.048 -0.302,0.048 -0.175,0 -0.305,-0.048 -0.13,-0.045 -0.214,-0.13 -0.085,-0.085 -0.127,-0.2 -0.04,-0.116 -0.04,-0.254 0,-0.18 0.068,-0.31 0.07,-0.133 0.214,-0.207 -0.084,-0.073 -0.127,-0.175 -0.042,-0.101 -0.042,-0.209 0,-0.101 0.037,-0.194 0.036,-0.096 0.11,-0.17 0.073,-0.076 0.18,-0.118 0.108,-0.045 0.249,-0.045 z m 0.003,1.8 q 0.101,0 0.177,-0.028 0.077,-0.03 0.125,-0.082 0.05,-0.05 0.076,-0.118 0.025,-0.068 0.025,-0.141 0,-0.065 -0.022,-0.133 -0.02,-0.068 -0.07,-0.121 -0.049,-0.054 -0.128,-0.088 -0.079,-0.034 -0.192,-0.034 -0.195,0 -0.299,0.102 -0.102,0.099 -0.102,0.262 0,0.172 0.108,0.277 0.107,0.104 0.302,0.104 z m 0.002,-0.985 q 0.071,0 0.125,-0.028 0.056,-0.028 0.093,-0.07 0.04,-0.046 0.056,-0.097 0.02,-0.053 0.02,-0.101 0,-0.099 -0.08,-0.167 -0.075,-0.07 -0.22,-0.07 -0.143,0 -0.217,0.07 -0.073,0.068 -0.073,0.164 0,0.048 0.017,0.102 0.02,0.053 0.056,0.098 0.04,0.043 0.094,0.071 0.056,0.028 0.13,0.028 z m 6.63101,0.014 q 0,0.237 -0.083,0.455 -0.082,0.214 -0.203,0.38 -0.121,0.164 -0.25701,0.263 -0.135,0.096 -0.242,0.096 -0.046,0 -0.094,-0.02 -0.045,-0.022 -0.045,-0.067 0,-0.02 0.012,-0.04 0.01,-0.02 0.033,-0.045 l 0.057,-0.06 0.085,-0.084 q 0.05,-0.05 0.107,-0.116 0.06,-0.065 0.11301,-0.138 0.053,-0.073 0.096,-0.152 0.042,-0.08 0.062,-0.156 -0.096,0.085 -0.21501,0.116 -0.118,0.031 -0.209,0.031 -0.115,0 -0.22,-0.04 -0.101,-0.042 -0.18,-0.12 -0.08,-0.083 -0.127,-0.201 -0.046,-0.121 -0.046,-0.28 0,-0.138 0.046,-0.256 0.045,-0.119 0.127,-0.206 0.084,-0.09 0.2,-0.141 0.119,-0.051 0.262,-0.051 0.142,0 0.27101,0.04 0.13,0.039 0.229,0.135 0.102,0.096 0.16,0.257 0.06,0.16 0.06,0.4 z m -0.323,-0.163 q 0,-0.187 -0.098,-0.297 -0.096,-0.11 -0.29101,-0.11 -0.07,0 -0.136,0.026 -0.064,0.022 -0.115,0.076 -0.051,0.05 -0.082,0.133 -0.028,0.079 -0.028,0.191 0,0.071 0.025,0.133 0.028,0.062 0.076,0.11 0.051,0.045 0.116,0.074 0.068,0.025 0.15,0.025 0.18001,0 0.28201,-0.099 0.101,-0.099 0.101,-0.262 z"
       font-weight="400"
       font-size="2.822"
       letter-spacing="0"
       word-spacing="0"
       id="path129"
       inkscape:connector-curvature="0" />
    <rect
       width="5.902"
       height="7.5999999"
       x="50.208347"
       y="226.41862"
       rx="0"
       ry="0"
       id="rect159"
       style="fill:#dcdcdc;stroke:#000000;stroke-width:0.132;paint-order:stroke markers fill" />
    <rect
       width="5.902"
       height="7.5999999"
       x="56.110348"
       y="226.41862"
       rx="0"
       ry="0"
       id="rect161"
       style="fill:#dcdcdc;stroke:#000000;stroke-width:0.132;paint-order:stroke markers fill" />
    <rect
       width="5.902"
       height="7.5999999"
       x="62.013348"
       y="226.41862"
       rx="0"
       ry="0"
       id="rect163"
       style="fill:#dcdcdc;stroke:#000000;stroke-width:0.132;paint-order:stroke markers fill" />
    <rect
       width="5.902"
       height="7.5999999"
       x="67.915344"
       y="226.41862"
       rx="0"
       ry="0"
       id="rect165"
       style="fill:#dcdcdc;stroke:#000000;stroke-width:0.132;paint-order:stroke markers fill" />
    <rect
       width="5.902"
       height="7.5999999"
       x="73.817345"
       y="226.41862"
       rx="0"
       ry="0"
       id="rect167"
       style="fill:#dcdcdc;stroke:#000000;stroke-width:0.132;paint-order:stroke markers fill" />
    <rect
       width="5.902"
       height="7.5999999"
       x="79.720345"
       y="226.41862"
       rx="0"
       ry="0"
       id="rect169"
       style="fill:#dcdcdc;stroke:#000000;stroke-width:0.132;paint-order:stroke markers fill" />
    <rect
       width="5.902"
       height="7.5999999"
       x="85.622345"
       y="226.41862"
       rx="0"
       ry="0"
       id="rect171"
       style="fill:#dcdcdc;stroke:#000000;stroke-width:0.132;paint-order:stroke markers fill" />
    <rect
       width="5.902"
       height="7.5999999"
       x="91.524345"
       y="226.41862"
       rx="0"
       ry="0"
       id="rect173"
       style="fill:#dcdcdc;stroke:#000000;stroke-width:0.132;paint-order:stroke markers fill" />
    <rect
       width="5.902"
       height="7.5999999"
       x="97.427345"
       y="226.41862"
       rx="0"
       ry="0"
       id="rect175"
       style="fill:#dcdcdc;stroke:#000000;stroke-width:0.132;paint-order:stroke markers fill" />
    <rect
       width="5.902"
       height="7.5999999"
       x="103.32934"
       y="226.41862"
       rx="0"
       ry="0"
       id="rect177"
       style="fill:#dcdcdc;stroke:#000000;stroke-width:0.132;paint-order:stroke markers fill" />
    <rect
       width="5.902"
       height="7.5999999"
       x="109.23131"
       y="226.41862"
       rx="0"
       ry="0"
       id="rect179"
       style="fill:#dcdcdc;stroke:#000000;stroke-width:0.132;paint-order:stroke markers fill" />
    <rect
       width="5.902"
       height="7.5999999"
       x="115.13328"
       y="226.41862"
       rx="0"
       ry="0"
       id="rect181"
       style="fill:#dcdcdc;stroke:#000000;stroke-width:0.132;paint-order:stroke markers fill" />
    <rect
       width="5.902"
       height="7.5999999"
       x="121.03632"
       y="226.41862"
       rx="0"
       ry="0"
       id="rect183"
       style="fill:#dcdcdc;stroke:#000000;stroke-width:0.132;paint-order:stroke markers fill" />
    <rect
       width="5.902"
       height="7.5999999"
       x="126.93832"
       y="226.41862"
       rx="0"
       ry="0"
       id="rect185"
       style="fill:#dcdcdc;stroke:#000000;stroke-width:0.132;paint-order:stroke markers fill" />
    <rect
       width="5.902"
       height="7.5999999"
       x="132.84027"
       y="226.41862"
       rx="0"
       ry="0"
       id="rect187"
       style="fill:#dcdcdc;stroke:#000000;stroke-width:0.132;paint-order:stroke markers fill" />
    <rect
       width="5.902"
       height="7.5999999"
       x="138.74316"
       y="226.41862"
       rx="0"
       ry="0"
       id="rect189"
       style="fill:#dcdcdc;stroke:#000000;stroke-width:0.132;paint-order:stroke markers fill" />
    <text
       style="font-weight:400;font-size:2.82200003px;line-height:1.25;font-family:Sniglet;-inkscape-font-specification:'Sniglet, Normal';font-variant-ligatures:normal;font-variant-caps:normal;font-variant-numeric:normal;font-feature-settings:normal;text-align:start;letter-spacing:0;word-spacing:0;stroke-width:0.26499999"
       x="36.802074"
       y="231.18562"
       font-weight="400"
       font-size="2.822"
       letter-spacing="0"
       word-spacing="0"
       id="text193">
      <tspan
         x="36.802074"
         y="231.18562"
         style="-inkscape-font-specification:'Sniglet, Normal';font-variant-ligatures:normal;font-variant-caps:normal;font-variant-numeric:normal;font-feature-settings:normal;text-align:start"
         id="tspan191">PHRASES</tspan>
    </text>
    <path
       style="font-weight:400;font-size:2.82200003px;line-height:1.25;font-family:Sniglet;-inkscape-font-specification:'Sniglet, Normal';font-variant-ligatures:normal;font-variant-caps:normal;font-variant-numeric:normal;font-feature-settings:normal;text-align:start;letter-spacing:0;word-spacing:0"
       d="m 52.98029,231.0772 q -0.005,-0.102 -0.008,-0.212 0,-0.11 -0.003,-0.237 -0.003,-0.127 -0.003,-0.274 v -0.686 l -0.17,0.088 q -0.07,0.045 -0.112,0.053 -0.04,0.008 -0.088,0.008 -0.042,0 -0.076,-0.036 -0.03,-0.037 -0.03,-0.088 0,-0.05 0.033,-0.087 0.037,-0.04 0.085,-0.07 0.062,-0.043 0.132,-0.086 0.074,-0.042 0.142,-0.076 0.067,-0.037 0.124,-0.056 0.059,-0.023 0.098,-0.023 0.02,0 0.04,0.006 0.023,0.006 0.04,0.023 0.02,0.017 0.03,0.053 0.015,0.034 0.017,0.093 l 0.009,0.178 0.006,0.15 q 0.002,0.07 0.002,0.15 v 0.426 q 0,0.115 -0.002,0.228 l -0.006,0.229 q -0.003,0.115 -0.009,0.242 -0.002,0.068 -0.014,0.105 -0.008,0.037 -0.025,0.056 -0.017,0.02 -0.04,0.023 -0.02,0.006 -0.048,0.006 -0.05,0 -0.084,-0.034 -0.034,-0.037 -0.04,-0.152 z"
       font-weight="400"
       font-size="2.822"
       letter-spacing="0"
       word-spacing="0"
       id="path195"
       inkscape:connector-curvature="0" />
    <text
       style="font-weight:400;font-size:2.82200003px;line-height:1.25;font-family:Sniglet;-inkscape-font-specification:'Sniglet, Normal';font-variant-ligatures:normal;font-variant-caps:normal;font-variant-numeric:normal;font-feature-settings:normal;text-align:start;letter-spacing:0;word-spacing:0;stroke-width:0.26499999"
       x="146.91266"
       y="230.87579"
       font-weight="400"
       font-size="2.822"
       letter-spacing="0"
       word-spacing="0"
       id="text199">
      <tspan
         x="146.91266"
         y="230.87579"
         style="-inkscape-font-specification:'Sniglet, Normal';font-variant-ligatures:normal;font-variant-caps:normal;font-variant-numeric:normal;font-feature-settings:normal;text-align:start"
         id="tspan197">PHRASES (= SEQUENCE INDEXES AND REPETITION COUNT)</tspan>
    </text>
    <path
       style="font-weight:400;font-size:2.82200003px;line-height:1.25;font-family:Sniglet;-inkscape-font-specification:'Sniglet, Normal';font-variant-ligatures:normal;font-variant-caps:normal;font-variant-numeric:normal;font-feature-settings:normal;text-align:start;letter-spacing:0;word-spacing:0"
       d="m 59.18229,231.0862 q -0.006,-0.102 -0.009,-0.212 0,-0.11 -0.003,-0.237 -0.002,-0.127 -0.002,-0.274 v -0.686 l -0.17,0.088 q -0.07,0.045 -0.113,0.054 -0.04,0.008 -0.087,0.008 -0.043,0 -0.076,-0.037 -0.031,-0.037 -0.031,-0.088 0,-0.05 0.033,-0.087 0.037,-0.04 0.085,-0.07 0.062,-0.043 0.133,-0.085 0.073,-0.043 0.14,-0.077 0.069,-0.036 0.125,-0.056 0.06,-0.023 0.099,-0.023 0.02,0 0.04,0.006 0.022,0.006 0.039,0.023 0.02,0.017 0.03,0.054 0.015,0.033 0.018,0.093 l 0.008,0.177 0.006,0.15 q 0.003,0.07 0.003,0.15 v 0.426 q 0,0.116 -0.003,0.228 l -0.006,0.229 -0.008,0.243 q -0.003,0.067 -0.014,0.104 -0.009,0.037 -0.026,0.057 -0.017,0.02 -0.04,0.022 -0.019,0.006 -0.047,0.006 -0.051,0 -0.085,-0.034 -0.034,-0.036 -0.04,-0.152 z m 5.711,-0.005 q -0.006,-0.102 -0.009,-0.212 l -0.002,-0.237 q -0.003,-0.127 -0.003,-0.274 v -0.685 l -0.17,0.088 q -0.07,0.045 -0.112,0.053 -0.04,0.008 -0.088,0.008 -0.042,0 -0.076,-0.036 -0.031,-0.037 -0.031,-0.088 0,-0.05 0.034,-0.087 0.036,-0.04 0.084,-0.07 0.062,-0.043 0.133,-0.086 0.073,-0.042 0.141,-0.076 0.068,-0.037 0.124,-0.056 0.06,-0.023 0.1,-0.023 0.019,0 0.039,0.006 0.022,0.006 0.04,0.023 0.019,0.017 0.03,0.053 0.014,0.034 0.017,0.093 l 0.009,0.178 0.005,0.15 q 0.003,0.07 0.003,0.15 v 0.426 q 0,0.115 -0.003,0.228 l -0.005,0.229 q -0.003,0.115 -0.009,0.242 -0.003,0.068 -0.014,0.105 -0.009,0.037 -0.025,0.056 -0.017,0.02 -0.04,0.023 -0.02,0.006 -0.048,0.006 -0.05,0 -0.085,-0.034 -0.033,-0.037 -0.04,-0.152 z m 6.113,0.009 q -0.005,-0.102 -0.008,-0.212 0,-0.11 -0.003,-0.237 -0.003,-0.127 -0.003,-0.274 v -0.686 l -0.17,0.088 q -0.07,0.045 -0.112,0.054 -0.04,0.008 -0.088,0.008 -0.042,0 -0.076,-0.037 -0.03,-0.037 -0.03,-0.088 0,-0.05 0.033,-0.087 0.037,-0.04 0.085,-0.07 0.062,-0.043 0.132,-0.085 0.074,-0.043 0.141,-0.077 0.068,-0.036 0.125,-0.056 0.059,-0.023 0.098,-0.023 0.02,0 0.04,0.006 0.022,0.006 0.04,0.023 0.02,0.017 0.03,0.054 0.015,0.033 0.017,0.093 l 0.009,0.177 0.005,0.15 q 0.003,0.07 0.003,0.15 v 0.426 q 0,0.116 -0.003,0.228 l -0.005,0.229 q -0.003,0.116 -0.009,0.243 -0.002,0.067 -0.014,0.104 -0.008,0.037 -0.025,0.057 -0.017,0.02 -0.04,0.022 -0.02,0.006 -0.048,0.006 -0.05,0 -0.084,-0.034 -0.034,-0.036 -0.04,-0.152 z m 5.667,-1.598 q -0.102,0 -0.17,0.023 -0.067,0.02 -0.112,0.053 -0.046,0.034 -0.074,0.07 -0.025,0.038 -0.05,0.071 -0.023,0.034 -0.051,0.057 -0.026,0.02 -0.065,0.02 -0.068,0 -0.096,-0.034 -0.026,-0.037 -0.026,-0.096 0,-0.124 0.094,-0.232 0.028,-0.034 0.076,-0.07 0.05,-0.04 0.118,-0.07 0.07,-0.032 0.161,-0.052 0.093,-0.022 0.209,-0.022 0.308,0 0.477,0.15 0.17,0.149 0.17,0.42 0,0.053 -0.012,0.118 -0.009,0.065 -0.037,0.136 -0.025,0.07 -0.073,0.147 -0.048,0.076 -0.127,0.155 -0.07,0.07 -0.15,0.13 -0.079,0.059 -0.163,0.118 l -0.178,0.127 q -0.09,0.065 -0.184,0.15 0.09,0.048 0.195,0.062 0.105,0.014 0.234,0.014 0.122,0 0.195,-0.006 0.073,-0.006 0.119,-0.014 l 0.07,-0.014 q 0.026,-0.006 0.054,-0.006 0.104,0 0.104,0.096 0,0.085 -0.07,0.13 -0.07,0.045 -0.17,0.067 -0.098,0.02 -0.203,0.023 -0.104,0.006 -0.172,0.006 -0.037,0 -0.104,-0.006 -0.065,-0.003 -0.142,-0.014 -0.076,-0.011 -0.155,-0.031 -0.076,-0.023 -0.14,-0.057 -0.063,-0.036 -0.103,-0.087 -0.039,-0.054 -0.039,-0.127 0,-0.099 0.07,-0.186 0.074,-0.09 0.181,-0.175 0.107,-0.088 0.232,-0.172 0.124,-0.088 0.231,-0.178 0.107,-0.093 0.178,-0.192 0.073,-0.099 0.073,-0.215 0,-0.144 -0.099,-0.214 -0.096,-0.074 -0.276,-0.074 z m 5.882,0.071 q -0.101,0 -0.17,0.022 -0.067,0.02 -0.112,0.053 -0.045,0.034 -0.073,0.07 -0.026,0.038 -0.051,0.071 -0.023,0.034 -0.05,0.057 -0.026,0.02 -0.066,0.02 -0.068,0 -0.096,-0.034 -0.025,-0.037 -0.025,-0.096 0,-0.124 0.093,-0.232 0.028,-0.034 0.076,-0.07 0.05,-0.04 0.119,-0.07 0.07,-0.032 0.16,-0.052 0.094,-0.022 0.21,-0.022 0.307,0 0.476,0.15 0.17,0.149 0.17,0.42 0,0.054 -0.012,0.118 -0.008,0.065 -0.036,0.136 -0.026,0.07 -0.074,0.147 -0.048,0.076 -0.127,0.155 -0.07,0.07 -0.15,0.13 -0.078,0.059 -0.163,0.118 l -0.178,0.127 q -0.09,0.065 -0.183,0.15 0.09,0.048 0.195,0.062 0.104,0.014 0.234,0.014 0.121,0 0.194,-0.006 0.074,-0.006 0.119,-0.014 l 0.07,-0.014 q 0.026,-0.006 0.054,-0.006 0.105,0 0.105,0.096 0,0.085 -0.07,0.13 -0.071,0.045 -0.17,0.067 -0.1,0.02 -0.203,0.023 -0.105,0.006 -0.173,0.006 -0.036,0 -0.104,-0.006 -0.065,-0.003 -0.141,-0.014 -0.076,-0.011 -0.155,-0.031 -0.077,-0.023 -0.141,-0.057 -0.063,-0.036 -0.102,-0.087 -0.04,-0.054 -0.04,-0.127 0,-0.099 0.071,-0.186 0.073,-0.09 0.18,-0.175 0.108,-0.088 0.232,-0.172 0.124,-0.088 0.231,-0.178 0.108,-0.093 0.178,-0.192 0.074,-0.099 0.074,-0.215 0,-0.144 -0.1,-0.214 -0.095,-0.074 -0.276,-0.074 z m 5.758,1.454 q -0.006,-0.102 -0.008,-0.212 0,-0.11 -0.003,-0.237 -0.003,-0.127 -0.003,-0.273 v -0.686 l -0.17,0.087 q -0.07,0.045 -0.112,0.054 -0.04,0.008 -0.088,0.008 -0.042,0 -0.076,-0.037 -0.031,-0.037 -0.031,-0.087 0,-0.051 0.034,-0.088 0.037,-0.04 0.085,-0.07 0.062,-0.043 0.132,-0.085 0.074,-0.042 0.141,-0.076 0.068,-0.037 0.124,-0.057 0.06,-0.022 0.1,-0.022 0.019,0 0.039,0.006 0.022,0.006 0.04,0.022 0.019,0.017 0.03,0.054 0.014,0.034 0.017,0.093 l 0.009,0.178 0.005,0.15 q 0.003,0.07 0.003,0.149 v 0.426 q 0,0.116 -0.003,0.229 l -0.005,0.228 q -0.003,0.116 -0.009,0.243 -0.003,0.068 -0.014,0.104 -0.008,0.037 -0.025,0.057 -0.017,0.02 -0.04,0.022 -0.02,0.006 -0.048,0.006 -0.05,0 -0.084,-0.033 -0.034,-0.037 -0.04,-0.153 z m 6.201,0.009 q -0.005,-0.101 -0.008,-0.211 0,-0.11 -0.003,-0.237 -0.003,-0.127 -0.003,-0.274 v -0.686 l -0.169,0.088 q -0.07,0.045 -0.113,0.053 -0.04,0.008 -0.087,0.008 -0.043,0 -0.077,-0.037 -0.03,-0.036 -0.03,-0.087 0,-0.05 0.033,-0.088 0.037,-0.04 0.085,-0.07 0.062,-0.042 0.133,-0.085 0.073,-0.042 0.14,-0.076 0.068,-0.037 0.125,-0.056 0.06,-0.023 0.099,-0.023 0.02,0 0.04,0.006 0.022,0.006 0.039,0.023 0.02,0.016 0.03,0.053 0.015,0.034 0.018,0.093 l 0.008,0.178 0.006,0.15 q 0.002,0.07 0.002,0.15 v 0.425 q 0,0.116 -0.002,0.229 l -0.006,0.229 -0.008,0.242 q -0.003,0.068 -0.015,0.105 -0.008,0.036 -0.025,0.056 -0.017,0.02 -0.04,0.023 -0.02,0.006 -0.047,0.006 -0.051,0 -0.085,-0.034 -0.034,-0.037 -0.04,-0.153 z m 5.391,-1.528 q -0.09,0 -0.133,-0.045 -0.042,-0.048 -0.042,-0.096 0,-0.051 0.048,-0.082 0.048,-0.034 0.127,-0.051 0.079,-0.02 0.18,-0.025 0.102,-0.008 0.207,-0.008 0.087,0 0.194,0.008 0.10801,0.006 0.20001,0.033 0.094,0.026 0.156,0.08 0.062,0.05 0.062,0.14 0,0.071 -0.054,0.147 -0.053,0.077 -0.124,0.144 -0.07,0.068 -0.14,0.122 l -0.10001,0.073 q 0.30001,0 0.43501,0.15 0.135,0.15 0.135,0.429 0,0.175 -0.065,0.304 -0.062,0.13 -0.169,0.218 -0.104,0.084 -0.243,0.127 -0.13501,0.042 -0.27901,0.042 -0.119,0 -0.234,-0.02 -0.113,-0.02 -0.203,-0.068 -0.09,-0.05 -0.147,-0.132 -0.054,-0.085 -0.054,-0.209 0,-0.13 0.141,-0.13 0.043,0 0.065,0.023 0.026,0.02 0.043,0.05 0.02,0.029 0.04,0.065 0.019,0.037 0.055,0.068 0.04,0.028 0.102,0.051 0.065,0.02 0.17,0.02 0.081,0 0.16,-0.017 0.08,-0.02 0.14101,-0.062 0.062,-0.043 0.1,-0.113 0.039,-0.074 0.039,-0.18 0,-0.21 -0.088,-0.297 -0.084,-0.088 -0.24001,-0.088 -0.04,0 -0.073,0.014 -0.034,0.012 -0.068,0.029 l -0.07,0.028 q -0.037,0.011 -0.082,0.011 -0.045,0 -0.08,-0.04 -0.033,-0.042 -0.033,-0.107 0,-0.045 0.042,-0.104 0.045,-0.06 0.122,-0.136 0.079,-0.076 0.189,-0.166 0.11,-0.093 0.24501,-0.2 h -0.068 q -0.036,0 -0.076,0.003 h -0.347 q -0.101005,-0.003 -0.186005,-0.003 z m 12.04311,1.607 q -0.007,-0.102 -0.01,-0.212 0,-0.11 -0.003,-0.237 -0.003,-0.127 -0.003,-0.274 v -0.686 l -0.17,0.088 q -0.07,0.045 -0.112,0.053 -0.04,0.008 -0.088,0.008 -0.042,0 -0.076,-0.036 -0.03,-0.037 -0.03,-0.088 0,-0.05 0.033,-0.087 0.037,-0.04 0.085,-0.07 0.062,-0.043 0.132,-0.086 0.074,-0.042 0.142,-0.076 0.067,-0.037 0.124,-0.056 0.06,-0.023 0.099,-0.023 0.02,0 0.04,0.006 0.022,0.006 0.039,0.023 0.02,0.017 0.03,0.053 0.015,0.034 0.017,0.093 0.006,0.102 0.008,0.178 l 0.006,0.15 q 0.003,0.07 0.003,0.15 v 0.426 q 0,0.115 -0.003,0.228 l -0.006,0.229 -0.008,0.243 q -0.003,0.067 -0.014,0.104 -0.008,0.037 -0.025,0.056 -0.017,0.02 -0.04,0.023 -0.02,0.006 -0.048,0.006 -0.05,0 -0.084,-0.034 -0.034,-0.037 -0.04,-0.152 z"
       font-weight="400"
       font-size="2.822"
       letter-spacing="0"
       word-spacing="0"
       id="path201"
       inkscape:connector-curvature="0" />
    <path
       d="m 76.87529,226.3232 v -8.413 m -17.721,0.129 v -8.901 m 0.044,8.857 h 17.62 m -17.664,-8.901 -0.656,1.51 m 0.656,-1.51 0.656,1.51"
       id="path203"
       inkscape:connector-curvature="0"
       style="fill:none;stroke:#000000;stroke-width:0.132" />
    <text
       style="font-weight:400;font-size:2.82200003px;line-height:1.25;font-family:Sniglet;-inkscape-font-specification:'Sniglet, Normal';font-variant-ligatures:normal;font-variant-caps:normal;font-variant-numeric:normal;font-feature-settings:normal;text-align:start;letter-spacing:0;word-spacing:0;stroke-width:0.26499999"
       x="72.931061"
       y="243.91193"
       font-weight="400"
       font-size="2.822"
       letter-spacing="0"
       word-spacing="0"
       id="text215">
      <tspan
         x="72.931061"
         y="243.91193"
         style="-inkscape-font-specification:'Sniglet, Normal';font-variant-ligatures:normal;font-variant-caps:normal;font-variant-numeric:normal;font-feature-settings:normal;text-align:start"
         id="tspan213">A SONG CAN HAVE UP TO 99 PHRASES</tspan>
    </text>
    <path
       style="font-weight:400;font-size:2.82200003px;line-height:1.25;font-family:Sniglet;-inkscape-font-specification:'Sniglet, Normal';font-variant-ligatures:normal;font-variant-caps:normal;font-variant-numeric:normal;font-feature-settings:normal;text-align:start;letter-spacing:0;word-spacing:0"
       d="m 106.43635,229.4752 q -0.101,0 -0.169,0.023 -0.068,0.02 -0.113,0.054 -0.045,0.034 -0.073,0.07 l -0.051,0.07 q -0.023,0.035 -0.05,0.057 -0.026,0.02 -0.066,0.02 -0.067,0 -0.096,-0.034 -0.025,-0.037 -0.025,-0.096 0,-0.124 0.093,-0.231 0.028,-0.034 0.076,-0.07 0.051,-0.04 0.119,-0.071 0.07,-0.031 0.16,-0.051 0.094,-0.023 0.21,-0.023 0.307,0 0.47601,0.15 0.17,0.15 0.17,0.42 0,0.054 -0.011,0.119 -0.009,0.065 -0.037,0.135 -0.026,0.07 -0.074,0.147 -0.048,0.076 -0.12701,0.155 -0.07,0.07 -0.15,0.13 -0.078,0.06 -0.163,0.119 l -0.178,0.127 q -0.09,0.065 -0.183,0.15 0.09,0.047 0.195,0.061 0.104,0.014 0.234,0.014 0.121,0 0.195,-0.006 0.073,-0.006 0.11801,-0.014 l 0.07,-0.014 q 0.026,-0.006 0.054,-0.006 0.105,0 0.105,0.096 0,0.085 -0.07,0.13 -0.071,0.045 -0.17,0.068 -0.099,0.02 -0.20301,0.022 -0.105,0.006 -0.172,0.006 -0.037,0 -0.105,-0.006 -0.065,-0.003 -0.141,-0.014 -0.076,-0.011 -0.155,-0.03 -0.076,-0.023 -0.141,-0.057 -0.062,-0.037 -0.102,-0.088 -0.04,-0.053 -0.04,-0.127 0,-0.098 0.071,-0.186 0.073,-0.09 0.18,-0.175 0.108,-0.087 0.232,-0.172 0.124,-0.088 0.232,-0.178 0.107,-0.093 0.177,-0.192 0.074,-0.099 0.074,-0.214 0,-0.144 -0.099,-0.215 -0.096,-0.073 -0.277,-0.073 z m 12.31507,1.228 q -0.003,0.107 -0.003,0.234 0,0.127 -0.008,0.237 -0.006,0.085 -0.04,0.11 -0.03,0.023 -0.087,0.023 -0.05,0 -0.079,-0.02 -0.025,-0.017 -0.04,-0.076 -0.01,-0.062 -0.013,-0.178 -0.003,-0.118 -0.003,-0.316 -0.093,0 -0.178,0.003 -0.085,0.003 -0.164,0.003 -0.118,0 -0.217,-0.006 -0.096,-0.006 -0.167,-0.02 -0.067,-0.016 -0.107,-0.045 -0.037,-0.028 -0.037,-0.073 0,-0.062 0.051,-0.155 0.051,-0.096 0.127,-0.206 0.076,-0.11 0.161,-0.223 0.088,-0.116 0.16,-0.215 l 0.097,-0.124 q 0.065,-0.082 0.138,-0.16 0.074,-0.083 0.147,-0.142 0.073,-0.06 0.124,-0.06 0.048,0 0.085,0.032 0.037,0.03 0.042,0.144 0.011,0.164 0.014,0.344 0.003,0.178 0.003,0.353 v 0.28 q 0.08,0.005 0.127,0.013 0.048,0.008 0.074,0.026 0.025,0.014 0.034,0.037 0.008,0.022 0.008,0.056 0,0.07 -0.065,0.096 -0.065,0.023 -0.184,0.028 z m -0.276,-0.923 -0.212,0.257 -0.147,0.18 q -0.059,0.077 -0.104,0.13 l -0.076,0.097 q 0.13,-0.006 0.265,-0.006 0.138,-0.003 0.274,-0.003 z"
       font-weight="400"
       font-size="2.822"
       letter-spacing="0"
       word-spacing="0"
       id="path217"
       inkscape:connector-curvature="0" />
    <text
       xml:space="preserve"
       style="font-style:normal;font-weight:normal;font-size:10.58330917px;line-height:1.25;font-family:sans-serif;letter-spacing:0px;word-spacing:0px;fill:#808080;fill-opacity:1;stroke:none;stroke-width:0.26458272"
       x="140.17624"
       y="206.18474"
       id="text1034"><tspan
         sodipodi:role="line"
         id="tspan1032"
         x="140.17624"
         y="206.18474"
         style="font-style:normal;font-variant:normal;font-weight:normal;font-stretch:normal;font-size:2.82221556px;font-family:Sniglet;-inkscape-font-specification:'Sniglet, Normal';font-variant-ligatures:normal;font-variant-caps:normal;font-variant-numeric:normal;font-feature-settings:normal;text-align:start;writing-mode:lr-tb;text-anchor:start;fill:#808080;stroke-width:0.26458272">64</tspan></text>
    <text
       xml:space="preserve"
       style="font-style:normal;font-weight:normal;font-size:10.58330917px;line-height:1.25;font-family:sans-serif;letter-spacing:0px;word-spacing:0px;fill:#808080;fill-opacity:1;stroke:none;stroke-width:0.26458272"
       x="134.17244"
       y="206.18483"
       id="text1034-3"><tspan
         sodipodi:role="line"
         id="tspan1032-9"
         x="134.17244"
         y="206.18483"
         style="font-style:normal;font-variant:normal;font-weight:normal;font-stretch:normal;font-size:2.82221556px;font-family:Sniglet;-inkscape-font-specification:'Sniglet, Normal';font-variant-ligatures:normal;font-variant-caps:normal;font-variant-numeric:normal;font-feature-settings:normal;text-align:start;writing-mode:lr-tb;text-anchor:start;fill:#808080;stroke-width:0.26458272">63</tspan></text>
    <text
       xml:space="preserve"
       style="font-style:normal;font-weight:normal;font-size:10.58330917px;line-height:1.25;font-family:sans-serif;letter-spacing:0px;word-spacing:0px;fill:#808080;fill-opacity:1;stroke:none;stroke-width:0.26458272"
       x="128.2908"
       y="206.18483"
       id="text1034-35"><tspan
         sodipodi:role="line"
         id="tspan1032-7"
         x="128.2908"
         y="206.18483"
         style="font-style:normal;font-variant:normal;font-weight:normal;font-stretch:normal;font-size:2.82221556px;font-family:Sniglet;-inkscape-font-specification:'Sniglet, Normal';font-variant-ligatures:normal;font-variant-caps:normal;font-variant-numeric:normal;font-feature-settings:normal;text-align:start;writing-mode:lr-tb;text-anchor:start;fill:#808080;stroke-width:0.26458272">62</tspan></text>
    <text
       xml:space="preserve"
       style="font-style:normal;font-weight:normal;font-size:10.58330917px;line-height:1.25;font-family:sans-serif;letter-spacing:0px;word-spacing:0px;fill:#808080;fill-opacity:1;stroke:none;stroke-width:0.26458272"
       x="122.41288"
       y="206.18483"
       id="text1034-1"><tspan
         sodipodi:role="line"
         id="tspan1032-71"
         x="122.41288"
         y="206.18483"
         style="font-style:normal;font-variant:normal;font-weight:normal;font-stretch:normal;font-size:2.82221556px;font-family:Sniglet;-inkscape-font-specification:'Sniglet, Normal';font-variant-ligatures:normal;font-variant-caps:normal;font-variant-numeric:normal;font-feature-settings:normal;text-align:start;writing-mode:lr-tb;text-anchor:start;fill:#808080;stroke-width:0.26458272">61</tspan></text>
    <text
       xml:space="preserve"
       style="font-style:normal;font-weight:normal;font-size:10.58330917px;line-height:1.25;font-family:sans-serif;letter-spacing:0px;word-spacing:0px;fill:#808080;fill-opacity:1;stroke:none;stroke-width:0.26458272"
       x="116.48447"
       y="206.18483"
       id="text1034-6"><tspan
         sodipodi:role="line"
         id="tspan1032-1"
         x="116.48447"
         y="206.18483"
         style="font-style:normal;font-variant:normal;font-weight:normal;font-stretch:normal;font-size:2.82221556px;font-family:Sniglet;-inkscape-font-specification:'Sniglet, Normal';font-variant-ligatures:normal;font-variant-caps:normal;font-variant-numeric:normal;font-feature-settings:normal;text-align:start;writing-mode:lr-tb;text-anchor:start;fill:#808080;stroke-width:0.26458272">60</tspan></text>
    <text
       xml:space="preserve"
       style="font-style:normal;font-weight:normal;font-size:10.58330917px;line-height:1.25;font-family:sans-serif;letter-spacing:0px;word-spacing:0px;fill:#808080;fill-opacity:1;stroke:none;stroke-width:0.26458272"
       x="110.58131"
       y="206.18483"
       id="text1034-5"><tspan
         sodipodi:role="line"
         id="tspan1032-6"
         x="110.58131"
         y="206.18483"
         style="font-style:normal;font-variant:normal;font-weight:normal;font-stretch:normal;font-size:2.82221556px;font-family:Sniglet;-inkscape-font-specification:'Sniglet, Normal';font-variant-ligatures:normal;font-variant-caps:normal;font-variant-numeric:normal;font-feature-settings:normal;text-align:start;writing-mode:lr-tb;text-anchor:start;fill:#808080;stroke-width:0.26458272">59</tspan></text>
    <text
       xml:space="preserve"
       style="font-style:normal;font-weight:normal;font-size:10.58330917px;line-height:1.25;font-family:sans-serif;letter-spacing:0px;word-spacing:0px;fill:#808080;fill-opacity:1;stroke:none;stroke-width:0.26458272"
       x="105.42762"
       y="205.42012"
       id="text1034-5-1"><tspan
         sodipodi:role="line"
         id="tspan1032-6-9"
         x="105.42762"
         y="205.42012"
         style="font-style:normal;font-variant:normal;font-weight:normal;font-stretch:normal;font-size:2.82221556px;font-family:Sniglet;-inkscape-font-specification:'Sniglet, Normal';font-variant-ligatures:normal;font-variant-caps:normal;font-variant-numeric:normal;font-feature-settings:normal;text-align:start;writing-mode:lr-tb;text-anchor:start;fill:#808080;stroke-width:0.26458272">...</tspan></text>
    <rect
       width="5.902"
       height="7.5999999"
       x="50.208229"
       y="176.16606"
       rx="0"
       ry="0"
       id="rect91-7"
       style="fill:#dcdcdc;stroke:#000000;stroke-width:0.132;paint-order:stroke markers fill" />
    <rect
       width="5.902"
       height="7.5999999"
       x="56.110229"
       y="176.16606"
       rx="0"
       ry="0"
       id="rect93-0"
       style="fill:#dcdcdc;stroke:#000000;stroke-width:0.132;paint-order:stroke markers fill" />
    <rect
       width="5.902"
       height="7.5999999"
       x="62.013229"
       y="176.16606"
       rx="0"
       ry="0"
       id="rect95-0"
       style="fill:#dcdcdc;stroke:#000000;stroke-width:0.132;paint-order:stroke markers fill" />
    <rect
       width="5.902"
       height="7.5999999"
       x="67.915222"
       y="176.16606"
       rx="0"
       ry="0"
       id="rect97-9"
       style="fill:#dcdcdc;stroke:#000000;stroke-width:0.132;paint-order:stroke markers fill" />
    <rect
       width="5.902"
       height="7.5999999"
       x="73.817223"
       y="176.16606"
       rx="0"
       ry="0"
       id="rect99-9"
       style="fill:#dcdcdc;stroke:#000000;stroke-width:0.132;paint-order:stroke markers fill" />
    <rect
       width="5.902"
       height="7.5999999"
       x="79.720222"
       y="176.16606"
       rx="0"
       ry="0"
       id="rect101-6"
       style="fill:#dcdcdc;stroke:#000000;stroke-width:0.132;paint-order:stroke markers fill" />
    <rect
       width="5.902"
       height="7.5999999"
       x="85.622223"
       y="176.16606"
       rx="0"
       ry="0"
       id="rect103-8"
       style="fill:#dcdcdc;stroke:#000000;stroke-width:0.132;paint-order:stroke markers fill" />
    <rect
       width="5.902"
       height="7.5999999"
       x="91.524223"
       y="176.16606"
       rx="0"
       ry="0"
       id="rect105-4"
       style="fill:#dcdcdc;stroke:#000000;stroke-width:0.132;paint-order:stroke markers fill" />
    <rect
       width="5.902"
       height="7.5999999"
       x="97.427223"
       y="176.16606"
       rx="0"
       ry="0"
       id="rect107-3"
       style="fill:#dcdcdc;stroke:#000000;stroke-width:0.132;paint-order:stroke markers fill" />
    <rect
       width="5.902"
       height="7.5999999"
       x="103.32922"
       y="176.16606"
       rx="0"
       ry="0"
       id="rect109-2"
       style="fill:#dcdcdc;stroke:#000000;stroke-width:0.132;paint-order:stroke markers fill" />
    <rect
       width="5.902"
       height="7.5999999"
       x="109.23119"
       y="176.16606"
       rx="0"
       ry="0"
       id="rect111-2"
       style="fill:#dcdcdc;stroke:#000000;stroke-width:0.132;paint-order:stroke markers fill" />
    <rect
       width="5.902"
       height="7.5999999"
       x="115.13316"
       y="176.16606"
       rx="0"
       ry="0"
       id="rect113-5"
       style="fill:#dcdcdc;stroke:#000000;stroke-width:0.132;paint-order:stroke markers fill" />
    <rect
       width="5.902"
       height="7.5999999"
       x="121.0362"
       y="176.16606"
       rx="0"
       ry="0"
       id="rect115-5"
       style="fill:#dcdcdc;stroke:#000000;stroke-width:0.132;paint-order:stroke markers fill" />
    <rect
       width="5.902"
       height="7.5999999"
       x="126.93819"
       y="176.16606"
       rx="0"
       ry="0"
       id="rect117-4"
       style="fill:#dcdcdc;stroke:#000000;stroke-width:0.132;paint-order:stroke markers fill" />
    <rect
       width="5.902"
       height="7.5999999"
       x="132.84015"
       y="176.16606"
       rx="0"
       ry="0"
       id="rect119-6"
       style="fill:#dcdcdc;stroke:#000000;stroke-width:0.132;paint-order:stroke markers fill" />
    <rect
       width="5.902"
       height="7.5999999"
       x="138.74304"
       y="176.16606"
       rx="0"
       ry="0"
       id="rect121-1"
       style="fill:#dcdcdc;stroke:#000000;stroke-width:0.132;paint-order:stroke markers fill" />
    <text
       style="font-weight:400;font-size:2.82200003px;line-height:1.25;font-family:Sniglet;-inkscape-font-specification:'Sniglet, Normal';font-variant-ligatures:normal;font-variant-caps:normal;font-variant-numeric:normal;font-feature-settings:normal;text-align:start;letter-spacing:0;word-spacing:0;stroke-width:0.26499999"
       x="40.801544"
       y="180.93306"
       font-weight="400"
       font-size="2.822"
       letter-spacing="0"
       word-spacing="0"
       id="text125-9">
      <tspan
         x="40.801544"
         y="180.93306"
         style="-inkscape-font-specification:'Sniglet, Normal';font-variant-ligatures:normal;font-variant-caps:normal;font-variant-numeric:normal;font-feature-settings:normal;text-align:start;stroke-width:0.26499999"
         id="tspan123-2">STEPS</tspan>
    </text>
    <path
       style="font-weight:400;font-size:2.82200003px;line-height:1.25;font-family:Sniglet;-inkscape-font-specification:'Sniglet, Normal';font-variant-ligatures:normal;font-variant-caps:normal;font-variant-numeric:normal;font-feature-settings:normal;text-align:start;letter-spacing:0;word-spacing:0;stroke-width:1"
       d="m 52.980168,180.8236 q -0.005,-0.101 -0.008,-0.212 0,-0.11 -0.003,-0.237 -0.003,-0.127 -0.003,-0.273 v -0.686 l -0.169998,0.087 q -0.07,0.046 -0.112,0.054 -0.04,0.008 -0.088,0.008 -0.042,0 -0.076,-0.037 -0.03,-0.036 -0.03,-0.087 0,-0.051 0.033,-0.088 0.037,-0.04 0.085,-0.07 0.062,-0.043 0.132,-0.085 0.074,-0.042 0.142,-0.076 0.067,-0.037 0.124,-0.057 0.059,-0.022 0.098,-0.022 0.02,0 0.04,0.006 0.023,0.006 0.04,0.022 0.02,0.017 0.03,0.054 0.015,0.034 0.017,0.093 l 0.009,0.178 0.006,0.15 q 0.002,0.07 0.002,0.149 v 0.426 q 0,0.116 -0.002,0.229 l -0.006,0.228 q -0.003,0.116 -0.009,0.243 -0.002,0.068 -0.014,0.104 -0.008,0.037 -0.025,0.057 -0.017,0.02 -0.04,0.022 -0.02,0.006 -0.048,0.006 -0.05,0 -0.084,-0.033 -0.034,-0.037 -0.04,-0.153 z m 5.914,-1.53 q -0.101,0 -0.17,0.023 -0.067,0.02 -0.112,0.054 -0.045,0.034 -0.073,0.07 l -0.051,0.07 q -0.023,0.035 -0.051,0.057 -0.025,0.02 -0.065,0.02 -0.068,0 -0.096,-0.034 -0.025,-0.037 -0.025,-0.096 0,-0.124 0.093,-0.231 0.028,-0.034 0.076,-0.07 0.05,-0.04 0.119,-0.071 0.07,-0.031 0.16,-0.051 0.094,-0.023 0.21,-0.023 0.307,0 0.476,0.15 0.17,0.15 0.17,0.42 0,0.054 -0.012,0.119 -0.008,0.065 -0.036,0.135 -0.026,0.07 -0.074,0.147 -0.048,0.076 -0.127,0.155 -0.07,0.07 -0.15,0.13 -0.078,0.06 -0.163,0.119 -0.085,0.059 -0.178,0.127 -0.09,0.065 -0.183,0.15 0.09,0.047 0.194,0.061 0.105,0.014 0.235,0.014 0.121,0 0.194,-0.006 0.074,-0.006 0.119,-0.014 l 0.07,-0.014 q 0.026,-0.006 0.054,-0.006 0.105,0 0.105,0.096 0,0.085 -0.071,0.13 -0.07,0.045 -0.17,0.068 -0.098,0.02 -0.203,0.022 -0.104,0.006 -0.172,0.006 -0.036,0 -0.104,-0.006 -0.065,-0.003 -0.141,-0.014 -0.076,-0.011 -0.155,-0.03 -0.077,-0.023 -0.142,-0.057 -0.062,-0.037 -0.101,-0.088 -0.04,-0.053 -0.04,-0.127 0,-0.098 0.07,-0.186 0.074,-0.09 0.182,-0.175 0.107,-0.087 0.23,-0.172 0.125,-0.088 0.232,-0.178 0.108,-0.093 0.178,-0.192 0.074,-0.099 0.074,-0.214 0,-0.144 -0.1,-0.215 -0.095,-0.073 -0.276,-0.073 z m 5.332,0.012 q -0.09,0 -0.133,-0.045 -0.042,-0.048 -0.042,-0.096 0,-0.051 0.048,-0.082 0.048,-0.034 0.127,-0.051 0.08,-0.02 0.18,-0.026 0.102,-0.008 0.207,-0.008 0.087,0 0.194,0.008 0.108,0.006 0.2,0.034 0.094,0.026 0.156,0.08 0.062,0.05 0.062,0.14 0,0.071 -0.053,0.147 -0.054,0.076 -0.125,0.144 -0.07,0.068 -0.14,0.122 l -0.1,0.073 q 0.3,0 0.435,0.15 0.136,0.15 0.136,0.428 0,0.175 -0.065,0.305 -0.062,0.13 -0.17,0.218 -0.104,0.084 -0.242,0.127 -0.136,0.042 -0.28,0.042 -0.118,0 -0.234,-0.02 -0.113,-0.02 -0.203,-0.068 -0.09,-0.05 -0.147,-0.132 -0.054,-0.085 -0.054,-0.21 0,-0.129 0.141,-0.129 0.043,0 0.065,0.023 0.026,0.02 0.043,0.05 0.02,0.029 0.04,0.065 0.019,0.037 0.056,0.068 0.04,0.028 0.101,0.05 0.065,0.02 0.17,0.02 0.081,0 0.16,-0.016 0.08,-0.02 0.142,-0.062 0.062,-0.043 0.098,-0.113 0.04,-0.074 0.04,-0.18 0,-0.21 -0.088,-0.297 -0.084,-0.088 -0.24,-0.088 -0.039,0 -0.073,0.014 -0.034,0.012 -0.068,0.029 l -0.07,0.028 q -0.037,0.011 -0.082,0.011 -0.045,0 -0.079,-0.04 -0.034,-0.042 -0.034,-0.107 0,-0.045 0.042,-0.104 0.046,-0.06 0.122,-0.136 0.079,-0.076 0.189,-0.166 0.11,-0.093 0.245,-0.2 h -0.067 q -0.037,0 -0.077,0.003 h -0.347 q -0.101,-0.003 -0.186,-0.003 z m 7.121999,1.109 q -0.0021,0.107 -0.0021,0.234 0,0.127 -0.009,0.237 -0.006,0.085 -0.04,0.11 -0.03,0.023 -0.087,0.023 -0.05,0 -0.079,-0.02 -0.025,-0.017 -0.04,-0.076 -0.01,-0.062 -0.014,-0.178 -0.0021,-0.118 -0.0021,-0.316 -0.094,0 -0.178001,0.003 -0.085,0.003 -0.163999,0.003 -0.118001,0 -0.217,-0.006 -0.096,-0.006 -0.166999,-0.02 -0.067,-0.017 -0.107,-0.045 -0.037,-0.028 -0.037,-0.073 0,-0.062 0.051,-0.156 0.051,-0.095 0.127,-0.206 0.076,-0.11 0.161001,-0.223 0.088,-0.115 0.159998,-0.214 l 0.097,-0.124 q 0.065,-0.082 0.137998,-0.161 0.074,-0.082 0.147002,-0.141 0.073,-0.06 0.124,-0.06 0.048,0 0.085,0.032 0.036,0.03 0.042,0.144 0.01101,0.163 0.014,0.344 0.003,0.178 0.003,0.353 v 0.28 q 0.079,0.005 0.126999,0.013 0.048,0.008 0.073,0.026 0.02601,0.014 0.034,0.036 0.009,0.023 0.009,0.057 0,0.07 -0.065,0.096 -0.065,0.022 -0.184001,0.028 z m -0.276,-0.923 -0.211999,0.257 -0.147,0.18 q -0.059,0.077 -0.103999,0.13 l -0.076,0.096 q 0.13,-0.006 0.265001,-0.006 0.138001,-0.003 0.273999,-0.003 z"
       font-weight="400"
       font-size="2.822"
       letter-spacing="0"
       word-spacing="0"
       id="path127-6"
       inkscape:connector-curvature="0" />
    <path
       style="font-weight:400;font-size:2.82200003px;line-height:1.25;font-family:Sniglet;-inkscape-font-specification:'Sniglet, Normal';font-variant-ligatures:normal;font-variant-caps:normal;font-variant-numeric:normal;font-feature-settings:normal;text-align:start;letter-spacing:0;word-spacing:0;fill:#808080;stroke-width:1"
       d="m 76.905168,179.0226 q 0.099,0 0.195,0.007 0.096,0.006 0.17,0.022 0.076,0.014 0.119999,0.045 0.049,0.029 0.049,0.077 0,0.053 -0.043,0.093 -0.04,0.04 -0.172,0.04 -0.165999,0 -0.265001,0.002 -0.096,0 -0.155,0.003 l -0.09,0.006 -0.077,0.006 q -0.04,0.003 -0.062,0.014 -0.02,0.008 -0.031,0.034 -0.008,0.023 -0.01101,0.065 -0.003,0.04 -0.003,0.102 v 0.076 q 0.003,0.03 0.003,0.068 0.211,0.008 0.390001,0.036 0.18,0.028 0.310001,0.099 0.131997,0.068 0.205998,0.19 0.073,0.12 0.073,0.318 0,0.2 -0.054,0.333 -0.053,0.13 -0.142999,0.212 -0.088,0.079 -0.207002,0.113 -0.114998,0.03 -0.24,0.03 -0.107,0 -0.224998,-0.02 -0.119002,-0.022 -0.220001,-0.078 -0.101999,-0.057 -0.17,-0.153 -0.065,-0.098 -0.065,-0.248 0,-0.087 0.043,-0.133 0.045,-0.045 0.101,-0.045 0.048,0 0.09,0.034 0.043,0.031 0.046,0.116 0.003,0.085 0.04,0.138 0.036,0.054 0.092,0.085 0.057,0.03 0.126999,0.042 0.071,0.011 0.143999,0.011 0.178001,0 0.269002,-0.101 0.09,-0.102 0.09,-0.316 0,-0.139 -0.065,-0.218 -0.062,-0.081 -0.160001,-0.12 -0.097,-0.043 -0.213,-0.055 -0.115,-0.014 -0.22,-0.016 l -0.178001,-0.006 q -0.073,-0.006 -0.09,-0.029 -0.02,-0.028 -0.03,-0.07 -0.01199,-0.045 -0.01799,-0.093 l -0.008,-0.093 v -0.088 q 0,-0.164 0.03,-0.268 0.032,-0.104 0.108,-0.164 0.076,-0.059 0.200001,-0.079 0.127,-0.022 0.32,-0.022 z m 4.96,1.186 q 0,-0.237 0.082,-0.452 0.082,-0.217 0.203001,-0.38 0.121999,-0.167 0.257,-0.263 0.135998,-0.099 0.242998,-0.099 0.045,0 0.09,0.023 0.048,0.02 0.048,0.065 0,0.04 -0.045,0.087 l -0.140998,0.141 q -0.05,0.051 -0.110001,0.116 -0.057,0.065 -0.11,0.138 -0.054,0.074 -0.096,0.153 -0.043,0.079 -0.062,0.155 0.096,-0.085 0.214,-0.116 0.119001,-0.03 0.209002,-0.03 0.112998,0 0.216997,0.041 0.105003,0.04 0.184002,0.122 0.079,0.079 0.123999,0.2 0.048,0.119 0.048,0.277 0,0.138 -0.045,0.254 -0.045,0.113 -0.130001,0.197 -0.082,0.082 -0.2,0.13 -0.115999,0.045 -0.26,0.045 -0.140999,0 -0.274,-0.034 -0.13,-0.036 -0.227998,-0.127 -0.100002,-0.09 -0.158001,-0.245 -0.06,-0.155 -0.06,-0.398 z m 0.322,0.164 q 0,0.186 0.096,0.282 0.099,0.096 0.293001,0.096 0.071,0 0.136001,-0.02 0.065,-0.02 0.115998,-0.065 0.05,-0.048 0.079,-0.124 0.03,-0.076 0.03,-0.19 0,-0.07 -0.027,-0.132 -0.02601,-0.062 -0.077,-0.107 -0.048,-0.048 -0.115001,-0.073 -0.068,-0.029 -0.146999,-0.029 -0.180001,0 -0.282001,0.1 -0.101999,0.098 -0.101999,0.262 z m 6.440999,0.386 q -0.046,0.127 -0.085,0.186 -0.04,0.06 -0.113,0.06 -0.057,0 -0.093,-0.026 -0.037,-0.028 -0.037,-0.07 0,-0.026 0.005,-0.054 l 0.02,-0.056 q 0.06,-0.18 0.13,-0.376 l 0.146999,-0.395 0.15,-0.398 q 0.073,-0.197 0.135001,-0.384 -0.099,0.006 -0.192,0.006 h -0.208999 q -0.141002,0 -0.231002,-0.003 -0.088,-0.003 -0.138999,-0.014 -0.05,-0.014 -0.07,-0.042 -0.02,-0.028 -0.02,-0.079 0,-0.048 0.031,-0.082 0.031,-0.037 0.146999,-0.045 0.115998,-0.008 0.200001,-0.011 0.085,-0.006 0.191999,-0.006 h 0.120999 q 0.054,0 0.105,0.003 l 0.107,0.006 0.123999,0.006 q 0.02,0 0.048,0.006 0.029,0.006 0.051,0.02 0.02299,0.014 0.04,0.039 0.01699,0.025 0.01699,0.065 0,0.056 -0.037,0.18 -0.037,0.122 -0.093,0.283 -0.054,0.158 -0.124,0.336 l -0.133,0.341 q -0.062,0.164 -0.115998,0.3 -0.053,0.132 -0.079,0.205 z m 5.804,-1.769 q 0.138001,0 0.245001,0.045 0.108,0.042 0.180999,0.118 0.073,0.074 0.11,0.17 0.037,0.093 0.037,0.194 0,0.108 -0.043,0.21 -0.04,0.098 -0.120999,0.171 0.135001,0.071 0.206002,0.2 0.073,0.128 0.073,0.314 0,0.144 -0.042,0.263 -0.042,0.115 -0.13,0.2 -0.087,0.082 -0.217,0.127 -0.13,0.048 -0.302,0.048 -0.175,0 -0.305,-0.048 -0.13,-0.045 -0.214,-0.13 -0.085,-0.085 -0.127,-0.2 -0.04,-0.116 -0.04,-0.254 0,-0.18 0.068,-0.31 0.07,-0.133 0.214,-0.207 -0.084,-0.073 -0.127,-0.175 -0.042,-0.101 -0.042,-0.209 0,-0.101 0.037,-0.194 0.036,-0.096 0.110001,-0.17 0.073,-0.076 0.180001,-0.118 0.108,-0.045 0.248998,-0.045 z m 0.003,1.8 q 0.100999,0 0.177001,-0.028 0.077,-0.03 0.124999,-0.082 0.05,-0.05 0.076,-0.118 0.025,-0.068 0.025,-0.141 0,-0.065 -0.02201,-0.133 -0.02,-0.068 -0.07,-0.121 -0.049,-0.054 -0.128,-0.088 -0.079,-0.034 -0.191999,-0.034 -0.195001,0 -0.299,0.102 -0.101999,0.099 -0.101999,0.262 0,0.172 0.108,0.277 0.107,0.104 0.302,0.104 z m 0.0021,-0.985 q 0.071,0 0.124999,-0.028 0.056,-0.028 0.093,-0.07 0.04,-0.046 0.056,-0.097 0.02,-0.053 0.02,-0.101 0,-0.099 -0.08,-0.167 -0.075,-0.07 -0.22,-0.07 -0.142999,0 -0.217,0.07 -0.073,0.068 -0.073,0.164 0,0.048 0.01699,0.102 0.02,0.053 0.056,0.098 0.04,0.043 0.094,0.071 0.056,0.028 0.13,0.028 z m 6.631003,0.014 q 0,0.237 -0.083,0.455 -0.082,0.214 -0.203,0.38 -0.12099,0.164 -0.257,0.263 -0.135,0.096 -0.242,0.096 -0.046,0 -0.094,-0.02 -0.045,-0.022 -0.045,-0.067 0,-0.02 0.012,-0.04 0.01,-0.02 0.033,-0.045 l 0.057,-0.06 0.085,-0.084 q 0.05,-0.05 0.107,-0.116 0.06,-0.065 0.11301,-0.138 0.053,-0.073 0.096,-0.152 0.042,-0.08 0.062,-0.156 -0.096,0.085 -0.21501,0.116 -0.118,0.031 -0.209,0.031 -0.115,0 -0.22,-0.04 -0.101001,-0.042 -0.180003,-0.12 -0.08,-0.083 -0.126999,-0.201 -0.046,-0.121 -0.046,-0.28 0,-0.138 0.046,-0.256 0.045,-0.119 0.126999,-0.206 0.084,-0.09 0.200003,-0.141 0.119,-0.051 0.262,-0.051 0.142,0 0.27101,0.04 0.13,0.039 0.229,0.135 0.102,0.096 0.16,0.257 0.06,0.16 0.06,0.4 z m -0.323,-0.163 q 0,-0.187 -0.098,-0.297 -0.096,-0.11 -0.29101,-0.11 -0.07,0 -0.136,0.026 -0.064,0.022 -0.115,0.076 -0.051,0.05 -0.082,0.133 -0.028,0.079 -0.028,0.191 0,0.071 0.025,0.133 0.028,0.062 0.076,0.11 0.051,0.045 0.116,0.074 0.068,0.025 0.15,0.025 0.18001,0 0.28201,-0.099 0.101,-0.099 0.101,-0.262 z"
       font-weight="400"
       font-size="2.822"
       letter-spacing="0"
       word-spacing="0"
       id="path129-0"
       inkscape:connector-curvature="0" />
    <text
       xml:space="preserve"
       style="font-style:normal;font-weight:normal;font-size:10.58330917px;line-height:1.25;font-family:sans-serif;letter-spacing:0px;word-spacing:0px;fill:#808080;fill-opacity:1;stroke:none;stroke-width:0.26458272"
       x="140.17612"
       y="180.99419"
       id="text1034-14"><tspan
         sodipodi:role="line"
         id="tspan1032-0"
         x="140.17612"
         y="180.99419"
         style="font-style:normal;font-variant:normal;font-weight:normal;font-stretch:normal;font-size:2.82221556px;font-family:Sniglet;-inkscape-font-specification:'Sniglet, Normal';font-variant-ligatures:normal;font-variant-caps:normal;font-variant-numeric:normal;font-feature-settings:normal;text-align:start;writing-mode:lr-tb;text-anchor:start;fill:#808080;stroke-width:0.26458272">32</tspan></text>
    <text
       xml:space="preserve"
       style="font-style:normal;font-weight:normal;font-size:10.58330917px;line-height:1.25;font-family:sans-serif;letter-spacing:0px;word-spacing:0px;fill:#808080;fill-opacity:1;stroke:none;stroke-width:0.26458272"
       x="134.1723"
       y="180.99428"
       id="text1034-3-8"><tspan
         sodipodi:role="line"
         id="tspan1032-9-3"
         x="134.1723"
         y="180.99428"
         style="font-style:normal;font-variant:normal;font-weight:normal;font-stretch:normal;font-size:2.82221556px;font-family:Sniglet;-inkscape-font-specification:'Sniglet, Normal';font-variant-ligatures:normal;font-variant-caps:normal;font-variant-numeric:normal;font-feature-settings:normal;text-align:start;writing-mode:lr-tb;text-anchor:start;fill:#808080;stroke-width:0.26458272">31</tspan></text>
    <text
       xml:space="preserve"
       style="font-style:normal;font-weight:normal;font-size:10.58330917px;line-height:1.25;font-family:sans-serif;letter-spacing:0px;word-spacing:0px;fill:#808080;fill-opacity:1;stroke:none;stroke-width:0.26458272"
       x="128.29068"
       y="180.99428"
       id="text1034-35-4"><tspan
         sodipodi:role="line"
         id="tspan1032-7-7"
         x="128.29068"
         y="180.99428"
         style="font-style:normal;font-variant:normal;font-weight:normal;font-stretch:normal;font-size:2.82221556px;font-family:Sniglet;-inkscape-font-specification:'Sniglet, Normal';font-variant-ligatures:normal;font-variant-caps:normal;font-variant-numeric:normal;font-feature-settings:normal;text-align:start;writing-mode:lr-tb;text-anchor:start;fill:#808080;stroke-width:0.26458272">30</tspan></text>
    <text
       xml:space="preserve"
       style="font-style:normal;font-weight:normal;font-size:10.58330917px;line-height:1.25;font-family:sans-serif;letter-spacing:0px;word-spacing:0px;fill:#808080;fill-opacity:1;stroke:none;stroke-width:0.26458272"
       x="122.41276"
       y="180.99428"
       id="text1034-1-0"><tspan
         sodipodi:role="line"
         id="tspan1032-71-0"
         x="122.41276"
         y="180.99428"
         style="font-style:normal;font-variant:normal;font-weight:normal;font-stretch:normal;font-size:2.82221556px;font-family:Sniglet;-inkscape-font-specification:'Sniglet, Normal';font-variant-ligatures:normal;font-variant-caps:normal;font-variant-numeric:normal;font-feature-settings:normal;text-align:start;writing-mode:lr-tb;text-anchor:start;fill:#808080;stroke-width:0.26458272">29</tspan></text>
    <text
       xml:space="preserve"
       style="font-style:normal;font-weight:normal;font-size:10.58330917px;line-height:1.25;font-family:sans-serif;letter-spacing:0px;word-spacing:0px;fill:#808080;fill-opacity:1;stroke:none;stroke-width:0.26458272"
       x="116.48434"
       y="180.99428"
       id="text1034-6-4"><tspan
         sodipodi:role="line"
         id="tspan1032-1-4"
         x="116.48434"
         y="180.99428"
         style="font-style:normal;font-variant:normal;font-weight:normal;font-stretch:normal;font-size:2.82221556px;font-family:Sniglet;-inkscape-font-specification:'Sniglet, Normal';font-variant-ligatures:normal;font-variant-caps:normal;font-variant-numeric:normal;font-feature-settings:normal;text-align:start;writing-mode:lr-tb;text-anchor:start;fill:#808080;stroke-width:0.26458272">28</tspan></text>
    <text
       xml:space="preserve"
       style="font-style:normal;font-weight:normal;font-size:10.58330917px;line-height:1.25;font-family:sans-serif;letter-spacing:0px;word-spacing:0px;fill:#808080;fill-opacity:1;stroke:none;stroke-width:0.26458272"
       x="110.58118"
       y="180.99428"
       id="text1034-5-9"><tspan
         sodipodi:role="line"
         id="tspan1032-6-3"
         x="110.58118"
         y="180.99428"
         style="font-style:normal;font-variant:normal;font-weight:normal;font-stretch:normal;font-size:2.82221556px;font-family:Sniglet;-inkscape-font-specification:'Sniglet, Normal';font-variant-ligatures:normal;font-variant-caps:normal;font-variant-numeric:normal;font-feature-settings:normal;text-align:start;writing-mode:lr-tb;text-anchor:start;fill:#808080;stroke-width:0.26458272">27</tspan></text>
    <text
       xml:space="preserve"
       style="font-style:normal;font-weight:normal;font-size:10.58330917px;line-height:1.25;font-family:sans-serif;letter-spacing:0px;word-spacing:0px;fill:#808080;fill-opacity:1;stroke:none;stroke-width:0.26458272"
       x="105.4275"
       y="180.22957"
       id="text1034-5-1-0"><tspan
         sodipodi:role="line"
         id="tspan1032-6-9-4"
         x="105.4275"
         y="180.22957"
         style="font-style:normal;font-variant:normal;font-weight:normal;font-stretch:normal;font-size:2.82221556px;font-family:Sniglet;-inkscape-font-specification:'Sniglet, Normal';font-variant-ligatures:normal;font-variant-caps:normal;font-variant-numeric:normal;font-feature-settings:normal;text-align:start;writing-mode:lr-tb;text-anchor:start;fill:#808080;stroke-width:0.26458272">...</tspan></text>
    <text
       xml:space="preserve"
       style="font-style:normal;font-weight:normal;font-size:10.58330917px;line-height:1.25;font-family:sans-serif;letter-spacing:0px;word-spacing:0px;fill:#000000;fill-opacity:1;stroke:none;stroke-width:0.26458272"
       x="120.70565"
       y="192.66521"
       id="text1220"><tspan
         sodipodi:role="line"
         id="tspan1218"
         x="120.70565"
         y="202.32068"
         style="stroke-width:0.26458272" /></text>
    <text
       style="font-weight:400;font-size:2.82200003px;line-height:1.25;font-family:Sniglet;-inkscape-font-specification:'Sniglet, Normal';font-variant-ligatures:normal;font-variant-caps:normal;font-variant-numeric:normal;font-feature-settings:normal;text-align:start;letter-spacing:0;word-spacing:0;stroke-width:0.26499999"
       x="50.969631"
       y="157.52036"
       font-weight="400"
       font-size="2.822"
       letter-spacing="0"
       word-spacing="0"
       id="text199-7">
      <tspan
         x="50.969631"
         y="157.52036"
         style="-inkscape-font-specification:'Sniglet, Normal';font-variant-ligatures:normal;font-variant-caps:normal;font-variant-numeric:normal;font-feature-settings:normal;text-align:start;stroke-width:0.26499999"
         id="tspan197-0">CV, GATE, CV2, GATE_PROBABILITY, SLIDE, GATE_PROB_VALUE, SLIDE_VALUE</tspan>
    </text>
    <text
       xml:space="preserve"
       style="font-style:normal;font-weight:normal;font-size:10.58330917px;line-height:1.25;font-family:sans-serif;letter-spacing:0px;word-spacing:0px;fill:#000000;fill-opacity:1;stroke:none;stroke-width:0.26458272"
       x="140.28687"
       y="157.36127"
       id="text1257"><tspan
         sodipodi:role="line"
         id="tspan1255"
         x="140.28687"
         y="157.36127"
         style="stroke-width:0.26458272"> </tspan></text>
  </g>
</svg>
