<?xml version="1.0" encoding="UTF-8" standalone="no"?>
<svg
   xmlns:dc="http://purl.org/dc/elements/1.1/"
   xmlns:cc="http://creativecommons.org/ns#"
   xmlns:rdf="http://www.w3.org/1999/02/22-rdf-syntax-ns#"
   xmlns:svg="http://www.w3.org/2000/svg"
   xmlns="http://www.w3.org/2000/svg"
   xmlns:sodipodi="http://sodipodi.sourceforge.net/DTD/sodipodi-0.dtd"
   xmlns:inkscape="http://www.inkscape.org/namespaces/inkscape"
   width="255"
   height="380"
   viewBox="0 0 67.469 100.542"
   version="1.1"
   id="svg72"
   sodipodi:docname="BigButtonSeq.svg"
   inkscape:version="0.92.2 (5c3e80d, 2017-08-06)">
  <metadata
     id="metadata78">
    <rdf:RDF>
      <cc:Work
         rdf:about="">
        <dc:format>image/svg+xml</dc:format>
        <dc:type
           rdf:resource="http://purl.org/dc/dcmitype/StillImage" />
      </cc:Work>
    </rdf:RDF>
  </metadata>
  <defs
     id="defs76" />
  <sodipodi:namedview
     pagecolor="#ffffff"
     bordercolor="#666666"
     borderopacity="1"
     objecttolerance="10"
     gridtolerance="10"
     guidetolerance="10"
     inkscape:pageopacity="0"
     inkscape:pageshadow="2"
     inkscape:window-width="1920"
     inkscape:window-height="1017"
     id="namedview74"
     showgrid="false"
     showguides="true"
     inkscape:guide-bbox="true"
     inkscape:zoom="3.1559612"
     inkscape:cx="96.446713"
     inkscape:cy="209.86275"
     inkscape:window-x="-8"
     inkscape:window-y="-8"
     inkscape:window-maximized="1"
     inkscape:current-layer="svg72">
    <sodipodi:guide
       position="10.1442,45.648882"
       orientation="1,0"
       id="guide919"
       inkscape:locked="false" />
    <sodipodi:guide
       position="57.427898,50.217973"
       orientation="1,0"
       id="guide921"
       inkscape:locked="false" />
  </sodipodi:namedview>
  <path
     style="fill:#dcdcdc"
     inkscape:connector-curvature="0"
     id="path2"
     d="M 0,0 H 67.47 V 100.541 H 0 Z m 0,0" />
  <rect
     style="fill:#999999;paint-order:stroke markers fill"
     id="rect4"
     rx="2.3399999"
     ry="2.3399999"
     y="8.9180059"
     x="2.1169999"
     height="12.331"
     width="63.235001" />
  <g
     style="font-weight:400;letter-spacing:0;word-spacing:0;fill:#333333"
     id="g14"
     word-spacing="0"
     letter-spacing="0"
     font-weight="400"
     transform="translate(-26.543,-161.307)">
    <g
       id="g8"
       style="line-height:1.25">
      <path
         inkscape:connector-curvature="0"
         id="path6"
         aria-label="♫"
         font-size="3.528"
         d="m 68.745,258.177 -1.63,0.115 v -2.06 q 0,-0.23 0.065,-0.333 0.063,-0.104 0.22,-0.147 0.153,-0.043 0.347,-0.002 0.224,0.047 0.357,0.19 0.133,0.146 0.133,0.33 0,0.186 -0.158,0.286 -0.158,0.103 -0.407,0.05 -0.082,-0.018 -0.144,-0.044 -0.063,-0.027 -0.205,-0.11 v 1.345 l 1.22,-0.085 v -1.554 q 0,-0.225 0.065,-0.337 0.065,-0.11 0.225,-0.151 0.16,-0.04 0.348,0 0.224,0.047 0.355,0.19 0.129,0.14 0.129,0.325 0,0.195 -0.156,0.294 -0.156,0.1 -0.407,0.047 -0.16,-0.034 -0.357,-0.16 z"
         style="font-size:3.52800012px;font-family:Arial;-inkscape-font-specification:'Arial, Normal';font-variant-ligatures:normal;font-variant-caps:normal;font-variant-numeric:normal;font-feature-settings:normal;text-align:start" />
    </g>
    <g
       id="g12"
       style="line-height:1.25">
      <path
         inkscape:connector-curvature="0"
         id="path10"
         font-size="3.528"
         aria-label="IMPROMPT"
         style="font-size:3.52800012px;font-family:Sniglet;-inkscape-font-specification:'Sniglet, Normal';font-variant-ligatures:normal;font-variant-caps:normal;font-variant-numeric:normal;font-feature-settings:normal;text-align:start;stroke-width:0.26499999"
         d="m 50.727,258.005 q -0.007,-0.127 -0.01,-0.265 0,-0.137 -0.004,-0.296 -0.004,-0.159 -0.004,-0.342 v -0.417 q 0,-0.25 0.004,-0.426 0.003,-0.18 0.02,-0.293 0.018,-0.113 0.054,-0.166 0.038,-0.053 0.102,-0.053 0.032,0 0.06,0.007 0.028,0.007 0.05,0.032 0.02,0.02 0.035,0.067 0.017,0.042 0.02,0.113 0.008,0.127 0.011,0.225 l 0.007,0.198 q 0.004,0.095 0.004,0.201 v 0.536 q 0,0.145 -0.004,0.286 l -0.007,0.286 q -0.003,0.144 -0.01,0.303 -0.004,0.085 -0.018,0.13 -0.014,0.047 -0.035,0.071 -0.021,0.025 -0.05,0.028 -0.028,0.007 -0.063,0.007 -0.064,0 -0.11,-0.042 -0.045,-0.046 -0.052,-0.19 z m 1.753,-0.381 q -0.162,-0.357 -0.289,-0.688 -0.123,-0.335 -0.211,-0.596 -0.082,0.437 -0.138,0.882 -0.053,0.444 -0.138,0.85 -0.02,0.092 -0.077,0.123 -0.057,0.028 -0.096,0.028 -0.063,0 -0.102,-0.038 -0.035,-0.04 -0.035,-0.1 0,-0.08 0.018,-0.246 0.02,-0.17 0.049,-0.381 0.032,-0.212 0.07,-0.445 l 0.078,-0.448 q 0.042,-0.218 0.078,-0.395 0.039,-0.176 0.067,-0.271 0.046,-0.163 0.187,-0.163 0.084,0 0.144,0.085 0.06,0.081 0.127,0.254 0.07,0.17 0.166,0.43 0.099,0.262 0.254,0.614 0.152,-0.352 0.244,-0.61 l 0.158,-0.43 q 0.067,-0.173 0.127,-0.254 0.06,-0.085 0.149,-0.085 0.08,0 0.123,0.042 0.042,0.039 0.063,0.12 0.025,0.099 0.06,0.275 0.036,0.173 0.075,0.388 0.042,0.212 0.08,0.445 0.04,0.233 0.071,0.444 0.032,0.212 0.05,0.385 0.02,0.17 0.02,0.261 0,0.056 -0.038,0.092 -0.039,0.031 -0.099,0.031 -0.039,0 -0.095,-0.028 -0.057,-0.032 -0.078,-0.123 -0.042,-0.201 -0.077,-0.417 l -0.064,-0.433 -0.056,-0.441 q -0.028,-0.223 -0.06,-0.441 -0.046,0.14 -0.106,0.31 -0.06,0.17 -0.127,0.342 -0.067,0.17 -0.138,0.335 -0.07,0.166 -0.137,0.3 -0.025,0.046 -0.067,0.07 -0.039,0.022 -0.081,0.022 -0.046,0 -0.089,-0.021 -0.038,-0.025 -0.06,-0.074 z m 2.005,0.377 q 0,0.085 -0.017,0.13 -0.014,0.047 -0.039,0.071 -0.021,0.025 -0.053,0.029 -0.028,0.007 -0.056,0.007 -0.096,0 -0.127,-0.043 -0.029,-0.042 -0.04,-0.19 -0.006,-0.078 -0.01,-0.226 l -0.007,-0.353 q 0,-0.204 -0.003,-0.451 v -0.522 q 0,-0.131 0.031,-0.265 0.032,-0.134 0.12,-0.243 0.092,-0.11 0.25,-0.177 0.163,-0.067 0.42,-0.067 0.18,0 0.343,0.039 0.162,0.039 0.286,0.134 0.123,0.095 0.197,0.254 0.074,0.159 0.074,0.395 0,0.247 -0.081,0.41 -0.081,0.162 -0.23,0.257 -0.147,0.095 -0.352,0.134 -0.205,0.039 -0.448,0.039 h -0.12 q -0.06,0 -0.134,-0.007 z m 1.016,-1.485 q 0,-0.236 -0.134,-0.356 -0.13,-0.12 -0.437,-0.12 -0.117,0 -0.201,0.021 -0.081,0.018 -0.134,0.067 -0.053,0.046 -0.081,0.127 -0.025,0.081 -0.025,0.205 v 0.275 q 0,0.151 0.003,0.286 0.082,0.004 0.18,0.004 h 0.19 q 0.107,0 0.22,-0.015 0.116,-0.014 0.208,-0.063 0.091,-0.053 0.151,-0.152 0.06,-0.102 0.06,-0.278 z m 1.452,0.84 -0.103,0.007 h -0.222 q -0.06,0 -0.134,-0.007 v 0.716 q 0,0.113 -0.056,0.14 -0.053,0.026 -0.135,0.026 -0.042,0 -0.067,-0.007 -0.024,-0.004 -0.042,-0.018 -0.014,-0.018 -0.025,-0.05 -0.007,-0.031 -0.01,-0.088 -0.007,-0.063 -0.01,-0.183 l -0.008,-0.318 q 0,-0.194 -0.003,-0.469 v -0.652 q 0,-0.145 0.035,-0.279 0.035,-0.138 0.127,-0.24 0.092,-0.106 0.247,-0.17 0.159,-0.063 0.402,-0.063 0.173,0 0.335,0.039 0.166,0.039 0.293,0.134 0.127,0.095 0.205,0.258 0.077,0.162 0.077,0.405 0,0.325 -0.14,0.505 -0.138,0.176 -0.382,0.25 l 0.473,0.65 q 0.063,0.084 0.063,0.172 0,0.07 -0.05,0.11 -0.045,0.042 -0.115,0.042 -0.078,0 -0.135,-0.042 -0.056,-0.046 -0.105,-0.117 z m 0.553,-0.822 q 0,-0.244 -0.148,-0.36 -0.144,-0.12 -0.462,-0.12 -0.116,0 -0.194,0.021 -0.077,0.018 -0.123,0.07 -0.046,0.054 -0.067,0.149 -0.018,0.091 -0.018,0.236 v 0.24 q 0,0.138 0.003,0.25 0.082,0.005 0.18,0.005 h 0.19 q 0.1,0 0.209,-0.011 0.113,-0.014 0.208,-0.064 0.095,-0.052 0.159,-0.148 0.063,-0.099 0.063,-0.268 z m 1.61,1.725 q -0.212,0 -0.399,-0.085 -0.183,-0.085 -0.32,-0.243 -0.139,-0.163 -0.22,-0.395 -0.077,-0.233 -0.077,-0.53 0,-0.278 0.067,-0.511 0.07,-0.233 0.204,-0.402 0.138,-0.17 0.339,-0.261 0.201,-0.096 0.466,-0.096 0.215,0 0.409,0.078 0.194,0.078 0.339,0.233 0.148,0.155 0.232,0.388 0.085,0.233 0.085,0.543 0,0.258 -0.07,0.49 -0.067,0.233 -0.209,0.41 -0.137,0.173 -0.349,0.278 -0.212,0.103 -0.497,0.103 z m 0.007,-0.332 q 0.194,0 0.338,-0.077 0.145,-0.082 0.24,-0.212 0.096,-0.13 0.141,-0.3 0.046,-0.173 0.046,-0.353 0,-0.218 -0.06,-0.388 -0.056,-0.173 -0.155,-0.29 -0.099,-0.115 -0.23,-0.175 -0.13,-0.064 -0.278,-0.064 -0.176,0 -0.31,0.074 -0.13,0.074 -0.223,0.201 -0.088,0.127 -0.134,0.3 -0.045,0.17 -0.045,0.363 0,0.209 0.052,0.381 0.053,0.17 0.142,0.29 0.091,0.12 0.215,0.187 0.123,0.063 0.26,0.063 z m 2.384,-0.303 q -0.163,-0.357 -0.29,-0.688 -0.123,-0.335 -0.211,-0.596 -0.081,0.437 -0.138,0.882 -0.053,0.444 -0.137,0.85 -0.022,0.092 -0.078,0.123 -0.057,0.028 -0.095,0.028 -0.064,0 -0.103,-0.038 -0.035,-0.04 -0.035,-0.1 0,-0.08 0.018,-0.246 0.02,-0.17 0.05,-0.381 0.03,-0.212 0.07,-0.445 0.038,-0.232 0.077,-0.448 l 0.078,-0.395 q 0.039,-0.176 0.067,-0.271 0.046,-0.163 0.187,-0.163 0.085,0 0.145,0.085 0.06,0.081 0.127,0.254 0.07,0.17 0.165,0.43 0.1,0.262 0.254,0.614 0.152,-0.352 0.244,-0.61 l 0.158,-0.43 q 0.068,-0.173 0.127,-0.254 0.06,-0.085 0.149,-0.085 0.08,0 0.123,0.042 0.042,0.039 0.064,0.12 0.024,0.099 0.06,0.275 0.035,0.173 0.074,0.388 0.042,0.212 0.08,0.445 0.04,0.233 0.071,0.444 0.032,0.212 0.05,0.385 0.02,0.17 0.02,0.261 0,0.056 -0.038,0.092 -0.039,0.031 -0.099,0.031 -0.038,0 -0.095,-0.028 -0.056,-0.032 -0.078,-0.123 -0.042,-0.201 -0.077,-0.417 l -0.064,-0.433 -0.056,-0.441 q -0.028,-0.223 -0.06,-0.441 -0.046,0.14 -0.106,0.31 -0.06,0.17 -0.127,0.342 -0.067,0.17 -0.137,0.335 -0.071,0.166 -0.138,0.3 -0.025,0.046 -0.067,0.07 -0.039,0.022 -0.081,0.022 -0.046,0 -0.088,-0.021 -0.04,-0.025 -0.06,-0.074 z m 2.005,0.377 q 0,0.085 -0.018,0.13 -0.014,0.047 -0.039,0.071 -0.021,0.025 -0.053,0.029 -0.028,0.007 -0.056,0.007 -0.096,0 -0.127,-0.043 -0.028,-0.042 -0.04,-0.19 -0.006,-0.078 -0.01,-0.226 l -0.007,-0.353 q 0,-0.204 -0.003,-0.451 v -0.522 q 0,-0.131 0.032,-0.265 0.031,-0.134 0.12,-0.243 0.091,-0.11 0.25,-0.177 0.162,-0.067 0.42,-0.067 0.18,0 0.342,0.039 0.162,0.039 0.286,0.134 0.123,0.095 0.197,0.254 0.074,0.159 0.074,0.395 0,0.247 -0.08,0.41 -0.082,0.162 -0.23,0.257 -0.148,0.095 -0.353,0.134 -0.205,0.039 -0.448,0.039 h -0.12 q -0.06,0 -0.134,-0.007 z m 1.016,-1.485 q 0,-0.236 -0.135,-0.356 -0.13,-0.12 -0.437,-0.12 -0.116,0 -0.201,0.021 -0.081,0.018 -0.134,0.067 -0.053,0.046 -0.081,0.127 -0.025,0.081 -0.025,0.205 v 0.275 q 0,0.151 0.004,0.286 0.08,0.004 0.18,0.004 h 0.19 q 0.106,0 0.219,-0.015 0.116,-0.014 0.208,-0.063 0.092,-0.053 0.152,-0.152 0.06,-0.102 0.06,-0.278 z m 1.974,-0.437 q -0.1,0.007 -0.212,0.01 l -0.243,0.007 0.007,0.18 0.007,0.166 q 0.003,0.085 0.003,0.176 0.004,0.092 0.004,0.205 v 0.307 q 0,0.144 -0.004,0.293 l -0.007,0.292 q -0.003,0.149 -0.01,0.307 -0.004,0.085 -0.018,0.13 -0.01,0.047 -0.032,0.072 -0.02,0.024 -0.05,0.028 -0.027,0.007 -0.063,0.007 -0.063,0 -0.109,-0.043 -0.042,-0.045 -0.05,-0.19 -0.007,-0.127 -0.01,-0.268 0,-0.141 -0.003,-0.304 -0.004,-0.162 -0.004,-0.349 v -0.758 q 0.004,-0.145 0.01,-0.25 h -0.144 q -0.148,0 -0.254,-0.005 -0.102,-0.004 -0.17,-0.017 -0.066,-0.018 -0.098,-0.053 -0.028,-0.036 -0.028,-0.1 0,-0.03 0.007,-0.055 0.007,-0.029 0.031,-0.05 0.025,-0.025 0.067,-0.039 0.046,-0.014 0.117,-0.02 l 0.12,-0.008 0.106,-0.007 q 0.053,-0.004 0.109,-0.004 h 0.13 q 0.209,0 0.392,0.004 0.187,0.004 0.395,0.014 0.085,0.007 0.13,0.021 0.047,0.011 0.071,0.032 0.025,0.021 0.029,0.05 0.007,0.028 0.007,0.063 0,0.064 -0.046,0.106 -0.043,0.042 -0.187,0.05 z" />
    </g>
  </g>
  <path
     style="fill:none;stroke:#000000;stroke-width:0.132"
     inkscape:connector-curvature="0"
     id="path16"
     d="m 24.456,35.182 h 3.039" />
  <g
     id="g20"
     style="line-height:1.25;-inkscape-font-specification:'Sniglet, Normal';font-variant-ligatures:normal;font-variant-caps:normal;font-variant-numeric:normal;font-feature-settings:normal;text-align:start"
     transform="translate(-26.543,-161.307)">
    <path
       inkscape:connector-curvature="0"
       id="path18"
       word-spacing="0"
       letter-spacing="0"
       font-size="4.233"
       font-weight="400"
       aria-label="BIG-BUTTON-SEQ"
       style="font-weight:400;font-size:4.2329998px;font-family:Sniglet;-inkscape-font-specification:'Sniglet, Normal';font-variant-ligatures:normal;font-variant-caps:normal;font-variant-numeric:normal;font-feature-settings:normal;text-align:start;letter-spacing:0;word-spacing:0;stroke-width:0.26499999"
       d="m 44.688,167.71 q -0.237,0 -0.38,-0.038 -0.145,-0.038 -0.225,-0.105 -0.076,-0.072 -0.106,-0.174 -0.025,-0.102 -0.038,-0.229 -0.013,-0.148 -0.021,-0.389 -0.004,-0.246 -0.004,-0.508 V 166 q 0.004,-0.144 0.004,-0.28 l 0.008,-0.257 q 0.004,-0.119 0.013,-0.204 0.013,-0.13 0.042,-0.237 0.03,-0.105 0.11,-0.182 0.085,-0.076 0.233,-0.114 0.153,-0.042 0.402,-0.042 0.568,0 0.847,0.211 0.284,0.208 0.284,0.593 0,0.199 -0.09,0.368 -0.084,0.17 -0.296,0.254 0.119,0.022 0.216,0.09 0.098,0.067 0.165,0.164 0.072,0.093 0.106,0.212 0.038,0.114 0.038,0.233 0,0.152 -0.063,0.313 -0.064,0.157 -0.216,0.288 -0.152,0.131 -0.406,0.216 -0.25,0.085 -0.623,0.085 z m 0.885,-0.914 q 0,-0.152 -0.072,-0.245 -0.068,-0.094 -0.178,-0.14 -0.11,-0.05 -0.245,-0.068 -0.136,-0.017 -0.271,-0.017 h -0.22 q -0.115,0 -0.212,0.004 l -0.009,0.182 -0.008,0.178 v 0.23 q 0,0.114 0.017,0.19 0.017,0.076 0.063,0.123 0.047,0.047 0.132,0.068 0.088,0.017 0.224,0.017 0.372,0 0.576,-0.132 0.203,-0.13 0.203,-0.39 z m -0.783,-1.71 q -0.14,0 -0.229,0.025 -0.084,0.021 -0.131,0.06 -0.042,0.038 -0.06,0.093 -0.012,0.055 -0.012,0.118 v 0.593 q 0.06,0.004 0.123,0.004 h 0.127 q 0.152,0 0.296,-0.021 0.148,-0.022 0.267,-0.072 0.118,-0.051 0.19,-0.14 0.072,-0.089 0.072,-0.229 0,-0.19 -0.156,-0.309 -0.153,-0.122 -0.487,-0.122 z m 1.65,2.362 q -0.008,-0.152 -0.012,-0.317 0,-0.166 -0.004,-0.356 -0.004,-0.19 -0.004,-0.41 v -0.5 q 0,-0.3 0.004,-0.512 0.004,-0.216 0.025,-0.352 0.022,-0.135 0.064,-0.199 0.046,-0.063 0.123,-0.063 0.038,0 0.072,0.008 0.034,0.008 0.059,0.038 0.025,0.025 0.042,0.08 0.021,0.051 0.026,0.136 0.008,0.152 0.012,0.27 l 0.009,0.238 q 0.004,0.114 0.004,0.241 v 0.643 q 0,0.174 -0.004,0.343 l -0.009,0.343 q -0.004,0.174 -0.012,0.364 -0.005,0.102 -0.022,0.157 -0.016,0.055 -0.042,0.085 -0.025,0.03 -0.06,0.034 -0.033,0.008 -0.075,0.008 -0.077,0 -0.132,-0.051 -0.055,-0.055 -0.063,-0.229 z m 2.262,-2.735 q 0.14,0 0.288,0.026 0.148,0.025 0.27,0.076 0.124,0.047 0.204,0.118 0.08,0.072 0.08,0.166 0,0.097 -0.05,0.148 -0.051,0.05 -0.127,0.05 -0.072,0 -0.136,-0.025 l -0.135,-0.055 q -0.076,-0.03 -0.182,-0.055 -0.106,-0.025 -0.267,-0.025 -0.178,0 -0.334,0.084 -0.153,0.08 -0.271,0.229 -0.119,0.144 -0.187,0.343 -0.067,0.199 -0.067,0.432 0,0.283 0.072,0.49 0.072,0.208 0.186,0.344 0.118,0.135 0.262,0.203 0.149,0.063 0.297,0.063 0.241,0 0.38,-0.067 0.145,-0.072 0.23,-0.182 0.004,-0.09 0.004,-0.212 v -0.267 q 0,-0.055 -0.009,-0.084 -0.008,-0.034 -0.042,-0.051 -0.034,-0.017 -0.102,-0.021 -0.063,-0.004 -0.173,-0.004 -0.136,0 -0.22,-0.034 -0.085,-0.038 -0.085,-0.157 0,-0.085 0.042,-0.135 0.047,-0.055 0.186,-0.064 h 0.08 q 0.06,-0.004 0.124,-0.004 h 0.232 q 0.127,0 0.204,0.025 0.076,0.022 0.135,0.102 0.03,0.042 0.034,0.148 0.008,0.106 0.008,0.246 v 1.092 q 0,0.114 -0.063,0.17 -0.06,0.054 -0.14,0.054 -0.097,0 -0.16,-0.05 -0.06,-0.047 -0.06,-0.153 v -0.165 q -0.11,0.127 -0.262,0.182 -0.149,0.055 -0.377,0.055 -0.233,0 -0.457,-0.093 -0.225,-0.093 -0.398,-0.275 -0.174,-0.186 -0.284,-0.462 -0.106,-0.279 -0.106,-0.647 0,-0.369 0.106,-0.656 0.11,-0.288 0.296,-0.487 0.187,-0.204 0.436,-0.31 0.25,-0.105 0.538,-0.105 z m 2.81,1.939 -0.449,0.017 q -0.254,0.004 -0.6,0.004 -0.145,0 -0.246,-0.004 -0.102,-0.004 -0.165,-0.021 -0.064,-0.021 -0.094,-0.064 -0.03,-0.042 -0.03,-0.118 0,-0.038 0.01,-0.068 0.008,-0.034 0.037,-0.06 0.03,-0.025 0.08,-0.041 0.056,-0.022 0.14,-0.03 l 0.11,-0.008 q 0.051,-0.004 0.098,-0.004 0.047,-0.004 0.097,-0.004 h 0.127 q 0.229,0 0.44,0.004 0.212,0 0.44,0.013 0.102,0.008 0.158,0.025 0.055,0.013 0.084,0.038 0.03,0.026 0.034,0.06 0.009,0.033 0.009,0.076 0,0.076 -0.055,0.127 -0.051,0.05 -0.225,0.059 z m 1.395,1.058 q -0.237,0 -0.381,-0.038 -0.144,-0.038 -0.225,-0.105 -0.076,-0.072 -0.105,-0.174 -0.026,-0.102 -0.038,-0.229 -0.013,-0.148 -0.022,-0.389 -0.004,-0.246 -0.004,-0.508 V 166 q 0.004,-0.144 0.004,-0.28 l 0.009,-0.257 q 0.004,-0.119 0.013,-0.204 0.012,-0.13 0.042,-0.237 0.03,-0.105 0.11,-0.182 0.085,-0.076 0.233,-0.114 0.152,-0.042 0.402,-0.042 0.567,0 0.847,0.211 0.283,0.208 0.283,0.593 0,0.199 -0.089,0.368 -0.084,0.17 -0.296,0.254 0.119,0.022 0.216,0.09 0.097,0.067 0.165,0.164 0.072,0.093 0.106,0.212 0.038,0.114 0.038,0.233 0,0.152 -0.064,0.313 -0.063,0.157 -0.215,0.288 -0.153,0.131 -0.407,0.216 -0.25,0.085 -0.622,0.085 z m 0.885,-0.914 q 0,-0.152 -0.072,-0.245 -0.068,-0.094 -0.178,-0.14 -0.11,-0.05 -0.246,-0.068 -0.135,-0.017 -0.27,-0.017 h -0.22 q -0.115,0 -0.212,0.004 l -0.009,0.182 -0.008,0.178 v 0.23 q 0,0.114 0.016,0.19 0.017,0.076 0.064,0.123 0.047,0.047 0.131,0.068 0.09,0.017 0.225,0.017 0.372,0 0.575,-0.132 0.204,-0.13 0.204,-0.39 z m -0.784,-1.71 q -0.14,0 -0.228,0.025 -0.085,0.021 -0.131,0.06 -0.043,0.038 -0.06,0.093 -0.012,0.055 -0.012,0.118 v 0.593 q 0.059,0.004 0.122,0.004 h 0.127 q 0.153,0 0.297,-0.021 0.148,-0.022 0.266,-0.072 0.119,-0.051 0.19,-0.14 0.073,-0.089 0.073,-0.229 0,-0.19 -0.157,-0.309 -0.152,-0.122 -0.487,-0.122 z m 2.608,2.696 q -0.482,0 -0.707,-0.262 -0.089,-0.102 -0.152,-0.258 -0.06,-0.161 -0.097,-0.415 -0.034,-0.254 -0.051,-0.627 -0.013,-0.376 -0.013,-0.914 0,-0.174 0.009,-0.284 0.008,-0.114 0.033,-0.177 0.026,-0.068 0.064,-0.094 0.042,-0.025 0.106,-0.025 0.123,0 0.173,0.11 0.051,0.11 0.051,0.381 0,0.093 -0.004,0.165 v 0.148 q 0,0.072 -0.004,0.161 v 0.216 q 0,0.423 0.025,0.703 0.03,0.28 0.097,0.449 0.068,0.165 0.183,0.232 0.118,0.068 0.292,0.068 0.182,0 0.3,-0.072 0.123,-0.076 0.195,-0.25 0.072,-0.177 0.102,-0.47 0.033,-0.292 0.033,-0.728 0,-0.19 -0.004,-0.326 v -0.245 q 0,-0.157 0.009,-0.263 0.012,-0.105 0.034,-0.165 0.025,-0.063 0.067,-0.089 0.043,-0.025 0.106,-0.025 0.064,0 0.106,0.025 0.042,0.026 0.068,0.09 0.025,0.063 0.034,0.177 0.008,0.11 0.008,0.288 0,0.745 -0.047,1.228 -0.046,0.478 -0.165,0.757 -0.118,0.276 -0.326,0.386 -0.203,0.105 -0.525,0.105 z m 3.214,-2.645 q -0.118,0.008 -0.253,0.012 l -0.292,0.008 0.008,0.216 0.009,0.2 q 0.004,0.1 0.004,0.21 0.004,0.111 0.004,0.246 v 0.369 q 0,0.173 -0.004,0.351 l -0.009,0.351 q -0.004,0.178 -0.012,0.369 -0.005,0.101 -0.022,0.156 -0.012,0.055 -0.038,0.085 -0.025,0.03 -0.059,0.034 -0.034,0.008 -0.076,0.008 -0.076,0 -0.131,-0.05 -0.051,-0.056 -0.06,-0.23 -0.008,-0.152 -0.012,-0.321 0,-0.17 -0.004,-0.364 -0.005,-0.195 -0.005,-0.42 v -0.909 q 0.005,-0.174 0.013,-0.301 h -0.174 q -0.177,0 -0.304,-0.004 -0.123,-0.004 -0.204,-0.021 -0.08,-0.021 -0.118,-0.064 -0.034,-0.042 -0.034,-0.118 0,-0.038 0.009,-0.068 0.008,-0.034 0.038,-0.06 0.03,-0.029 0.08,-0.046 0.055,-0.017 0.14,-0.025 l 0.144,-0.008 0.127,-0.008 q 0.063,-0.004 0.13,-0.004 h 0.158 q 0.25,0 0.47,0.004 0.224,0.004 0.474,0.017 0.101,0.008 0.156,0.025 0.055,0.013 0.085,0.038 0.03,0.026 0.034,0.06 0.008,0.033 0.008,0.076 0,0.076 -0.055,0.127 -0.05,0.05 -0.224,0.059 z m 2.308,0 q -0.119,0.008 -0.254,0.012 l -0.293,0.008 0.009,0.216 0.008,0.2 q 0.005,0.1 0.005,0.21 0.004,0.111 0.004,0.246 v 0.369 q 0,0.173 -0.004,0.351 l -0.009,0.351 q -0.004,0.178 -0.013,0.369 -0.004,0.101 -0.02,0.156 -0.013,0.055 -0.039,0.085 -0.025,0.03 -0.059,0.034 -0.034,0.008 -0.076,0.008 -0.076,0 -0.131,-0.05 -0.051,-0.056 -0.06,-0.23 -0.008,-0.152 -0.012,-0.321 0,-0.17 -0.005,-0.364 -0.004,-0.195 -0.004,-0.42 v -0.909 q 0.004,-0.174 0.013,-0.301 h -0.174 q -0.178,0 -0.305,-0.004 -0.122,-0.004 -0.203,-0.021 -0.08,-0.021 -0.118,-0.064 -0.034,-0.042 -0.034,-0.118 0,-0.038 0.008,-0.068 0.009,-0.034 0.038,-0.06 0.03,-0.029 0.08,-0.046 0.056,-0.017 0.14,-0.025 l 0.145,-0.008 0.127,-0.008 q 0.063,-0.004 0.13,-0.004 h 0.157 q 0.25,0 0.47,0.004 0.225,0.004 0.474,0.017 0.102,0.008 0.157,0.025 0.055,0.013 0.085,0.038 0.03,0.026 0.034,0.06 0.008,0.033 0.008,0.076 0,0.076 -0.055,0.127 -0.05,0.05 -0.224,0.059 z m 1.579,2.616 q -0.254,0 -0.478,-0.102 -0.22,-0.101 -0.385,-0.292 -0.165,-0.195 -0.263,-0.474 -0.093,-0.28 -0.093,-0.635 0,-0.334 0.08,-0.614 0.085,-0.28 0.246,-0.482 0.165,-0.204 0.406,-0.314 0.242,-0.114 0.56,-0.114 0.257,0 0.49,0.093 0.233,0.093 0.407,0.28 0.177,0.186 0.28,0.465 0.1,0.28 0.1,0.652 0,0.31 -0.084,0.589 -0.08,0.279 -0.25,0.49 -0.165,0.208 -0.419,0.335 -0.254,0.123 -0.597,0.123 z m 0.009,-0.398 q 0.233,0 0.406,-0.093 0.174,-0.098 0.288,-0.254 0.114,-0.157 0.17,-0.36 0.054,-0.207 0.054,-0.423 0,-0.263 -0.072,-0.466 -0.067,-0.207 -0.186,-0.347 -0.118,-0.14 -0.275,-0.212 -0.157,-0.076 -0.334,-0.076 -0.212,0 -0.373,0.089 -0.157,0.089 -0.267,0.241 -0.106,0.153 -0.16,0.36 -0.056,0.203 -0.056,0.436 0,0.25 0.064,0.457 0.063,0.203 0.17,0.347 0.11,0.144 0.257,0.225 0.149,0.076 0.314,0.076 z m 3.444,0.157 q -0.136,-0.187 -0.259,-0.369 l -0.258,-0.406 q -0.135,-0.22 -0.313,-0.487 -0.174,-0.27 -0.42,-0.63 v 0.57 q 0,0.25 -0.004,0.466 l -0.008,0.407 q -0.004,0.19 -0.013,0.38 -0.004,0.102 -0.02,0.157 -0.014,0.055 -0.039,0.085 -0.025,0.03 -0.06,0.034 -0.029,0.008 -0.071,0.008 -0.076,0 -0.127,-0.05 -0.051,-0.056 -0.06,-0.23 -0.02,-0.465 -0.025,-0.93 v -0.97 q 0,-0.284 0.004,-0.445 0.009,-0.16 0.03,-0.24 0.025,-0.081 0.063,-0.103 0.043,-0.02 0.11,-0.02 0.068,0 0.178,0.105 0.11,0.102 0.242,0.271 0.13,0.17 0.279,0.39 0.152,0.22 0.3,0.452 0.149,0.233 0.284,0.462 l 0.254,0.415 q -0.004,-0.2 -0.004,-0.436 v -0.534 q 0,-0.334 0.004,-0.55 0.004,-0.22 0.021,-0.347 0.022,-0.127 0.064,-0.178 0.042,-0.05 0.118,-0.05 0.072,0 0.127,0.046 0.055,0.046 0.064,0.216 l 0.013,0.27 0.008,0.238 q 0.004,0.114 0.004,0.241 v 0.644 q 0,0.173 -0.004,0.342 l -0.008,0.343 q -0.005,0.174 -0.013,0.364 -0.004,0.102 -0.021,0.157 -0.013,0.055 -0.038,0.085 -0.026,0.03 -0.06,0.034 -0.03,0.008 -0.072,0.008 -0.072,0 -0.122,-0.043 -0.051,-0.042 -0.149,-0.173 z m 2.408,-0.86 -0.45,0.017 q -0.253,0.004 -0.6,0.004 -0.144,0 -0.246,-0.004 -0.101,-0.004 -0.165,-0.021 -0.063,-0.021 -0.093,-0.064 -0.03,-0.042 -0.03,-0.118 0,-0.038 0.009,-0.068 0.008,-0.034 0.038,-0.06 0.03,-0.025 0.08,-0.041 0.055,-0.022 0.14,-0.03 l 0.11,-0.008 q 0.051,-0.004 0.098,-0.004 0.046,-0.004 0.097,-0.004 h 0.127 q 0.229,0 0.44,0.004 0.212,0 0.44,0.013 0.102,0.008 0.157,0.025 0.055,0.013 0.085,0.038 0.03,0.026 0.034,0.06 0.008,0.033 0.008,0.076 0,0.076 -0.055,0.127 -0.05,0.05 -0.224,0.059 z m 1.652,-1.93 q 0.12,0 0.272,0.021 0.156,0.017 0.292,0.068 0.135,0.046 0.228,0.127 0.093,0.076 0.093,0.19 0,0.068 -0.038,0.114 -0.038,0.047 -0.122,0.047 -0.064,0 -0.132,-0.025 -0.063,-0.026 -0.148,-0.051 -0.08,-0.03 -0.19,-0.055 -0.106,-0.026 -0.25,-0.026 -0.28,0 -0.415,0.102 -0.131,0.097 -0.131,0.271 0,0.119 0.06,0.199 0.058,0.08 0.156,0.14 0.101,0.055 0.224,0.093 0.127,0.038 0.258,0.072 0.148,0.038 0.292,0.093 0.149,0.055 0.263,0.144 0.114,0.089 0.182,0.224 0.072,0.136 0.072,0.343 0,0.216 -0.08,0.39 -0.081,0.169 -0.22,0.292 -0.14,0.118 -0.335,0.186 -0.195,0.063 -0.423,0.063 -0.127,0 -0.297,-0.025 -0.17,-0.021 -0.322,-0.076 -0.152,-0.06 -0.258,-0.153 -0.106,-0.097 -0.106,-0.237 0,-0.084 0.043,-0.135 0.046,-0.05 0.135,-0.05 0.072,0 0.119,0.029 0.046,0.025 0.08,0.059 0.127,0.11 0.288,0.148 0.16,0.038 0.33,0.038 0.098,0 0.203,-0.012 0.11,-0.017 0.2,-0.064 0.088,-0.047 0.148,-0.131 0.059,-0.09 0.059,-0.237 0,-0.136 -0.055,-0.22 -0.051,-0.09 -0.14,-0.149 -0.089,-0.059 -0.212,-0.097 -0.118,-0.038 -0.258,-0.076 -0.156,-0.042 -0.309,-0.093 -0.152,-0.051 -0.27,-0.136 -0.12,-0.089 -0.195,-0.22 -0.072,-0.135 -0.072,-0.343 0,-0.207 0.076,-0.364 0.076,-0.156 0.207,-0.262 0.131,-0.106 0.31,-0.161 0.181,-0.055 0.389,-0.055 z m 1.457,2.345 q -0.008,-0.135 -0.017,-0.368 -0.008,-0.233 -0.008,-0.479 v -0.287 l 0.008,-0.31 q 0.009,-0.313 0.038,-0.49 0.034,-0.178 0.127,-0.267 0.098,-0.09 0.271,-0.11 0.174,-0.022 0.462,-0.022 h 0.089 q 0.088,0 0.211,0.004 0.123,0 0.254,0.004 l 0.225,0.008 q 0.093,0.008 0.148,0.026 0.059,0.013 0.089,0.038 0.03,0.021 0.038,0.055 0.008,0.03 0.008,0.068 0,0.097 -0.055,0.144 -0.055,0.042 -0.224,0.055 -0.085,0.008 -0.25,0.012 h -0.33 q -0.17,0 -0.305,0.004 h -0.17 q -0.11,0.004 -0.156,0.051 -0.042,0.042 -0.042,0.208 l 0.004,0.186 q 0.008,0.144 0.008,0.406 h 0.352 q 0.224,0 0.364,0.008 0.144,0.004 0.22,0.026 0.08,0.02 0.11,0.067 0.03,0.047 0.03,0.123 0,0.038 -0.009,0.072 -0.004,0.03 -0.034,0.055 -0.03,0.021 -0.084,0.038 -0.055,0.013 -0.157,0.021 -0.123,0.008 -0.233,0.013 h -0.567 v 0.517 l 0.008,0.143 q 0.005,0.068 0.017,0.115 0.017,0.046 0.055,0.076 0.043,0.03 0.119,0.042 0.08,0.013 0.212,0.013 h 0.91 q 0.148,0 0.186,0.055 0.038,0.055 0.038,0.148 0,0.076 -0.034,0.119 -0.034,0.038 -0.165,0.055 -0.127,0.02 -0.385,0.025 -0.254,0.004 -0.703,0.004 -0.19,0 -0.313,-0.034 -0.123,-0.034 -0.199,-0.114 -0.076,-0.08 -0.114,-0.208 -0.034,-0.13 -0.047,-0.317 z m 3.35,0.686 q -0.254,0 -0.478,-0.102 -0.22,-0.101 -0.386,-0.292 -0.165,-0.195 -0.262,-0.474 -0.093,-0.28 -0.093,-0.635 0,-0.334 0.08,-0.614 0.085,-0.28 0.246,-0.482 0.165,-0.204 0.406,-0.314 0.241,-0.114 0.559,-0.114 0.258,0 0.49,0.093 0.234,0.093 0.407,0.28 0.178,0.186 0.28,0.465 0.101,0.28 0.101,0.652 0,0.305 -0.08,0.576 -0.076,0.27 -0.237,0.482 l 0.241,0.2 q 0.047,0.038 0.085,0.097 0.042,0.055 0.042,0.127 0,0.085 -0.068,0.135 -0.067,0.051 -0.16,0.051 -0.119,0 -0.25,-0.118 l -0.22,-0.19 q -0.144,0.084 -0.318,0.13 -0.173,0.047 -0.385,0.047 z m 0.008,-0.398 q 0.233,0 0.407,-0.093 0.173,-0.098 0.288,-0.254 0.114,-0.157 0.169,-0.36 0.055,-0.207 0.055,-0.423 0,-0.263 -0.072,-0.466 -0.068,-0.207 -0.186,-0.347 -0.119,-0.14 -0.275,-0.212 -0.157,-0.076 -0.335,-0.076 -0.211,0 -0.372,0.089 -0.157,0.089 -0.267,0.241 -0.106,0.153 -0.16,0.36 -0.056,0.203 -0.056,0.436 0,0.25 0.064,0.457 0.063,0.203 0.169,0.347 0.11,0.144 0.258,0.225 0.148,0.076 0.313,0.076 z" />
  </g>
  <path
     inkscape:connector-curvature="0"
     id="path22"
     word-spacing="0"
     letter-spacing="0"
     font-size="2.822"
     font-weight="400"
     d="M 6.848,12.093 Q 6.843,11.991 6.84,11.88 6.84,11.77 6.837,11.643 6.834,11.516 6.834,11.37 v -0.687 l -0.17,0.087 q -0.07,0.046 -0.112,0.054 -0.04,0.008 -0.088,0.008 -0.042,0 -0.076,-0.037 -0.03,-0.036 -0.03,-0.087 0,-0.051 0.033,-0.088 0.037,-0.04 0.085,-0.07 0.062,-0.043 0.132,-0.085 0.074,-0.042 0.142,-0.076 0.067,-0.037 0.124,-0.057 0.059,-0.022 0.099,-0.022 0.02,0 0.039,0.006 0.023,0.006 0.04,0.022 0.02,0.017 0.03,0.054 0.015,0.034 0.018,0.093 l 0.008,0.178 0.006,0.15 q 0.002,0.07 0.002,0.149 v 0.426 q 0,0.116 -0.002,0.229 L 7.108,11.845 7.1,12.088 Q 7.097,12.156 7.085,12.192 7.077,12.229 7.06,12.249 7.043,12.269 7.02,12.271 7,12.277 6.973,12.277 q -0.051,0 -0.085,-0.033 -0.034,-0.037 -0.04,-0.153 z m 10.781,-1.53 q -0.101,0 -0.169,0.022 -0.068,0.02 -0.113,0.054 -0.045,0.034 -0.073,0.07 l -0.05,0.07 q -0.024,0.035 -0.052,0.057 -0.025,0.02 -0.065,0.02 -0.067,0 -0.096,-0.034 -0.025,-0.037 -0.025,-0.096 0,-0.124 0.093,-0.231 0.028,-0.034 0.076,-0.07 0.051,-0.04 0.119,-0.071 0.07,-0.031 0.16,-0.051 0.094,-0.023 0.21,-0.023 0.307,0 0.477,0.15 0.169,0.15 0.169,0.42 0,0.054 -0.011,0.119 -0.009,0.065 -0.037,0.135 -0.026,0.07 -0.074,0.147 -0.047,0.076 -0.127,0.155 -0.07,0.07 -0.15,0.13 -0.078,0.06 -0.163,0.119 l -0.178,0.127 q -0.09,0.065 -0.183,0.15 0.09,0.047 0.195,0.061 0.104,0.014 0.234,0.014 0.121,0 0.195,-0.006 0.073,-0.006 0.118,-0.014 l 0.07,-0.014 q 0.026,-0.006 0.054,-0.006 0.105,0 0.105,0.096 0,0.085 -0.07,0.13 -0.071,0.045 -0.17,0.068 -0.099,0.02 -0.203,0.022 -0.105,0.006 -0.172,0.006 -0.037,0 -0.105,-0.006 -0.065,-0.003 -0.14,-0.014 -0.077,-0.011 -0.156,-0.03 -0.076,-0.023 -0.141,-0.057 -0.062,-0.037 -0.102,-0.088 -0.04,-0.053 -0.04,-0.127 0,-0.099 0.071,-0.186 0.074,-0.09 0.18,-0.175 0.108,-0.087 0.232,-0.172 0.124,-0.088 0.232,-0.178 0.107,-0.093 0.177,-0.192 0.074,-0.099 0.074,-0.214 0,-0.144 -0.099,-0.215 -0.096,-0.073 -0.277,-0.073 z m 10.26,0.01 q -0.09,0 -0.132,-0.044 -0.043,-0.048 -0.043,-0.096 0,-0.051 0.048,-0.082 0.048,-0.034 0.127,-0.05 0.08,-0.02 0.18,-0.026 0.102,-0.008 0.207,-0.008 0.087,0 0.195,0.008 0.107,0.006 0.2,0.034 0.093,0.025 0.155,0.079 0.062,0.05 0.062,0.14 0,0.071 -0.053,0.147 -0.054,0.077 -0.125,0.144 -0.07,0.068 -0.14,0.122 l -0.1,0.073 q 0.3,0 0.435,0.15 0.136,0.15 0.136,0.429 0,0.175 -0.065,0.304 -0.062,0.13 -0.17,0.218 -0.104,0.084 -0.242,0.127 -0.136,0.042 -0.28,0.042 -0.118,0 -0.234,-0.02 -0.113,-0.02 -0.203,-0.067 -0.09,-0.051 -0.147,-0.133 -0.053,-0.085 -0.053,-0.209 0,-0.13 0.14,-0.13 0.043,0 0.066,0.023 0.025,0.02 0.042,0.05 0.02,0.029 0.04,0.066 0.02,0.036 0.056,0.067 0.04,0.028 0.101,0.051 0.065,0.02 0.17,0.02 0.082,0 0.16,-0.017 0.08,-0.02 0.142,-0.062 0.062,-0.042 0.099,-0.113 0.039,-0.073 0.039,-0.18 0,-0.21 -0.087,-0.297 -0.085,-0.087 -0.24,-0.087 -0.04,0 -0.074,0.014 -0.034,0.01 -0.067,0.028 l -0.071,0.028 q -0.037,0.011 -0.082,0.011 -0.045,0 -0.079,-0.04 -0.034,-0.041 -0.034,-0.106 0,-0.046 0.043,-0.105 0.045,-0.06 0.12,-0.135 0.08,-0.077 0.19,-0.167 0.11,-0.093 0.246,-0.2 h -0.068 q -0.037,0 -0.076,0.003 h -0.348 q -0.101,-0.003 -0.186,-0.003 z m 11.548,1.11 q -0.002,0.107 -0.002,0.234 0,0.127 -0.009,0.237 -0.005,0.085 -0.04,0.11 -0.03,0.023 -0.087,0.023 -0.05,0 -0.079,-0.02 -0.025,-0.017 -0.04,-0.076 -0.01,-0.062 -0.013,-0.178 -0.003,-0.118 -0.003,-0.316 -0.093,0 -0.178,0.003 -0.085,0.003 -0.164,0.003 -0.118,0 -0.217,-0.006 -0.096,-0.006 -0.166,-0.02 -0.068,-0.017 -0.108,-0.045 -0.036,-0.028 -0.036,-0.073 0,-0.063 0.05,-0.156 0.051,-0.096 0.127,-0.206 0.077,-0.11 0.161,-0.223 0.088,-0.115 0.161,-0.214 l 0.096,-0.124 q 0.065,-0.082 0.138,-0.161 0.074,-0.082 0.147,-0.141 0.074,-0.06 0.124,-0.06 0.048,0 0.085,0.031 0.037,0.031 0.042,0.144 0.012,0.164 0.014,0.345 0.003,0.177 0.003,0.352 v 0.28 q 0.08,0.006 0.127,0.014 0.048,0.008 0.074,0.025 0.025,0.014 0.034,0.037 0.008,0.023 0.008,0.056 0,0.071 -0.065,0.096 -0.065,0.023 -0.183,0.029 z m -0.276,-0.923 -0.212,0.257 -0.146,0.18 q -0.06,0.077 -0.105,0.13 l -0.076,0.096 q 0.13,-0.006 0.265,-0.006 0.139,-0.003 0.274,-0.003 z m 10.524,-0.468 q 0.099,0 0.195,0.006 0.096,0.006 0.17,0.022 0.075,0.014 0.12,0.045 0.048,0.029 0.048,0.077 0,0.053 -0.042,0.093 -0.04,0.04 -0.172,0.04 -0.167,0 -0.265,0.002 -0.096,0 -0.156,0.003 l -0.09,0.006 -0.076,0.006 q -0.04,0.003 -0.062,0.014 -0.02,0.008 -0.031,0.034 -0.009,0.023 -0.012,0.065 -0.002,0.04 -0.002,0.102 v 0.076 q 0.002,0.03 0.002,0.068 0.212,0.008 0.39,0.036 0.18,0.028 0.31,0.099 0.133,0.068 0.206,0.19 0.074,0.12 0.074,0.318 0,0.2 -0.054,0.333 -0.053,0.13 -0.144,0.212 -0.087,0.079 -0.206,0.113 -0.115,0.03 -0.24,0.03 -0.107,0 -0.225,-0.02 -0.119,-0.022 -0.22,-0.078 -0.102,-0.056 -0.17,-0.152 -0.065,-0.1 -0.065,-0.249 0,-0.087 0.043,-0.132 0.045,-0.046 0.101,-0.046 0.048,0 0.09,0.034 0.043,0.031 0.046,0.116 0.002,0.085 0.04,0.138 0.036,0.054 0.092,0.085 0.057,0.03 0.127,0.042 0.07,0.012 0.144,0.012 0.178,0 0.268,-0.102 0.09,-0.102 0.09,-0.316 0,-0.138 -0.064,-0.217 -0.062,-0.082 -0.161,-0.122 -0.096,-0.042 -0.212,-0.053 -0.116,-0.015 -0.22,-0.017 L 49.174,11.199 Q 49.101,11.193 49.084,11.17 49.064,11.142 49.053,11.1 49.042,11.055 49.036,11.007 49.03,10.959 49.027,10.914 v -0.088 q 0,-0.163 0.031,-0.268 0.031,-0.104 0.108,-0.164 0.076,-0.059 0.2,-0.079 0.127,-0.022 0.319,-0.022 z m 9.888,1.185 q 0,-0.237 0.082,-0.452 0.082,-0.217 0.203,-0.38 0.121,-0.167 0.257,-0.263 0.135,-0.099 0.242,-0.099 0.046,0 0.09,0.023 0.049,0.02 0.049,0.065 0,0.04 -0.045,0.087 l -0.142,0.141 q -0.05,0.051 -0.11,0.116 -0.056,0.065 -0.11,0.138 -0.053,0.074 -0.096,0.153 -0.042,0.079 -0.062,0.155 0.096,-0.085 0.215,-0.116 0.118,-0.03 0.209,-0.03 0.113,0 0.217,0.041 0.104,0.04 0.183,0.122 0.08,0.079 0.125,0.2 0.048,0.119 0.048,0.277 0,0.138 -0.046,0.254 -0.045,0.113 -0.13,0.197 -0.081,0.082 -0.2,0.13 -0.116,0.045 -0.26,0.045 -0.14,0 -0.273,-0.034 -0.13,-0.036 -0.229,-0.127 -0.099,-0.09 -0.158,-0.245 -0.06,-0.155 -0.06,-0.398 z m 0.322,0.164 q 0,0.186 0.096,0.282 0.098,0.096 0.293,0.096 0.07,0 0.136,-0.02 0.064,-0.02 0.115,-0.065 0.051,-0.048 0.08,-0.124 0.03,-0.076 0.03,-0.19 0,-0.07 -0.028,-0.132 -0.025,-0.062 -0.076,-0.107 -0.048,-0.048 -0.116,-0.073 -0.068,-0.029 -0.147,-0.029 -0.18,0 -0.282,0.1 -0.101,0.098 -0.101,0.262 z"
     style="font-weight:400;font-size:2.82200003px;line-height:1.25;font-family:Sniglet;-inkscape-font-specification:'Sniglet, Normal';font-variant-ligatures:normal;font-variant-caps:normal;font-variant-numeric:normal;font-feature-settings:normal;text-align:start;letter-spacing:0;word-spacing:0" />
  <g
     id="g26"
     style="line-height:1.25"
     transform="translate(-26.543,-161.307)">
    <path
       inkscape:connector-curvature="0"
       id="path24"
       word-spacing="0"
       letter-spacing="0"
       font-size="2.822"
       font-weight="400"
       aria-label="BANK"
       style="font-weight:400;font-size:2.82200003px;font-family:Sniglet;-inkscape-font-specification:'Sniglet, Normal';font-variant-ligatures:normal;font-variant-caps:normal;font-variant-numeric:normal;font-feature-settings:normal;text-align:start;letter-spacing:0;word-spacing:0;stroke-width:0.26499999"
       d="m 57.596,214.325 q -0.158,0 -0.254,-0.025 -0.096,-0.026 -0.15,-0.07 -0.05,-0.049 -0.07,-0.116 -0.017,-0.068 -0.026,-0.153 -0.008,-0.099 -0.014,-0.26 -0.002,-0.163 -0.002,-0.338 v -0.178 l 0.002,-0.186 0.006,-0.172 q 0.003,-0.08 0.008,-0.136 0.009,-0.087 0.029,-0.158 0.02,-0.07 0.073,-0.121 0.056,-0.051 0.155,-0.076 0.102,-0.029 0.268,-0.029 0.379,0 0.565,0.141 0.189,0.139 0.189,0.396 0,0.132 -0.06,0.245 -0.056,0.113 -0.197,0.17 0.08,0.014 0.144,0.059 0.065,0.045 0.11,0.11 0.048,0.062 0.07,0.14 0.026,0.077 0.026,0.156 0,0.102 -0.042,0.209 -0.043,0.104 -0.144,0.192 -0.102,0.087 -0.271,0.144 -0.167,0.056 -0.415,0.056 z m 0.59,-0.61 q 0,-0.1 -0.048,-0.163 -0.045,-0.062 -0.119,-0.093 -0.073,-0.034 -0.163,-0.045 -0.09,-0.012 -0.181,-0.012 h -0.147 q -0.076,0 -0.14,0.003 l -0.007,0.122 -0.005,0.118 v 0.153 q 0,0.076 0.011,0.127 0.011,0.05 0.043,0.082 0.03,0.03 0.087,0.045 0.06,0.011 0.15,0.011 0.248,0 0.383,-0.087 0.136,-0.088 0.136,-0.26 z m -0.522,-1.14 q -0.093,0 -0.153,0.017 -0.056,0.014 -0.087,0.04 -0.028,0.025 -0.04,0.062 -0.008,0.037 -0.008,0.079 v 0.395 q 0.04,0.003 0.082,0.003 h 0.084 q 0.102,0 0.198,-0.014 0.099,-0.014 0.178,-0.048 0.079,-0.034 0.127,-0.093 0.048,-0.06 0.048,-0.152 0,-0.127 -0.105,-0.207 -0.101,-0.081 -0.324,-0.081 z m 2.241,1.606 q -0.029,-0.067 -0.062,-0.155 l -0.068,-0.189 -0.178,0.006 h -0.41 q -0.098,0 -0.18,-0.003 l -0.065,0.186 q -0.03,0.088 -0.059,0.156 -0.056,0.143 -0.164,0.143 -0.04,0 -0.076,-0.025 -0.034,-0.025 -0.034,-0.073 0,-0.048 0.017,-0.125 0.017,-0.079 0.042,-0.166 l 0.06,-0.183 q 0.03,-0.096 0.059,-0.178 0.028,-0.09 0.079,-0.229 l 0.113,-0.293 0.118,-0.3 q 0.06,-0.15 0.108,-0.26 0.011,-0.027 0.028,-0.061 0.017,-0.037 0.04,-0.068 0.025,-0.031 0.053,-0.054 0.031,-0.022 0.068,-0.022 0.036,0 0.068,0.025 0.03,0.023 0.053,0.057 0.026,0.034 0.042,0.07 0.02,0.037 0.031,0.065 0.046,0.113 0.102,0.26 0.06,0.147 0.116,0.296 0.06,0.15 0.11,0.285 0.05,0.136 0.082,0.229 0.025,0.082 0.056,0.175 0.034,0.093 0.062,0.183 0.028,0.09 0.045,0.17 0.02,0.076 0.02,0.124 0,0.048 -0.037,0.073 -0.033,0.025 -0.073,0.025 -0.05,0 -0.093,-0.033 -0.042,-0.037 -0.073,-0.11 z m -0.5,-0.62 0.136,0.002 q 0.067,0 0.135,0.003 l -0.068,-0.197 -0.065,-0.19 -0.053,-0.166 -0.04,-0.138 q -0.011,-0.037 -0.025,-0.06 -0.014,-0.022 -0.037,-0.022 -0.022,0 -0.037,0.026 -0.014,0.022 -0.025,0.059 -0.034,0.116 -0.096,0.302 l -0.127,0.386 q 0.076,-0.003 0.153,-0.003 0.076,-0.003 0.15,-0.003 z m 2.094,0.632 q -0.09,-0.125 -0.172,-0.246 l -0.172,-0.27 q -0.09,-0.148 -0.21,-0.325 -0.115,-0.181 -0.279,-0.42 v 0.38 q 0,0.167 -0.003,0.31 l -0.005,0.271 q -0.003,0.127 -0.009,0.254 -0.002,0.068 -0.014,0.105 -0.008,0.037 -0.025,0.056 -0.017,0.02 -0.04,0.023 -0.02,0.006 -0.048,0.006 -0.05,0 -0.084,-0.034 -0.034,-0.037 -0.04,-0.152 -0.014,-0.31 -0.017,-0.621 v -0.646 q 0,-0.19 0.003,-0.297 0.006,-0.107 0.02,-0.16 0.017,-0.054 0.042,-0.068 0.028,-0.014 0.074,-0.014 0.045,0 0.118,0.07 0.073,0.068 0.161,0.18 0.087,0.114 0.186,0.26 0.102,0.147 0.2,0.302 0.1,0.156 0.19,0.308 l 0.169,0.277 q -0.003,-0.133 -0.003,-0.291 v -0.356 q 0,-0.223 0.003,-0.367 0.003,-0.146 0.014,-0.231 0.014,-0.085 0.042,-0.119 0.029,-0.033 0.08,-0.033 0.047,0 0.084,0.03 0.037,0.032 0.042,0.144 l 0.009,0.181 0.006,0.158 q 0.002,0.076 0.002,0.161 v 0.429 q 0,0.116 -0.002,0.229 l -0.006,0.228 q -0.003,0.116 -0.009,0.243 -0.002,0.068 -0.014,0.104 -0.008,0.037 -0.025,0.057 -0.017,0.02 -0.04,0.022 -0.02,0.006 -0.048,0.006 -0.047,0 -0.081,-0.028 -0.034,-0.028 -0.1,-0.116 z m 0.677,-0.043 q -0.006,-0.101 -0.009,-0.211 0,-0.11 -0.003,-0.237 -0.002,-0.127 -0.002,-0.274 v -0.333 q 0,-0.2 0.002,-0.342 0.003,-0.144 0.015,-0.234 0.014,-0.09 0.042,-0.133 0.028,-0.042 0.079,-0.042 0.048,0 0.085,0.031 0.036,0.031 0.042,0.144 0.006,0.102 0.008,0.18 l 0.006,0.159 q 0.003,0.076 0.003,0.16 v 0.335 l 0.604,-0.692 q 0.118,-0.135 0.183,-0.178 0.065,-0.045 0.113,-0.045 0.057,0 0.082,0.028 0.028,0.029 0.028,0.071 0,0.017 -0.005,0.034 -0.006,0.017 -0.026,0.048 -0.017,0.028 -0.053,0.073 -0.037,0.043 -0.1,0.11 l -0.391,0.426 0.618,0.881 q 0.022,0.031 0.033,0.065 0.015,0.034 0.015,0.065 0,0.053 -0.031,0.087 -0.029,0.037 -0.102,0.037 -0.06,0 -0.107,-0.034 -0.045,-0.03 -0.085,-0.093 l -0.536,-0.793 -0.243,0.265 -0.006,0.215 q -0.002,0.107 -0.008,0.226 -0.003,0.067 -0.014,0.104 -0.009,0.037 -0.026,0.056 -0.016,0.02 -0.039,0.023 -0.02,0.006 -0.048,0.006 -0.05,0 -0.085,-0.034 -0.034,-0.037 -0.04,-0.152 z" />
  </g>
  <g
     id="g30"
     style="line-height:1.25"
     transform="translate(-26.543,-161.307)">
    <path
       inkscape:connector-curvature="0"
       id="path28"
       word-spacing="0"
       letter-spacing="0"
       font-size="2.822"
       font-weight="400"
       aria-label="CLK"
       style="font-weight:400;font-size:2.82200003px;font-family:Sniglet;-inkscape-font-specification:'Sniglet, Normal';font-variant-ligatures:normal;font-variant-caps:normal;font-variant-numeric:normal;font-feature-settings:normal;text-align:start;letter-spacing:0;word-spacing:0;stroke-width:0.26499999"
       d="m 32.37,190.094 q 0.092,0 0.185,0.017 0.096,0.014 0.173,0.048 0.076,0.03 0.124,0.079 0.05,0.045 0.05,0.107 0,0.065 -0.033,0.099 -0.034,0.034 -0.085,0.034 -0.048,0 -0.085,-0.014 -0.036,-0.017 -0.084,-0.037 -0.045,-0.02 -0.11,-0.034 -0.065,-0.017 -0.172,-0.017 -0.108,0 -0.207,0.057 -0.095,0.053 -0.169,0.152 -0.07,0.096 -0.113,0.229 -0.042,0.132 -0.042,0.288 0,0.191 0.048,0.33 0.05,0.138 0.13,0.228 0.079,0.088 0.178,0.133 0.101,0.042 0.203,0.042 0.121,0 0.203,-0.025 0.082,-0.026 0.138,-0.057 0.06,-0.03 0.102,-0.056 0.042,-0.025 0.082,-0.025 0.048,0 0.076,0.028 0.028,0.025 0.028,0.093 0,0.056 -0.045,0.116 -0.042,0.056 -0.127,0.104 -0.082,0.045 -0.198,0.076 -0.115,0.028 -0.26,0.028 -0.157,0 -0.315,-0.062 -0.156,-0.062 -0.28,-0.183 -0.121,-0.124 -0.197,-0.308 -0.077,-0.186 -0.077,-0.431 0,-0.246 0.068,-0.438 0.07,-0.192 0.19,-0.324 0.12,-0.136 0.279,-0.207 0.16,-0.07 0.341,-0.07 z m 1.152,1.211 v 0.16 q 0,0.068 -0.002,0.13 0,0.063 -0.003,0.125 l -0.006,0.138 0.305,-0.037 0.172,-0.022 0.099,-0.012 q 0.037,-0.003 0.085,-0.003 0.124,0 0.124,0.122 0,0.048 -0.051,0.081 -0.048,0.034 -0.124,0.06 -0.074,0.022 -0.167,0.04 -0.09,0.013 -0.178,0.02 -0.084,0.007 -0.155,0.01 l -0.096,0.003 q -0.101,0 -0.158,-0.014 -0.056,-0.011 -0.084,-0.073 -0.029,-0.065 -0.037,-0.195 -0.006,-0.13 -0.006,-0.367 v -0.406 q 0,-0.178 0.003,-0.32 0.003,-0.14 0.003,-0.25 0.003,-0.11 0.008,-0.2 0.006,-0.116 0.04,-0.15 0.034,-0.037 0.085,-0.037 0.028,0 0.048,0.006 0.022,0.003 0.04,0.023 0.016,0.02 0.024,0.056 0.012,0.037 0.015,0.105 0.01,0.248 0.014,0.49 0.002,0.243 0.002,0.517 z m 1.011,0.612 q -0.005,-0.101 -0.008,-0.212 0,-0.11 -0.003,-0.237 -0.003,-0.127 -0.003,-0.273 v -0.333 q 0,-0.2 0.003,-0.342 0.003,-0.144 0.014,-0.234 0.014,-0.09 0.042,-0.133 0.028,-0.042 0.08,-0.042 0.047,0 0.084,0.031 0.037,0.031 0.042,0.144 l 0.009,0.18 0.005,0.159 q 0.003,0.076 0.003,0.16 v 0.333 l 0.604,-0.691 q 0.119,-0.135 0.184,-0.178 0.064,-0.045 0.112,-0.045 0.057,0 0.082,0.028 0.029,0.028 0.029,0.07 0,0.018 -0.006,0.035 -0.006,0.017 -0.025,0.048 -0.017,0.028 -0.054,0.073 l -0.099,0.11 -0.392,0.426 0.618,0.88 q 0.022,0.032 0.034,0.066 0.014,0.034 0.014,0.065 0,0.053 -0.031,0.087 -0.028,0.037 -0.102,0.037 -0.059,0 -0.107,-0.034 -0.045,-0.031 -0.085,-0.093 l -0.536,-0.793 -0.243,0.265 -0.005,0.215 q -0.003,0.107 -0.009,0.225 -0.003,0.068 -0.014,0.105 -0.008,0.037 -0.025,0.056 -0.017,0.02 -0.04,0.023 -0.02,0.006 -0.048,0.006 -0.05,0 -0.084,-0.034 -0.034,-0.037 -0.04,-0.152 z" />
  </g>
  <path
     style="fill:none;stroke:#000000;stroke-width:0.132"
     inkscape:connector-curvature="0"
     id="path32"
     d="m 15.773,48.514 h 3.039 m 29.557,0 h 3.039" />
  <g
     id="g36"
     style="line-height:1.25"
     transform="translate(20.872586,-161.307)">
    <path
       inkscape:connector-curvature="0"
       id="path34"
       word-spacing="0"
       letter-spacing="0"
       font-size="2.822"
       font-weight="400"
       aria-label="LEN"
       style="font-weight:400;font-size:2.82200003px;font-family:Sniglet;-inkscape-font-specification:'Sniglet, Normal';font-variant-ligatures:normal;font-variant-caps:normal;font-variant-numeric:normal;font-feature-settings:normal;text-align:start;letter-spacing:0;word-spacing:0;stroke-width:0.26499999"
       d="m 34.813,217.025 v 0.16 q 0,0.068 -0.003,0.13 0,0.063 -0.003,0.125 l -0.005,0.138 0.305,-0.037 0.172,-0.022 0.099,-0.012 q 0.036,-0.003 0.084,-0.003 0.124,0 0.124,0.122 0,0.048 -0.05,0.081 -0.048,0.034 -0.125,0.06 -0.073,0.022 -0.166,0.04 -0.09,0.013 -0.178,0.02 -0.085,0.007 -0.155,0.01 l -0.096,0.003 q -0.102,0 -0.158,-0.014 -0.057,-0.011 -0.085,-0.073 -0.028,-0.065 -0.036,-0.195 -0.006,-0.13 -0.006,-0.367 v -0.406 q 0,-0.178 0.003,-0.32 0.003,-0.14 0.003,-0.25 0.002,-0.11 0.008,-0.2 0.006,-0.116 0.04,-0.15 0.033,-0.037 0.084,-0.037 0.028,0 0.048,0.006 0.023,0.003 0.04,0.023 0.017,0.02 0.025,0.056 0.011,0.037 0.014,0.105 0.012,0.248 0.014,0.49 0.003,0.243 0.003,0.517 z m 1.014,0.358 q -0.006,-0.09 -0.012,-0.245 -0.005,-0.156 -0.005,-0.32 v -0.191 l 0.005,-0.206 q 0.006,-0.209 0.026,-0.328 0.022,-0.118 0.084,-0.177 0.065,-0.06 0.181,-0.074 0.116,-0.014 0.308,-0.014 h 0.059 q 0.06,0 0.141,0.003 0.082,0 0.17,0.003 l 0.149,0.006 q 0.062,0.006 0.099,0.017 0.04,0.008 0.059,0.025 0.02,0.015 0.025,0.037 0.006,0.02 0.006,0.045 0,0.065 -0.037,0.096 -0.036,0.029 -0.15,0.037 -0.056,0.006 -0.166,0.008 h -0.22 q -0.113,0 -0.203,0.003 h -0.113 q -0.073,0.003 -0.104,0.034 -0.029,0.028 -0.029,0.138 l 0.003,0.124 q 0.006,0.096 0.006,0.271 h 0.234 q 0.15,0 0.243,0.006 0.096,0.003 0.146,0.017 0.054,0.014 0.074,0.045 0.02,0.031 0.02,0.082 0,0.026 -0.006,0.048 -0.003,0.02 -0.023,0.037 -0.02,0.014 -0.056,0.025 -0.037,0.008 -0.104,0.015 -0.082,0.006 -0.156,0.008 h -0.378 v 0.344 l 0.006,0.096 q 0.003,0.045 0.011,0.076 0.011,0.031 0.037,0.05 0.028,0.02 0.079,0.029 0.053,0.008 0.14,0.008 h 0.608 q 0.098,0 0.124,0.037 0.025,0.036 0.025,0.099 0,0.05 -0.022,0.079 -0.023,0.025 -0.11,0.036 -0.085,0.014 -0.257,0.017 -0.17,0.003 -0.469,0.003 -0.127,0 -0.209,-0.022 -0.081,-0.023 -0.132,-0.077 -0.051,-0.053 -0.076,-0.138 -0.023,-0.087 -0.032,-0.212 z m 2.677,0.297 q -0.09,-0.125 -0.172,-0.246 l -0.173,-0.271 q -0.09,-0.147 -0.208,-0.325 -0.116,-0.18 -0.28,-0.42 v 0.381 q 0,0.166 -0.003,0.31 l -0.005,0.271 q -0.003,0.127 -0.009,0.254 -0.003,0.068 -0.014,0.105 -0.008,0.036 -0.025,0.056 -0.017,0.02 -0.04,0.023 -0.02,0.006 -0.048,0.006 -0.05,0 -0.084,-0.034 -0.034,-0.037 -0.04,-0.153 -0.014,-0.31 -0.017,-0.62 v -0.647 q 0,-0.189 0.003,-0.296 0.006,-0.107 0.02,-0.16 0.017,-0.055 0.042,-0.069 0.028,-0.014 0.073,-0.014 0.046,0 0.119,0.07 0.073,0.068 0.16,0.181 0.088,0.113 0.187,0.26 0.102,0.147 0.2,0.302 0.1,0.155 0.19,0.308 l 0.169,0.276 q -0.003,-0.132 -0.003,-0.29 v -0.356 q 0,-0.223 0.003,-0.367 0.003,-0.147 0.014,-0.231 0.014,-0.085 0.042,-0.119 0.029,-0.034 0.08,-0.034 0.047,0 0.084,0.031 0.037,0.031 0.042,0.144 l 0.009,0.18 0.005,0.159 q 0.003,0.076 0.003,0.16 v 0.43 q 0,0.115 -0.003,0.228 l -0.005,0.229 q -0.003,0.116 -0.009,0.243 -0.002,0.067 -0.014,0.104 -0.008,0.037 -0.025,0.056 -0.017,0.02 -0.04,0.023 -0.02,0.006 -0.048,0.006 -0.048,0 -0.081,-0.028 -0.034,-0.028 -0.1,-0.116 z" />
  </g>
  <g
     id="g40"
     style="line-height:1.25"
     transform="translate(-26.543,-161.307)">
    <path
       inkscape:connector-curvature="0"
       id="path38"
       word-spacing="0"
       letter-spacing="0"
       font-size="2.822"
       font-weight="400"
       aria-label="CLEAR"
       style="font-weight:400;font-size:2.82200003px;font-family:Sniglet;-inkscape-font-specification:'Sniglet, Normal';font-variant-ligatures:normal;font-variant-caps:normal;font-variant-numeric:normal;font-feature-settings:normal;text-align:start;letter-spacing:0;word-spacing:0;stroke-width:0.26499999"
       d="m 42.01,218.227 q 0.092,0 0.185,0.017 0.096,0.014 0.173,0.048 0.076,0.03 0.124,0.079 0.05,0.045 0.05,0.107 0,0.065 -0.033,0.099 -0.034,0.034 -0.085,0.034 -0.048,0 -0.085,-0.015 l -0.084,-0.036 q -0.045,-0.02 -0.11,-0.034 -0.065,-0.017 -0.172,-0.017 -0.108,0 -0.206,0.056 -0.096,0.054 -0.17,0.153 -0.07,0.096 -0.113,0.228 -0.042,0.133 -0.042,0.288 0,0.192 0.048,0.33 0.05,0.139 0.13,0.229 0.079,0.087 0.178,0.133 0.101,0.042 0.203,0.042 0.121,0 0.203,-0.025 0.082,-0.026 0.138,-0.057 0.06,-0.031 0.102,-0.056 0.042,-0.026 0.082,-0.026 0.048,0 0.076,0.028 0.028,0.026 0.028,0.094 0,0.056 -0.045,0.115 -0.042,0.057 -0.127,0.105 -0.082,0.045 -0.198,0.076 -0.115,0.028 -0.26,0.028 -0.157,0 -0.315,-0.062 -0.156,-0.062 -0.28,-0.183 -0.121,-0.125 -0.197,-0.308 -0.077,-0.186 -0.077,-0.432 0,-0.245 0.068,-0.437 0.07,-0.192 0.19,-0.325 0.12,-0.135 0.279,-0.206 0.16,-0.07 0.341,-0.07 z m 1.152,1.21 v 0.161 q 0,0.068 -0.002,0.13 0,0.062 -0.003,0.124 l -0.006,0.139 0.305,-0.037 0.172,-0.023 0.099,-0.011 q 0.037,-0.003 0.085,-0.003 0.124,0 0.124,0.121 0,0.048 -0.051,0.082 -0.048,0.034 -0.124,0.06 -0.074,0.022 -0.167,0.039 -0.09,0.014 -0.177,0.02 -0.085,0.008 -0.156,0.011 l -0.096,0.003 q -0.101,0 -0.158,-0.014 -0.056,-0.011 -0.084,-0.073 -0.029,-0.065 -0.037,-0.195 -0.006,-0.13 -0.006,-0.367 v -0.406 q 0,-0.178 0.003,-0.32 0.003,-0.14 0.003,-0.25 0.003,-0.11 0.008,-0.2 0.006,-0.117 0.04,-0.15 0.034,-0.037 0.085,-0.037 0.028,0 0.048,0.006 0.022,0.003 0.04,0.022 0.016,0.02 0.024,0.057 0.012,0.037 0.015,0.104 0.01,0.249 0.014,0.491 0.003,0.243 0.003,0.517 z m 1.014,0.359 q -0.006,-0.09 -0.011,-0.246 -0.006,-0.155 -0.006,-0.319 v -0.192 l 0.006,-0.206 q 0.005,-0.208 0.025,-0.327 0.023,-0.118 0.085,-0.178 0.065,-0.059 0.18,-0.073 0.116,-0.014 0.308,-0.014 h 0.06 q 0.059,0 0.14,0.003 0.082,0 0.17,0.003 l 0.15,0.006 q 0.061,0.006 0.098,0.017 0.04,0.008 0.06,0.025 0.02,0.014 0.025,0.037 0.005,0.02 0.005,0.045 0,0.065 -0.036,0.096 -0.037,0.028 -0.15,0.037 -0.056,0.006 -0.166,0.008 h -0.22 q -0.113,0 -0.204,0.003 h -0.113 q -0.073,0.003 -0.104,0.034 -0.028,0.028 -0.028,0.138 l 0.002,0.124 q 0.006,0.096 0.006,0.271 h 0.234 q 0.15,0 0.243,0.006 0.096,0.003 0.147,0.017 0.053,0.014 0.073,0.045 0.02,0.031 0.02,0.082 0,0.025 -0.006,0.048 -0.002,0.02 -0.022,0.037 -0.02,0.014 -0.057,0.025 -0.036,0.008 -0.104,0.014 -0.082,0.006 -0.155,0.008 h -0.379 v 0.344 l 0.006,0.096 q 0.003,0.046 0.011,0.077 0.012,0.03 0.037,0.05 0.028,0.02 0.08,0.029 0.053,0.008 0.14,0.008 h 0.607 q 0.099,0 0.124,0.036 0.026,0.037 0.026,0.099 0,0.05 -0.023,0.079 -0.023,0.025 -0.11,0.037 -0.085,0.014 -0.257,0.017 -0.17,0.003 -0.468,0.003 -0.127,0 -0.21,-0.023 -0.081,-0.023 -0.132,-0.076 -0.05,-0.054 -0.076,-0.138 -0.023,-0.088 -0.031,-0.212 z m 2.742,0.284 -0.062,-0.154 q -0.031,-0.09 -0.068,-0.19 l -0.178,0.007 h -0.409 q -0.099,0 -0.18,-0.003 l -0.065,0.186 q -0.031,0.087 -0.06,0.155 -0.056,0.144 -0.163,0.144 -0.04,0 -0.077,-0.025 -0.033,-0.026 -0.033,-0.074 0,-0.048 0.017,-0.124 0.016,-0.079 0.042,-0.166 0.028,-0.09 0.06,-0.184 0.03,-0.096 0.058,-0.178 0.029,-0.09 0.08,-0.228 l 0.112,-0.294 0.119,-0.299 q 0.06,-0.15 0.107,-0.26 0.011,-0.028 0.028,-0.062 0.017,-0.036 0.04,-0.067 0.025,-0.031 0.053,-0.054 0.031,-0.023 0.068,-0.023 0.037,0 0.068,0.026 0.03,0.022 0.054,0.056 0.025,0.034 0.042,0.07 0.02,0.037 0.03,0.066 0.046,0.112 0.102,0.26 0.06,0.146 0.116,0.296 0.06,0.15 0.11,0.285 0.051,0.135 0.082,0.228 l 0.057,0.175 q 0.033,0.093 0.062,0.184 0.028,0.09 0.045,0.169 0.02,0.076 0.02,0.124 0,0.048 -0.037,0.074 -0.034,0.025 -0.074,0.025 -0.05,0 -0.093,-0.034 -0.042,-0.037 -0.073,-0.11 z m -0.5,-0.62 q 0.068,0 0.136,0.003 0.068,0 0.135,0.003 l -0.067,-0.198 -0.065,-0.189 q -0.028,-0.09 -0.054,-0.166 -0.022,-0.08 -0.04,-0.138 -0.01,-0.037 -0.025,-0.06 -0.014,-0.022 -0.036,-0.022 -0.023,0 -0.037,0.025 -0.014,0.023 -0.026,0.06 -0.033,0.115 -0.096,0.301 -0.059,0.184 -0.127,0.387 0.077,-0.003 0.153,-0.003 0.076,-0.003 0.15,-0.003 z m 1.629,0.07 -0.082,0.007 h -0.178 q -0.048,0 -0.107,-0.006 v 0.572 q 0,0.09 -0.045,0.113 -0.043,0.02 -0.108,0.02 -0.034,0 -0.053,-0.006 -0.02,-0.003 -0.034,-0.014 -0.011,-0.014 -0.02,-0.04 -0.006,-0.025 -0.008,-0.07 -0.006,-0.05 -0.009,-0.147 l -0.006,-0.254 -0.002,-0.375 v -0.522 q 0,-0.116 0.028,-0.223 0.028,-0.11 0.101,-0.192 0.074,-0.085 0.198,-0.136 0.127,-0.05 0.322,-0.05 0.138,0 0.268,0.03 0.133,0.032 0.234,0.108 0.102,0.076 0.164,0.206 0.062,0.13 0.062,0.324 0,0.26 -0.113,0.404 -0.11,0.141 -0.305,0.2 l 0.378,0.52 q 0.051,0.067 0.051,0.138 0,0.056 -0.04,0.087 -0.036,0.034 -0.092,0.034 -0.063,0 -0.108,-0.034 -0.045,-0.036 -0.084,-0.093 z m 0.443,-0.657 q 0,-0.195 -0.119,-0.288 -0.116,-0.096 -0.37,-0.096 -0.093,0 -0.155,0.017 -0.062,0.014 -0.099,0.056 -0.036,0.043 -0.053,0.119 -0.014,0.073 -0.014,0.189 v 0.192 q 0,0.11 0.002,0.2 0.065,0.003 0.144,0.003 h 0.153 q 0.079,0 0.166,-0.008 0.09,-0.011 0.167,-0.05 0.076,-0.043 0.127,-0.119 0.05,-0.079 0.05,-0.215 z" />
  </g>
  <g
     id="g44"
     style="line-height:1.25"
     transform="translate(-74.000493,-161.307)">
    <path
       inkscape:connector-curvature="0"
       id="path42"
       word-spacing="0"
       letter-spacing="0"
       font-size="2.822"
       font-weight="400"
       aria-label="RND"
       style="font-weight:400;font-size:2.82200003px;font-family:Sniglet;-inkscape-font-specification:'Sniglet, Normal';font-variant-ligatures:normal;font-variant-caps:normal;font-variant-numeric:normal;font-feature-settings:normal;text-align:start;letter-spacing:0;word-spacing:0;stroke-width:0.26499999"
       d="m 82.361,217.08 -0.082,0.006 h -0.177 q -0.048,0 -0.108,-0.006 v 0.573 q 0,0.09 -0.045,0.113 -0.042,0.02 -0.107,0.02 -0.034,0 -0.054,-0.006 -0.02,-0.003 -0.034,-0.014 -0.01,-0.014 -0.02,-0.04 -0.005,-0.025 -0.008,-0.07 -0.005,-0.051 -0.008,-0.147 l -0.006,-0.254 q 0,-0.155 -0.003,-0.375 v -0.522 q 0,-0.116 0.028,-0.223 0.029,-0.11 0.102,-0.192 0.073,-0.085 0.198,-0.136 0.127,-0.05 0.321,-0.05 0.139,0 0.268,0.03 0.133,0.031 0.235,0.108 0.101,0.076 0.163,0.206 0.062,0.13 0.062,0.324 0,0.26 -0.112,0.404 -0.11,0.141 -0.305,0.2 l 0.378,0.52 q 0.05,0.067 0.05,0.138 0,0.056 -0.039,0.087 -0.036,0.034 -0.093,0.034 -0.062,0 -0.107,-0.034 -0.045,-0.036 -0.085,-0.093 z m 0.443,-0.657 q 0,-0.195 -0.118,-0.288 -0.116,-0.096 -0.37,-0.096 -0.093,0 -0.155,0.017 -0.062,0.014 -0.099,0.056 -0.037,0.042 -0.054,0.119 -0.014,0.073 -0.014,0.189 v 0.192 q 0,0.11 0.003,0.2 0.065,0.003 0.144,0.003 h 0.152 q 0.08,0 0.167,-0.008 0.09,-0.011 0.166,-0.05 0.077,-0.043 0.127,-0.12 0.051,-0.078 0.051,-0.214 z m 1.649,1.219 q -0.09,-0.124 -0.172,-0.246 l -0.172,-0.27 q -0.09,-0.147 -0.21,-0.325 -0.115,-0.18 -0.279,-0.42 v 0.38 q 0,0.167 -0.002,0.31 l -0.006,0.272 q -0.003,0.127 -0.009,0.254 -0.002,0.067 -0.014,0.104 -0.008,0.037 -0.025,0.057 -0.017,0.02 -0.04,0.022 -0.02,0.006 -0.048,0.006 -0.05,0 -0.084,-0.034 -0.034,-0.036 -0.04,-0.152 -0.014,-0.31 -0.017,-0.62 v -0.647 q 0,-0.19 0.003,-0.297 0.006,-0.107 0.02,-0.16 0.017,-0.054 0.042,-0.068 0.028,-0.014 0.074,-0.014 0.045,0 0.118,0.07 0.074,0.068 0.161,0.181 0.088,0.113 0.186,0.26 0.102,0.146 0.2,0.302 0.1,0.155 0.19,0.307 l 0.17,0.277 q -0.004,-0.133 -0.004,-0.29 v -0.357 q 0,-0.222 0.003,-0.366 0.003,-0.147 0.014,-0.232 0.014,-0.085 0.043,-0.118 0.028,-0.034 0.079,-0.034 0.048,0 0.084,0.03 0.037,0.032 0.043,0.145 l 0.008,0.18 0.006,0.158 q 0.002,0.077 0.002,0.161 v 0.429 q 0,0.116 -0.002,0.229 l -0.006,0.228 -0.008,0.243 q -0.003,0.068 -0.015,0.105 -0.008,0.036 -0.025,0.056 -0.017,0.02 -0.04,0.023 -0.02,0.006 -0.047,0.006 -0.048,0 -0.082,-0.029 -0.034,-0.028 -0.099,-0.115 z m 1.241,-1.862 q 0.291,0 0.466,0.087 0.175,0.087 0.268,0.231 0.093,0.144 0.121,0.328 0.032,0.183 0.032,0.372 0,0.206 -0.054,0.39 -0.05,0.183 -0.161,0.321 -0.107,0.136 -0.277,0.218 -0.169,0.079 -0.403,0.079 -0.186,0 -0.3,-0.029 -0.11,-0.025 -0.171,-0.079 -0.06,-0.053 -0.08,-0.135 -0.02,-0.082 -0.02,-0.192 v -1.061 q 0,-0.121 0.02,-0.22 0.023,-0.1 0.085,-0.167 0.062,-0.07 0.175,-0.107 0.116,-0.037 0.3,-0.037 z m 0.012,1.743 q 0.175,0 0.287,-0.062 0.116,-0.065 0.184,-0.169 0.068,-0.104 0.093,-0.237 0.028,-0.133 0.028,-0.271 0,-0.127 -0.02,-0.254 -0.02,-0.13 -0.081,-0.234 -0.062,-0.105 -0.178,-0.17 -0.116,-0.065 -0.308,-0.065 -0.175,0 -0.242,0.051 -0.068,0.051 -0.068,0.156 v 1.08 q 0,0.088 0.062,0.133 0.065,0.042 0.243,0.042 z" />
  </g>
  <g
     id="g48"
     style="line-height:1.25"
     transform="translate(-26.543,-161.307)">
    <path
       inkscape:connector-curvature="0"
       id="path46"
       word-spacing="0"
       letter-spacing="0"
       font-size="2.822"
       font-weight="400"
       aria-label="DEL"
       style="font-weight:400;font-size:2.82200003px;font-family:Sniglet;-inkscape-font-specification:'Sniglet, Normal';font-variant-ligatures:normal;font-variant-caps:normal;font-variant-numeric:normal;font-feature-settings:normal;text-align:start;letter-spacing:0;word-spacing:0;stroke-width:0.26499999"
       d="m 74.018,218.232 q 0.29,0 0.465,0.088 0.175,0.087 0.268,0.231 0.094,0.144 0.122,0.327 0.03,0.184 0.03,0.373 0,0.206 -0.053,0.39 -0.05,0.183 -0.16,0.321 -0.108,0.136 -0.277,0.217 -0.17,0.08 -0.404,0.08 -0.186,0 -0.299,-0.029 -0.11,-0.025 -0.172,-0.079 -0.06,-0.053 -0.08,-0.135 -0.019,-0.082 -0.019,-0.192 v -1.061 q 0,-0.122 0.02,-0.22 0.022,-0.1 0.085,-0.167 0.062,-0.07 0.175,-0.107 0.115,-0.037 0.299,-0.037 z m 0.011,1.744 q 0.175,0 0.288,-0.062 0.116,-0.065 0.183,-0.17 0.068,-0.104 0.093,-0.236 0.029,-0.133 0.029,-0.271 0,-0.127 -0.02,-0.254 -0.02,-0.13 -0.082,-0.235 -0.062,-0.104 -0.178,-0.169 -0.115,-0.065 -0.307,-0.065 -0.175,0 -0.243,0.051 -0.068,0.05 -0.068,0.155 v 1.081 q 0,0.088 0.062,0.133 0.065,0.042 0.243,0.042 z m 1.174,-0.178 q -0.005,-0.09 -0.01,-0.245 -0.006,-0.155 -0.006,-0.32 v -0.191 l 0.005,-0.206 q 0.006,-0.209 0.026,-0.327 0.022,-0.119 0.084,-0.178 0.065,-0.06 0.18,-0.074 0.117,-0.014 0.308,-0.014 h 0.06 q 0.059,0 0.14,0.003 0.083,0 0.17,0.003 l 0.15,0.006 q 0.062,0.006 0.099,0.017 0.039,0.008 0.059,0.026 0.02,0.014 0.025,0.036 0.006,0.02 0.006,0.046 0,0.064 -0.037,0.095 -0.037,0.029 -0.15,0.037 -0.056,0.006 -0.166,0.008 h -0.22 q -0.113,0 -0.203,0.003 H 75.61 q -0.074,0.003 -0.105,0.034 -0.028,0.028 -0.028,0.138 l 0.003,0.124 q 0.006,0.096 0.006,0.271 h 0.234 q 0.15,0 0.242,0.006 0.096,0.003 0.147,0.017 0.054,0.014 0.074,0.046 0.02,0.03 0.02,0.081 0,0.026 -0.006,0.048 -0.003,0.02 -0.023,0.037 -0.02,0.014 -0.056,0.026 -0.037,0.008 -0.105,0.014 -0.082,0.006 -0.155,0.008 H 75.48 v 0.343 l 0.006,0.097 q 0.002,0.045 0.01,0.076 0.012,0.031 0.038,0.05 0.028,0.02 0.079,0.03 0.053,0.007 0.14,0.007 h 0.607 q 0.1,0 0.125,0.037 0.025,0.037 0.025,0.099 0,0.05 -0.023,0.079 -0.022,0.025 -0.11,0.036 -0.084,0.014 -0.256,0.017 -0.17,0.003 -0.469,0.003 -0.127,0 -0.209,-0.022 -0.082,-0.023 -0.132,-0.077 -0.051,-0.053 -0.077,-0.138 -0.022,-0.087 -0.03,-0.212 z m 1.842,-0.358 v 0.16 q 0,0.069 -0.003,0.13 0,0.063 -0.002,0.125 l -0.006,0.138 q 0.195,-0.022 0.305,-0.037 l 0.172,-0.022 0.099,-0.011 q 0.036,-0.003 0.084,-0.003 0.125,0 0.125,0.12 0,0.049 -0.051,0.083 -0.048,0.034 -0.124,0.059 -0.074,0.023 -0.167,0.04 -0.09,0.014 -0.178,0.02 -0.084,0.007 -0.155,0.01 -0.068,0.004 -0.096,0.004 -0.102,0 -0.158,-0.015 -0.056,-0.01 -0.085,-0.073 -0.028,-0.065 -0.036,-0.195 -0.006,-0.13 -0.006,-0.367 V 219.2 q 0,-0.178 0.003,-0.319 0.003,-0.141 0.003,-0.251 0.002,-0.11 0.008,-0.2 0.006,-0.116 0.04,-0.15 0.034,-0.037 0.084,-0.037 0.029,0 0.048,0.006 0.023,0.003 0.04,0.023 0.017,0.02 0.025,0.056 0.012,0.037 0.014,0.105 0.012,0.248 0.014,0.49 0.003,0.243 0.003,0.517 z" />
  </g>
  <g
     id="g52"
     style="line-height:1.25"
     transform="translate(-26.543,-161.307)">
    <path
       inkscape:connector-curvature="0"
       id="path50"
       word-spacing="0"
       letter-spacing="0"
       font-size="2.822"
       font-weight="400"
       aria-label="FILL"
       style="font-weight:400;font-size:2.82200003px;font-family:Sniglet;-inkscape-font-specification:'Sniglet, Normal';font-variant-ligatures:normal;font-variant-caps:normal;font-variant-numeric:normal;font-feature-settings:normal;text-align:start;letter-spacing:0;word-spacing:0;stroke-width:0.26499999"
       d="m 84.45,232.803 q 0,-0.237 0.016,-0.37 0.017,-0.136 0.07,-0.203 0.054,-0.068 0.153,-0.082 0.099,-0.017 0.26,-0.017 h 0.163 q 0.074,0 0.141,0.003 0.071,0 0.139,0.003 l 0.152,0.006 q 0.068,0.006 0.105,0.017 0.036,0.008 0.056,0.025 0.02,0.017 0.023,0.04 0.005,0.022 0.005,0.05 0,0.051 -0.036,0.085 -0.034,0.034 -0.15,0.04 l -0.138,0.006 -0.15,0.006 q -0.082,0 -0.186,0.003 h -0.251 q -0.051,0 -0.07,0.036 -0.02,0.034 -0.02,0.088 v 0.085 q 0.002,0.042 0.002,0.093 0.003,0.05 0.003,0.115 0.003,0.063 0.003,0.147 0.104,0 0.18,0.003 0.08,0 0.136,0.003 0.06,0 0.104,0.003 l 0.088,0.006 q 0.115,0.006 0.15,0.04 0.036,0.034 0.036,0.084 0,0.029 -0.006,0.051 -0.002,0.023 -0.022,0.04 -0.02,0.017 -0.057,0.028 -0.036,0.011 -0.104,0.017 l -0.088,0.006 q -0.039,0 -0.095,0.003 H 84.74 q -0.003,0.17 -0.003,0.347 0.003,0.175 -0.009,0.361 -0.005,0.11 -0.039,0.136 -0.031,0.022 -0.096,0.022 -0.062,0 -0.093,-0.025 -0.031,-0.028 -0.037,-0.13 -0.005,-0.09 -0.008,-0.198 0,-0.11 -0.003,-0.248 -0.003,-0.141 -0.003,-0.316 v -0.406 z m 1.563,1.137 q -0.006,-0.102 -0.009,-0.212 l -0.002,-0.237 q -0.003,-0.127 -0.003,-0.273 v -0.333 q 0,-0.2 0.003,-0.342 0.002,-0.144 0.016,-0.234 0.015,-0.09 0.043,-0.133 0.03,-0.042 0.082,-0.042 0.025,0 0.048,0.006 0.022,0.006 0.04,0.025 0.016,0.017 0.027,0.054 0.014,0.034 0.017,0.09 l 0.009,0.18 0.005,0.159 q 0.003,0.076 0.003,0.16 v 0.43 q 0,0.115 -0.003,0.228 l -0.005,0.229 q -0.003,0.116 -0.009,0.243 -0.003,0.067 -0.014,0.104 -0.011,0.037 -0.028,0.056 -0.017,0.02 -0.04,0.023 -0.022,0.006 -0.05,0.006 -0.051,0 -0.088,-0.034 -0.037,-0.037 -0.042,-0.152 z m 0.929,-0.612 v 0.16 q 0,0.068 -0.003,0.13 0,0.062 -0.003,0.124 l -0.005,0.139 0.304,-0.037 0.173,-0.023 q 0.064,-0.008 0.098,-0.01 0.037,-0.004 0.085,-0.004 0.124,0 0.124,0.122 0,0.048 -0.05,0.081 -0.049,0.034 -0.125,0.06 -0.073,0.022 -0.166,0.04 -0.09,0.013 -0.178,0.019 -0.085,0.008 -0.155,0.011 l -0.096,0.003 q -0.102,0 -0.158,-0.014 -0.057,-0.011 -0.085,-0.073 -0.028,-0.065 -0.037,-0.195 -0.005,-0.13 -0.005,-0.367 v -0.406 q 0,-0.178 0.002,-0.32 0.003,-0.14 0.003,-0.25 0.003,-0.11 0.009,-0.2 0.005,-0.116 0.04,-0.15 0.033,-0.037 0.084,-0.037 0.028,0 0.048,0.006 0.023,0.003 0.04,0.023 0.016,0.02 0.025,0.056 0.011,0.037 0.014,0.104 0.011,0.249 0.014,0.491 0.003,0.243 0.003,0.517 z m 1.278,0 v 0.16 q 0,0.068 -0.002,0.13 0,0.062 -0.003,0.124 l -0.006,0.139 0.305,-0.037 0.172,-0.023 q 0.065,-0.008 0.1,-0.01 0.036,-0.004 0.084,-0.004 0.124,0 0.124,0.122 0,0.048 -0.05,0.081 -0.049,0.034 -0.125,0.06 -0.073,0.022 -0.167,0.04 -0.09,0.013 -0.177,0.019 -0.085,0.008 -0.156,0.011 l -0.096,0.003 q -0.101,0 -0.158,-0.014 -0.056,-0.011 -0.084,-0.073 -0.028,-0.065 -0.037,-0.195 -0.006,-0.13 -0.006,-0.367 v -0.406 q 0,-0.178 0.003,-0.32 0.003,-0.14 0.003,-0.25 0.003,-0.11 0.009,-0.2 0.005,-0.116 0.04,-0.15 0.033,-0.037 0.084,-0.037 0.028,0 0.048,0.006 0.022,0.003 0.04,0.023 0.016,0.02 0.025,0.056 0.01,0.037 0.014,0.104 0.011,0.249 0.014,0.491 0.003,0.243 0.003,0.517 z" />
  </g>
  <g
     id="g56"
     style="line-height:1.25"
     transform="translate(-26.543,-161.307)">
    <path
       inkscape:connector-curvature="0"
       id="path54"
       word-spacing="0"
       letter-spacing="0"
       font-size="2.822"
       font-weight="400"
       aria-label="RESET"
       style="font-weight:400;font-size:2.82200003px;font-family:Sniglet;-inkscape-font-specification:'Sniglet, Normal';font-variant-ligatures:normal;font-variant-caps:normal;font-variant-numeric:normal;font-feature-settings:normal;text-align:start;letter-spacing:0;word-spacing:0;stroke-width:0.26499999"
       d="m 30.856,233.289 -0.082,0.006 h -0.178 q -0.048,0 -0.107,-0.006 v 0.573 q 0,0.09 -0.045,0.113 -0.042,0.02 -0.107,0.02 -0.034,0 -0.054,-0.006 -0.02,-0.003 -0.034,-0.015 -0.011,-0.014 -0.02,-0.04 -0.005,-0.024 -0.008,-0.07 -0.006,-0.05 -0.008,-0.146 l -0.006,-0.254 q 0,-0.156 -0.003,-0.376 v -0.522 q 0,-0.116 0.028,-0.223 0.029,-0.11 0.102,-0.192 0.073,-0.084 0.197,-0.135 0.127,-0.051 0.322,-0.051 0.139,0 0.268,0.031 0.133,0.031 0.235,0.107 0.101,0.076 0.163,0.206 0.062,0.13 0.062,0.325 0,0.26 -0.113,0.403 -0.11,0.142 -0.304,0.2 l 0.378,0.52 q 0.05,0.068 0.05,0.138 0,0.057 -0.039,0.088 -0.037,0.034 -0.093,0.034 -0.062,0 -0.107,-0.034 -0.045,-0.037 -0.085,-0.093 z m 0.443,-0.658 q 0,-0.194 -0.118,-0.288 -0.116,-0.096 -0.37,-0.096 -0.093,0 -0.155,0.017 -0.062,0.014 -0.1,0.057 -0.036,0.042 -0.053,0.118 -0.014,0.074 -0.014,0.19 v 0.191 q 0,0.11 0.003,0.2 0.065,0.004 0.144,0.004 h 0.152 q 0.08,0 0.167,-0.008 0.09,-0.012 0.166,-0.051 0.077,-0.042 0.127,-0.119 0.051,-0.079 0.051,-0.214 z m 0.548,0.923 -0.011,-0.245 q -0.006,-0.156 -0.006,-0.32 v -0.191 l 0.006,-0.206 q 0.005,-0.209 0.025,-0.328 0.023,-0.118 0.085,-0.177 0.065,-0.06 0.18,-0.074 0.116,-0.014 0.308,-0.014 h 0.06 q 0.059,0 0.14,0.003 0.082,0 0.17,0.003 l 0.15,0.006 q 0.062,0.006 0.098,0.017 0.04,0.008 0.06,0.025 0.02,0.015 0.025,0.037 0.006,0.02 0.006,0.045 0,0.065 -0.037,0.096 -0.037,0.029 -0.15,0.037 -0.056,0.006 -0.166,0.008 h -0.22 q -0.113,0 -0.204,0.003 h -0.112 q -0.074,0.003 -0.105,0.034 -0.028,0.028 -0.028,0.138 l 0.003,0.124 q 0.005,0.096 0.005,0.271 h 0.235 q 0.15,0 0.242,0.006 0.096,0.003 0.147,0.017 0.054,0.014 0.073,0.045 0.02,0.031 0.02,0.082 0,0.026 -0.005,0.048 -0.003,0.02 -0.023,0.037 -0.02,0.014 -0.057,0.025 -0.036,0.008 -0.104,0.014 -0.082,0.006 -0.155,0.008 h -0.378 v 0.345 q 0.002,0.06 0.005,0.096 0.003,0.045 0.012,0.076 0.01,0.03 0.036,0.05 0.028,0.02 0.08,0.029 0.053,0.008 0.14,0.008 h 0.607 q 0.099,0 0.124,0.037 0.026,0.036 0.026,0.098 0,0.051 -0.023,0.08 -0.022,0.025 -0.11,0.036 -0.085,0.014 -0.257,0.017 -0.17,0.003 -0.468,0.003 -0.127,0 -0.21,-0.023 -0.08,-0.022 -0.132,-0.076 -0.05,-0.053 -0.076,-0.138 -0.022,-0.088 -0.03,-0.212 z m 2.221,-1.564 q 0.079,0 0.18,0.015 0.105,0.011 0.195,0.045 0.09,0.031 0.153,0.085 0.062,0.05 0.062,0.127 0,0.045 -0.026,0.076 -0.025,0.03 -0.082,0.03 -0.042,0 -0.087,-0.016 -0.042,-0.017 -0.099,-0.034 -0.054,-0.02 -0.127,-0.037 -0.07,-0.017 -0.166,-0.017 -0.187,0 -0.277,0.068 -0.088,0.065 -0.088,0.18 0,0.08 0.04,0.133 0.04,0.054 0.104,0.094 0.068,0.036 0.15,0.062 0.085,0.025 0.172,0.048 0.099,0.025 0.195,0.062 0.099,0.036 0.175,0.096 0.076,0.059 0.121,0.15 0.048,0.09 0.048,0.228 0,0.144 -0.053,0.26 -0.054,0.112 -0.147,0.194 -0.093,0.08 -0.223,0.124 -0.13,0.043 -0.282,0.043 -0.085,0 -0.198,-0.017 -0.113,-0.014 -0.214,-0.051 -0.102,-0.04 -0.173,-0.102 -0.07,-0.065 -0.07,-0.158 0,-0.056 0.028,-0.09 0.031,-0.034 0.09,-0.034 0.048,0 0.08,0.02 0.03,0.017 0.053,0.04 0.085,0.073 0.192,0.098 0.107,0.026 0.22,0.026 0.065,0 0.136,-0.008 0.073,-0.012 0.132,-0.043 0.06,-0.03 0.099,-0.087 0.04,-0.06 0.04,-0.158 0,-0.09 -0.037,-0.147 -0.034,-0.06 -0.093,-0.099 -0.06,-0.04 -0.141,-0.065 -0.08,-0.025 -0.173,-0.05 -0.104,-0.029 -0.206,-0.063 -0.101,-0.033 -0.18,-0.09 -0.08,-0.06 -0.13,-0.147 -0.048,-0.09 -0.048,-0.228 0,-0.138 0.05,-0.243 0.052,-0.104 0.14,-0.175 0.087,-0.07 0.205,-0.107 0.121,-0.037 0.26,-0.037 z m 0.971,1.564 q -0.006,-0.09 -0.012,-0.245 -0.005,-0.156 -0.005,-0.32 v -0.191 l 0.005,-0.206 q 0.006,-0.209 0.026,-0.328 0.022,-0.118 0.084,-0.177 0.065,-0.06 0.181,-0.074 0.116,-0.014 0.308,-0.014 h 0.059 q 0.06,0 0.141,0.003 0.082,0 0.17,0.003 l 0.149,0.006 q 0.062,0.006 0.099,0.017 0.04,0.008 0.059,0.025 0.02,0.015 0.025,0.037 0.006,0.02 0.006,0.045 0,0.065 -0.037,0.096 -0.036,0.029 -0.15,0.037 -0.056,0.006 -0.166,0.008 h -0.22 q -0.113,0 -0.203,0.003 h -0.113 q -0.073,0.003 -0.104,0.034 -0.029,0.028 -0.029,0.138 l 0.003,0.124 q 0.006,0.096 0.006,0.271 h 0.234 q 0.15,0 0.243,0.006 0.096,0.003 0.147,0.017 0.053,0.014 0.073,0.045 0.02,0.031 0.02,0.082 0,0.026 -0.006,0.048 -0.003,0.02 -0.023,0.037 -0.02,0.014 -0.056,0.025 -0.037,0.008 -0.104,0.014 -0.082,0.006 -0.156,0.008 h -0.378 v 0.345 l 0.006,0.096 q 0.003,0.045 0.011,0.076 0.011,0.03 0.037,0.05 0.028,0.02 0.079,0.029 0.053,0.008 0.14,0.008 h 0.608 q 0.098,0 0.124,0.037 0.025,0.036 0.025,0.098 0,0.051 -0.022,0.08 -0.023,0.025 -0.11,0.036 -0.085,0.014 -0.257,0.017 -0.17,0.003 -0.469,0.003 -0.127,0 -0.209,-0.023 -0.081,-0.022 -0.132,-0.076 -0.051,-0.053 -0.076,-0.138 -0.023,-0.088 -0.031,-0.212 z m 2.657,-1.287 q -0.079,0.006 -0.17,0.008 l -0.194,0.006 0.006,0.144 0.005,0.133 q 0.003,0.068 0.003,0.141 0.003,0.073 0.003,0.164 v 0.245 q 0,0.116 -0.003,0.234 l -0.006,0.235 q -0.002,0.118 -0.008,0.245 -0.003,0.068 -0.014,0.105 -0.009,0.036 -0.026,0.056 -0.017,0.02 -0.04,0.023 -0.022,0.006 -0.05,0.006 -0.05,0 -0.087,-0.034 -0.034,-0.037 -0.04,-0.153 -0.006,-0.101 -0.008,-0.214 0,-0.113 -0.003,-0.243 -0.003,-0.13 -0.003,-0.28 v -0.606 q 0.003,-0.116 0.008,-0.2 h -0.115 q -0.119,0 -0.203,-0.003 -0.082,-0.003 -0.136,-0.015 -0.054,-0.014 -0.079,-0.042 -0.022,-0.028 -0.022,-0.079 0,-0.025 0.005,-0.045 0.006,-0.023 0.026,-0.04 0.02,-0.02 0.053,-0.03 0.037,-0.012 0.093,-0.017 l 0.096,-0.006 0.085,-0.006 q 0.042,-0.003 0.087,-0.003 h 0.105 q 0.166,0 0.313,0.003 0.15,0.003 0.316,0.01 0.068,0.007 0.105,0.018 0.036,0.008 0.056,0.025 0.02,0.017 0.023,0.04 0.005,0.022 0.005,0.05 0,0.051 -0.036,0.085 -0.034,0.034 -0.15,0.04 z" />
  </g>
  <path
     style="fill:none;stroke:#000000;stroke-width:0.132"
     inkscape:connector-curvature="0"
     id="path58"
     d="m 33.735,62.186754 v 2.019 m -15.365,3.802 v 2.019 m 30.752,-2.019 v 2.019 m -41.649,11.739 v 2.019 m 52.844,-2.019 v 2.019" />
  <g
     id="g62"
     style="line-height:1.25"
     transform="translate(-26.543,-161.307)">
    <path
       inkscape:connector-curvature="0"
       id="path60"
       word-spacing="0"
       letter-spacing="0"
       font-size="2.822"
       font-weight="400"
       aria-label="CHAN"
       style="font-weight:400;font-size:2.82200003px;font-family:Sniglet;-inkscape-font-specification:'Sniglet, Normal';font-variant-ligatures:normal;font-variant-caps:normal;font-variant-numeric:normal;font-feature-settings:normal;text-align:start;letter-spacing:0;word-spacing:0;stroke-width:0.26499999"
       d="m 57.76,202.572 q 0.093,0 0.187,0.017 0.096,0.014 0.172,0.048 0.076,0.031 0.124,0.08 0.05,0.044 0.05,0.107 0,0.064 -0.033,0.098 -0.034,0.034 -0.085,0.034 -0.048,0 -0.084,-0.014 l -0.085,-0.037 q -0.045,-0.02 -0.11,-0.033 -0.065,-0.017 -0.172,-0.017 -0.108,0 -0.206,0.056 -0.096,0.054 -0.17,0.152 -0.07,0.096 -0.113,0.229 -0.042,0.133 -0.042,0.288 0,0.192 0.048,0.33 0.05,0.138 0.13,0.229 0.079,0.087 0.178,0.132 0.101,0.043 0.203,0.043 0.121,0 0.203,-0.026 0.082,-0.025 0.138,-0.056 0.06,-0.031 0.102,-0.057 0.042,-0.025 0.082,-0.025 0.048,0 0.076,0.028 0.028,0.026 0.028,0.093 0,0.057 -0.045,0.116 -0.042,0.057 -0.127,0.104 -0.082,0.046 -0.197,0.077 -0.116,0.028 -0.26,0.028 -0.158,0 -0.316,-0.062 -0.155,-0.062 -0.28,-0.184 -0.121,-0.124 -0.197,-0.307 -0.076,-0.187 -0.076,-0.432 0,-0.246 0.067,-0.438 0.07,-0.191 0.19,-0.324 0.12,-0.136 0.279,-0.206 0.16,-0.07 0.341,-0.07 z m 1.986,1.824 -0.011,-0.32 q -0.003,-0.169 -0.003,-0.389 l -0.192,0.006 H 59.1 q -0.105,0 -0.186,-0.003 l -0.006,0.344 q -0.003,0.164 -0.011,0.359 -0.003,0.068 -0.014,0.104 -0.009,0.037 -0.026,0.057 -0.017,0.02 -0.04,0.022 -0.02,0.006 -0.047,0.006 -0.051,0 -0.085,-0.034 -0.034,-0.036 -0.04,-0.152 -0.005,-0.102 -0.008,-0.212 0,-0.11 -0.003,-0.237 -0.003,-0.127 -0.003,-0.273 v -0.333 q 0,-0.2 0.003,-0.342 0.003,-0.144 0.014,-0.234 0.014,-0.09 0.043,-0.133 0.028,-0.042 0.079,-0.042 0.048,0 0.084,0.03 0.037,0.032 0.043,0.145 l 0.008,0.175 0.006,0.152 q 0.003,0.074 0.003,0.153 v 0.175 q 0.211,-0.008 0.414,-0.008 0.1,0 0.198,0.003 l 0.206,0.008 v -0.082 q 0,-0.2 0.003,-0.342 0.003,-0.144 0.014,-0.234 0.014,-0.09 0.042,-0.133 0.028,-0.042 0.08,-0.042 0.047,0 0.084,0.031 0.037,0.031 0.042,0.144 l 0.009,0.18 0.005,0.159 q 0.003,0.076 0.003,0.16 v 0.43 q 0,0.115 -0.003,0.228 l -0.005,0.229 q -0.003,0.115 -0.009,0.242 -0.003,0.068 -0.014,0.105 -0.008,0.037 -0.025,0.056 -0.017,0.02 -0.04,0.023 -0.02,0.006 -0.048,0.006 -0.05,0 -0.084,-0.034 -0.034,-0.037 -0.04,-0.152 z m 1.788,0.031 q -0.029,-0.068 -0.062,-0.156 l -0.068,-0.189 -0.178,0.006 h -0.41 q -0.098,0 -0.18,-0.003 l -0.065,0.187 q -0.03,0.087 -0.059,0.155 -0.056,0.144 -0.164,0.144 -0.04,0 -0.076,-0.026 -0.034,-0.025 -0.034,-0.073 0,-0.048 0.017,-0.124 0.017,-0.08 0.042,-0.167 l 0.06,-0.183 q 0.03,-0.096 0.059,-0.178 0.028,-0.09 0.079,-0.229 l 0.113,-0.293 0.118,-0.3 q 0.06,-0.149 0.108,-0.259 0.011,-0.028 0.028,-0.062 0.017,-0.037 0.04,-0.068 0.025,-0.03 0.053,-0.053 0.031,-0.023 0.068,-0.023 0.036,0 0.068,0.025 0.03,0.023 0.053,0.057 0.026,0.034 0.042,0.07 0.02,0.037 0.032,0.065 0.045,0.113 0.101,0.26 0.06,0.147 0.116,0.296 0.06,0.15 0.11,0.285 0.05,0.136 0.082,0.229 0.025,0.082 0.056,0.175 0.034,0.093 0.062,0.183 0.028,0.09 0.045,0.17 0.02,0.076 0.02,0.124 0,0.048 -0.037,0.073 -0.033,0.026 -0.073,0.026 -0.05,0 -0.093,-0.034 -0.042,-0.037 -0.073,-0.11 z m -0.5,-0.621 q 0.068,0 0.136,0.003 0.067,0 0.135,0.003 l -0.068,-0.198 -0.065,-0.189 -0.053,-0.166 -0.04,-0.139 q -0.011,-0.036 -0.025,-0.06 -0.014,-0.022 -0.037,-0.022 -0.022,0 -0.037,0.026 -0.014,0.022 -0.025,0.059 -0.034,0.116 -0.096,0.302 l -0.127,0.387 q 0.076,-0.003 0.153,-0.003 0.076,-0.003 0.15,-0.003 z m 2.094,0.632 q -0.09,-0.124 -0.172,-0.246 l -0.172,-0.27 q -0.09,-0.147 -0.21,-0.325 -0.115,-0.18 -0.279,-0.42 v 0.38 q 0,0.167 -0.002,0.31 l -0.006,0.272 q -0.003,0.127 -0.009,0.254 -0.002,0.067 -0.014,0.104 -0.008,0.037 -0.025,0.057 -0.017,0.02 -0.04,0.022 -0.02,0.006 -0.048,0.006 -0.05,0 -0.084,-0.034 -0.034,-0.036 -0.04,-0.152 -0.014,-0.31 -0.017,-0.621 v -0.646 q 0,-0.19 0.003,-0.297 0.006,-0.107 0.02,-0.16 0.017,-0.054 0.042,-0.068 0.028,-0.014 0.074,-0.014 0.045,0 0.118,0.07 0.073,0.068 0.161,0.18 0.087,0.114 0.186,0.26 0.102,0.147 0.2,0.302 0.1,0.156 0.19,0.308 l 0.169,0.277 q -0.003,-0.133 -0.003,-0.291 v -0.356 q 0,-0.223 0.003,-0.366 0.003,-0.147 0.014,-0.232 0.014,-0.085 0.042,-0.118 0.029,-0.034 0.08,-0.034 0.047,0 0.084,0.03 0.037,0.032 0.042,0.145 l 0.009,0.18 0.006,0.158 q 0.002,0.076 0.002,0.161 v 0.429 q 0,0.116 -0.002,0.229 l -0.006,0.228 q -0.003,0.116 -0.009,0.243 -0.002,0.068 -0.014,0.104 -0.008,0.037 -0.025,0.057 -0.017,0.02 -0.04,0.023 -0.02,0.006 -0.048,0.006 -0.047,0 -0.081,-0.029 -0.034,-0.028 -0.1,-0.115 z" />
  </g>
  <g
     id="g66"
     style="line-height:1.25"
     transform="translate(-26.543,-161.307)">
    <path
       inkscape:connector-curvature="0"
       id="path64"
       word-spacing="0"
       letter-spacing="0"
       font-size="2.822"
       font-weight="400"
       aria-label="LEN"
       style="font-weight:400;font-size:2.82200003px;font-family:Sniglet;-inkscape-font-specification:'Sniglet, Normal';font-variant-ligatures:normal;font-variant-caps:normal;font-variant-numeric:normal;font-feature-settings:normal;text-align:start;letter-spacing:0;word-spacing:0;stroke-width:0.26499999"
       d="m 82.39,190.293 v 0.16 q 0,0.068 -0.004,0.13 l -0.002,0.124 -0.006,0.139 0.305,-0.037 0.172,-0.023 q 0.065,-0.008 0.099,-0.01 0.036,-0.004 0.084,-0.004 0.125,0 0.125,0.121 0,0.048 -0.051,0.082 -0.048,0.034 -0.124,0.06 -0.074,0.022 -0.167,0.04 -0.09,0.013 -0.178,0.019 -0.084,0.008 -0.155,0.011 l -0.096,0.003 q -0.101,0 -0.158,-0.014 -0.056,-0.011 -0.085,-0.073 -0.028,-0.065 -0.036,-0.195 -0.006,-0.13 -0.006,-0.367 v -0.406 q 0,-0.178 0.003,-0.32 0.003,-0.14 0.003,-0.25 0.003,-0.11 0.008,-0.2 0.006,-0.117 0.04,-0.15 0.034,-0.037 0.084,-0.037 0.029,0 0.048,0.006 0.023,0.003 0.04,0.023 0.017,0.02 0.025,0.056 0.012,0.037 0.014,0.104 0.012,0.249 0.015,0.491 0.002,0.243 0.002,0.517 z m 1.013,0.358 q -0.006,-0.09 -0.012,-0.246 -0.005,-0.155 -0.005,-0.318 v -0.192 l 0.005,-0.206 q 0.006,-0.21 0.026,-0.328 0.022,-0.118 0.085,-0.178 0.064,-0.059 0.18,-0.073 0.116,-0.014 0.308,-0.014 h 0.059 q 0.06,0 0.141,0.003 0.082,0 0.17,0.003 l 0.15,0.006 q 0.061,0.006 0.098,0.017 0.04,0.008 0.06,0.025 0.019,0.014 0.025,0.037 0.005,0.02 0.005,0.045 0,0.065 -0.037,0.096 -0.036,0.028 -0.15,0.037 -0.056,0.006 -0.166,0.008 h -0.22 q -0.113,0 -0.203,0.003 h -0.113 q -0.073,0.003 -0.104,0.034 -0.029,0.028 -0.029,0.138 l 0.003,0.124 q 0.006,0.096 0.006,0.271 h 0.234 q 0.15,0 0.243,0.006 0.096,0.003 0.147,0.017 0.053,0.014 0.073,0.045 0.02,0.031 0.02,0.082 0,0.026 -0.006,0.048 -0.003,0.02 -0.022,0.037 -0.02,0.014 -0.057,0.025 -0.037,0.008 -0.104,0.014 -0.082,0.006 -0.156,0.008 h -0.378 v 0.345 l 0.006,0.096 q 0.003,0.045 0.011,0.076 0.011,0.03 0.037,0.05 0.028,0.02 0.079,0.029 0.053,0.008 0.141,0.008 h 0.607 q 0.099,0 0.124,0.037 0.025,0.036 0.025,0.098 0,0.051 -0.022,0.08 -0.023,0.025 -0.11,0.036 -0.085,0.014 -0.257,0.017 -0.17,0.003 -0.469,0.003 -0.127,0 -0.208,-0.023 -0.082,-0.022 -0.133,-0.076 -0.05,-0.053 -0.076,-0.138 -0.023,-0.088 -0.031,-0.212 z m 2.677,0.296 q -0.09,-0.124 -0.172,-0.245 -0.08,-0.124 -0.172,-0.271 -0.09,-0.147 -0.21,-0.325 -0.115,-0.18 -0.279,-0.42 v 0.38 q 0,0.167 -0.002,0.311 l -0.006,0.271 q -0.003,0.127 -0.009,0.254 -0.002,0.068 -0.014,0.105 -0.008,0.036 -0.025,0.056 -0.017,0.02 -0.04,0.023 -0.02,0.006 -0.048,0.006 -0.05,0 -0.084,-0.034 -0.034,-0.037 -0.04,-0.153 -0.014,-0.31 -0.017,-0.62 v -0.647 q 0,-0.189 0.003,-0.296 0.006,-0.107 0.02,-0.161 0.017,-0.054 0.042,-0.068 0.028,-0.014 0.074,-0.014 0.045,0 0.118,0.07 0.074,0.068 0.161,0.181 0.087,0.113 0.186,0.26 0.102,0.147 0.2,0.302 0.1,0.155 0.19,0.307 l 0.17,0.277 q -0.004,-0.133 -0.004,-0.29 v -0.356 q 0,-0.223 0.003,-0.367 0.003,-0.147 0.014,-0.232 0.014,-0.084 0.042,-0.118 0.029,-0.034 0.08,-0.034 0.047,0 0.084,0.031 0.037,0.031 0.043,0.144 l 0.008,0.18 0.006,0.159 q 0.002,0.076 0.002,0.16 v 0.429 q 0,0.116 -0.002,0.23 l -0.006,0.228 -0.008,0.242 q -0.003,0.068 -0.015,0.105 -0.008,0.037 -0.025,0.056 -0.017,0.02 -0.04,0.023 -0.02,0.006 -0.047,0.006 -0.048,0 -0.082,-0.028 -0.034,-0.029 -0.1,-0.116 z" />
  </g>
  <path
     style="fill:none;stroke:#000000;stroke-width:0.132"
     inkscape:connector-curvature="0"
     id="path68-6"
     d="m 22.926432,87.955533 h 2.51355" />
  <g
     aria-label="SNAP"
     style="font-style:normal;font-weight:normal;font-size:10.58337021px;line-height:1.25;font-family:sans-serif;letter-spacing:0px;word-spacing:0px;fill:#000000;fill-opacity:1;stroke:none;stroke-width:0.26458427"
     id="text1080"
     transform="translate(1.2745128,26.977143)">
    <path
       d="m 45.375506,55.121857 q 0.07902,0 0.180623,0.01411 0.104423,0.01129 0.194734,0.04516 0.09031,0.03105 0.152401,0.08467 0.06209,0.0508 0.06209,0.127001 0,0.04516 -0.0254,0.0762 -0.0254,0.03104 -0.08185,0.03104 -0.04233,0 -0.08749,-0.01693 -0.04233,-0.01693 -0.09878,-0.03387 -0.05362,-0.01975 -0.127001,-0.03669 -0.07056,-0.01693 -0.166512,-0.01693 -0.186267,0 -0.276578,0.06773 -0.08749,0.06491 -0.08749,0.180623 0,0.07902 0.03951,0.132645 0.03951,0.05362 0.104422,0.09313 0.06773,0.03669 0.149579,0.06209 0.08467,0.0254 0.172156,0.04798 0.09878,0.0254 0.194734,0.06209 0.09878,0.03669 0.174978,0.09596 0.0762,0.05927 0.121356,0.149578 0.04798,0.09031 0.04798,0.228601 0,0.143934 -0.05362,0.259645 -0.05362,0.11289 -0.146756,0.194734 -0.09313,0.07902 -0.222957,0.124179 -0.129822,0.04233 -0.282223,0.04233 -0.08467,0 -0.197556,-0.01693 -0.112889,-0.01411 -0.21449,-0.0508 -0.1016,-0.03951 -0.172156,-0.1016 -0.07056,-0.06491 -0.07056,-0.158045 0,-0.05644 0.02822,-0.09031 0.03104,-0.03387 0.09031,-0.03387 0.04798,0 0.07902,0.01976 0.03104,0.01693 0.05362,0.03951 0.08467,0.07338 0.191912,0.09878 0.107245,0.0254 0.220134,0.0254 0.06491,0 0.135467,-0.0085 0.07338,-0.01129 0.132645,-0.04233 0.05927,-0.03104 0.09878,-0.08749 0.03951,-0.05927 0.03951,-0.158045 0,-0.09031 -0.03669,-0.146756 -0.03387,-0.05927 -0.09313,-0.09878 -0.05927,-0.03951 -0.141112,-0.06491 -0.07902,-0.0254 -0.172156,-0.0508 -0.104423,-0.02822 -0.206023,-0.06209 -0.101601,-0.03387 -0.180623,-0.09031 -0.07902,-0.05927 -0.129823,-0.146756 -0.04798,-0.09031 -0.04798,-0.228601 0,-0.138289 0.0508,-0.242712 0.0508,-0.104422 0.138289,-0.174978 0.08749,-0.07056 0.206023,-0.107245 0.121356,-0.03669 0.259645,-0.03669 z"
       style="font-style:normal;font-variant:normal;font-weight:normal;font-stretch:normal;font-size:2.82223225px;font-family:Sniglet;-inkscape-font-specification:'Sniglet, Normal';font-variant-ligatures:normal;font-variant-caps:normal;font-variant-numeric:normal;font-feature-settings:normal;text-align:start;writing-mode:lr-tb;text-anchor:start;stroke-width:0.26458427"
       id="path1082"
       inkscape:connector-curvature="0" />
    <path
       d="m 47.447113,56.981708 q -0.09031,-0.124178 -0.172156,-0.245534 -0.07902,-0.124178 -0.172156,-0.270934 -0.09031,-0.146756 -0.208846,-0.324557 -0.115711,-0.180623 -0.279401,-0.420513 0,0.211668 0,0.381002 0,0.166512 -0.0028,0.310445 -0.0028,0.143934 -0.0056,0.270935 -0.0028,0.127 -0.0085,0.254001 -0.0028,0.06773 -0.01411,0.104422 -0.0085,0.03669 -0.0254,0.05644 -0.01693,0.01976 -0.03951,0.02258 -0.01975,0.0056 -0.04798,0.0056 -0.0508,0 -0.08467,-0.03387 -0.03387,-0.03669 -0.03951,-0.1524 -0.01411,-0.310446 -0.01693,-0.620891 0,-0.313268 0,-0.646291 0,-0.18909 0.0028,-0.296335 0.0056,-0.107245 0.01976,-0.160867 0.01693,-0.05362 0.04233,-0.06773 0.02822,-0.01411 0.07338,-0.01411 0.04516,0 0.118534,0.07056 0.07338,0.06773 0.160867,0.180623 0.08749,0.112889 0.186268,0.259645 0.1016,0.146756 0.200378,0.301979 0.09878,0.155223 0.18909,0.307623 0.09313,0.152401 0.169334,0.276579 -0.0028,-0.132645 -0.0028,-0.29069 0,-0.160867 0,-0.355601 0,-0.222956 0.0028,-0.36689 0.0028,-0.146756 0.01411,-0.231423 0.01411,-0.08467 0.04233,-0.118534 0.02822,-0.03387 0.07902,-0.03387 0.04798,0 0.08467,0.03104 0.03669,0.03104 0.04233,0.143934 0.0056,0.1016 0.0085,0.180622 0.0028,0.07902 0.0056,0.158045 0.0028,0.0762 0.0028,0.160868 0,0.08184 0,0.186267 0,0.127 0,0.242712 0,0.115711 -0.0028,0.228601 -0.0028,0.112889 -0.0056,0.228601 -0.0028,0.115711 -0.0085,0.242712 -0.0028,0.06773 -0.01411,0.104422 -0.0085,0.03669 -0.0254,0.05644 -0.01693,0.01976 -0.03951,0.02258 -0.01976,0.0056 -0.04798,0.0056 -0.04798,0 -0.08185,-0.02822 -0.03387,-0.02822 -0.09878,-0.115712 z"
       style="font-style:normal;font-variant:normal;font-weight:normal;font-stretch:normal;font-size:2.82223225px;font-family:Sniglet;-inkscape-font-specification:'Sniglet, Normal';font-variant-ligatures:normal;font-variant-caps:normal;font-variant-numeric:normal;font-feature-settings:normal;text-align:start;writing-mode:lr-tb;text-anchor:start;stroke-width:0.26458427"
       id="path1084"
       inkscape:connector-curvature="0" />
    <path
       d="m 49.292456,56.970419 q -0.02822,-0.06773 -0.06209,-0.155222 -0.03104,-0.09031 -0.06773,-0.18909 -0.08467,0.0028 -0.1778,0.0056 -0.09313,0 -0.18909,0 -0.121356,0 -0.220134,0 -0.09878,0 -0.180623,-0.0028 -0.03387,0.09878 -0.06491,0.186268 -0.03104,0.08749 -0.05927,0.155222 -0.05645,0.143934 -0.16369,0.143934 -0.03951,0 -0.0762,-0.0254 -0.03387,-0.0254 -0.03387,-0.07338 0,-0.04798 0.01693,-0.124178 0.01693,-0.07902 0.04233,-0.166512 0.02822,-0.09031 0.05927,-0.183445 0.03104,-0.09596 0.05927,-0.177801 0.02822,-0.09031 0.07902,-0.2286 0.05362,-0.141112 0.11289,-0.293513 0.05927,-0.1524 0.118533,-0.299156 0.05927,-0.149578 0.107245,-0.259646 0.01129,-0.02822 0.02822,-0.06209 0.01693,-0.03669 0.03951,-0.06773 0.0254,-0.03104 0.05362,-0.05362 0.03104,-0.02258 0.06773,-0.02258 0.03669,0 0.06773,0.0254 0.03104,0.02258 0.05362,0.05644 0.0254,0.03387 0.04233,0.07056 0.01976,0.03669 0.03104,0.06491 0.04516,0.11289 0.1016,0.259646 0.05927,0.146756 0.115712,0.296334 0.05927,0.149578 0.110067,0.285046 0.0508,0.135467 0.08185,0.2286 0.0254,0.08185 0.05644,0.174979 0.03387,0.09313 0.06209,0.183445 0.02822,0.09031 0.04516,0.169334 0.01976,0.0762 0.01976,0.124178 0,0.04798 -0.03669,0.07338 -0.03387,0.0254 -0.07338,0.0254 -0.0508,0 -0.09313,-0.03387 -0.04233,-0.03669 -0.07338,-0.110067 z m -0.499535,-0.620891 q 0.06773,0 0.135467,0.0028 0.06773,0 0.135467,0.0028 -0.03387,-0.09878 -0.06773,-0.197557 -0.03387,-0.09878 -0.06491,-0.189089 -0.02822,-0.09031 -0.05362,-0.166512 -0.02258,-0.07902 -0.03951,-0.138289 -0.01129,-0.03669 -0.0254,-0.05927 -0.01411,-0.02258 -0.03669,-0.02258 -0.02258,0 -0.03669,0.0254 -0.01411,0.02258 -0.0254,0.05927 -0.03387,0.115712 -0.09596,0.301979 -0.05927,0.183445 -0.127,0.386646 0.0762,-0.0028 0.1524,-0.0028 0.0762,-0.0028 0.149579,-0.0028 z"
       style="font-style:normal;font-variant:normal;font-weight:normal;font-stretch:normal;font-size:2.82223225px;font-family:Sniglet;-inkscape-font-specification:'Sniglet, Normal';font-variant-ligatures:normal;font-variant-caps:normal;font-variant-numeric:normal;font-feature-settings:normal;text-align:start;writing-mode:lr-tb;text-anchor:start;stroke-width:0.26458427"
       id="path1086"
       inkscape:connector-curvature="0" />
    <path
       d="m 50.051328,56.936553 q 0,0.06773 -0.01411,0.104422 -0.01129,0.03669 -0.03104,0.05644 -0.01693,0.01976 -0.04233,0.02258 -0.02258,0.0056 -0.04516,0.0056 -0.0762,0 -0.101601,-0.03387 -0.02258,-0.03387 -0.03104,-0.1524 -0.0056,-0.06209 -0.0085,-0.180623 -0.0028,-0.118534 -0.0056,-0.282223 0,-0.16369 -0.0028,-0.361246 0,-0.197556 0,-0.41769 0,-0.104423 0.0254,-0.211668 0.0254,-0.107245 0.09595,-0.194734 0.07338,-0.08749 0.200379,-0.141111 0.129823,-0.05362 0.335846,-0.05362 0.143933,0 0.273756,0.03104 0.129823,0.03104 0.228601,0.107245 0.09878,0.0762 0.158045,0.2032 0.05927,0.127001 0.05927,0.31609 0,0.197556 -0.06491,0.327379 -0.06491,0.129823 -0.183445,0.206023 -0.118533,0.0762 -0.282223,0.107245 -0.163689,0.03104 -0.358423,0.03104 -0.04798,0 -0.09596,0 -0.04798,0 -0.107245,-0.0056 z m 0.812803,-1.18816 q 0,-0.18909 -0.107245,-0.285046 -0.104423,-0.09596 -0.349957,-0.09596 -0.09313,0 -0.160867,0.01693 -0.06491,0.01411 -0.107245,0.05362 -0.04233,0.03669 -0.06491,0.101601 -0.01976,0.06491 -0.01976,0.163689 0,0.09596 0,0.220134 0,0.121356 0.0028,0.228601 0.06491,0.0028 0.143934,0.0028 0.08184,0 0.152401,0 0.08467,0 0.174978,-0.01129 0.09313,-0.01129 0.166512,-0.0508 0.07338,-0.04233 0.121356,-0.121356 0.04798,-0.08184 0.04798,-0.222956 z"
       style="font-style:normal;font-variant:normal;font-weight:normal;font-stretch:normal;font-size:2.82223225px;font-family:Sniglet;-inkscape-font-specification:'Sniglet, Normal';font-variant-ligatures:normal;font-variant-caps:normal;font-variant-numeric:normal;font-feature-settings:normal;text-align:start;writing-mode:lr-tb;text-anchor:start;stroke-width:0.26458427"
       id="path1088"
       inkscape:connector-curvature="0" />
  </g>
  <path
     style="fill:none;stroke:#000000;stroke-width:0.132"
     inkscape:connector-curvature="0"
     id="path68-0"
     d="m 42.223304,87.955495 h 2.778" />
  <g
     aria-label="MEM"
     style="font-style:normal;font-weight:normal;font-size:10.58337021px;line-height:1.25;font-family:sans-serif;letter-spacing:0px;word-spacing:0px;fill:#000000;fill-opacity:1;stroke:none;stroke-width:0.26458427"
     id="text915"
     transform="translate(-2.1897701,32.448453)">
    <path
       d="m 60.44467,27.97551 q -0.129822,-0.285045 -0.231423,-0.550335 -0.09878,-0.268112 -0.169334,-0.476957 -0.06491,0.349957 -0.110067,0.705558 -0.04233,0.355601 -0.110067,0.680158 -0.01693,0.07338 -0.06209,0.09878 -0.04516,0.02258 -0.0762,0.02258 -0.0508,0 -0.08185,-0.03105 -0.02822,-0.03104 -0.02822,-0.07902 0,-0.06491 0.01411,-0.197556 0.01693,-0.135468 0.03951,-0.304802 0.0254,-0.169333 0.05645,-0.355601 0.03104,-0.186267 0.06209,-0.358423 0.03387,-0.174979 0.06209,-0.31609 0.03104,-0.141112 0.05362,-0.217312 0.03669,-0.129823 0.149579,-0.129823 0.06773,0 0.115711,0.06773 0.04798,0.06491 0.101601,0.2032 0.05644,0.135468 0.132645,0.344313 0.07902,0.208845 0.2032,0.491068 0.121356,-0.282223 0.194734,-0.488246 0.0762,-0.208845 0.127001,-0.344312 0.05362,-0.13829 0.1016,-0.203201 0.04798,-0.06773 0.118534,-0.06773 0.06491,0 0.09878,0.03387 0.03387,0.03104 0.0508,0.09596 0.01976,0.07902 0.04798,0.220134 0.02822,0.13829 0.05927,0.310446 0.03387,0.169334 0.06491,0.355601 0.03104,0.186267 0.05645,0.355601 0.0254,0.169334 0.03951,0.307624 0.01693,0.135467 0.01693,0.208845 0,0.04516 -0.03104,0.07338 -0.03104,0.0254 -0.07902,0.0254 -0.03104,0 -0.0762,-0.02258 -0.04516,-0.0254 -0.06209,-0.09878 -0.03387,-0.160867 -0.06209,-0.333024 -0.0254,-0.172156 -0.0508,-0.347134 -0.02258,-0.177801 -0.04516,-0.352779 -0.02258,-0.177801 -0.04798,-0.352779 -0.03669,0.112889 -0.08467,0.248356 -0.04798,0.135467 -0.1016,0.273757 -0.05362,0.135467 -0.110067,0.268112 -0.05644,0.132645 -0.110067,0.23989 -0.01976,0.03669 -0.05362,0.05644 -0.03104,0.01693 -0.06491,0.01693 -0.03669,0 -0.07056,-0.01693 -0.03104,-0.01975 -0.04798,-0.05927 z"
       style="font-style:normal;font-variant:normal;font-weight:normal;font-stretch:normal;font-size:2.82223225px;font-family:Sniglet;-inkscape-font-specification:'Sniglet, Normal';font-variant-ligatures:normal;font-variant-caps:normal;font-variant-numeric:normal;font-feature-settings:normal;text-align:start;writing-mode:lr-tb;text-anchor:start;stroke-width:0.26458427"
       id="path917"
       inkscape:connector-curvature="0" />
    <path
       d="m 61.783334,28.026311 q -0.0056,-0.09031 -0.01129,-0.245535 -0.0056,-0.155222 -0.0056,-0.318912 0,-0.09313 0,-0.191912 0.0028,-0.1016 0.0056,-0.206023 0.0056,-0.208845 0.0254,-0.327379 0.02258,-0.118533 0.08467,-0.1778 0.06491,-0.05927 0.180622,-0.07338 0.115712,-0.01411 0.307624,-0.01411 0.0028,0 0.05927,0 0.05927,0 0.141111,0.0028 0.08185,0 0.169334,0.0028 0.09031,0.0028 0.149578,0.0056 0.06209,0.0056 0.09878,0.01693 0.03951,0.0085 0.05927,0.0254 0.01976,0.01411 0.0254,0.03669 0.0056,0.01976 0.0056,0.04516 0,0.06491 -0.03669,0.09596 -0.03669,0.02822 -0.149578,0.03669 -0.05644,0.0056 -0.166512,0.0085 -0.107245,0 -0.220134,0 -0.112889,0 -0.203201,0.0028 -0.09031,0 -0.112889,0 -0.07338,0.0028 -0.104423,0.03387 -0.02822,0.02822 -0.02822,0.13829 0,0.0254 0.0028,0.124178 0.0056,0.09596 0.0056,0.270934 h 0.234245 q 0.149578,0 0.242712,0.0056 0.09596,0.0028 0.146756,0.01693 0.05362,0.01411 0.07338,0.04516 0.01976,0.03104 0.01976,0.08185 0,0.0254 -0.0056,0.04798 -0.0028,0.01975 -0.02258,0.03669 -0.01976,0.01411 -0.05644,0.0254 -0.03669,0.0085 -0.104423,0.01411 -0.08184,0.0056 -0.155223,0.0085 -0.07055,0 -0.141111,0 h -0.237068 q 0,0.04233 0,0.101601 0,0.05927 0,0.121356 0,0.06209 0,0.121356 0.0028,0.05927 0.0056,0.09596 0.0028,0.04516 0.01129,0.0762 0.01129,0.03104 0.03669,0.0508 0.02822,0.01976 0.07902,0.02822 0.05362,0.0085 0.141112,0.0085 h 0.60678 q 0.09878,0 0.124178,0.03669 0.0254,0.03669 0.0254,0.09878 0,0.0508 -0.02258,0.07902 -0.02258,0.0254 -0.110067,0.03669 -0.08467,0.01411 -0.256823,0.01693 -0.169334,0.0028 -0.468491,0.0028 -0.127,0 -0.208845,-0.02258 -0.08185,-0.02258 -0.132645,-0.0762 -0.0508,-0.05362 -0.0762,-0.138289 -0.02258,-0.08749 -0.03104,-0.211667 z"
       style="font-style:normal;font-variant:normal;font-weight:normal;font-stretch:normal;font-size:2.82223225px;font-family:Sniglet;-inkscape-font-specification:'Sniglet, Normal';font-variant-ligatures:normal;font-variant-caps:normal;font-variant-numeric:normal;font-feature-settings:normal;text-align:start;writing-mode:lr-tb;text-anchor:start;stroke-width:0.26458427"
       id="path919"
       inkscape:connector-curvature="0" />
    <path
       d="m 64.099241,27.97551 q -0.129823,-0.285045 -0.231423,-0.550335 -0.09878,-0.268112 -0.169334,-0.476957 -0.06491,0.349957 -0.110067,0.705558 -0.04233,0.355601 -0.110067,0.680158 -0.01693,0.07338 -0.06209,0.09878 -0.04516,0.02258 -0.0762,0.02258 -0.0508,0 -0.08185,-0.03105 -0.02822,-0.03104 -0.02822,-0.07902 0,-0.06491 0.01411,-0.197556 0.01693,-0.135468 0.03951,-0.304802 0.0254,-0.169333 0.05644,-0.355601 0.03104,-0.186267 0.06209,-0.358423 0.03387,-0.174979 0.06209,-0.31609 0.03104,-0.141112 0.05362,-0.217312 0.03669,-0.129823 0.149578,-0.129823 0.06773,0 0.115712,0.06773 0.04798,0.06491 0.1016,0.2032 0.05644,0.135468 0.132645,0.344313 0.07902,0.208845 0.203201,0.491068 0.121356,-0.282223 0.194734,-0.488246 0.0762,-0.208845 0.127,-0.344312 0.05362,-0.13829 0.1016,-0.203201 0.04798,-0.06773 0.118534,-0.06773 0.06491,0 0.09878,0.03387 0.03387,0.03104 0.0508,0.09596 0.01976,0.07902 0.04798,0.220134 0.02822,0.13829 0.05927,0.310446 0.03387,0.169334 0.06491,0.355601 0.03104,0.186267 0.05644,0.355601 0.0254,0.169334 0.03951,0.307624 0.01693,0.135467 0.01693,0.208845 0,0.04516 -0.03105,0.07338 -0.03104,0.0254 -0.07902,0.0254 -0.03105,0 -0.0762,-0.02258 -0.04516,-0.0254 -0.06209,-0.09878 -0.03387,-0.160867 -0.06209,-0.333024 -0.0254,-0.172156 -0.0508,-0.347134 -0.02258,-0.177801 -0.04515,-0.352779 -0.02258,-0.177801 -0.04798,-0.352779 -0.03669,0.112889 -0.08467,0.248356 -0.04798,0.135467 -0.101601,0.273757 -0.05362,0.135467 -0.110067,0.268112 -0.05644,0.132645 -0.110067,0.23989 -0.01976,0.03669 -0.05362,0.05644 -0.03104,0.01693 -0.06491,0.01693 -0.03669,0 -0.07055,-0.01693 -0.03105,-0.01975 -0.04798,-0.05927 z"
       style="font-style:normal;font-variant:normal;font-weight:normal;font-stretch:normal;font-size:2.82223225px;font-family:Sniglet;-inkscape-font-specification:'Sniglet, Normal';font-variant-ligatures:normal;font-variant-caps:normal;font-variant-numeric:normal;font-feature-settings:normal;text-align:start;writing-mode:lr-tb;text-anchor:start;stroke-width:0.26458427"
       id="path921"
       inkscape:connector-curvature="0" />
  </g>
  <path
     style="fill:none;stroke:#000000;stroke-width:0.13200001"
     inkscape:connector-curvature="0"
     id="path68-7-8-32-9-5"
     d="M 60.239073,68.064831 V 69.75817" />
  <path
     style="fill:none;stroke:#000000;stroke-width:0.13200001"
     inkscape:connector-curvature="0"
     id="path68-7-8-32-9-5-5"
     d="m 57.459433,40.544574 v 1.693339" />
</svg>
