<?xml version="1.0" encoding="UTF-8" standalone="no"?>
<svg
   xmlns:dc="http://purl.org/dc/elements/1.1/"
   xmlns:cc="http://creativecommons.org/ns#"
   xmlns:rdf="http://www.w3.org/1999/02/22-rdf-syntax-ns#"
   xmlns:svg="http://www.w3.org/2000/svg"
   xmlns="http://www.w3.org/2000/svg"
   xmlns:sodipodi="http://sodipodi.sourceforge.net/DTD/sodipodi-0.dtd"
   xmlns:inkscape="http://www.inkscape.org/namespaces/inkscape"
   width="120"
   height="380"
   viewBox="0 0 31.749926 100.542"
   version="1.1"
   id="svg148"
   sodipodi:docname="FourView.svg"
   inkscape:version="0.92.2 (5c3e80d, 2017-08-06)">
  <metadata
     id="metadata154">
    <rdf:RDF>
      <cc:Work
         rdf:about="">
        <dc:format>image/svg+xml</dc:format>
        <dc:type
           rdf:resource="http://purl.org/dc/dcmitype/StillImage" />
        <dc:title></dc:title>
      </cc:Work>
    </rdf:RDF>
  </metadata>
  <defs
     id="defs152" />
  <sodipodi:namedview
     pagecolor="#ffffff"
     bordercolor="#666666"
     borderopacity="1"
     objecttolerance="10"
     gridtolerance="10"
     guidetolerance="10"
     inkscape:pageopacity="0"
     inkscape:pageshadow="2"
     inkscape:window-width="1920"
     inkscape:window-height="1017"
     id="namedview150"
     showgrid="false"
     inkscape:zoom="2.1237053"
     inkscape:cx="202.50189"
     inkscape:cy="208.83689"
     inkscape:window-x="-8"
     inkscape:window-y="-8"
     inkscape:window-maximized="1"
     inkscape:current-layer="svg148"
     showguides="true"
     inkscape:guide-bbox="true">
    <sodipodi:guide
       position="15.874963,92.19373"
       orientation="1,0"
       id="guide1050"
       inkscape:locked="false"
       inkscape:label=""
       inkscape:color="rgb(0,0,255)" />
  </sodipodi:namedview>
  <path
     style="fill:#dcdcdc;stroke-width:1"
     inkscape:connector-curvature="0"
     id="path2"
     d="M 0,0 H 31.750105 V 100.541 H 0 Z m 0,0" />
  <rect
     style="fill:#999999;stroke-width:1;paint-order:stroke markers fill"
     id="rect6"
     rx="2.3399999"
     ry="2.3399999"
     y="40.814831"
     x="17.99156"
     height="50.813061"
     width="11.42901" />
  <g
     id="g26"
     style="line-height:1.25"
     transform="translate(-72.425206,-161.307)">
    <path
       inkscape:connector-curvature="0"
       id="path24"
       word-spacing="0"
       letter-spacing="0"
       font-weight="400"
       aria-label="♫"
       font-size="3.528"
       style="font-weight:400;font-size:3.52800012px;font-family:Arial;-inkscape-font-specification:'Arial, Normal';font-variant-ligatures:normal;font-variant-caps:normal;font-variant-numeric:normal;font-feature-settings:normal;text-align:start;letter-spacing:0;word-spacing:0;fill:#333333"
       d="m 88.643,258.177 -1.63,0.115 v -2.06 q 0,-0.23 0.065,-0.333 0.064,-0.104 0.22,-0.147 0.153,-0.043 0.347,-0.002 0.224,0.047 0.357,0.19 0.133,0.146 0.133,0.33 0,0.186 -0.158,0.286 -0.157,0.103 -0.407,0.05 -0.082,-0.018 -0.144,-0.044 -0.063,-0.027 -0.205,-0.11 v 1.345 l 1.22,-0.085 v -1.554 q 0,-0.225 0.065,-0.337 0.065,-0.11 0.225,-0.151 0.16,-0.04 0.349,0 0.223,0.047 0.354,0.19 0.129,0.14 0.129,0.325 0,0.195 -0.156,0.294 -0.155,0.1 -0.407,0.047 -0.16,-0.034 -0.357,-0.16 z" />
  </g>
  <g
     aria-label="4-VIEW"
     style="font-style:normal;font-weight:normal;font-size:10.5833683px;line-height:1.25;font-family:sans-serif;letter-spacing:0px;word-spacing:0px;fill:#000000;fill-opacity:1;stroke:none;stroke-width:0.26458421"
     id="text1035"
     transform="translate(-4.7008677)">
    <path
       d="m 15.702626,5.8031257 q -0.0042,0.1608672 -0.0042,0.3513678 0,0.1905006 -0.0127,0.3556012 -0.0085,0.1270004 -0.05927,0.1651005 -0.04657,0.033867 -0.131234,0.033867 -0.0762,0 -0.118533,-0.029633 -0.0381,-0.0254 -0.05927,-0.1143004 -0.01693,-0.093134 -0.02117,-0.2667009 -0.0042,-0.1778006 -0.0042,-0.4741349 -0.139701,0 -0.266701,0.00423 -0.127001,0.00423 -0.245534,0.00423 -0.177801,0 -0.325968,-0.00847 -0.143934,-0.00847 -0.249768,-0.029633 -0.1016,-0.0254 -0.160867,-0.067734 -0.05503,-0.042333 -0.05503,-0.110067 0,-0.093134 0.0762,-0.2328341 0.0762,-0.1439338 0.190501,-0.3090344 0.1143,-0.1651005 0.2413,-0.3344344 0.131234,-0.1735673 0.241301,-0.3217344 0.0508,-0.067734 0.143934,-0.1862673 0.09737,-0.1227671 0.207434,-0.2413008 0.110067,-0.1227671 0.220134,-0.2116674 0.110067,-0.0889 0.186267,-0.0889 0.07197,0 0.127001,0.046567 0.05503,0.046567 0.0635,0.2159007 0.01693,0.2455342 0.02117,0.5164684 0.0042,0.2667009 0.0042,0.5291685 V 5.417891 q 0.118534,0.00847 0.190501,0.021167 0.07197,0.0127 0.110067,0.0381 0.0381,0.021167 0.0508,0.055034 0.0127,0.033867 0.0127,0.084667 0,0.1058337 -0.09737,0.1439338 -0.09737,0.033867 -0.275168,0.042333 z M 15.287758,4.4188211 q -0.186267,0.2243674 -0.317501,0.3852346 -0.127,0.1566338 -0.220134,0.2709342 -0.0889,0.1143004 -0.156634,0.194734 -0.0635,0.080434 -0.1143,0.1439338 0.194734,-0.00847 0.397935,-0.00847 0.207434,-0.00423 0.410634,-0.00423 z"
       style="font-style:normal;font-variant:normal;font-weight:normal;font-stretch:normal;font-size:4.23334742px;font-family:Sniglet;-inkscape-font-specification:'Sniglet, Normal';font-variant-ligatures:normal;font-variant-caps:normal;font-variant-numeric:normal;font-feature-settings:normal;text-align:start;writing-mode:lr-tb;text-anchor:start;stroke-width:0.26458421"
       id="path1037"
       inkscape:connector-curvature="0" />
    <path
       d="m 17.869968,5.6210917 q -0.194734,0.00847 -0.448735,0.016933 -0.254001,0.00423 -0.601135,0.00423 -0.143934,0 -0.245534,-0.00423 -0.101601,-0.00423 -0.165101,-0.021167 -0.0635,-0.021167 -0.09313,-0.0635 -0.02963,-0.042333 -0.02963,-0.1185338 0,-0.0381 0.0085,-0.067734 0.0085,-0.033867 0.0381,-0.059267 0.02963,-0.0254 0.08043,-0.042333 0.05503,-0.021167 0.1397,-0.029633 0.0635,-0.00423 0.110067,-0.00847 0.0508,-0.00423 0.09737,-0.00423 0.04657,-0.00423 0.09737,-0.00423 0.05503,0 0.127001,0 0.2286,0 0.440268,0.00423 0.211667,0 0.440268,0.0127 0.1016,0.00847 0.156634,0.0254 0.05503,0.0127 0.08467,0.0381 0.02963,0.0254 0.03387,0.059267 0.0085,0.033867 0.0085,0.0762 0,0.0762 -0.05503,0.1270005 -0.0508,0.0508 -0.224368,0.059267 z"
       style="font-style:normal;font-variant:normal;font-weight:normal;font-stretch:normal;font-size:4.23334742px;font-family:Sniglet;-inkscape-font-specification:'Sniglet, Normal';font-variant-ligatures:normal;font-variant-caps:normal;font-variant-numeric:normal;font-feature-settings:normal;text-align:start;writing-mode:lr-tb;text-anchor:start;stroke-width:0.26458421"
       id="path1039"
       inkscape:connector-curvature="0" />
    <path
       d="m 19.645725,6.5100947 q -0.05503,0.1016003 -0.101601,0.1481671 -0.04233,0.046567 -0.110067,0.046567 -0.06773,0 -0.118533,-0.046567 -0.0508,-0.046567 -0.110067,-0.1439338 -0.0762,-0.1270004 -0.173568,-0.3513678 -0.09313,-0.2243674 -0.1905,-0.486835 -0.09737,-0.2667008 -0.190501,-0.5503351 -0.09313,-0.2836343 -0.169334,-0.5334018 -0.07197,-0.2497675 -0.118533,-0.4360348 -0.04233,-0.1905006 -0.04233,-0.2709342 0,-0.084667 0.03387,-0.1270004 0.03387,-0.042334 0.131234,-0.042334 0.05503,0 0.09313,0.029633 0.04233,0.0254 0.105834,0.1524005 0.0508,0.097367 0.110067,0.2540009 0.05927,0.1566338 0.122767,0.3471345 0.06773,0.1905006 0.135467,0.402168 0.06773,0.207434 0.135467,0.414868 0.06773,0.207434 0.127001,0.3979347 0.05927,0.1905006 0.110067,0.3429011 0.0508,-0.1566338 0.1143,-0.3471345 0.0635,-0.194734 0.131234,-0.3979346 0.06773,-0.2074341 0.135467,-0.4148681 0.06773,-0.2116674 0.135467,-0.3979346 0.06773,-0.1862673 0.127001,-0.3429012 0.05927,-0.1566338 0.105833,-0.2582342 0.05927,-0.122767 0.101601,-0.1524005 0.04657,-0.029633 0.09313,-0.029633 0.09737,0 0.131234,0.0508 0.0381,0.046567 0.0381,0.1397004 0,0.084667 -0.0254,0.2032007 -0.0254,0.1185337 -0.0889,0.3175011 -0.05927,0.1947339 -0.160867,0.4868349 -0.101601,0.292101 -0.249768,0.7154357 -0.0381,0.1143004 -0.0889,0.2370675 -0.04657,0.122767 -0.09737,0.2413008 -0.04657,0.1143004 -0.09313,0.220134 -0.04657,0.1058337 -0.0889,0.182034 z"
       style="font-style:normal;font-variant:normal;font-weight:normal;font-stretch:normal;font-size:4.23334742px;font-family:Sniglet;-inkscape-font-specification:'Sniglet, Normal';font-variant-ligatures:normal;font-variant-caps:normal;font-variant-numeric:normal;font-feature-settings:normal;text-align:start;writing-mode:lr-tb;text-anchor:start;stroke-width:0.26458421"
       id="path1041"
       inkscape:connector-curvature="0" />
    <path
       d="m 20.943048,6.416961 q -0.0085,-0.1524005 -0.0127,-0.317501 0,-0.1651006 -0.0042,-0.3556012 -0.0042,-0.1905006 -0.0042,-0.4106347 0,-0.2243674 0,-0.499535 0,-0.3005677 0.0042,-0.512235 0.0042,-0.2159008 0.0254,-0.3513679 0.02117,-0.1354671 0.0635,-0.1989673 0.04657,-0.0635 0.122767,-0.0635 0.0381,0 0.07197,0.00847 0.03387,0.00847 0.05927,0.0381 0.0254,0.0254 0.04233,0.080434 0.02117,0.0508 0.0254,0.1354671 0.0085,0.1524005 0.0127,0.2709343 0.0042,0.1185337 0.0085,0.2370674 0.0042,0.1143004 0.0042,0.2413008 0,0.1227671 0,0.279401 0,0.1905006 0,0.3640678 0,0.1735673 -0.0042,0.3429012 -0.0042,0.1693339 -0.0085,0.3429011 -0.0042,0.1735673 -0.0127,0.3640679 -0.0042,0.1016003 -0.02117,0.1566338 -0.01693,0.055034 -0.04233,0.084667 -0.0254,0.029633 -0.05927,0.033867 -0.03387,0.00847 -0.0762,0.00847 -0.0762,0 -0.131233,-0.0508 -0.05503,-0.055034 -0.0635,-0.2286008 z"
       style="font-style:normal;font-variant:normal;font-weight:normal;font-stretch:normal;font-size:4.23334742px;font-family:Sniglet;-inkscape-font-specification:'Sniglet, Normal';font-variant-ligatures:normal;font-variant-caps:normal;font-variant-numeric:normal;font-feature-settings:normal;text-align:start;writing-mode:lr-tb;text-anchor:start;stroke-width:0.26458421"
       id="path1043"
       inkscape:connector-curvature="0" />
    <path
       d="m 21.93848,6.0359598 q -0.0085,-0.1354671 -0.01693,-0.3683013 -0.0085,-0.2328341 -0.0085,-0.4783682 0,-0.1397005 0,-0.2878676 0.0042,-0.1524005 0.0085,-0.3090344 0.0085,-0.3132677 0.0381,-0.4910683 0.03387,-0.1778006 0.127001,-0.2667009 0.09737,-0.0889 0.270934,-0.110067 0.173567,-0.021167 0.461435,-0.021167 0.0042,0 0.0889,0 0.0889,0 0.211667,0.00423 0.122768,0 0.254001,0.00423 0.135467,0.00423 0.224368,0.00847 0.09313,0.00847 0.148167,0.0254 0.05927,0.0127 0.0889,0.0381 0.02963,0.021167 0.0381,0.055034 0.0085,0.029633 0.0085,0.067734 0,0.097367 -0.05503,0.1439338 -0.05503,0.042333 -0.224367,0.055034 -0.08467,0.00847 -0.249767,0.0127 -0.160868,0 -0.330202,0 -0.169333,0 -0.304801,0.00423 -0.135467,0 -0.169333,0 -0.110067,0.00423 -0.156634,0.0508 -0.04233,0.042333 -0.04233,0.207434 0,0.0381 0.0042,0.1862673 0.0085,0.1439338 0.0085,0.4064014 h 0.351368 q 0.224368,0 0.364068,0.00847 0.143934,0.00423 0.220134,0.0254 0.08043,0.021167 0.110067,0.067734 0.02963,0.046567 0.02963,0.1227671 0,0.0381 -0.0085,0.071967 -0.0042,0.029633 -0.03387,0.055034 -0.02963,0.021167 -0.08467,0.0381 -0.05503,0.0127 -0.156634,0.021167 -0.122767,0.00847 -0.232834,0.0127 -0.105834,0 -0.211667,0 H 22.35335 q 0,0.0635 0,0.1524005 0,0.0889 0,0.182034 0,0.093134 0,0.1820339 0.0042,0.0889 0.0085,0.1439338 0.0042,0.067734 0.01693,0.1143004 0.01693,0.046567 0.05503,0.0762 0.04233,0.029634 0.118534,0.042333 0.08043,0.0127 0.211667,0.0127 h 0.91017 q 0.148167,0 0.186267,0.055034 0.0381,0.055033 0.0381,0.1481671 0,0.0762 -0.03387,0.1185338 -0.03387,0.0381 -0.165101,0.055033 -0.127,0.021167 -0.385235,0.0254 -0.254,0.00423 -0.702735,0.00423 -0.190501,0 -0.313268,-0.033867 -0.122767,-0.033867 -0.198967,-0.1143004 -0.0762,-0.080434 -0.114301,-0.207434 -0.03387,-0.1312337 -0.04657,-0.317501 z"
       style="font-style:normal;font-variant:normal;font-weight:normal;font-stretch:normal;font-size:4.23334742px;font-family:Sniglet;-inkscape-font-specification:'Sniglet, Normal';font-variant-ligatures:normal;font-variant-caps:normal;font-variant-numeric:normal;font-feature-settings:normal;text-align:start;writing-mode:lr-tb;text-anchor:start;stroke-width:0.26458421"
       id="path1045"
       inkscape:connector-curvature="0" />
    <path
       d="m 25.437738,4.5204214 q 0.0254,-0.059267 0.0762,-0.097367 0.05503,-0.0381 0.114301,-0.0381 0.05503,0 0.105833,0.0381 0.0508,0.033867 0.08043,0.093134 0.160867,0.3302011 0.317501,0.7154358 0.156634,0.3810012 0.283634,0.7239024 0.07197,-0.5249351 0.156634,-1.0583369 0.08467,-0.5334018 0.190501,-1.0202367 0.0127,-0.055033 0.0381,-0.0889 0.0254,-0.0381 0.05503,-0.055033 0.02963,-0.021167 0.05927,-0.029634 0.03387,-0.00847 0.05503,-0.00847 0.07197,0 0.118533,0.042334 0.04657,0.0381 0.04657,0.1058337 0,0.0762 -0.0254,0.2709342 -0.0254,0.1905007 -0.06773,0.4487349 -0.04233,0.2540008 -0.09737,0.5418684 -0.0508,0.2878677 -0.101601,0.5545686 -0.0508,0.2667008 -0.09737,0.4868349 -0.04657,0.2201341 -0.0762,0.3344344 -0.0254,0.097367 -0.0762,0.1481672 -0.0508,0.046567 -0.148167,0.046567 -0.101601,0 -0.173568,-0.0889 -0.06773,-0.093134 -0.1524,-0.2878676 -0.08043,-0.194734 -0.194734,-0.4953016 -0.1143,-0.3048011 -0.296334,-0.7281358 -0.186268,0.4233347 -0.304801,0.7281358 -0.114301,0.304801 -0.198968,0.499535 -0.08043,0.1947339 -0.1524,0.2878676 -0.07197,0.0889 -0.169334,0.0889 -0.169334,0 -0.224368,-0.194734 Q 24.54449,6.3703923 24.49793,6.1544916 24.45136,5.9343575 24.40056,5.6676566 24.35399,5.4009558 24.30319,5.1173215 24.25239,4.8294539 24.21429,4.575453 24.17619,4.3214522 24.15079,4.1309515 24.12962,3.9362176 24.12962,3.8600173 q 0,-0.071967 0.04657,-0.1185337 0.04657,-0.046567 0.131234,-0.046567 0.05927,0 0.114301,0.0381 0.05503,0.033867 0.08043,0.1439338 0.1016,0.4868349 0.177801,1.0202367 0.08043,0.5334018 0.169334,1.0583369 0.131233,-0.3090344 0.262467,-0.6561689 0.131234,-0.3471345 0.325968,-0.7789359 z"
       style="font-style:normal;font-variant:normal;font-weight:normal;font-stretch:normal;font-size:4.23334742px;font-family:Sniglet;-inkscape-font-specification:'Sniglet, Normal';font-variant-ligatures:normal;font-variant-caps:normal;font-variant-numeric:normal;font-feature-settings:normal;text-align:start;writing-mode:lr-tb;text-anchor:start;stroke-width:0.26458421"
       id="path1047"
       inkscape:connector-curvature="0" />
  </g>
</svg>
