<?xml version="1.0" encoding="UTF-8" standalone="no"?>
<svg
   xmlns:dc="http://purl.org/dc/elements/1.1/"
   xmlns:cc="http://creativecommons.org/ns#"
   xmlns:rdf="http://www.w3.org/1999/02/22-rdf-syntax-ns#"
   xmlns:svg="http://www.w3.org/2000/svg"
   xmlns="http://www.w3.org/2000/svg"
   xmlns:sodipodi="http://sodipodi.sourceforge.net/DTD/sodipodi-0.dtd"
   xmlns:inkscape="http://www.inkscape.org/namespaces/inkscape"
   width="120"
   height="380"
   viewBox="0 0 31.749926 100.542"
   version="1.1"
   id="svg148"
   sodipodi:docname="FourView.svg"
   inkscape:version="0.92.2 (5c3e80d, 2017-08-06)">
  <metadata
     id="metadata154">
    <rdf:RDF>
      <cc:Work
         rdf:about="">
        <dc:format>image/svg+xml</dc:format>
        <dc:type
           rdf:resource="http://purl.org/dc/dcmitype/StillImage" />
        <dc:title></dc:title>
      </cc:Work>
    </rdf:RDF>
  </metadata>
  <defs
     id="defs152" />
  <sodipodi:namedview
     pagecolor="#ffffff"
     bordercolor="#666666"
     borderopacity="1"
     objecttolerance="10"
     gridtolerance="10"
     guidetolerance="10"
     inkscape:pageopacity="0"
     inkscape:pageshadow="2"
     inkscape:window-width="1920"
     inkscape:window-height="1017"
     id="namedview150"
     showgrid="false"
     inkscape:zoom="4.2474107"
     inkscape:cx="60.000338"
     inkscape:cy="142.91438"
     inkscape:window-x="-8"
     inkscape:window-y="-8"
     inkscape:window-maximized="1"
     inkscape:current-layer="svg148"
     showguides="true"
     inkscape:guide-bbox="true">
    <sodipodi:guide
       position="15.874963,92.19373"
       orientation="1,0"
       id="guide1050"
       inkscape:locked="false"
       inkscape:label=""
       inkscape:color="rgb(0,0,255)" />
    <sodipodi:guide
       position="8.4666469,84.344804"
       orientation="1,0"
       id="guide1074"
       inkscape:locked="false"
       inkscape:label=""
       inkscape:color="rgb(0,0,255)" />
    <sodipodi:guide
       position="23.283279,78.738429"
       orientation="1,0"
       id="guide1076"
       inkscape:locked="false"
       inkscape:label=""
       inkscape:color="rgb(0,0,255)" />
  </sodipodi:namedview>
  <path
     style="fill:#dcdcdc;stroke-width:1"
     inkscape:connector-curvature="0"
     id="path2"
     d="M 0,0 H 31.750105 V 100.541 H 0 Z m 0,0" />
  <rect
     style="fill:#999999;stroke-width:0.99999988;paint-order:stroke markers fill"
     id="rect6"
     rx="2.3399999"
     ry="2.3399999"
     y="42.683624"
     x="17.462463"
     height="49.442612"
     width="11.641706" />
  <g
     id="g26"
     style="line-height:1.25"
     transform="translate(-72.425206,-161.307)">
    <path
       inkscape:connector-curvature="0"
       id="path24"
       word-spacing="0"
       letter-spacing="0"
       font-weight="400"
       aria-label="♫"
       font-size="3.528"
       style="font-weight:400;font-size:3.52800012px;font-family:Arial;-inkscape-font-specification:'Arial, Normal';font-variant-ligatures:normal;font-variant-caps:normal;font-variant-numeric:normal;font-feature-settings:normal;text-align:start;letter-spacing:0;word-spacing:0;fill:#333333"
       d="m 88.643,258.177 -1.63,0.115 v -2.06 q 0,-0.23 0.065,-0.333 0.064,-0.104 0.22,-0.147 0.153,-0.043 0.347,-0.002 0.224,0.047 0.357,0.19 0.133,0.146 0.133,0.33 0,0.186 -0.158,0.286 -0.157,0.103 -0.407,0.05 -0.082,-0.018 -0.144,-0.044 -0.063,-0.027 -0.205,-0.11 v 1.345 l 1.22,-0.085 v -1.554 q 0,-0.225 0.065,-0.337 0.065,-0.11 0.225,-0.151 0.16,-0.04 0.349,0 0.223,0.047 0.354,0.19 0.129,0.14 0.129,0.325 0,0.195 -0.156,0.294 -0.155,0.1 -0.407,0.047 -0.16,-0.034 -0.357,-0.16 z" />
  </g>
  <g
     aria-label="4-VIEW"
     style="font-style:normal;font-weight:normal;font-size:10.5833683px;line-height:1.25;font-family:sans-serif;letter-spacing:0px;word-spacing:0px;fill:#000000;fill-opacity:1;stroke:none;stroke-width:0.26458421"
     id="text1035"
     transform="translate(-4.7008677)">
    <path
       d="m 15.702626,5.8031257 q -0.0042,0.1608672 -0.0042,0.3513678 0,0.1905006 -0.0127,0.3556012 -0.0085,0.1270004 -0.05927,0.1651005 -0.04657,0.033867 -0.131234,0.033867 -0.0762,0 -0.118533,-0.029633 -0.0381,-0.0254 -0.05927,-0.1143004 -0.01693,-0.093134 -0.02117,-0.2667009 -0.0042,-0.1778006 -0.0042,-0.4741349 -0.139701,0 -0.266701,0.00423 -0.127001,0.00423 -0.245534,0.00423 -0.177801,0 -0.325968,-0.00847 -0.143934,-0.00847 -0.249768,-0.029633 -0.1016,-0.0254 -0.160867,-0.067734 -0.05503,-0.042333 -0.05503,-0.110067 0,-0.093134 0.0762,-0.2328341 0.0762,-0.1439338 0.190501,-0.3090344 0.1143,-0.1651005 0.2413,-0.3344344 0.131234,-0.1735673 0.241301,-0.3217344 0.0508,-0.067734 0.143934,-0.1862673 0.09737,-0.1227671 0.207434,-0.2413008 0.110067,-0.1227671 0.220134,-0.2116674 0.110067,-0.0889 0.186267,-0.0889 0.07197,0 0.127001,0.046567 0.05503,0.046567 0.0635,0.2159007 0.01693,0.2455342 0.02117,0.5164684 0.0042,0.2667009 0.0042,0.5291685 V 5.417891 q 0.118534,0.00847 0.190501,0.021167 0.07197,0.0127 0.110067,0.0381 0.0381,0.021167 0.0508,0.055034 0.0127,0.033867 0.0127,0.084667 0,0.1058337 -0.09737,0.1439338 -0.09737,0.033867 -0.275168,0.042333 z M 15.287758,4.4188211 q -0.186267,0.2243674 -0.317501,0.3852346 -0.127,0.1566338 -0.220134,0.2709342 -0.0889,0.1143004 -0.156634,0.194734 -0.0635,0.080434 -0.1143,0.1439338 0.194734,-0.00847 0.397935,-0.00847 0.207434,-0.00423 0.410634,-0.00423 z"
       style="font-style:normal;font-variant:normal;font-weight:normal;font-stretch:normal;font-size:4.23334742px;font-family:Sniglet;-inkscape-font-specification:'Sniglet, Normal';font-variant-ligatures:normal;font-variant-caps:normal;font-variant-numeric:normal;font-feature-settings:normal;text-align:start;writing-mode:lr-tb;text-anchor:start;stroke-width:0.26458421"
       id="path1037"
       inkscape:connector-curvature="0" />
    <path
       d="m 17.869968,5.6210917 q -0.194734,0.00847 -0.448735,0.016933 -0.254001,0.00423 -0.601135,0.00423 -0.143934,0 -0.245534,-0.00423 -0.101601,-0.00423 -0.165101,-0.021167 -0.0635,-0.021167 -0.09313,-0.0635 -0.02963,-0.042333 -0.02963,-0.1185338 0,-0.0381 0.0085,-0.067734 0.0085,-0.033867 0.0381,-0.059267 0.02963,-0.0254 0.08043,-0.042333 0.05503,-0.021167 0.1397,-0.029633 0.0635,-0.00423 0.110067,-0.00847 0.0508,-0.00423 0.09737,-0.00423 0.04657,-0.00423 0.09737,-0.00423 0.05503,0 0.127001,0 0.2286,0 0.440268,0.00423 0.211667,0 0.440268,0.0127 0.1016,0.00847 0.156634,0.0254 0.05503,0.0127 0.08467,0.0381 0.02963,0.0254 0.03387,0.059267 0.0085,0.033867 0.0085,0.0762 0,0.0762 -0.05503,0.1270005 -0.0508,0.0508 -0.224368,0.059267 z"
       style="font-style:normal;font-variant:normal;font-weight:normal;font-stretch:normal;font-size:4.23334742px;font-family:Sniglet;-inkscape-font-specification:'Sniglet, Normal';font-variant-ligatures:normal;font-variant-caps:normal;font-variant-numeric:normal;font-feature-settings:normal;text-align:start;writing-mode:lr-tb;text-anchor:start;stroke-width:0.26458421"
       id="path1039"
       inkscape:connector-curvature="0" />
    <path
       d="m 19.645725,6.5100947 q -0.05503,0.1016003 -0.101601,0.1481671 -0.04233,0.046567 -0.110067,0.046567 -0.06773,0 -0.118533,-0.046567 -0.0508,-0.046567 -0.110067,-0.1439338 -0.0762,-0.1270004 -0.173568,-0.3513678 -0.09313,-0.2243674 -0.1905,-0.486835 -0.09737,-0.2667008 -0.190501,-0.5503351 -0.09313,-0.2836343 -0.169334,-0.5334018 -0.07197,-0.2497675 -0.118533,-0.4360348 -0.04233,-0.1905006 -0.04233,-0.2709342 0,-0.084667 0.03387,-0.1270004 0.03387,-0.042334 0.131234,-0.042334 0.05503,0 0.09313,0.029633 0.04233,0.0254 0.105834,0.1524005 0.0508,0.097367 0.110067,0.2540009 0.05927,0.1566338 0.122767,0.3471345 0.06773,0.1905006 0.135467,0.402168 0.06773,0.207434 0.135467,0.414868 0.06773,0.207434 0.127001,0.3979347 0.05927,0.1905006 0.110067,0.3429011 0.0508,-0.1566338 0.1143,-0.3471345 0.0635,-0.194734 0.131234,-0.3979346 0.06773,-0.2074341 0.135467,-0.4148681 0.06773,-0.2116674 0.135467,-0.3979346 0.06773,-0.1862673 0.127001,-0.3429012 0.05927,-0.1566338 0.105833,-0.2582342 0.05927,-0.122767 0.101601,-0.1524005 0.04657,-0.029633 0.09313,-0.029633 0.09737,0 0.131234,0.0508 0.0381,0.046567 0.0381,0.1397004 0,0.084667 -0.0254,0.2032007 -0.0254,0.1185337 -0.0889,0.3175011 -0.05927,0.1947339 -0.160867,0.4868349 -0.101601,0.292101 -0.249768,0.7154357 -0.0381,0.1143004 -0.0889,0.2370675 -0.04657,0.122767 -0.09737,0.2413008 -0.04657,0.1143004 -0.09313,0.220134 -0.04657,0.1058337 -0.0889,0.182034 z"
       style="font-style:normal;font-variant:normal;font-weight:normal;font-stretch:normal;font-size:4.23334742px;font-family:Sniglet;-inkscape-font-specification:'Sniglet, Normal';font-variant-ligatures:normal;font-variant-caps:normal;font-variant-numeric:normal;font-feature-settings:normal;text-align:start;writing-mode:lr-tb;text-anchor:start;stroke-width:0.26458421"
       id="path1041"
       inkscape:connector-curvature="0" />
    <path
       d="m 20.943048,6.416961 q -0.0085,-0.1524005 -0.0127,-0.317501 0,-0.1651006 -0.0042,-0.3556012 -0.0042,-0.1905006 -0.0042,-0.4106347 0,-0.2243674 0,-0.499535 0,-0.3005677 0.0042,-0.512235 0.0042,-0.2159008 0.0254,-0.3513679 0.02117,-0.1354671 0.0635,-0.1989673 0.04657,-0.0635 0.122767,-0.0635 0.0381,0 0.07197,0.00847 0.03387,0.00847 0.05927,0.0381 0.0254,0.0254 0.04233,0.080434 0.02117,0.0508 0.0254,0.1354671 0.0085,0.1524005 0.0127,0.2709343 0.0042,0.1185337 0.0085,0.2370674 0.0042,0.1143004 0.0042,0.2413008 0,0.1227671 0,0.279401 0,0.1905006 0,0.3640678 0,0.1735673 -0.0042,0.3429012 -0.0042,0.1693339 -0.0085,0.3429011 -0.0042,0.1735673 -0.0127,0.3640679 -0.0042,0.1016003 -0.02117,0.1566338 -0.01693,0.055034 -0.04233,0.084667 -0.0254,0.029633 -0.05927,0.033867 -0.03387,0.00847 -0.0762,0.00847 -0.0762,0 -0.131233,-0.0508 -0.05503,-0.055034 -0.0635,-0.2286008 z"
       style="font-style:normal;font-variant:normal;font-weight:normal;font-stretch:normal;font-size:4.23334742px;font-family:Sniglet;-inkscape-font-specification:'Sniglet, Normal';font-variant-ligatures:normal;font-variant-caps:normal;font-variant-numeric:normal;font-feature-settings:normal;text-align:start;writing-mode:lr-tb;text-anchor:start;stroke-width:0.26458421"
       id="path1043"
       inkscape:connector-curvature="0" />
    <path
       d="m 21.93848,6.0359598 q -0.0085,-0.1354671 -0.01693,-0.3683013 -0.0085,-0.2328341 -0.0085,-0.4783682 0,-0.1397005 0,-0.2878676 0.0042,-0.1524005 0.0085,-0.3090344 0.0085,-0.3132677 0.0381,-0.4910683 0.03387,-0.1778006 0.127001,-0.2667009 0.09737,-0.0889 0.270934,-0.110067 0.173567,-0.021167 0.461435,-0.021167 0.0042,0 0.0889,0 0.0889,0 0.211667,0.00423 0.122768,0 0.254001,0.00423 0.135467,0.00423 0.224368,0.00847 0.09313,0.00847 0.148167,0.0254 0.05927,0.0127 0.0889,0.0381 0.02963,0.021167 0.0381,0.055034 0.0085,0.029633 0.0085,0.067734 0,0.097367 -0.05503,0.1439338 -0.05503,0.042333 -0.224367,0.055034 -0.08467,0.00847 -0.249767,0.0127 -0.160868,0 -0.330202,0 -0.169333,0 -0.304801,0.00423 -0.135467,0 -0.169333,0 -0.110067,0.00423 -0.156634,0.0508 -0.04233,0.042333 -0.04233,0.207434 0,0.0381 0.0042,0.1862673 0.0085,0.1439338 0.0085,0.4064014 h 0.351368 q 0.224368,0 0.364068,0.00847 0.143934,0.00423 0.220134,0.0254 0.08043,0.021167 0.110067,0.067734 0.02963,0.046567 0.02963,0.1227671 0,0.0381 -0.0085,0.071967 -0.0042,0.029633 -0.03387,0.055034 -0.02963,0.021167 -0.08467,0.0381 -0.05503,0.0127 -0.156634,0.021167 -0.122767,0.00847 -0.232834,0.0127 -0.105834,0 -0.211667,0 H 22.35335 q 0,0.0635 0,0.1524005 0,0.0889 0,0.182034 0,0.093134 0,0.1820339 0.0042,0.0889 0.0085,0.1439338 0.0042,0.067734 0.01693,0.1143004 0.01693,0.046567 0.05503,0.0762 0.04233,0.029634 0.118534,0.042333 0.08043,0.0127 0.211667,0.0127 h 0.91017 q 0.148167,0 0.186267,0.055034 0.0381,0.055033 0.0381,0.1481671 0,0.0762 -0.03387,0.1185338 -0.03387,0.0381 -0.165101,0.055033 -0.127,0.021167 -0.385235,0.0254 -0.254,0.00423 -0.702735,0.00423 -0.190501,0 -0.313268,-0.033867 -0.122767,-0.033867 -0.198967,-0.1143004 -0.0762,-0.080434 -0.114301,-0.207434 -0.03387,-0.1312337 -0.04657,-0.317501 z"
       style="font-style:normal;font-variant:normal;font-weight:normal;font-stretch:normal;font-size:4.23334742px;font-family:Sniglet;-inkscape-font-specification:'Sniglet, Normal';font-variant-ligatures:normal;font-variant-caps:normal;font-variant-numeric:normal;font-feature-settings:normal;text-align:start;writing-mode:lr-tb;text-anchor:start;stroke-width:0.26458421"
       id="path1045"
       inkscape:connector-curvature="0" />
    <path
       d="m 25.437738,4.5204214 q 0.0254,-0.059267 0.0762,-0.097367 0.05503,-0.0381 0.114301,-0.0381 0.05503,0 0.105833,0.0381 0.0508,0.033867 0.08043,0.093134 0.160867,0.3302011 0.317501,0.7154358 0.156634,0.3810012 0.283634,0.7239024 0.07197,-0.5249351 0.156634,-1.0583369 0.08467,-0.5334018 0.190501,-1.0202367 0.0127,-0.055033 0.0381,-0.0889 0.0254,-0.0381 0.05503,-0.055033 0.02963,-0.021167 0.05927,-0.029634 0.03387,-0.00847 0.05503,-0.00847 0.07197,0 0.118533,0.042334 0.04657,0.0381 0.04657,0.1058337 0,0.0762 -0.0254,0.2709342 -0.0254,0.1905007 -0.06773,0.4487349 -0.04233,0.2540008 -0.09737,0.5418684 -0.0508,0.2878677 -0.101601,0.5545686 -0.0508,0.2667008 -0.09737,0.4868349 -0.04657,0.2201341 -0.0762,0.3344344 -0.0254,0.097367 -0.0762,0.1481672 -0.0508,0.046567 -0.148167,0.046567 -0.101601,0 -0.173568,-0.0889 -0.06773,-0.093134 -0.1524,-0.2878676 -0.08043,-0.194734 -0.194734,-0.4953016 -0.1143,-0.3048011 -0.296334,-0.7281358 -0.186268,0.4233347 -0.304801,0.7281358 -0.114301,0.304801 -0.198968,0.499535 -0.08043,0.1947339 -0.1524,0.2878676 -0.07197,0.0889 -0.169334,0.0889 -0.169334,0 -0.224368,-0.194734 Q 24.54449,6.3703923 24.49793,6.1544916 24.45136,5.9343575 24.40056,5.6676566 24.35399,5.4009558 24.30319,5.1173215 24.25239,4.8294539 24.21429,4.575453 24.17619,4.3214522 24.15079,4.1309515 24.12962,3.9362176 24.12962,3.8600173 q 0,-0.071967 0.04657,-0.1185337 0.04657,-0.046567 0.131234,-0.046567 0.05927,0 0.114301,0.0381 0.05503,0.033867 0.08043,0.1439338 0.1016,0.4868349 0.177801,1.0202367 0.08043,0.5334018 0.169334,1.0583369 0.131233,-0.3090344 0.262467,-0.6561689 0.131234,-0.3471345 0.325968,-0.7789359 z"
       style="font-style:normal;font-variant:normal;font-weight:normal;font-stretch:normal;font-size:4.23334742px;font-family:Sniglet;-inkscape-font-specification:'Sniglet, Normal';font-variant-ligatures:normal;font-variant-caps:normal;font-variant-numeric:normal;font-feature-settings:normal;text-align:start;writing-mode:lr-tb;text-anchor:start;stroke-width:0.26458421"
       id="path1047"
       inkscape:connector-curvature="0" />
  </g>
  <g
     aria-label="THRU"
     style="font-style:normal;font-weight:normal;font-size:10.5833683px;line-height:1.25;font-family:sans-serif;letter-spacing:0px;word-spacing:0px;fill:#000000;fill-opacity:1;stroke:none;stroke-width:0.26458421"
     id="text1054">
    <path
       d="m 21.325463,39.511241 q -0.07902,0.0056 -0.169334,0.0085 -0.08749,0.0028 -0.194734,0.0056 0.0028,0.0762 0.0056,0.143934 0.0028,0.06491 0.0056,0.132645 0.0028,0.06773 0.0028,0.141111 0.0028,0.07338 0.0028,0.16369 0,0.127 0,0.245534 0,0.115711 -0.0028,0.234245 -0.0028,0.115712 -0.0056,0.234245 -0.0028,0.118534 -0.0085,0.245534 -0.0028,0.06773 -0.01411,0.104423 -0.0085,0.03669 -0.0254,0.05645 -0.01693,0.01975 -0.03951,0.02258 -0.02258,0.0056 -0.0508,0.0056 -0.0508,0 -0.08749,-0.03387 -0.03387,-0.03669 -0.03951,-0.1524 -0.0056,-0.101601 -0.0085,-0.21449 0,-0.112889 -0.0028,-0.242712 -0.0028,-0.129823 -0.0028,-0.279401 0,-0.1524 0,-0.335845 0,-0.155223 0,-0.270935 0.0028,-0.115711 0.0085,-0.200378 h -0.115712 q -0.118534,0 -0.203201,-0.0028 -0.08184,-0.0028 -0.135467,-0.01411 -0.05362,-0.01411 -0.07902,-0.04233 -0.02258,-0.02822 -0.02258,-0.07902 0,-0.0254 0.0056,-0.04516 0.0056,-0.02258 0.0254,-0.03951 0.01976,-0.01976 0.05362,-0.03104 0.03669,-0.01129 0.09313,-0.01693 0.05362,-0.0028 0.09596,-0.0056 0.04233,-0.0028 0.08467,-0.0056 0.04233,-0.0028 0.08749,-0.0028 0.04516,0 0.104423,0 0.166512,0 0.313268,0.0028 0.149578,0.0028 0.31609,0.01129 0.06773,0.0056 0.104422,0.01693 0.03669,0.0085 0.05645,0.0254 0.01975,0.01693 0.02258,0.03951 0.0056,0.02258 0.0056,0.0508 0,0.0508 -0.03669,0.08467 -0.03387,0.03387 -0.149578,0.03951 z"
       style="font-style:normal;font-variant:normal;font-weight:normal;font-stretch:normal;font-size:2.82223153px;font-family:Sniglet;-inkscape-font-specification:'Sniglet, Normal';font-variant-ligatures:normal;font-variant-caps:normal;font-variant-numeric:normal;font-feature-settings:normal;text-align:start;writing-mode:lr-tb;text-anchor:start;stroke-width:0.26458421"
       id="path1155" />
    <path
       d="m 22.82517,41.052179 q -0.0056,-0.1524 -0.01129,-0.318912 -0.0028,-0.169334 -0.0028,-0.389468 -0.09031,0.0028 -0.191912,0.0056 -0.1016,0 -0.208845,0 -0.127,0 -0.231423,0 -0.104422,0 -0.186267,-0.0028 -0.0028,0.177801 -0.0056,0.344313 -0.0028,0.163689 -0.01129,0.358423 -0.0028,0.06773 -0.01411,0.104423 -0.0085,0.03669 -0.0254,0.05644 -0.01693,0.01976 -0.03951,0.02258 -0.01975,0.0056 -0.04798,0.0056 -0.0508,0 -0.08467,-0.03387 -0.03387,-0.03669 -0.03951,-0.152401 -0.0056,-0.1016 -0.0085,-0.211667 0,-0.110067 -0.0028,-0.237068 -0.0028,-0.127 -0.0028,-0.273756 0,-0.149578 0,-0.333023 0,-0.200379 0.0028,-0.34149 0.0028,-0.143934 0.01411,-0.234246 0.01411,-0.09031 0.04233,-0.132644 0.02822,-0.04233 0.07902,-0.04233 0.04798,0 0.08467,0.03104 0.03669,0.03104 0.04233,0.143933 0.0056,0.09596 0.0085,0.174979 0.0028,0.0762 0.0056,0.1524 0.0028,0.07338 0.0028,0.152401 0,0.07902 0,0.174978 0.211667,-0.0085 0.414868,-0.0085 0.09878,0 0.197556,0.0028 0.101601,0.0028 0.206023,0.0085 v -0.08184 q 0,-0.200379 0.0028,-0.34149 0.0028,-0.143934 0.01411,-0.234246 0.01411,-0.09031 0.04233,-0.132644 0.02822,-0.04233 0.07902,-0.04233 0.04798,0 0.08467,0.03104 0.03669,0.03104 0.04233,0.143933 0.0056,0.101601 0.0085,0.180623 0.0028,0.07902 0.0056,0.158045 0.0028,0.0762 0.0028,0.160867 0,0.08184 0,0.186268 0,0.127 0,0.242712 0,0.115711 -0.0028,0.2286 -0.0028,0.11289 -0.0056,0.228601 -0.0028,0.115712 -0.0085,0.242712 -0.0028,0.06773 -0.01411,0.104423 -0.0085,0.03669 -0.0254,0.05644 -0.01693,0.01976 -0.03951,0.02258 -0.01975,0.0056 -0.04798,0.0056 -0.0508,0 -0.08467,-0.03387 -0.03387,-0.03669 -0.03951,-0.152401 z"
       style="font-style:normal;font-variant:normal;font-weight:normal;font-stretch:normal;font-size:2.82223153px;font-family:Sniglet;-inkscape-font-specification:'Sniglet, Normal';font-variant-ligatures:normal;font-variant-caps:normal;font-variant-numeric:normal;font-feature-settings:normal;text-align:start;writing-mode:lr-tb;text-anchor:start;stroke-width:0.26458421"
       id="path1157" />
    <path
       d="m 24.082122,40.532889 q -0.03951,0.0028 -0.08184,0.0056 -0.03951,0 -0.08185,0 -0.04798,0 -0.09596,0 -0.04798,0 -0.107244,-0.0056 v 0.572913 q 0,0.09031 -0.04516,0.112889 -0.04233,0.01976 -0.107245,0.01976 -0.03387,0 -0.05362,-0.0056 -0.01976,-0.0028 -0.03387,-0.01411 -0.01129,-0.01411 -0.01976,-0.03951 -0.0056,-0.0254 -0.0085,-0.07056 -0.0056,-0.0508 -0.0085,-0.146756 -0.0028,-0.09878 -0.0056,-0.254001 0,-0.155223 -0.0028,-0.375357 0,-0.222956 0,-0.522113 0,-0.115711 0.02822,-0.222956 0.02822,-0.110067 0.1016,-0.191912 0.07338,-0.08467 0.197556,-0.135467 0.127001,-0.0508 0.321734,-0.0508 0.13829,0 0.268112,0.03104 0.132645,0.03104 0.234246,0.107244 0.1016,0.0762 0.163689,0.206023 0.06209,0.129823 0.06209,0.324557 0,0.259645 -0.112889,0.403579 -0.110067,0.141112 -0.304801,0.200378 l 0.378179,0.519291 q 0.0508,0.06773 0.0508,0.138289 0,0.05644 -0.03951,0.08749 -0.03669,0.03387 -0.09313,0.03387 -0.06209,0 -0.107245,-0.03387 -0.04516,-0.03669 -0.08467,-0.09313 z m 0.44309,-0.65758 q 0,-0.194734 -0.118534,-0.287868 -0.115711,-0.09596 -0.369712,-0.09596 -0.09313,0 -0.155223,0.01693 -0.06209,0.01411 -0.09878,0.05644 -0.03669,0.04233 -0.05362,0.118534 -0.01411,0.07338 -0.01411,0.189089 0,0.08185 0,0.191912 0,0.110067 0.0028,0.200379 0.06491,0.0028 0.143934,0.0028 0.08184,0 0.1524,0 0.07902,0 0.166512,-0.0085 0.09031,-0.01129 0.166511,-0.0508 0.0762,-0.04233 0.127001,-0.118534 0.0508,-0.07902 0.0508,-0.214489 z"
       style="font-style:normal;font-variant:normal;font-weight:normal;font-stretch:normal;font-size:2.82223153px;font-family:Sniglet;-inkscape-font-specification:'Sniglet, Normal';font-variant-ligatures:normal;font-variant-caps:normal;font-variant-numeric:normal;font-feature-settings:normal;text-align:start;writing-mode:lr-tb;text-anchor:start;stroke-width:0.26458421"
       id="path1159" />
    <path
       d="m 25.736435,41.275136 q -0.321735,0 -0.471313,-0.174979 -0.05927,-0.06773 -0.1016,-0.172156 -0.03951,-0.107245 -0.06491,-0.276579 -0.02258,-0.169334 -0.03387,-0.41769 -0.0085,-0.251179 -0.0085,-0.609602 0,-0.115711 0.0056,-0.189089 0.0056,-0.0762 0.02258,-0.118534 0.01693,-0.04516 0.04233,-0.06209 0.02822,-0.01693 0.07055,-0.01693 0.08185,0 0.115712,0.07338 0.03387,0.07338 0.03387,0.254001 0,0.06209 -0.0028,0.110067 0,0.04798 0,0.09878 0,0.04798 -0.0028,0.107245 0,0.05927 0,0.143934 0,0.282223 0.01693,0.46849 0.01975,0.186268 0.06491,0.299157 0.04516,0.110067 0.121356,0.155223 0.07902,0.04515 0.194734,0.04515 0.121356,0 0.200378,-0.04798 0.08185,-0.0508 0.129823,-0.166511 0.04798,-0.118534 0.06773,-0.313268 0.02258,-0.194734 0.02258,-0.485424 0,-0.127 -0.0028,-0.217312 0,-0.09031 0,-0.163689 0,-0.104423 0.0056,-0.174978 0.0085,-0.07056 0.02258,-0.110067 0.01693,-0.04233 0.04516,-0.05927 0.02822,-0.01693 0.07056,-0.01693 0.04233,0 0.07056,0.01693 0.02822,0.01693 0.04516,0.05927 0.01693,0.04233 0.02258,0.118533 0.0056,0.07338 0.0056,0.191912 0,0.496713 -0.03104,0.818447 -0.03104,0.318912 -0.110067,0.50518 -0.07902,0.183445 -0.217312,0.256823 -0.135467,0.07056 -0.349956,0.07056 z"
       style="font-style:normal;font-variant:normal;font-weight:normal;font-stretch:normal;font-size:2.82223153px;font-family:Sniglet;-inkscape-font-specification:'Sniglet, Normal';font-variant-ligatures:normal;font-variant-caps:normal;font-variant-numeric:normal;font-feature-settings:normal;text-align:start;writing-mode:lr-tb;text-anchor:start;stroke-width:0.26458421"
       id="path1161" />
  </g>
  <g
     aria-label="IN"
     style="font-style:normal;font-weight:normal;font-size:10.5833683px;line-height:1.25;font-family:sans-serif;letter-spacing:0px;word-spacing:0px;fill:#000000;fill-opacity:1;stroke:none;stroke-width:0.26458421"
     id="text1054-3">
    <path
       d="m 7.4084533,41.088869 q -0.00564,-0.1016 -0.00847,-0.211667 0,-0.110067 -0.00282,-0.237068 -0.00282,-0.127 -0.00282,-0.273756 0,-0.149578 0,-0.333023 0,-0.200379 0.00282,-0.34149 0.00282,-0.143934 0.016933,-0.234246 0.014111,-0.09031 0.042333,-0.132645 0.031045,-0.04233 0.081845,-0.04233 0.0254,0 0.047978,0.0056 0.022578,0.0056 0.039511,0.0254 0.016933,0.01693 0.028222,0.05362 0.014111,0.03387 0.016933,0.09031 0.00564,0.101601 0.00847,0.180623 0.00282,0.07902 0.00564,0.158045 0.00282,0.0762 0.00282,0.160867 0,0.08184 0,0.186268 0,0.127 0,0.242711 0,0.115712 -0.00282,0.228601 -0.00282,0.112889 -0.00564,0.228601 -0.00282,0.115711 -0.00847,0.242712 -0.00282,0.06773 -0.014111,0.104422 -0.011289,0.03669 -0.028222,0.05644 -0.016933,0.01976 -0.039511,0.02258 -0.022578,0.0056 -0.0508,0.0056 -0.0508,0 -0.087489,-0.03387 -0.036689,-0.03669 -0.042333,-0.152401 z"
       style="font-style:normal;font-variant:normal;font-weight:normal;font-stretch:normal;font-size:2.82223129px;font-family:Sniglet;-inkscape-font-specification:'Sniglet, Normal';font-variant-ligatures:normal;font-variant-caps:normal;font-variant-numeric:normal;font-feature-settings:normal;text-align:start;writing-mode:lr-tb;text-anchor:start;stroke-width:0.26458421"
       id="path1150" />
    <path
       d="M 9.1727447,41.131202 Q 9.0824333,41.007024 9.0005886,40.885668 8.9215661,40.76149 8.8284325,40.614734 8.7381211,40.467978 8.6195874,40.290178 8.5038759,40.109555 8.3401865,39.869665 q 0,0.211667 0,0.381001 0,0.166512 -0.00282,0.310446 -0.00282,0.143934 -0.00564,0.270934 -0.00282,0.127 -0.00847,0.254001 -0.00282,0.06773 -0.014111,0.104422 -0.00847,0.03669 -0.0254,0.05644 -0.016933,0.01976 -0.039511,0.02258 -0.019756,0.0056 -0.047978,0.0056 -0.0508,0 -0.084667,-0.03387 -0.033867,-0.03669 -0.039511,-0.152401 -0.014111,-0.310445 -0.016933,-0.620891 0,-0.313268 0,-0.646291 0,-0.189089 0.00282,-0.296334 0.00564,-0.107245 0.019756,-0.160867 0.016933,-0.05362 0.042333,-0.06773 0.028222,-0.01411 0.073378,-0.01411 0.045156,0 0.1185337,0.07056 0.073378,0.06773 0.1608672,0.180623 0.087489,0.112889 0.1862673,0.259645 0.1016003,0.146756 0.2003784,0.301979 0.098778,0.155222 0.1890895,0.307623 0.093134,0.1524 0.1693339,0.276578 -0.00282,-0.132644 -0.00282,-0.290689 0,-0.160868 0,-0.355601 0,-0.222957 0.00282,-0.366891 0.00282,-0.146756 0.014111,-0.231423 0.014111,-0.08467 0.042333,-0.118533 0.028222,-0.03387 0.079022,-0.03387 0.047978,0 0.084667,0.03104 0.036689,0.03104 0.042333,0.143933 0.00564,0.101601 0.00847,0.180623 0.00282,0.07902 0.00564,0.158045 0.00282,0.0762 0.00282,0.160867 0,0.08184 0,0.186268 0,0.127 0,0.242711 0,0.115712 -0.00282,0.228601 -0.00282,0.112889 -0.00564,0.228601 -0.00282,0.115711 -0.00847,0.242712 -0.00282,0.06773 -0.014111,0.104422 -0.00847,0.03669 -0.0254,0.05644 -0.016933,0.01976 -0.039511,0.02258 -0.019756,0.0056 -0.047978,0.0056 -0.047978,0 -0.081845,-0.02822 -0.033867,-0.02822 -0.098778,-0.115712 z"
       style="font-style:normal;font-variant:normal;font-weight:normal;font-stretch:normal;font-size:2.82223129px;font-family:Sniglet;-inkscape-font-specification:'Sniglet, Normal';font-variant-ligatures:normal;font-variant-caps:normal;font-variant-numeric:normal;font-feature-settings:normal;text-align:start;writing-mode:lr-tb;text-anchor:start;stroke-width:0.26458421"
       id="path1152" />
  </g>
  <g
     aria-label="1"
     style="font-style:normal;font-weight:normal;font-size:10.5833683px;line-height:1.25;font-family:sans-serif;letter-spacing:0px;word-spacing:0px;fill:#000000;fill-opacity:1;stroke:none;stroke-width:0.26458421"
     id="text1054-2"
     transform="translate(0,1.0583368)">
    <path
       d="m 8.5868681,10.747691 q -0.00564,-0.1016 -0.00847,-0.211667 0,-0.110067 -0.00282,-0.237068 -0.00282,-0.127 -0.00282,-0.273756 0,-0.1495784 0,-0.3330234 V 9.3393977 l -0.1693339,0.087489 q -0.070556,0.045156 -0.1128892,0.053622 -0.039511,0.00847 -0.087489,0.00847 -0.042333,0 -0.0762,-0.036689 -0.031045,-0.036689 -0.031045,-0.087489 0,-0.0508 0.033867,-0.087489 0.036689,-0.039511 0.084667,-0.070556 0.062089,-0.042333 0.1326449,-0.084667 0.073378,-0.042333 0.1411116,-0.0762 0.067733,-0.036689 0.1241781,-0.056445 0.059267,-0.022578 0.098778,-0.022578 0.019756,0 0.039511,0.00564 0.022578,0.00564 0.039511,0.022578 0.019756,0.016933 0.031045,0.053622 0.014111,0.033867 0.016933,0.093134 0.00564,0.1016003 0.00847,0.1778005 0.00282,0.0762 0.00564,0.1495783 0.00282,0.070556 0.00282,0.1495783 0,0.079022 0,0.183445 0,0.1270004 0,0.2427112 0,0.115712 -0.00282,0.228601 -0.00282,0.112889 -0.00564,0.228601 -0.00282,0.115711 -0.00847,0.242712 -0.00282,0.06773 -0.014111,0.104422 -0.00847,0.03669 -0.0254,0.05645 -0.016933,0.01976 -0.039511,0.02258 -0.019756,0.0056 -0.047978,0.0056 -0.0508,0 -0.084667,-0.03387 -0.033867,-0.03669 -0.039511,-0.152401 z"
       style="font-style:normal;font-variant:normal;font-weight:normal;font-stretch:normal;font-size:2.82223129px;font-family:Sniglet;-inkscape-font-specification:'Sniglet, Normal';font-variant-ligatures:normal;font-variant-caps:normal;font-variant-numeric:normal;font-feature-settings:normal;text-align:start;writing-mode:lr-tb;text-anchor:start;stroke-width:0.26458421"
       id="path1147"
       inkscape:connector-curvature="0" />
  </g>
  <g
     aria-label="2"
     style="font-style:normal;font-weight:normal;font-size:10.5833683px;line-height:1.25;font-family:sans-serif;letter-spacing:0px;word-spacing:0px;fill:#000000;fill-opacity:1;stroke:none;stroke-width:0.26458421"
     id="text1054-2-6"
     transform="translate(0,1.0583368)">
    <path
       d="m 23.244063,9.2355208 q -0.1016,0 -0.169334,0.022578 -0.06773,0.019756 -0.112889,0.053622 -0.04516,0.033867 -0.07338,0.070556 -0.0254,0.036689 -0.0508,0.070556 -0.02258,0.033867 -0.0508,0.056445 -0.0254,0.019756 -0.06491,0.019756 -0.06773,0 -0.09596,-0.033867 -0.0254,-0.036689 -0.0254,-0.095956 0,-0.1241782 0.09313,-0.2314229 0.02822,-0.033867 0.0762,-0.070556 0.0508,-0.039511 0.118534,-0.070556 0.07056,-0.031045 0.160867,-0.0508 0.09313,-0.022578 0.208845,-0.022578 0.307623,0 0.476957,0.1495782 0.169334,0.1495783 0.169334,0.4205125 0,0.053622 -0.01129,0.1185337 -0.0085,0.064911 -0.03669,0.1354671 -0.0254,0.070556 -0.07338,0.146756 -0.04798,0.0762 -0.127,0.1552226 -0.07056,0.07056 -0.149578,0.129823 -0.07902,0.05927 -0.16369,0.118533 -0.08467,0.05927 -0.1778,0.127001 -0.09031,0.06491 -0.183445,0.149578 0.09031,0.04798 0.194734,0.06209 0.104422,0.01411 0.234245,0.01411 0.121356,0 0.194734,-0.0056 0.07338,-0.0056 0.118533,-0.01411 0.04516,-0.0085 0.07056,-0.01411 0.0254,-0.0056 0.05362,-0.0056 0.104422,0 0.104422,0.09596 0,0.08467 -0.07056,0.129822 -0.07055,0.04516 -0.169333,0.06773 -0.09878,0.01976 -0.203201,0.02258 -0.104423,0.0056 -0.172156,0.0056 -0.03669,0 -0.104423,-0.0056 -0.06491,-0.0028 -0.141111,-0.01411 -0.0762,-0.01129 -0.155223,-0.03105 -0.0762,-0.02258 -0.141112,-0.05645 -0.06209,-0.03669 -0.1016,-0.08749 -0.03951,-0.05362 -0.03951,-0.127 0,-0.09878 0.07056,-0.186267 0.07338,-0.09031 0.180622,-0.174979 0.107245,-0.08749 0.231423,-0.172156 0.124179,-0.08749 0.231423,-0.1778002 0.107245,-0.093134 0.177801,-0.1919117 0.07338,-0.098778 0.07338,-0.2144895 0,-0.1439338 -0.09878,-0.2144896 -0.09596,-0.073378 -0.276579,-0.073378 z"
       style="font-style:normal;font-variant:normal;font-weight:normal;font-stretch:normal;font-size:2.82223105px;font-family:Sniglet;-inkscape-font-specification:'Sniglet, Normal';font-variant-ligatures:normal;font-variant-caps:normal;font-variant-numeric:normal;font-feature-settings:normal;text-align:start;writing-mode:lr-tb;text-anchor:start;stroke-width:0.26458421"
       id="path1144"
       inkscape:connector-curvature="0" />
  </g>
  <g
     aria-label="3"
     style="font-style:normal;font-weight:normal;font-size:10.5833683px;line-height:1.25;font-family:sans-serif;letter-spacing:0px;word-spacing:0px;fill:#000000;fill-opacity:1;stroke:none;stroke-width:0.26458421"
     id="text1054-2-8"
     transform="translate(0,3.0402402)">
    <path
       d="m 8.0063036,22.038179 q -0.090311,0 -0.1326449,-0.04516 -0.042333,-0.04798 -0.042333,-0.09596 0,-0.0508 0.047978,-0.08185 0.047978,-0.03387 0.1270004,-0.0508 0.079022,-0.01976 0.1806228,-0.0254 0.1016003,-0.0085 0.2060228,-0.0085 0.087489,0 0.194734,0.0085 0.1072448,0.0056 0.2003784,0.03387 0.093134,0.0254 0.1552227,0.07902 0.062089,0.0508 0.062089,0.141111 0,0.07056 -0.053622,0.146756 -0.053622,0.0762 -0.1241782,0.143934 -0.070556,0.06773 -0.1411115,0.121356 -0.067734,0.0508 -0.098778,0.07338 0.2991565,0 0.4346236,0.149578 0.1354671,0.149579 0.1354671,0.42898 0,0.174978 -0.064911,0.304801 -0.062089,0.129822 -0.1693338,0.217311 -0.1044226,0.08467 -0.2427119,0.127001 -0.1354671,0.04233 -0.2794009,0.04233 -0.1185337,0 -0.2342451,-0.01975 -0.1128893,-0.01976 -0.2032007,-0.06773 -0.090311,-0.0508 -0.146756,-0.132645 -0.053622,-0.08467 -0.053622,-0.208845 0,-0.129823 0.1411116,-0.129823 0.042333,0 0.064911,0.02258 0.0254,0.01976 0.042333,0.0508 0.019756,0.02822 0.039511,0.06491 0.019756,0.03669 0.056445,0.06773 0.039511,0.02822 0.1016003,0.0508 0.064911,0.01976 0.1693339,0.01976 0.081845,0 0.1608672,-0.01693 0.079022,-0.01976 0.1411115,-0.06209 0.062089,-0.04233 0.098778,-0.11289 0.039511,-0.07338 0.039511,-0.180622 0,-0.208846 -0.087489,-0.296335 -0.084667,-0.08749 -0.2398897,-0.08749 -0.039511,0 -0.073378,0.01411 -0.033867,0.01129 -0.067733,0.02822 -0.033867,0.01411 -0.070556,0.02822 -0.036689,0.01129 -0.081845,0.01129 -0.045156,0 -0.079022,-0.03951 -0.033867,-0.04233 -0.033867,-0.107245 0,-0.04516 0.042333,-0.104423 0.045156,-0.05927 0.121356,-0.135467 0.079022,-0.0762 0.1890894,-0.166511 0.1100671,-0.09313 0.2455341,-0.200379 -0.028222,0 -0.067733,0 -0.036689,0 -0.0762,0.0028 -0.036689,0 -0.073378,0 -0.036689,0 -0.062089,0 -0.1072448,0 -0.2116674,0 -0.1016003,-0.0028 -0.1862672,-0.0028 z"
       style="font-style:normal;font-variant:normal;font-weight:normal;font-stretch:normal;font-size:2.82223105px;font-family:Sniglet;-inkscape-font-specification:'Sniglet, Normal';font-variant-ligatures:normal;font-variant-caps:normal;font-variant-numeric:normal;font-feature-settings:normal;text-align:start;writing-mode:lr-tb;text-anchor:start;stroke-width:0.26458421"
       id="path1141"
       inkscape:connector-curvature="0" />
  </g>
  <g
     aria-label="4"
     style="font-style:normal;font-weight:normal;font-size:10.5833683px;line-height:1.25;font-family:sans-serif;letter-spacing:0px;word-spacing:0px;fill:#000000;fill-opacity:1;stroke:none;stroke-width:0.26458421"
     id="text1054-2-6-0"
     transform="translate(0,3.0402402)">
    <path
       d="m 23.734555,23.164795 q -0.0028,0.107245 -0.0028,0.234245 0,0.127 -0.0085,0.237067 -0.0056,0.08467 -0.03951,0.110068 -0.03105,0.02258 -0.08749,0.02258 -0.0508,0 -0.07902,-0.01975 -0.0254,-0.01693 -0.03951,-0.0762 -0.01129,-0.06209 -0.01411,-0.1778 -0.0028,-0.118534 -0.0028,-0.31609 -0.09313,0 -0.1778,0.0028 -0.08467,0.0028 -0.16369,0.0028 -0.118533,0 -0.217311,-0.0056 -0.09596,-0.0056 -0.166512,-0.01976 -0.06773,-0.01693 -0.107245,-0.04516 -0.03669,-0.02822 -0.03669,-0.07338 0,-0.06209 0.0508,-0.155223 0.0508,-0.09596 0.127001,-0.206023 0.0762,-0.110067 0.160867,-0.222956 0.08749,-0.115712 0.160867,-0.21449 0.03387,-0.04515 0.09596,-0.124178 0.06491,-0.08185 0.138289,-0.160867 0.07338,-0.08185 0.146756,-0.141112 0.07338,-0.05927 0.124179,-0.05927 0.04798,0 0.08467,0.03104 0.03669,0.03105 0.04233,0.143934 0.01129,0.163689 0.01411,0.344312 0.0028,0.177801 0.0028,0.352779 v 0.279401 q 0.07902,0.0056 0.127001,0.01411 0.04798,0.0085 0.07338,0.0254 0.0254,0.01411 0.03387,0.03669 0.0085,0.02258 0.0085,0.05645 0,0.07056 -0.06491,0.09596 -0.06491,0.02258 -0.183445,0.02822 z m -0.276579,-0.92287 q -0.124178,0.149579 -0.211667,0.256823 -0.08467,0.104423 -0.146756,0.180623 -0.05927,0.0762 -0.104423,0.129823 -0.04233,0.05362 -0.0762,0.09596 0.129823,-0.0056 0.26529,-0.0056 0.138289,-0.0028 0.273756,-0.0028 z"
       style="font-style:normal;font-variant:normal;font-weight:normal;font-stretch:normal;font-size:2.82223105px;font-family:Sniglet;-inkscape-font-specification:'Sniglet, Normal';font-variant-ligatures:normal;font-variant-caps:normal;font-variant-numeric:normal;font-feature-settings:normal;text-align:start;writing-mode:lr-tb;text-anchor:start;stroke-width:0.26458421"
       id="path1138"
       inkscape:connector-curvature="0" />
  </g>
  <g
     aria-label="1"
     style="font-style:normal;font-weight:normal;font-size:10.5833683px;line-height:1.25;font-family:sans-serif;letter-spacing:0px;word-spacing:0px;fill:#000000;fill-opacity:1;stroke:none;stroke-width:0.26458421"
     id="text1054-2-2"
     transform="translate(-0.00426786,35.632901)">
    <path
       d="m 8.5868681,10.747691 q -0.00564,-0.1016 -0.00847,-0.211667 0,-0.110067 -0.00282,-0.237068 -0.00282,-0.127 -0.00282,-0.273756 0,-0.1495784 0,-0.3330234 V 9.3393977 l -0.1693339,0.087489 q -0.070556,0.045156 -0.1128892,0.053622 -0.039511,0.00847 -0.087489,0.00847 -0.042333,0 -0.0762,-0.036689 -0.031045,-0.036689 -0.031045,-0.087489 0,-0.0508 0.033867,-0.087489 0.036689,-0.039511 0.084667,-0.070556 0.062089,-0.042333 0.1326449,-0.084667 0.073378,-0.042333 0.1411116,-0.0762 0.067733,-0.036689 0.1241781,-0.056445 0.059267,-0.022578 0.098778,-0.022578 0.019756,0 0.039511,0.00564 0.022578,0.00564 0.039511,0.022578 0.019756,0.016933 0.031045,0.053622 0.014111,0.033867 0.016933,0.093134 0.00564,0.1016003 0.00847,0.1778005 0.00282,0.0762 0.00564,0.1495783 0.00282,0.070556 0.00282,0.1495783 0,0.079022 0,0.183445 0,0.1270004 0,0.2427112 0,0.115712 -0.00282,0.228601 -0.00282,0.112889 -0.00564,0.228601 -0.00282,0.115711 -0.00847,0.242712 -0.00282,0.06773 -0.014111,0.104422 -0.00847,0.03669 -0.0254,0.05645 -0.016933,0.01976 -0.039511,0.02258 -0.019756,0.0056 -0.047978,0.0056 -0.0508,0 -0.084667,-0.03387 -0.033867,-0.03669 -0.039511,-0.152401 z"
       style="font-style:normal;font-variant:normal;font-weight:normal;font-stretch:normal;font-size:2.82223129px;font-family:Sniglet;-inkscape-font-specification:'Sniglet, Normal';font-variant-ligatures:normal;font-variant-caps:normal;font-variant-numeric:normal;font-feature-settings:normal;text-align:start;writing-mode:lr-tb;text-anchor:start;stroke-width:0.26458421"
       id="path1147-8"
       inkscape:connector-curvature="0" />
  </g>
  <g
     aria-label="1"
     style="font-style:normal;font-weight:normal;font-size:10.5833683px;line-height:1.25;font-family:sans-serif;letter-spacing:0px;word-spacing:0px;fill:#000000;fill-opacity:1;stroke:none;stroke-width:0.26458421"
     id="text1054-2-2-6"
     transform="translate(14.813089,35.632901)">
    <path
       d="m 8.5868681,10.747691 q -0.00564,-0.1016 -0.00847,-0.211667 0,-0.110067 -0.00282,-0.237068 -0.00282,-0.127 -0.00282,-0.273756 0,-0.1495784 0,-0.3330234 V 9.3393977 l -0.1693339,0.087489 q -0.070556,0.045156 -0.1128892,0.053622 -0.039511,0.00847 -0.087489,0.00847 -0.042333,0 -0.0762,-0.036689 -0.031045,-0.036689 -0.031045,-0.087489 0,-0.0508 0.033867,-0.087489 0.036689,-0.039511 0.084667,-0.070556 0.062089,-0.042333 0.1326449,-0.084667 0.073378,-0.042333 0.1411116,-0.0762 0.067733,-0.036689 0.1241781,-0.056445 0.059267,-0.022578 0.098778,-0.022578 0.019756,0 0.039511,0.00564 0.022578,0.00564 0.039511,0.022578 0.019756,0.016933 0.031045,0.053622 0.014111,0.033867 0.016933,0.093134 0.00564,0.1016003 0.00847,0.1778005 0.00282,0.0762 0.00564,0.1495783 0.00282,0.070556 0.00282,0.1495783 0,0.079022 0,0.183445 0,0.1270004 0,0.2427112 0,0.115712 -0.00282,0.228601 -0.00282,0.112889 -0.00564,0.228601 -0.00282,0.115711 -0.00847,0.242712 -0.00282,0.06773 -0.014111,0.104422 -0.00847,0.03669 -0.0254,0.05645 -0.016933,0.01976 -0.039511,0.02258 -0.019756,0.0056 -0.047978,0.0056 -0.0508,0 -0.084667,-0.03387 -0.033867,-0.03669 -0.039511,-0.152401 z"
       style="font-style:normal;font-variant:normal;font-weight:normal;font-stretch:normal;font-size:2.82223129px;font-family:Sniglet;-inkscape-font-specification:'Sniglet, Normal';font-variant-ligatures:normal;font-variant-caps:normal;font-variant-numeric:normal;font-feature-settings:normal;text-align:start;writing-mode:lr-tb;text-anchor:start;stroke-width:0.26458421"
       id="path1147-8-9"
       inkscape:connector-curvature="0" />
  </g>
  <g
     aria-label="2"
     style="font-style:normal;font-weight:normal;font-size:10.5833683px;line-height:1.25;font-family:sans-serif;letter-spacing:0px;word-spacing:0px;fill:#000000;fill-opacity:1;stroke:none;stroke-width:0.26458421"
     id="text1054-2-6-5"
     transform="translate(-14.835568,47.510335)">
    <path
       d="m 23.244063,9.2355208 q -0.1016,0 -0.169334,0.022578 -0.06773,0.019756 -0.112889,0.053622 -0.04516,0.033867 -0.07338,0.070556 -0.0254,0.036689 -0.0508,0.070556 -0.02258,0.033867 -0.0508,0.056445 -0.0254,0.019756 -0.06491,0.019756 -0.06773,0 -0.09596,-0.033867 -0.0254,-0.036689 -0.0254,-0.095956 0,-0.1241782 0.09313,-0.2314229 0.02822,-0.033867 0.0762,-0.070556 0.0508,-0.039511 0.118534,-0.070556 0.07056,-0.031045 0.160867,-0.0508 0.09313,-0.022578 0.208845,-0.022578 0.307623,0 0.476957,0.1495782 0.169334,0.1495783 0.169334,0.4205125 0,0.053622 -0.01129,0.1185337 -0.0085,0.064911 -0.03669,0.1354671 -0.0254,0.070556 -0.07338,0.146756 -0.04798,0.0762 -0.127,0.1552226 -0.07056,0.07056 -0.149578,0.129823 -0.07902,0.05927 -0.16369,0.118533 -0.08467,0.05927 -0.1778,0.127001 -0.09031,0.06491 -0.183445,0.149578 0.09031,0.04798 0.194734,0.06209 0.104422,0.01411 0.234245,0.01411 0.121356,0 0.194734,-0.0056 0.07338,-0.0056 0.118533,-0.01411 0.04516,-0.0085 0.07056,-0.01411 0.0254,-0.0056 0.05362,-0.0056 0.104422,0 0.104422,0.09596 0,0.08467 -0.07056,0.129822 -0.07055,0.04516 -0.169333,0.06773 -0.09878,0.01976 -0.203201,0.02258 -0.104423,0.0056 -0.172156,0.0056 -0.03669,0 -0.104423,-0.0056 -0.06491,-0.0028 -0.141111,-0.01411 -0.0762,-0.01129 -0.155223,-0.03105 -0.0762,-0.02258 -0.141112,-0.05645 -0.06209,-0.03669 -0.1016,-0.08749 -0.03951,-0.05362 -0.03951,-0.127 0,-0.09878 0.07056,-0.186267 0.07338,-0.09031 0.180622,-0.174979 0.107245,-0.08749 0.231423,-0.172156 0.124179,-0.08749 0.231423,-0.1778002 0.107245,-0.093134 0.177801,-0.1919117 0.07338,-0.098778 0.07338,-0.2144895 0,-0.1439338 -0.09878,-0.2144896 -0.09596,-0.073378 -0.276579,-0.073378 z"
       style="font-style:normal;font-variant:normal;font-weight:normal;font-stretch:normal;font-size:2.82223105px;font-family:Sniglet;-inkscape-font-specification:'Sniglet, Normal';font-variant-ligatures:normal;font-variant-caps:normal;font-variant-numeric:normal;font-feature-settings:normal;text-align:start;writing-mode:lr-tb;text-anchor:start;stroke-width:0.26458421"
       id="path1144-9"
       inkscape:connector-curvature="0" />
  </g>
  <g
     aria-label="2"
     style="font-style:normal;font-weight:normal;font-size:10.5833683px;line-height:1.25;font-family:sans-serif;letter-spacing:0px;word-spacing:0px;fill:#000000;fill-opacity:1;stroke:none;stroke-width:0.26458421"
     id="text1054-2-6-6"
     transform="translate(0.02100408,47.510335)">
    <path
       d="m 23.244063,9.2355208 q -0.1016,0 -0.169334,0.022578 -0.06773,0.019756 -0.112889,0.053622 -0.04516,0.033867 -0.07338,0.070556 -0.0254,0.036689 -0.0508,0.070556 -0.02258,0.033867 -0.0508,0.056445 -0.0254,0.019756 -0.06491,0.019756 -0.06773,0 -0.09596,-0.033867 -0.0254,-0.036689 -0.0254,-0.095956 0,-0.1241782 0.09313,-0.2314229 0.02822,-0.033867 0.0762,-0.070556 0.0508,-0.039511 0.118534,-0.070556 0.07056,-0.031045 0.160867,-0.0508 0.09313,-0.022578 0.208845,-0.022578 0.307623,0 0.476957,0.1495782 0.169334,0.1495783 0.169334,0.4205125 0,0.053622 -0.01129,0.1185337 -0.0085,0.064911 -0.03669,0.1354671 -0.0254,0.070556 -0.07338,0.146756 -0.04798,0.0762 -0.127,0.1552226 -0.07056,0.07056 -0.149578,0.129823 -0.07902,0.05927 -0.16369,0.118533 -0.08467,0.05927 -0.1778,0.127001 -0.09031,0.06491 -0.183445,0.149578 0.09031,0.04798 0.194734,0.06209 0.104422,0.01411 0.234245,0.01411 0.121356,0 0.194734,-0.0056 0.07338,-0.0056 0.118533,-0.01411 0.04516,-0.0085 0.07056,-0.01411 0.0254,-0.0056 0.05362,-0.0056 0.104422,0 0.104422,0.09596 0,0.08467 -0.07056,0.129822 -0.07055,0.04516 -0.169333,0.06773 -0.09878,0.01976 -0.203201,0.02258 -0.104423,0.0056 -0.172156,0.0056 -0.03669,0 -0.104423,-0.0056 -0.06491,-0.0028 -0.141111,-0.01411 -0.0762,-0.01129 -0.155223,-0.03105 -0.0762,-0.02258 -0.141112,-0.05645 -0.06209,-0.03669 -0.1016,-0.08749 -0.03951,-0.05362 -0.03951,-0.127 0,-0.09878 0.07056,-0.186267 0.07338,-0.09031 0.180622,-0.174979 0.107245,-0.08749 0.231423,-0.172156 0.124179,-0.08749 0.231423,-0.1778002 0.107245,-0.093134 0.177801,-0.1919117 0.07338,-0.098778 0.07338,-0.2144895 0,-0.1439338 -0.09878,-0.2144896 -0.09596,-0.073378 -0.276579,-0.073378 z"
       style="font-style:normal;font-variant:normal;font-weight:normal;font-stretch:normal;font-size:2.82223105px;font-family:Sniglet;-inkscape-font-specification:'Sniglet, Normal';font-variant-ligatures:normal;font-variant-caps:normal;font-variant-numeric:normal;font-feature-settings:normal;text-align:start;writing-mode:lr-tb;text-anchor:start;stroke-width:0.26458421"
       id="path1144-5"
       inkscape:connector-curvature="0" />
  </g>
  <g
     aria-label="3"
     style="font-style:normal;font-weight:normal;font-size:10.5833683px;line-height:1.25;font-family:sans-serif;letter-spacing:0px;word-spacing:0px;fill:#000000;fill-opacity:1;stroke:none;stroke-width:0.26458421"
     id="text1054-2-8-9"
     transform="translate(0.01172768,46.630963)">
    <path
       d="m 8.0063036,22.038179 q -0.090311,0 -0.1326449,-0.04516 -0.042333,-0.04798 -0.042333,-0.09596 0,-0.0508 0.047978,-0.08185 0.047978,-0.03387 0.1270004,-0.0508 0.079022,-0.01976 0.1806228,-0.0254 0.1016003,-0.0085 0.2060228,-0.0085 0.087489,0 0.194734,0.0085 0.1072448,0.0056 0.2003784,0.03387 0.093134,0.0254 0.1552227,0.07902 0.062089,0.0508 0.062089,0.141111 0,0.07056 -0.053622,0.146756 -0.053622,0.0762 -0.1241782,0.143934 -0.070556,0.06773 -0.1411115,0.121356 -0.067734,0.0508 -0.098778,0.07338 0.2991565,0 0.4346236,0.149578 0.1354671,0.149579 0.1354671,0.42898 0,0.174978 -0.064911,0.304801 -0.062089,0.129822 -0.1693338,0.217311 -0.1044226,0.08467 -0.2427119,0.127001 -0.1354671,0.04233 -0.2794009,0.04233 -0.1185337,0 -0.2342451,-0.01975 -0.1128893,-0.01976 -0.2032007,-0.06773 -0.090311,-0.0508 -0.146756,-0.132645 -0.053622,-0.08467 -0.053622,-0.208845 0,-0.129823 0.1411116,-0.129823 0.042333,0 0.064911,0.02258 0.0254,0.01976 0.042333,0.0508 0.019756,0.02822 0.039511,0.06491 0.019756,0.03669 0.056445,0.06773 0.039511,0.02822 0.1016003,0.0508 0.064911,0.01976 0.1693339,0.01976 0.081845,0 0.1608672,-0.01693 0.079022,-0.01976 0.1411115,-0.06209 0.062089,-0.04233 0.098778,-0.11289 0.039511,-0.07338 0.039511,-0.180622 0,-0.208846 -0.087489,-0.296335 -0.084667,-0.08749 -0.2398897,-0.08749 -0.039511,0 -0.073378,0.01411 -0.033867,0.01129 -0.067733,0.02822 -0.033867,0.01411 -0.070556,0.02822 -0.036689,0.01129 -0.081845,0.01129 -0.045156,0 -0.079022,-0.03951 -0.033867,-0.04233 -0.033867,-0.107245 0,-0.04516 0.042333,-0.104423 0.045156,-0.05927 0.121356,-0.135467 0.079022,-0.0762 0.1890894,-0.166511 0.1100671,-0.09313 0.2455341,-0.200379 -0.028222,0 -0.067733,0 -0.036689,0 -0.0762,0.0028 -0.036689,0 -0.073378,0 -0.036689,0 -0.062089,0 -0.1072448,0 -0.2116674,0 -0.1016003,-0.0028 -0.1862672,-0.0028 z"
       style="font-style:normal;font-variant:normal;font-weight:normal;font-stretch:normal;font-size:2.82223105px;font-family:Sniglet;-inkscape-font-specification:'Sniglet, Normal';font-variant-ligatures:normal;font-variant-caps:normal;font-variant-numeric:normal;font-feature-settings:normal;text-align:start;writing-mode:lr-tb;text-anchor:start;stroke-width:0.26458421"
       id="path1141-9"
       inkscape:connector-curvature="0" />
  </g>
  <g
     aria-label="3"
     style="font-style:normal;font-weight:normal;font-size:10.5833683px;line-height:1.25;font-family:sans-serif;letter-spacing:0px;word-spacing:0px;fill:#000000;fill-opacity:1;stroke:none;stroke-width:0.26458421"
     id="text1054-2-8-5"
     transform="translate(14.867008,46.630963)">
    <path
       d="m 8.0063036,22.038179 q -0.090311,0 -0.1326449,-0.04516 -0.042333,-0.04798 -0.042333,-0.09596 0,-0.0508 0.047978,-0.08185 0.047978,-0.03387 0.1270004,-0.0508 0.079022,-0.01976 0.1806228,-0.0254 0.1016003,-0.0085 0.2060228,-0.0085 0.087489,0 0.194734,0.0085 0.1072448,0.0056 0.2003784,0.03387 0.093134,0.0254 0.1552227,0.07902 0.062089,0.0508 0.062089,0.141111 0,0.07056 -0.053622,0.146756 -0.053622,0.0762 -0.1241782,0.143934 -0.070556,0.06773 -0.1411115,0.121356 -0.067734,0.0508 -0.098778,0.07338 0.2991565,0 0.4346236,0.149578 0.1354671,0.149579 0.1354671,0.42898 0,0.174978 -0.064911,0.304801 -0.062089,0.129822 -0.1693338,0.217311 -0.1044226,0.08467 -0.2427119,0.127001 -0.1354671,0.04233 -0.2794009,0.04233 -0.1185337,0 -0.2342451,-0.01975 -0.1128893,-0.01976 -0.2032007,-0.06773 -0.090311,-0.0508 -0.146756,-0.132645 -0.053622,-0.08467 -0.053622,-0.208845 0,-0.129823 0.1411116,-0.129823 0.042333,0 0.064911,0.02258 0.0254,0.01976 0.042333,0.0508 0.019756,0.02822 0.039511,0.06491 0.019756,0.03669 0.056445,0.06773 0.039511,0.02822 0.1016003,0.0508 0.064911,0.01976 0.1693339,0.01976 0.081845,0 0.1608672,-0.01693 0.079022,-0.01976 0.1411115,-0.06209 0.062089,-0.04233 0.098778,-0.11289 0.039511,-0.07338 0.039511,-0.180622 0,-0.208846 -0.087489,-0.296335 -0.084667,-0.08749 -0.2398897,-0.08749 -0.039511,0 -0.073378,0.01411 -0.033867,0.01129 -0.067733,0.02822 -0.033867,0.01411 -0.070556,0.02822 -0.036689,0.01129 -0.081845,0.01129 -0.045156,0 -0.079022,-0.03951 -0.033867,-0.04233 -0.033867,-0.107245 0,-0.04516 0.042333,-0.104423 0.045156,-0.05927 0.121356,-0.135467 0.079022,-0.0762 0.1890894,-0.166511 0.1100671,-0.09313 0.2455341,-0.200379 -0.028222,0 -0.067733,0 -0.036689,0 -0.0762,0.0028 -0.036689,0 -0.073378,0 -0.036689,0 -0.062089,0 -0.1072448,0 -0.2116674,0 -0.1016003,-0.0028 -0.1862672,-0.0028 z"
       style="font-style:normal;font-variant:normal;font-weight:normal;font-stretch:normal;font-size:2.82223105px;font-family:Sniglet;-inkscape-font-specification:'Sniglet, Normal';font-variant-ligatures:normal;font-variant-caps:normal;font-variant-numeric:normal;font-feature-settings:normal;text-align:start;writing-mode:lr-tb;text-anchor:start;stroke-width:0.26458421"
       id="path1141-8"
       inkscape:connector-curvature="0" />
  </g>
  <g
     aria-label="4"
     style="font-style:normal;font-weight:normal;font-size:10.5833683px;line-height:1.25;font-family:sans-serif;letter-spacing:0px;word-spacing:0px;fill:#000000;fill-opacity:1;stroke:none;stroke-width:0.26458421"
     id="text1054-2-6-0-7"
     transform="translate(-14.845668,58.516934)">
    <path
       d="m 23.734555,23.164795 q -0.0028,0.107245 -0.0028,0.234245 0,0.127 -0.0085,0.237067 -0.0056,0.08467 -0.03951,0.110068 -0.03105,0.02258 -0.08749,0.02258 -0.0508,0 -0.07902,-0.01975 -0.0254,-0.01693 -0.03951,-0.0762 -0.01129,-0.06209 -0.01411,-0.1778 -0.0028,-0.118534 -0.0028,-0.31609 -0.09313,0 -0.1778,0.0028 -0.08467,0.0028 -0.16369,0.0028 -0.118533,0 -0.217311,-0.0056 -0.09596,-0.0056 -0.166512,-0.01976 -0.06773,-0.01693 -0.107245,-0.04516 -0.03669,-0.02822 -0.03669,-0.07338 0,-0.06209 0.0508,-0.155223 0.0508,-0.09596 0.127001,-0.206023 0.0762,-0.110067 0.160867,-0.222956 0.08749,-0.115712 0.160867,-0.21449 0.03387,-0.04515 0.09596,-0.124178 0.06491,-0.08185 0.138289,-0.160867 0.07338,-0.08185 0.146756,-0.141112 0.07338,-0.05927 0.124179,-0.05927 0.04798,0 0.08467,0.03104 0.03669,0.03105 0.04233,0.143934 0.01129,0.163689 0.01411,0.344312 0.0028,0.177801 0.0028,0.352779 v 0.279401 q 0.07902,0.0056 0.127001,0.01411 0.04798,0.0085 0.07338,0.0254 0.0254,0.01411 0.03387,0.03669 0.0085,0.02258 0.0085,0.05645 0,0.07056 -0.06491,0.09596 -0.06491,0.02258 -0.183445,0.02822 z m -0.276579,-0.92287 q -0.124178,0.149579 -0.211667,0.256823 -0.08467,0.104423 -0.146756,0.180623 -0.05927,0.0762 -0.104423,0.129823 -0.04233,0.05362 -0.0762,0.09596 0.129823,-0.0056 0.26529,-0.0056 0.138289,-0.0028 0.273756,-0.0028 z"
       style="font-style:normal;font-variant:normal;font-weight:normal;font-stretch:normal;font-size:2.82223105px;font-family:Sniglet;-inkscape-font-specification:'Sniglet, Normal';font-variant-ligatures:normal;font-variant-caps:normal;font-variant-numeric:normal;font-feature-settings:normal;text-align:start;writing-mode:lr-tb;text-anchor:start;stroke-width:0.26458421"
       id="path1138-1"
       inkscape:connector-curvature="0" />
  </g>
  <g
     aria-label="4"
     style="font-style:normal;font-weight:normal;font-size:10.5833683px;line-height:1.25;font-family:sans-serif;letter-spacing:0px;word-spacing:0px;fill:#000000;fill-opacity:1;stroke:none;stroke-width:0.26458421"
     id="text1054-2-6-0-6"
     transform="translate(0.01154852,58.516934)">
    <path
       d="m 23.734555,23.164795 q -0.0028,0.107245 -0.0028,0.234245 0,0.127 -0.0085,0.237067 -0.0056,0.08467 -0.03951,0.110068 -0.03105,0.02258 -0.08749,0.02258 -0.0508,0 -0.07902,-0.01975 -0.0254,-0.01693 -0.03951,-0.0762 -0.01129,-0.06209 -0.01411,-0.1778 -0.0028,-0.118534 -0.0028,-0.31609 -0.09313,0 -0.1778,0.0028 -0.08467,0.0028 -0.16369,0.0028 -0.118533,0 -0.217311,-0.0056 -0.09596,-0.0056 -0.166512,-0.01976 -0.06773,-0.01693 -0.107245,-0.04516 -0.03669,-0.02822 -0.03669,-0.07338 0,-0.06209 0.0508,-0.155223 0.0508,-0.09596 0.127001,-0.206023 0.0762,-0.110067 0.160867,-0.222956 0.08749,-0.115712 0.160867,-0.21449 0.03387,-0.04515 0.09596,-0.124178 0.06491,-0.08185 0.138289,-0.160867 0.07338,-0.08185 0.146756,-0.141112 0.07338,-0.05927 0.124179,-0.05927 0.04798,0 0.08467,0.03104 0.03669,0.03105 0.04233,0.143934 0.01129,0.163689 0.01411,0.344312 0.0028,0.177801 0.0028,0.352779 v 0.279401 q 0.07902,0.0056 0.127001,0.01411 0.04798,0.0085 0.07338,0.0254 0.0254,0.01411 0.03387,0.03669 0.0085,0.02258 0.0085,0.05645 0,0.07056 -0.06491,0.09596 -0.06491,0.02258 -0.183445,0.02822 z m -0.276579,-0.92287 q -0.124178,0.149579 -0.211667,0.256823 -0.08467,0.104423 -0.146756,0.180623 -0.05927,0.0762 -0.104423,0.129823 -0.04233,0.05362 -0.0762,0.09596 0.129823,-0.0056 0.26529,-0.0056 0.138289,-0.0028 0.273756,-0.0028 z"
       style="font-style:normal;font-variant:normal;font-weight:normal;font-stretch:normal;font-size:2.82223105px;font-family:Sniglet;-inkscape-font-specification:'Sniglet, Normal';font-variant-ligatures:normal;font-variant-caps:normal;font-variant-numeric:normal;font-feature-settings:normal;text-align:start;writing-mode:lr-tb;text-anchor:start;stroke-width:0.26458421"
       id="path1138-7"
       inkscape:connector-curvature="0" />
  </g>
</svg>
