<?xml version="1.0" encoding="UTF-8" standalone="no"?>
<svg
   xmlns:dc="http://purl.org/dc/elements/1.1/"
   xmlns:cc="http://creativecommons.org/ns#"
   xmlns:rdf="http://www.w3.org/1999/02/22-rdf-syntax-ns#"
   xmlns:svg="http://www.w3.org/2000/svg"
   xmlns="http://www.w3.org/2000/svg"
   xmlns:sodipodi="http://sodipodi.sourceforge.net/DTD/sodipodi-0.dtd"
   xmlns:inkscape="http://www.inkscape.org/namespaces/inkscape"
   width="90"
   height="380"
   viewBox="0 0 23.812588 100.542"
   version="1.1"
   id="svg154"
   sodipodi:docname="Tact1.svg"
   inkscape:version="0.92.3 (2405546, 2018-03-11)">
  <metadata
     id="metadata160">
    <rdf:RDF>
      <cc:Work
         rdf:about="">
        <dc:format>image/svg+xml</dc:format>
        <dc:type
           rdf:resource="http://purl.org/dc/dcmitype/StillImage" />
        <dc:title />
      </cc:Work>
    </rdf:RDF>
  </metadata>
  <defs
     id="defs158" />
  <sodipodi:namedview
     pagecolor="#ffffff"
     bordercolor="#666666"
     borderopacity="1"
     objecttolerance="10"
     gridtolerance="10"
     guidetolerance="10"
     inkscape:pageopacity="0"
     inkscape:pageshadow="2"
     inkscape:window-width="1920"
     inkscape:window-height="1017"
     id="namedview156"
     showgrid="false"
     inkscape:zoom="8.4948228"
     inkscape:cx="76.861579"
     inkscape:cy="95.826919"
     inkscape:window-x="-8"
     inkscape:window-y="-8"
     inkscape:window-maximized="1"
     inkscape:current-layer="svg154"
     showguides="true"
     inkscape:guide-bbox="true">
    <sodipodi:guide
       position="11.906292,101.84517"
       orientation="1,0"
       id="guide1048"
       inkscape:locked="false"
       inkscape:label=""
       inkscape:color="rgb(0,0,255)" />
    <sodipodi:guide
       position="17.442057,21.335374"
       orientation="0,1"
       id="guide1050"
       inkscape:locked="false" />
  </sodipodi:namedview>
  <path
     style="fill:#dcdcdc;stroke-width:1"
     inkscape:connector-curvature="0"
     id="path2"
     d="M 0,0 H 23.812584 V 100.541 H 0 Z m 0,0" />
  <g
     style="font-weight:400;line-height:1.25;letter-spacing:0;word-spacing:0;fill:#333333"
     id="g6"
     transform="translate(-56.349947,-161.307)">
    <path
       style="font-size:3.52800012px;font-family:Arial;-inkscape-font-specification:'Arial, Normal';font-variant-ligatures:normal;font-variant-caps:normal;font-variant-numeric:normal;font-feature-settings:normal;text-align:start"
       d="m 68.733,258.177 -1.631,0.115 v -2.06 q 0,-0.23 0.065,-0.333 0.064,-0.104 0.22,-0.147 0.153,-0.043 0.348,-0.002 0.223,0.047 0.356,0.19 0.134,0.146 0.134,0.33 0,0.186 -0.158,0.286 -0.158,0.103 -0.408,0.05 -0.082,-0.018 -0.143,-0.044 -0.064,-0.027 -0.205,-0.11 v 1.345 l 1.219,-0.085 v -1.554 q 0,-0.225 0.065,-0.337 0.066,-0.11 0.226,-0.151 0.16,-0.04 0.348,0 0.223,0.047 0.354,0.19 0.13,0.14 0.13,0.325 0,0.195 -0.156,0.294 -0.156,0.1 -0.408,0.047 -0.16,-0.034 -0.356,-0.16 z"
       font-size="3.528"
       aria-label="♫"
       id="path4"
       inkscape:connector-curvature="0" />
  </g>
  <g
     style="fill:#a0a0a0;stroke:#646464"
     id="g46"
     transform="translate(-49.29732,-159.19032)">
    <rect
       style="stroke-width:1.19099998;paint-order:stroke markers fill"
       id="rect42"
       width="10.716"
       height="51.726002"
       x="53.597"
       y="170.89799"
       rx="0.84500003"
       ry="0.84500003" />
    <path
       style="stroke-width:0.26499999"
       inkscape:connector-curvature="0"
       id="path44"
       d="m 53.002,218.618 11.275,0.04 0.063,0.04 m -11.338,-44.178 11.275,0.04 0.063,0.041" />
  </g>
  <rect
     style="fill:#999999;stroke-width:1;paint-order:stroke markers fill"
     id="rect58"
     rx="2.3399999"
     ry="2.3399999"
     y="82.522858"
     x="1.7326655"
     height="9.9092503"
     width="13.754157" />
  <path
     d="m 4.0227579,86.471105 c 0.06133,0 0.123,0.0057 0.185,0.017 0.064,0.0093 0.121667,0.02533 0.173,0.048 0.05067,0.02 0.092,0.04633 0.124,0.079 0.03333,0.03 0.05,0.06567 0.05,0.107 0,0.04333 -0.011,0.07633 -0.033,0.099 -0.02267,0.022 -0.051,0.033 -0.085,0.033 -0.032,0 -0.06033,-0.0047 -0.085,-0.014 -0.024,-0.01133 -0.052,-0.02333 -0.084,-0.036 -0.03067,-0.01333 -0.06733,-0.02467 -0.11,-0.034 -0.04333,-0.01133 -0.101,-0.017 -0.173,-0.017 -0.07133,0 -0.14,0.01867 -0.206,0.056 -0.064,0.036 -0.120333,0.087 -0.169,0.153 -0.04667,0.064 -0.08433,0.14 -0.113,0.228 -0.028,0.08867 -0.042,0.184667 -0.042,0.288 0,0.128 0.016,0.238 0.048,0.33 0.03333,0.09267 0.07667,0.169 0.13,0.229 0.05267,0.05867 0.111667,0.103 0.177,0.133 0.068,0.028 0.136,0.042 0.204,0.042 0.08067,0 0.148333,-0.0083 0.203,-0.025 0.05467,-0.01733 0.100667,-0.03633 0.138,-0.057 0.04,-0.02 0.074,-0.03867 0.102,-0.056 0.028,-0.01733 0.05533,-0.026 0.082,-0.026 0.032,0 0.05733,0.0097 0.076,0.029 0.01867,0.01667 0.028,0.04767 0.028,0.093 0,0.03733 -0.015,0.07567 -0.045,0.115 -0.028,0.038 -0.07033,0.073 -0.127,0.105 -0.05467,0.03 -0.120667,0.05533 -0.198,0.076 -0.07667,0.01867 -0.163333,0.028 -0.26,0.028 -0.104667,0 -0.209667,-0.02067 -0.315,-0.062 -0.104,-0.04133 -0.197333,-0.102333 -0.28,-0.183 -0.08067,-0.08333 -0.146333,-0.186 -0.197,-0.308 -0.05133,-0.124 -0.077,-0.268 -0.077,-0.432 0,-0.163333 0.02267,-0.309 0.068,-0.437 0.04667,-0.128 0.11,-0.236333 0.19,-0.325 0.08,-0.09 0.173,-0.158667 0.279,-0.206 0.106667,-0.04667 0.220333,-0.07 0.341,-0.07 z m 1.64,1.885 c -0.024,0.04533 -0.04633,0.07833 -0.067,0.099 -0.01867,0.02 -0.04333,0.03 -0.074,0.03 -0.03,0 -0.05633,-0.01 -0.079,-0.03 -0.022,-0.02067 -0.04633,-0.05267 -0.073,-0.096 -0.03333,-0.05667 -0.072,-0.135 -0.116,-0.235 -0.04133,-0.1 -0.08367,-0.208 -0.127,-0.324 -0.04333,-0.118667 -0.08567,-0.241 -0.127,-0.367 -0.04133,-0.126667 -0.079,-0.245333 -0.113,-0.356 -0.032,-0.110667 -0.05833,-0.207333 -0.079,-0.29 -0.01867,-0.08467 -0.028,-0.144667 -0.028,-0.18 0,-0.038 0.0077,-0.06667 0.023,-0.086 0.01467,-0.01867 0.04367,-0.028 0.087,-0.028 0.02467,0 0.04533,0.0067 0.062,0.02 0.01933,0.01133 0.04267,0.045 0.07,0.101 0.02333,0.04333 0.048,0.1 0.074,0.17 0.02667,0.06933 0.054,0.146333 0.082,0.231 0.03,0.08467 0.06,0.174 0.09,0.268 l 0.09,0.277 c 0.03067,0.092 0.059,0.180333 0.085,0.265 l 0.074,0.229 0.076,-0.232 0.087,-0.265 0.09,-0.276 c 0.03067,-0.09467 0.061,-0.183333 0.091,-0.266 0.03,-0.08267 0.05833,-0.158667 0.085,-0.228 0.02667,-0.07 0.05,-0.127667 0.07,-0.173 0.02667,-0.054 0.04933,-0.08767 0.068,-0.101 0.02067,-0.01333 0.04133,-0.02 0.062,-0.02 0.04333,0 0.07267,0.01133 0.088,0.034 0.01667,0.02067 0.025,0.05167 0.025,0.093 0,0.038 -0.0057,0.08333 -0.017,0.136 -0.01133,0.05267 -0.03133,0.123 -0.06,0.211 -0.026,0.08667 -0.06133,0.195 -0.106,0.325 l -0.167,0.477 c -0.01667,0.05067 -0.03667,0.103333 -0.06,0.158 -0.02,0.05467 -0.04133,0.108 -0.064,0.16 -0.02067,0.05133 -0.04133,0.100333 -0.062,0.147 -0.02067,0.04733 -0.04067,0.088 -0.06,0.122 z"
     style="font-weight:400;font-size:2.82200003px;line-height:1.25;font-family:Sniglet;-inkscape-font-specification:'Sniglet, Normal';font-variant-ligatures:normal;font-variant-caps:normal;font-variant-numeric:normal;font-feature-settings:normal;text-align:start;letter-spacing:0;word-spacing:0;stroke-width:0.26499999"
     aria-label="CV 2"
     font-weight="400"
     font-size="2.822"
     letter-spacing="0"
     word-spacing="0"
     id="path60"
     inkscape:connector-curvature="0"
     sodipodi:nodetypes="scccscscccscccscccsccsscscccscccscccssccscccccccscscccccccccccscccscssccccccc" />
  <g
     id="g112"
     style="line-height:1.25"
     transform="translate(-80.140443,-103.10153)">
    <path
       inkscape:connector-curvature="0"
       id="path110"
       word-spacing="0"
       letter-spacing="0"
       font-size="2.822"
       font-weight="400"
       aria-label="RATE"
       style="font-weight:400;font-size:2.82200003px;font-family:Sniglet;-inkscape-font-specification:'Sniglet, Normal';font-variant-ligatures:normal;font-variant-caps:normal;font-variant-numeric:normal;font-feature-settings:normal;text-align:start;letter-spacing:0;word-spacing:0;stroke-width:0.26499999"
       d="m 84.453,171.954 -0.082,0.006 h -0.178 q -0.048,0 -0.107,-0.006 v 0.573 q 0,0.09 -0.045,0.113 -0.043,0.02 -0.107,0.02 -0.034,0 -0.054,-0.007 -0.02,-0.003 -0.034,-0.014 -0.011,-0.014 -0.02,-0.04 -0.005,-0.025 -0.008,-0.07 -0.006,-0.05 -0.009,-0.147 -0.003,-0.098 -0.005,-0.254 0,-0.155 -0.003,-0.375 v -0.522 q 0,-0.116 0.028,-0.223 0.028,-0.11 0.102,-0.192 0.073,-0.085 0.197,-0.135 0.127,-0.051 0.322,-0.051 0.138,0 0.268,0.03 0.133,0.032 0.234,0.108 0.102,0.076 0.164,0.206 0.062,0.13 0.062,0.325 0,0.26 -0.113,0.403 -0.11,0.141 -0.305,0.2 l 0.379,0.52 q 0.05,0.068 0.05,0.138 0,0.057 -0.04,0.088 -0.036,0.034 -0.092,0.034 -0.062,0 -0.108,-0.034 -0.045,-0.037 -0.084,-0.093 z m 0.443,-0.658 q 0,-0.195 -0.119,-0.288 -0.115,-0.096 -0.37,-0.096 -0.092,0 -0.155,0.017 -0.062,0.014 -0.098,0.057 -0.037,0.042 -0.054,0.118 -0.014,0.074 -0.014,0.19 v 0.191 q 0,0.11 0.003,0.2 0.065,0.004 0.144,0.004 h 0.152 q 0.08,0 0.167,-0.008 0.09,-0.012 0.166,-0.051 0.076,-0.043 0.127,-0.119 0.05,-0.079 0.05,-0.214 z m 1.73,1.208 -0.062,-0.155 q -0.031,-0.09 -0.068,-0.19 l -0.178,0.007 H 85.91 q -0.099,0 -0.18,-0.003 l -0.065,0.186 q -0.031,0.088 -0.06,0.155 -0.056,0.144 -0.163,0.144 -0.04,0 -0.077,-0.025 -0.033,-0.026 -0.033,-0.074 0,-0.048 0.017,-0.124 0.016,-0.079 0.042,-0.166 0.028,-0.09 0.06,-0.184 0.03,-0.096 0.058,-0.178 0.029,-0.09 0.08,-0.228 l 0.112,-0.294 0.119,-0.299 q 0.06,-0.15 0.107,-0.26 0.011,-0.028 0.028,-0.062 0.017,-0.036 0.04,-0.067 0.025,-0.031 0.053,-0.054 0.031,-0.022 0.068,-0.022 0.037,0 0.068,0.025 0.03,0.023 0.054,0.056 0.025,0.034 0.042,0.07 0.02,0.038 0.03,0.066 0.046,0.113 0.102,0.26 0.06,0.146 0.116,0.296 0.06,0.15 0.11,0.285 0.051,0.135 0.082,0.228 l 0.057,0.175 q 0.033,0.094 0.062,0.184 0.028,0.09 0.045,0.17 0.02,0.075 0.02,0.123 0,0.048 -0.037,0.074 -0.034,0.025 -0.074,0.025 -0.05,0 -0.093,-0.034 -0.042,-0.036 -0.073,-0.11 z m -0.5,-0.62 0.136,0.002 q 0.068,0 0.135,0.003 l -0.067,-0.197 -0.065,-0.19 q -0.028,-0.09 -0.054,-0.166 l -0.04,-0.138 q -0.01,-0.037 -0.025,-0.06 -0.014,-0.022 -0.036,-0.022 -0.023,0 -0.037,0.025 -0.014,0.023 -0.026,0.06 -0.033,0.115 -0.096,0.302 -0.059,0.183 -0.127,0.386 0.077,-0.003 0.153,-0.003 0.076,-0.003 0.15,-0.003 z m 1.876,-0.952 q -0.079,0.006 -0.17,0.008 l -0.194,0.006 0.006,0.144 0.005,0.133 q 0.003,0.067 0.003,0.14 0.003,0.074 0.003,0.164 v 0.246 q 0,0.116 -0.003,0.234 l -0.006,0.234 q -0.002,0.119 -0.008,0.246 -0.003,0.068 -0.014,0.104 -0.009,0.037 -0.026,0.057 -0.017,0.02 -0.04,0.022 -0.022,0.006 -0.05,0.006 -0.05,0 -0.087,-0.033 -0.034,-0.037 -0.04,-0.153 -0.006,-0.101 -0.008,-0.214 0,-0.113 -0.003,-0.243 -0.003,-0.13 -0.003,-0.28 v -0.606 q 0.003,-0.116 0.008,-0.2 H 87.26 q -0.119,0 -0.203,-0.004 -0.082,-0.003 -0.136,-0.014 -0.053,-0.014 -0.079,-0.042 -0.022,-0.028 -0.022,-0.079 0,-0.025 0.005,-0.045 0.006,-0.023 0.026,-0.04 0.02,-0.02 0.053,-0.03 0.037,-0.012 0.093,-0.018 l 0.096,-0.006 0.085,-0.006 q 0.042,-0.003 0.087,-0.003 h 0.105 q 0.166,0 0.313,0.003 0.15,0.003 0.316,0.012 0.068,0.006 0.105,0.017 0.036,0.008 0.056,0.025 0.02,0.017 0.023,0.04 0.005,0.022 0.005,0.05 0,0.051 -0.036,0.085 -0.034,0.034 -0.15,0.04 z m 0.402,1.287 q -0.006,-0.09 -0.011,-0.246 -0.006,-0.155 -0.006,-0.318 v -0.192 l 0.006,-0.206 q 0.005,-0.21 0.025,-0.328 0.023,-0.118 0.085,-0.178 0.065,-0.059 0.18,-0.073 0.116,-0.014 0.308,-0.014 h 0.06 q 0.058,0 0.14,0.003 0.082,0 0.17,0.003 l 0.15,0.006 q 0.061,0.006 0.098,0.017 0.04,0.008 0.06,0.025 0.019,0.014 0.025,0.037 0.005,0.02 0.005,0.045 0,0.065 -0.036,0.096 -0.037,0.028 -0.15,0.037 -0.056,0.006 -0.167,0.008 h -0.22 q -0.113,0 -0.203,0.003 H 88.81 q -0.073,0.003 -0.104,0.034 -0.028,0.028 -0.028,0.138 l 0.002,0.124 q 0.006,0.096 0.006,0.271 h 0.234 q 0.15,0 0.243,0.006 0.096,0.003 0.147,0.017 0.053,0.014 0.073,0.045 0.02,0.031 0.02,0.082 0,0.025 -0.006,0.048 -0.003,0.02 -0.022,0.037 -0.02,0.014 -0.057,0.025 -0.036,0.008 -0.104,0.014 -0.082,0.006 -0.155,0.008 H 88.68 v 0.344 l 0.006,0.096 q 0.003,0.046 0.011,0.077 0.012,0.03 0.037,0.05 0.028,0.02 0.08,0.029 0.053,0.008 0.14,0.008 h 0.607 q 0.099,0 0.124,0.036 0.026,0.037 0.026,0.1 0,0.05 -0.023,0.078 -0.023,0.026 -0.11,0.037 -0.085,0.014 -0.257,0.017 -0.17,0.003 -0.468,0.003 -0.127,0 -0.21,-0.023 -0.081,-0.022 -0.132,-0.076 -0.05,-0.054 -0.076,-0.138 -0.023,-0.088 -0.031,-0.212 z" />
  </g>
  <path
     inkscape:connector-curvature="0"
     id="path124"
     word-spacing="0"
     letter-spacing="0"
     font-size="2.117"
     font-weight="400"
     style="font-weight:400;font-size:2.1170001px;line-height:1.25;font-family:Sniglet;-inkscape-font-specification:'Sniglet, Normal';font-variant-ligatures:normal;font-variant-caps:normal;font-variant-numeric:normal;font-feature-settings:normal;text-align:start;letter-spacing:0;word-spacing:0"
     d="m 3.426558,78.475462 q 0,-0.13 0.024,-0.265 0.025,-0.136 0.089,-0.246 0.063,-0.11 0.171,-0.18 0.11,-0.07 0.28,-0.07 0.133,0 0.226,0.04 0.095,0.041 0.156,0.107 0.062,0.065 0.096,0.15 0.034,0.082 0.05,0.173 0.017,0.091 0.02,0.18 0.004,0.09 0.004,0.163 0,0.149 -0.036,0.273 -0.034,0.123 -0.106,0.212 -0.07,0.089 -0.178,0.14 -0.106,0.048 -0.25,0.048 -0.15,0 -0.256,-0.057 -0.103,-0.059 -0.17,-0.156 -0.063,-0.1 -0.092,-0.231 -0.028,-0.133 -0.028,-0.282 z m 0.212,-0.004 q 0,0.103 0.017,0.198 0.019,0.094 0.06,0.166 0.04,0.07 0.103,0.112 0.066,0.042 0.159,0.042 0.089,0 0.154,-0.036 0.068,-0.036 0.112,-0.1 0.045,-0.065 0.066,-0.154 0.021,-0.089 0.021,-0.193 0,-0.078 -0.006,-0.177 -0.007,-0.102 -0.04,-0.19 -0.032,-0.09 -0.102,-0.151 -0.07,-0.062 -0.195,-0.062 -0.106,0 -0.173,0.051 -0.066,0.051 -0.106,0.131 -0.04,0.079 -0.055,0.176 -0.015,0.095 -0.015,0.186 z m 4.792,0.289 q -0.002,0.08 -0.002,0.176 0,0.095 -0.006,0.178 -0.004,0.063 -0.03,0.082 -0.023,0.017 -0.065,0.017 -0.039,0 -0.06,-0.015 -0.019,-0.012 -0.03,-0.057 -0.008,-0.046 -0.01,-0.133 -0.002,-0.089 -0.002,-0.237 -0.07,0 -0.133,0.002 l -0.123,0.002 q -0.089,0 -0.163,-0.004 -0.072,-0.004 -0.125,-0.015 -0.05,-0.013 -0.08,-0.034 -0.028,-0.021 -0.028,-0.055 0,-0.046 0.038,-0.116 0.038,-0.072 0.095,-0.155 0.058,-0.082 0.121,-0.167 l 0.12,-0.16 0.073,-0.094 q 0.048,-0.061 0.103,-0.12 0.055,-0.062 0.11,-0.106 0.056,-0.045 0.094,-0.045 0.036,0 0.063,0.023 0.028,0.024 0.032,0.108 0.008,0.123 0.01,0.259 0.003,0.133 0.003,0.264 v 0.21 q 0.059,0.004 0.095,0.01 0.036,0.006 0.055,0.02 0.019,0.01 0.025,0.027 0.007,0.017 0.007,0.042 0,0.053 -0.05,0.072 -0.048,0.017 -0.137,0.021 z m -0.207,-0.692 -0.159,0.193 -0.11,0.135 q -0.044,0.057 -0.078,0.098 l -0.057,0.072 q 0.097,-0.004 0.198,-0.004 l 0.206,-0.002 z m 1.401,0.026 q 0.044,0 0.112,0.008 0.068,0.006 0.13,0.027 0.059999,0.019 0.1049995,0.055 0.045,0.036 0.045,0.091 0,0.032 -0.02,0.055 -0.016,0.023 -0.055,0.023 -0.027,0 -0.063,-0.008 l -0.075999,-0.019 q -0.04,-0.012 -0.09,-0.02 -0.046,-0.009 -0.099,-0.009 -0.089,0 -0.146,0.028 -0.055,0.027 -0.055,0.086 0,0.034 0.02,0.058 0.02,0.023 0.054,0.042 0.036,0.017 0.083,0.03 l 0.102,0.025 q 0.065,0.017 0.129,0.038 0.065,0.021 0.116,0.06 0.05,0.035 0.083,0.092 0.031,0.055 0.031,0.138 0,0.157 -0.1179995,0.25 -0.119,0.09 -0.35,0.09 -0.05,0 -0.12,-0.007 -0.07,-0.006 -0.131,-0.028 -0.062,-0.019 -0.106,-0.055 -0.042,-0.038 -0.042,-0.1 0,-0.042 0.019,-0.063 0.02,-0.023 0.05,-0.023 0.024,0 0.049,0.015 0.025,0.015 0.061,0.031 0.036,0.017 0.087,0.032 0.051,0.015 0.125,0.015 l 0.072,-0.002 q 0.045,-0.004 0.087,-0.019 0.044,-0.015 0.074,-0.04 0.032,-0.028 0.032,-0.076 0,-0.038 -0.022,-0.064 -0.02,-0.027 -0.057,-0.046 -0.036,-0.02 -0.084,-0.032 l -0.1,-0.03 q -0.061,-0.017 -0.125,-0.038 -0.061,-0.021 -0.112,-0.055 -0.05,-0.034 -0.082,-0.085 -0.032,-0.052 -0.032,-0.129 0,-0.072 0.03,-0.133 0.03,-0.064 0.084,-0.11 0.055,-0.047 0.131,-0.072 0.079,-0.025 0.174,-0.025 z m 0.619999,0.975 0.06,-0.197 0.073,-0.245 0.09,-0.28 0.097,-0.298 0.074,-0.224 q 0.034,-0.098 0.061,-0.16 0.03,-0.06 0.055,-0.09 0.028,-0.032 0.06,-0.032 0.031,0 0.057,0.021 0.027,0.022 0.027,0.066 l -0.002,0.032 q -0.002,0.017 -0.009,0.04 -0.099,0.351 -0.215,0.711 -0.117,0.358 -0.248,0.713 -0.026,0.068 -0.049,0.091 -0.023,0.024 -0.046,0.024 -0.038,0 -0.068,-0.022 -0.03,-0.02 -0.03,-0.07 0,-0.03 0.013,-0.08 z m 1.415,0.045 q -0.028,0.05 -0.051,0.074 -0.021,0.023 -0.055,0.023 -0.034,0 -0.06,-0.023 -0.025,-0.023 -0.055,-0.072 -0.038,-0.064 -0.086,-0.176 -0.047,-0.112 -0.096,-0.243 -0.048,-0.134 -0.095,-0.275 l -0.085,-0.267 q -0.036,-0.125 -0.059,-0.218 -0.021,-0.095 -0.021,-0.136 0,-0.042 0.017,-0.063 0.017,-0.021 0.066,-0.021 0.027,0 0.046,0.014 0.021,0.013 0.053,0.077 0.025,0.048 0.055,0.127 0.03,0.078 0.061,0.173 0.034,0.096 0.068,0.201 l 0.068,0.208 q 0.034,0.103 0.063,0.199 l 0.055,0.171 0.058,-0.173 0.065,-0.2 0.068,-0.207 q 0.034,-0.106 0.068,-0.199 l 0.063,-0.171 q 0.03,-0.078 0.053,-0.13 0.03,-0.06 0.05,-0.076 0.024,-0.014 0.047,-0.014 0.05,0 0.066,0.025 0.02,0.023 0.02,0.07 0,0.042 -0.014,0.102 -0.012,0.059 -0.044,0.158 -0.03,0.098 -0.08,0.244 l -0.125,0.357 q -0.02,0.058 -0.045,0.119 -0.023,0.061 -0.048,0.12 l -0.047,0.11 q -0.023,0.054 -0.044,0.092 z" />
  <g
     id="g142"
     style="line-height:1.25"
     transform="translate(-40.589262,-146.39331)">
    <path
       inkscape:connector-curvature="0"
       id="path140"
       word-spacing="0"
       letter-spacing="0"
       font-size="2.822"
       font-weight="400"
       aria-label="EXP"
       style="font-weight:400;font-size:2.82200003px;font-family:Sniglet;-inkscape-font-specification:'Sniglet, Normal';font-variant-ligatures:normal;font-variant-caps:normal;font-variant-numeric:normal;font-feature-settings:normal;text-align:start;letter-spacing:0;word-spacing:0;stroke-width:0.26499999"
       d="m 57.877,229.897 q -0.006,-0.09 -0.012,-0.245 -0.005,-0.155 -0.005,-0.32 v -0.191 l 0.005,-0.206 q 0.006,-0.209 0.026,-0.327 0.022,-0.119 0.084,-0.178 0.065,-0.06 0.18,-0.074 0.117,-0.014 0.309,-0.014 h 0.059 q 0.06,0 0.14,0.003 0.083,0 0.17,0.003 l 0.15,0.006 q 0.062,0.006 0.099,0.017 0.04,0.008 0.059,0.026 0.02,0.014 0.025,0.036 0.006,0.02 0.006,0.045 0,0.065 -0.037,0.096 -0.037,0.029 -0.15,0.037 -0.056,0.006 -0.166,0.008 h -0.22 q -0.113,0 -0.203,0.003 h -0.113 q -0.074,0.003 -0.105,0.034 -0.028,0.028 -0.028,0.138 l 0.003,0.124 q 0.006,0.096 0.006,0.271 h 0.234 q 0.15,0 0.243,0.006 0.096,0.003 0.146,0.017 0.054,0.014 0.074,0.046 0.02,0.03 0.02,0.081 0,0.026 -0.006,0.048 -0.003,0.02 -0.023,0.037 -0.02,0.014 -0.056,0.026 -0.037,0.008 -0.105,0.014 -0.081,0.006 -0.155,0.008 h -0.378 v 0.343 l 0.006,0.097 q 0.002,0.045 0.01,0.076 0.012,0.031 0.038,0.05 0.028,0.02 0.079,0.03 0.053,0.007 0.14,0.007 h 0.608 q 0.098,0 0.124,0.037 0.025,0.037 0.025,0.099 0,0.05 -0.022,0.079 -0.023,0.025 -0.11,0.036 -0.085,0.014 -0.257,0.017 -0.17,0.003 -0.469,0.003 -0.127,0 -0.209,-0.022 -0.082,-0.023 -0.132,-0.077 -0.051,-0.053 -0.077,-0.138 -0.022,-0.087 -0.03,-0.212 z m 2.219,-0.313 -0.42,0.652 q -0.04,0.062 -0.088,0.093 -0.045,0.034 -0.104,0.034 -0.073,0 -0.104,-0.037 -0.029,-0.034 -0.029,-0.087 0,-0.031 0.012,-0.065 0.014,-0.034 0.036,-0.065 l 0.525,-0.75 -0.525,-0.751 q -0.022,-0.031 -0.036,-0.065 -0.012,-0.034 -0.012,-0.065 0,-0.054 0.029,-0.088 0.03,-0.036 0.104,-0.036 0.06,0 0.104,0.033 0.048,0.031 0.088,0.094 l 0.42,0.651 0.421,-0.651 q 0.04,-0.063 0.085,-0.094 0.048,-0.033 0.107,-0.033 0.073,0 0.101,0.036 0.032,0.034 0.032,0.088 0,0.03 -0.015,0.065 -0.01,0.034 -0.033,0.065 l -0.525,0.75 0.525,0.75 q 0.022,0.032 0.033,0.066 0.015,0.034 0.015,0.065 0,0.053 -0.032,0.087 -0.028,0.037 -0.101,0.037 -0.06,0 -0.107,-0.034 -0.046,-0.031 -0.085,-0.093 z m 1.281,0.564 q 0,0.068 -0.014,0.105 -0.011,0.037 -0.03,0.056 -0.018,0.02 -0.043,0.023 -0.023,0.006 -0.045,0.006 -0.076,0 -0.102,-0.034 -0.022,-0.034 -0.03,-0.152 -0.006,-0.063 -0.01,-0.181 l -0.005,-0.282 q 0,-0.164 -0.003,-0.362 v -0.417 q 0,-0.105 0.026,-0.212 0.025,-0.107 0.096,-0.195 0.073,-0.087 0.2,-0.14 0.13,-0.054 0.336,-0.054 0.144,0 0.274,0.03 0.13,0.032 0.228,0.108 0.099,0.076 0.158,0.203 0.06,0.127 0.06,0.316 0,0.198 -0.065,0.328 -0.065,0.13 -0.184,0.206 -0.118,0.076 -0.282,0.107 -0.164,0.03 -0.359,0.03 h -0.095 q -0.048,0 -0.108,-0.005 z m 0.813,-1.188 q 0,-0.189 -0.107,-0.285 -0.104,-0.096 -0.35,-0.096 -0.093,0 -0.16,0.017 -0.066,0.014 -0.108,0.054 -0.042,0.036 -0.065,0.101 -0.02,0.065 -0.02,0.164 v 0.22 q 0,0.122 0.003,0.229 0.065,0.003 0.144,0.003 h 0.152 q 0.085,0 0.175,-0.012 0.093,-0.01 0.167,-0.05 0.073,-0.043 0.121,-0.122 0.048,-0.082 0.048,-0.223 z" />
  </g>
  <g
     aria-label="TACT-1"
     style="font-style:normal;font-weight:normal;font-size:10.58337021px;line-height:1.25;font-family:sans-serif;letter-spacing:0px;word-spacing:0px;fill:#000000;fill-opacity:1;stroke:none;stroke-width:0.26458427"
     id="text1059"
     transform="translate(0,0.52916852)">
    <path
       d="m 7.5291518,5.5472733 q -0.1185337,0.00847 -0.2540009,0.0127 -0.1312338,0.00423 -0.292101,0.00847 0.00423,0.1143004 0.00847,0.2159008 0.00423,0.097367 0.00847,0.1989673 0.00423,0.1016004 0.00423,0.2116675 0.00423,0.110067 0.00423,0.2455342 0,0.1905006 0,0.3683013 0,0.1735673 -0.00423,0.3513679 -0.00423,0.1735673 -0.00847,0.3513679 -0.00423,0.1778006 -0.0127,0.3683013 -0.00423,0.1016004 -0.021167,0.1566339 -0.0127,0.055033 -0.0381,0.084667 -0.0254,0.029633 -0.059267,0.033867 -0.033867,0.00847 -0.0762,0.00847 -0.0762,0 -0.1312338,-0.0508 -0.0508,-0.055034 -0.059267,-0.2286008 -0.00847,-0.1524006 -0.0127,-0.3217345 0,-0.169334 -0.00423,-0.364068 -0.00423,-0.194734 -0.00423,-0.4191015 0,-0.2286008 0,-0.5037684 0,-0.2328342 0,-0.4064015 0.00423,-0.1735673 0.0127,-0.3005677 H 6.4157812 q -0.1778006,0 -0.3048011,-0.00423 Q 5.988213,5.559987 5.9077794,5.54305 5.8273454,5.521883 5.7892456,5.47955 5.7553786,5.437217 5.7553786,5.3610162 q 0,-0.0381 0.00847,-0.067734 0.00847,-0.033867 0.0381,-0.059267 0.029633,-0.029634 0.080434,-0.046567 0.055033,-0.016933 0.1397005,-0.0254 0.080434,-0.00423 0.1439338,-0.00847 0.0635,-0.00423 0.1270005,-0.00847 0.0635,-0.00423 0.1312338,-0.00423 0.067734,0 0.1566339,0 0.2497675,0 0.4699016,0.00423 0.2243675,0.00423 0.4741351,0.016933 0.1016003,0.00847 0.1566339,0.0254 0.055033,0.0127 0.084667,0.0381 0.029633,0.0254 0.033867,0.059267 0.00847,0.033867 0.00847,0.0762 0,0.0762 -0.055034,0.1270005 -0.0508,0.0508 -0.2243675,0.059267 z"
       style="font-style:normal;font-variant:normal;font-weight:normal;font-stretch:normal;font-size:4.23334837px;font-family:Sniglet;-inkscape-font-specification:'Sniglet, Normal';font-variant-ligatures:normal;font-variant-caps:normal;font-variant-numeric:normal;font-feature-settings:normal;text-align:start;writing-mode:lr-tb;text-anchor:start;stroke-width:0.26458427"
       id="path1061"
       inkscape:connector-curvature="0" />
    <path
       d="M 9.6239978,7.9052483 Q 9.5816643,7.8036479 9.5308642,7.6724141 9.4842973,7.536947 9.4292638,7.3887798 q -0.1270005,0.00423 -0.266701,0.00847 -0.1397004,0 -0.2836343,0 -0.182034,0 -0.3302012,0 -0.1481672,0 -0.2709343,-0.00423 -0.0508,0.1481672 -0.097367,0.279401 -0.046567,0.1312338 -0.0889,0.2328342 -0.084667,0.2159008 -0.2455342,0.2159008 -0.059267,0 -0.1143004,-0.0381 -0.0508,-0.0381 -0.0508,-0.110067 0,-0.071967 0.0254,-0.1862674 0.0254,-0.1185337 0.0635,-0.2497675 0.042333,-0.1354672 0.0889,-0.2751677 0.046567,-0.1439338 0.0889,-0.2667009 0.042333,-0.1354672 0.1185337,-0.3429012 0.080434,-0.2116674 0.169334,-0.4402683 0.0889,-0.2286008 0.1778006,-0.4487349 0.0889,-0.2243674 0.1608672,-0.389468 0.016933,-0.042334 0.042333,-0.093134 0.0254,-0.055034 0.059267,-0.1016004 0.0381,-0.046567 0.080434,-0.080434 0.046567,-0.033867 0.1016004,-0.033867 0.055034,0 0.1016003,0.0381 0.046567,0.033867 0.080434,0.084667 0.0381,0.0508 0.0635,0.1058338 0.029633,0.055033 0.046567,0.097367 0.067734,0.1693339 0.1524005,0.389468 0.0889,0.2201341 0.1735673,0.4445016 0.0889,0.2243675 0.1651006,0.4275682 0.0762,0.2032007 0.1227671,0.3429012 0.0381,0.1227671 0.084667,0.2624676 0.0508,0.1397005 0.093134,0.2751676 0.042334,0.1354672 0.067734,0.2540009 0.02963,0.1143004 0.02963,0.1862674 0,0.071967 -0.055034,0.110067 -0.0508,0.0381 -0.110067,0.0381 -0.0762,0 -0.1397005,-0.0508 -0.0635,-0.055034 -0.1100671,-0.1651006 z M 8.8746952,6.9739117 q 0.1016003,0 0.2032007,0.00423 0.1016003,0 0.2032007,0.00423 Q 9.2302964,6.8342112 9.1794962,6.686044 9.1286961,6.5378768 9.0821292,6.4024096 9.0397957,6.2669425 9.0016956,6.1526421 8.9678288,6.0341083 8.9424287,5.945208 q -0.016933,-0.055034 -0.0381,-0.0889 -0.021167,-0.033867 -0.055033,-0.033867 -0.033867,0 -0.055034,0.0381 -0.021167,0.033867 -0.0381,0.0889 -0.0508,0.1735673 -0.1439338,0.4529683 -0.0889,0.2751677 -0.1905007,0.5799688 0.1143004,-0.00423 0.2286008,-0.00423 0.1143004,-0.00423 0.2243675,-0.00423 z"
       style="font-style:normal;font-variant:normal;font-weight:normal;font-stretch:normal;font-size:4.23334837px;font-family:Sniglet;-inkscape-font-specification:'Sniglet, Normal';font-variant-ligatures:normal;font-variant-caps:normal;font-variant-numeric:normal;font-feature-settings:normal;text-align:start;writing-mode:lr-tb;text-anchor:start;stroke-width:0.26458427"
       id="path1063"
       inkscape:connector-curvature="0" />
    <path
       d="m 11.504729,5.1239384 q 0.1397,0 0.279401,0.0254 0.143934,0.021167 0.258234,0.071967 0.114301,0.046567 0.186267,0.1185338 0.0762,0.067734 0.0762,0.1608672 0,0.097367 -0.0508,0.1481672 -0.0508,0.0508 -0.127001,0.0508 -0.07197,0 -0.127,-0.021167 -0.05503,-0.0254 -0.127001,-0.055034 -0.06773,-0.029633 -0.1651,-0.0508 -0.09737,-0.0254 -0.258235,-0.0254 -0.160867,0 -0.309034,0.084667 -0.143934,0.080434 -0.254001,0.2286008 -0.105834,0.1439339 -0.169334,0.3429013 -0.0635,0.1989673 -0.0635,0.4318015 0,0.2878677 0.07197,0.4953017 0.0762,0.2074341 0.194734,0.3429013 0.118534,0.1312338 0.266701,0.1989673 0.1524,0.0635 0.304801,0.0635 0.182034,0 0.304801,-0.0381 0.122767,-0.0381 0.207434,-0.084667 0.0889,-0.046567 0.152401,-0.084667 0.0635,-0.0381 0.122767,-0.0381 0.07197,0 0.1143,0.042333 0.04233,0.0381 0.04233,0.1397005 0,0.084667 -0.06773,0.1735673 -0.0635,0.084667 -0.190501,0.1566339 -0.122767,0.067734 -0.296334,0.1143004 -0.173567,0.042333 -0.389468,0.042333 -0.237068,0 -0.474135,-0.093134 Q 10.785062,7.9729796 10.598794,7.790946 10.41676,7.6046787 10.30246,7.329511 10.18816,7.05011 10.18816,6.6818087 q 0,-0.3683013 0.1016,-0.656169 0.105834,-0.2878677 0.283634,-0.486835 0.182034,-0.2032008 0.419102,-0.3090345 0.241301,-0.1058337 0.512235,-0.1058337 z"
       style="font-style:normal;font-variant:normal;font-weight:normal;font-stretch:normal;font-size:4.23334837px;font-family:Sniglet;-inkscape-font-specification:'Sniglet, Normal';font-variant-ligatures:normal;font-variant-caps:normal;font-variant-numeric:normal;font-feature-settings:normal;text-align:start;writing-mode:lr-tb;text-anchor:start;stroke-width:0.26458427"
       id="path1065"
       inkscape:connector-curvature="0" />
    <path
       d="m 14.37527,5.5472733 q -0.118534,0.00847 -0.254001,0.0127 -0.131234,0.00423 -0.292101,0.00847 0.0042,0.1143004 0.0085,0.2159008 0.0042,0.097367 0.0085,0.1989673 0.0042,0.1016004 0.0042,0.2116675 0.0042,0.110067 0.0042,0.2455342 0,0.1905006 0,0.3683013 0,0.1735673 -0.0042,0.3513679 -0.0042,0.1735673 -0.0085,0.3513679 -0.0042,0.1778006 -0.0127,0.3683013 -0.0042,0.1016004 -0.02117,0.1566339 -0.0127,0.055033 -0.0381,0.084667 -0.0254,0.029633 -0.05927,0.033867 -0.03387,0.00847 -0.0762,0.00847 -0.0762,0 -0.131234,-0.0508 -0.0508,-0.055034 -0.05927,-0.2286008 -0.0085,-0.1524006 -0.0127,-0.3217345 0,-0.169334 -0.0042,-0.364068 -0.0042,-0.194734 -0.0042,-0.4191015 0,-0.2286008 0,-0.5037684 0,-0.2328342 0,-0.4064015 0.0042,-0.1735673 0.0127,-0.3005677 h -0.173567 q -0.1778,0 -0.304801,-0.00423 -0.122767,-0.00423 -0.203201,-0.021167 -0.08043,-0.021167 -0.118533,-0.0635 -0.03387,-0.042333 -0.03387,-0.1185338 0,-0.0381 0.0085,-0.067734 0.0085,-0.033867 0.0381,-0.059267 0.02963,-0.029634 0.08043,-0.046567 0.05503,-0.016933 0.139701,-0.0254 0.08043,-0.00423 0.143934,-0.00847 0.0635,-0.00423 0.127,-0.00847 0.0635,-0.00423 0.131234,-0.00423 0.06773,0 0.156634,0 0.249767,0 0.469901,0.00423 0.224368,0.00423 0.474135,0.016933 0.101601,0.00847 0.156634,0.0254 0.05503,0.0127 0.08467,0.0381 0.02963,0.0254 0.03387,0.059267 0.0085,0.033867 0.0085,0.0762 0,0.0762 -0.05503,0.1270005 -0.0508,0.0508 -0.224367,0.059267 z"
       style="font-style:normal;font-variant:normal;font-weight:normal;font-stretch:normal;font-size:4.23334837px;font-family:Sniglet;-inkscape-font-specification:'Sniglet, Normal';font-variant-ligatures:normal;font-variant-caps:normal;font-variant-numeric:normal;font-feature-settings:normal;text-align:start;writing-mode:lr-tb;text-anchor:start;stroke-width:0.26458427"
       id="path1067"
       inkscape:connector-curvature="0" />
    <path
       d="m 16.44928,7.062812 q -0.194734,0.00847 -0.448735,0.016933 -0.254,0.00423 -0.601135,0.00423 -0.143934,0 -0.245534,-0.00423 -0.101601,-0.00423 -0.165101,-0.021167 -0.0635,-0.021167 -0.09313,-0.0635 -0.02963,-0.042333 -0.02963,-0.1185338 0,-0.0381 0.0085,-0.067734 0.0085,-0.033867 0.0381,-0.059267 0.02963,-0.0254 0.08043,-0.042333 0.05503,-0.021167 0.139701,-0.029633 0.0635,-0.00423 0.110067,-0.00847 0.0508,-0.00423 0.09737,-0.00423 0.04657,-0.00423 0.09737,-0.00423 0.05503,0 0.127001,0 0.2286,0 0.440268,0.00423 0.211667,0 0.440268,0.0127 0.1016,0.00847 0.156634,0.0254 0.05503,0.0127 0.08467,0.0381 0.02963,0.0254 0.03387,0.059267 0.0085,0.033867 0.0085,0.0762 0,0.0762 -0.05503,0.1270005 -0.0508,0.0508 -0.224368,0.059267 z"
       style="font-style:normal;font-variant:normal;font-weight:normal;font-stretch:normal;font-size:4.23334837px;font-family:Sniglet;-inkscape-font-specification:'Sniglet, Normal';font-variant-ligatures:normal;font-variant-caps:normal;font-variant-numeric:normal;font-feature-settings:normal;text-align:start;writing-mode:lr-tb;text-anchor:start;stroke-width:0.26458427"
       id="path1069"
       inkscape:connector-curvature="0" />
    <path
       d="m 17.636602,7.8586815 q -0.0085,-0.1524006 -0.0127,-0.3175012 0,-0.1651005 -0.0042,-0.3556012 -0.0042,-0.1905007 -0.0042,-0.4106348 0,-0.2243675 0,-0.4995351 V 5.7462406 L 17.361434,5.8774744 Q 17.2556,5.945208 17.1921,5.957908 q -0.05927,0.0127 -0.131234,0.0127 -0.0635,0 -0.1143,-0.055033 -0.04657,-0.055034 -0.04657,-0.1312338 0,-0.0762 0.0508,-0.1312338 0.05503,-0.059267 0.127001,-0.1058337 0.09313,-0.0635 0.198967,-0.1270005 0.110067,-0.0635 0.211667,-0.1143004 0.101601,-0.055033 0.186268,-0.084667 0.0889,-0.033867 0.148167,-0.033867 0.02963,0 0.05927,0.00847 0.03387,0.00847 0.05927,0.033867 0.02963,0.0254 0.04657,0.080434 0.02117,0.0508 0.0254,0.1397005 0.0085,0.1524006 0.0127,0.266701 0.0042,0.1143004 0.0085,0.2243675 0.0042,0.1058337 0.0042,0.2243674 0,0.1185338 0,0.2751677 0,0.1905006 0,0.3640679 0,0.1735673 -0.0042,0.3429012 -0.0042,0.169334 -0.0085,0.3429013 -0.0042,0.1735672 -0.0127,0.3640679 -0.0042,0.1016004 -0.02117,0.1566339 -0.0127,0.055034 -0.0381,0.084667 -0.0254,0.029633 -0.05927,0.033867 -0.02963,0.00847 -0.07197,0.00847 -0.0762,0 -0.127001,-0.0508 -0.0508,-0.055034 -0.05927,-0.2286008 z"
       style="font-style:normal;font-variant:normal;font-weight:normal;font-stretch:normal;font-size:4.23334837px;font-family:Sniglet;-inkscape-font-specification:'Sniglet, Normal';font-variant-ligatures:normal;font-variant-caps:normal;font-variant-numeric:normal;font-feature-settings:normal;text-align:start;writing-mode:lr-tb;text-anchor:start;stroke-width:0.26458427"
       id="path1071"
       inkscape:connector-curvature="0" />
  </g>
  <g
     aria-label="ATTV"
     style="font-style:normal;font-weight:normal;font-size:10.58337021px;line-height:1.25;font-family:sans-serif;letter-spacing:0px;word-spacing:0px;fill:#000000;fill-opacity:1;stroke:none;stroke-width:0.26458427"
     id="text839"
     transform="translate(0.02783654,1.846073)">
    <path
       d="m 15.579349,67.556277 q -0.02822,-0.06773 -0.06209,-0.155223 -0.03105,-0.09031 -0.06773,-0.18909 -0.08467,0.0028 -0.1778,0.0056 -0.09313,0 -0.18909,0 -0.121356,0 -0.220134,0 -0.09878,0 -0.180623,-0.0028 -0.03387,0.09878 -0.06491,0.186267 -0.03105,0.08749 -0.05927,0.155223 -0.05645,0.143934 -0.163689,0.143934 -0.03951,0 -0.0762,-0.0254 -0.03387,-0.0254 -0.03387,-0.07338 0,-0.04798 0.01693,-0.124178 0.01693,-0.07902 0.04233,-0.166511 0.02822,-0.09031 0.05927,-0.183446 0.03104,-0.09596 0.05927,-0.1778 0.02822,-0.09031 0.07902,-0.228601 0.05362,-0.141112 0.112889,-0.293512 0.05927,-0.152401 0.118534,-0.299157 0.05927,-0.149578 0.107245,-0.259645 0.01129,-0.02822 0.02822,-0.06209 0.01693,-0.03669 0.03951,-0.06773 0.0254,-0.03104 0.05362,-0.05362 0.03104,-0.02258 0.06773,-0.02258 0.03669,0 0.06773,0.0254 0.03104,0.02258 0.05362,0.05644 0.0254,0.03387 0.04233,0.07056 0.01975,0.03669 0.03104,0.06491 0.04516,0.112889 0.1016,0.259645 0.05927,0.146756 0.115712,0.296335 0.05927,0.149578 0.110067,0.285045 0.0508,0.135467 0.08184,0.228601 0.0254,0.08185 0.05644,0.174978 0.03387,0.09313 0.06209,0.183445 0.02822,0.09031 0.04516,0.169334 0.01976,0.0762 0.01976,0.124178 0,0.04798 -0.03669,0.07338 -0.03387,0.0254 -0.07338,0.0254 -0.0508,0 -0.09313,-0.03387 -0.04233,-0.03669 -0.07338,-0.110067 z m -0.499535,-0.620891 q 0.06773,0 0.135467,0.0028 0.06773,0 0.135467,0.0028 -0.03387,-0.09878 -0.06773,-0.197556 -0.03387,-0.09878 -0.06491,-0.18909 -0.02822,-0.09031 -0.05362,-0.166511 -0.02258,-0.07902 -0.03951,-0.13829 -0.01129,-0.03669 -0.0254,-0.05927 -0.01411,-0.02258 -0.03669,-0.02258 -0.02258,0 -0.03669,0.0254 -0.01411,0.02258 -0.0254,0.05927 -0.03387,0.115711 -0.09596,0.301978 -0.05927,0.183445 -0.127001,0.386646 0.0762,-0.0028 0.152401,-0.0028 0.0762,-0.0028 0.149578,-0.0028 z"
       style="font-style:normal;font-variant:normal;font-weight:normal;font-stretch:normal;font-size:2.82223201px;font-family:Sniglet;-inkscape-font-specification:'Sniglet, Normal';font-variant-ligatures:normal;font-variant-caps:normal;font-variant-numeric:normal;font-feature-settings:normal;text-align:start;writing-mode:lr-tb;text-anchor:start;stroke-width:0.26458427"
       id="path841"
       inkscape:connector-curvature="0" />
    <path
       d="m 16.955408,65.984294 q -0.07902,0.0056 -0.169334,0.0085 -0.08749,0.0028 -0.194734,0.0056 0.0028,0.0762 0.0056,0.143934 0.0028,0.06491 0.0056,0.132644 0.0028,0.06773 0.0028,0.141112 0.0028,0.07338 0.0028,0.163689 0,0.127001 0,0.245535 0,0.115711 -0.0028,0.234245 -0.0028,0.115711 -0.0056,0.234245 -0.0028,0.118534 -0.0085,0.245534 -0.0028,0.06773 -0.01411,0.104423 -0.0085,0.03669 -0.0254,0.05644 -0.01693,0.01976 -0.03951,0.02258 -0.02258,0.0056 -0.0508,0.0056 -0.0508,0 -0.08749,-0.03387 -0.03387,-0.03669 -0.03951,-0.1524 -0.0056,-0.101601 -0.0085,-0.21449 0,-0.112889 -0.0028,-0.242712 -0.0028,-0.129823 -0.0028,-0.279401 0,-0.152401 0,-0.335846 0,-0.155222 0,-0.270934 0.0028,-0.115711 0.0085,-0.200378 h -0.115711 q -0.118534,0 -0.203201,-0.0028 -0.08184,-0.0028 -0.135467,-0.01411 -0.05362,-0.01411 -0.07902,-0.04233 -0.02258,-0.02822 -0.02258,-0.07902 0,-0.0254 0.0056,-0.04515 0.0056,-0.02258 0.0254,-0.03951 0.01976,-0.01976 0.05362,-0.03104 0.03669,-0.01129 0.09313,-0.01693 0.05362,-0.0028 0.09596,-0.0056 0.04233,-0.0028 0.08467,-0.0056 0.04233,-0.0028 0.08749,-0.0028 0.04516,0 0.104423,0 0.166511,0 0.313267,0.0028 0.149579,0.0028 0.31609,0.01129 0.06773,0.0056 0.104423,0.01693 0.03669,0.0085 0.05645,0.0254 0.01975,0.01693 0.02258,0.03951 0.0056,0.02258 0.0056,0.0508 0,0.0508 -0.03669,0.08467 -0.03387,0.03387 -0.149578,0.03951 z"
       style="font-style:normal;font-variant:normal;font-weight:normal;font-stretch:normal;font-size:2.82223201px;font-family:Sniglet;-inkscape-font-specification:'Sniglet, Normal';font-variant-ligatures:normal;font-variant-caps:normal;font-variant-numeric:normal;font-feature-settings:normal;text-align:start;writing-mode:lr-tb;text-anchor:start;stroke-width:0.26458427"
       id="path843"
       inkscape:connector-curvature="0" />
    <path
       d="m 18.493304,65.984294 q -0.07902,0.0056 -0.169334,0.0085 -0.08749,0.0028 -0.194734,0.0056 0.0028,0.0762 0.0056,0.143934 0.0028,0.06491 0.0056,0.132644 0.0028,0.06773 0.0028,0.141112 0.0028,0.07338 0.0028,0.163689 0,0.127001 0,0.245535 0,0.115711 -0.0028,0.234245 -0.0028,0.115711 -0.0056,0.234245 -0.0028,0.118534 -0.0085,0.245534 -0.0028,0.06773 -0.01411,0.104423 -0.0085,0.03669 -0.0254,0.05644 -0.01693,0.01976 -0.03951,0.02258 -0.02258,0.0056 -0.0508,0.0056 -0.0508,0 -0.08749,-0.03387 -0.03387,-0.03669 -0.03951,-0.1524 -0.0056,-0.101601 -0.0085,-0.21449 0,-0.112889 -0.0028,-0.242712 -0.0028,-0.129823 -0.0028,-0.279401 0,-0.152401 0,-0.335846 0,-0.155222 0,-0.270934 0.0028,-0.115711 0.0085,-0.200378 h -0.115711 q -0.118534,0 -0.203201,-0.0028 -0.08184,-0.0028 -0.135467,-0.01411 -0.05362,-0.01411 -0.07902,-0.04233 -0.02258,-0.02822 -0.02258,-0.07902 0,-0.0254 0.0056,-0.04515 0.0056,-0.02258 0.0254,-0.03951 0.01976,-0.01976 0.05362,-0.03104 0.03669,-0.01129 0.09313,-0.01693 0.05362,-0.0028 0.09596,-0.0056 0.04233,-0.0028 0.08467,-0.0056 0.04233,-0.0028 0.08749,-0.0028 0.04516,0 0.104423,0 0.166511,0 0.313267,0.0028 0.149579,0.0028 0.31609,0.01129 0.06773,0.0056 0.104423,0.01693 0.03669,0.0085 0.05645,0.0254 0.01975,0.01693 0.02258,0.03951 0.0056,0.02258 0.0056,0.0508 0,0.0508 -0.03669,0.08467 -0.03387,0.03387 -0.149578,0.03951 z"
       style="font-style:normal;font-variant:normal;font-weight:normal;font-stretch:normal;font-size:2.82223201px;font-family:Sniglet;-inkscape-font-specification:'Sniglet, Normal';font-variant-ligatures:normal;font-variant-caps:normal;font-variant-numeric:normal;font-feature-settings:normal;text-align:start;writing-mode:lr-tb;text-anchor:start;stroke-width:0.26458427"
       id="path845"
       inkscape:connector-curvature="0" />
    <path
       d="m 19.70382,67.587321 q -0.03669,0.06773 -0.06773,0.09878 -0.02822,0.03105 -0.07338,0.03105 -0.04516,0 -0.07902,-0.03105 -0.03387,-0.03104 -0.07338,-0.09596 -0.0508,-0.08467 -0.115711,-0.234246 -0.06209,-0.149578 -0.127001,-0.324556 -0.06491,-0.177801 -0.127,-0.366891 -0.06209,-0.189089 -0.112889,-0.355601 -0.04798,-0.166511 -0.07902,-0.29069 -0.02822,-0.127 -0.02822,-0.180623 0,-0.05644 0.02258,-0.08467 0.02258,-0.02822 0.08749,-0.02822 0.03669,0 0.06209,0.01976 0.02822,0.01693 0.07056,0.1016 0.03387,0.06491 0.07338,0.169334 0.03951,0.104423 0.08184,0.231423 0.04516,0.127001 0.09031,0.268112 0.04516,0.138289 0.09031,0.276579 0.04516,0.138289 0.08467,0.26529 0.03951,0.127 0.07338,0.2286 0.03387,-0.104422 0.0762,-0.231423 0.04233,-0.129822 0.08749,-0.265289 0.04516,-0.13829 0.09031,-0.276579 0.04516,-0.141112 0.09031,-0.26529 0.04516,-0.124178 0.08467,-0.228601 0.03951,-0.104422 0.07055,-0.172156 0.03951,-0.08184 0.06773,-0.1016 0.03104,-0.01976 0.06209,-0.01976 0.06491,0 0.08749,0.03387 0.0254,0.03104 0.0254,0.09313 0,0.05644 -0.01693,0.135467 -0.01693,0.07902 -0.05927,0.211667 -0.03951,0.129823 -0.107245,0.324557 -0.06773,0.194734 -0.166511,0.476957 -0.0254,0.0762 -0.05927,0.158045 -0.03104,0.08185 -0.06491,0.160867 -0.03104,0.0762 -0.06209,0.146756 -0.03104,0.07056 -0.05927,0.121356 z"
       style="font-style:normal;font-variant:normal;font-weight:normal;font-stretch:normal;font-size:2.82223201px;font-family:Sniglet;-inkscape-font-specification:'Sniglet, Normal';font-variant-ligatures:normal;font-variant-caps:normal;font-variant-numeric:normal;font-feature-settings:normal;text-align:start;writing-mode:lr-tb;text-anchor:start;stroke-width:0.26458427"
       id="path847"
       inkscape:connector-curvature="0" />
  </g>
  <path
     inkscape:connector-curvature="0"
     id="path879"
     style="font-style:normal;font-variant:normal;font-weight:normal;font-stretch:normal;font-size:2.11667418px;line-height:1.25;font-family:Sniglet;-inkscape-font-specification:'Sniglet, Normal';font-variant-ligatures:normal;font-variant-caps:normal;font-variant-numeric:normal;font-feature-settings:normal;text-align:start;letter-spacing:0px;word-spacing:0px;writing-mode:lr-tb;text-anchor:start;fill:#000000;fill-opacity:1;stroke:none;stroke-width:0.26458427"
     d="m 14.176549,78.864632 q -0.09525,0.09948 -0.162983,0.17145 -0.06562,0.06985 -0.112184,0.116417 -0.04657,0.04445 -0.07832,0.06562 -0.02963,0.02117 -0.05503,0.02117 -0.02963,0 -0.05927,-0.0254 -0.02752,-0.0254 -0.02752,-0.05503 0,-0.0254 0.03598,-0.0762 0.03598,-0.05292 0.0889,-0.116417 0.05292,-0.0635 0.114301,-0.131234 0.06138,-0.06985 0.112184,-0.131234 -0.06773,-0.07832 -0.129118,-0.1524 -0.05927,-0.07408 -0.103717,-0.137584 -0.04445,-0.0635 -0.07197,-0.112184 -0.0254,-0.04868 -0.0254,-0.0762 0,-0.02752 0.02752,-0.04657 0.02752,-0.02117 0.0508,-0.02117 0.01905,0 0.06562,0.04233 0.04657,0.04022 0.103717,0.09948 0.05927,0.05715 0.118534,0.122767 0.06138,0.06562 0.110067,0.116417 0.04657,-0.0508 0.103717,-0.1143 0.05927,-0.06562 0.116417,-0.122768 0.05715,-0.05715 0.105834,-0.09737 0.04868,-0.04022 0.0762,-0.04022 0.02328,0 0.04657,0.01693 0.02328,0.01693 0.02328,0.04445 0,0.02752 -0.02752,0.0762 -0.0254,0.04868 -0.06985,0.112184 -0.04445,0.0635 -0.105833,0.137584 -0.05927,0.07408 -0.127001,0.1524 0.05292,0.05927 0.114301,0.129118 0.06138,0.06773 0.1143,0.13335 0.05292,0.0635 0.08678,0.116417 0.03598,0.0508 0.03598,0.0762 0,0.02963 -0.02963,0.05503 -0.02752,0.0254 -0.05715,0.0254 -0.02752,0 -0.07408,-0.03387 -0.04445,-0.03598 -0.1016,-0.0889 -0.05503,-0.05503 -0.116417,-0.12065 -0.05927,-0.06773 -0.116418,-0.131234 z" />
  <path
     inkscape:connector-curvature="0"
     id="path881"
     style="font-style:normal;font-variant:normal;font-weight:normal;font-stretch:normal;font-size:2.11667418px;line-height:1.25;font-family:Sniglet;-inkscape-font-specification:'Sniglet, Normal';font-variant-ligatures:normal;font-variant-caps:normal;font-variant-numeric:normal;font-feature-settings:normal;text-align:start;letter-spacing:0px;word-spacing:0px;writing-mode:lr-tb;text-anchor:start;fill:#000000;fill-opacity:1;stroke:none;stroke-width:0.26458427"
     d="m 15.547857,78.703764 q -0.09737,0.0042 -0.224368,0.0085 -0.127,0.0021 -0.300568,0.0021 -0.07197,0 -0.122767,-0.0021 -0.0508,-0.0021 -0.08255,-0.01058 -0.03175,-0.01058 -0.04657,-0.03175 -0.01482,-0.02117 -0.01482,-0.05927 0,-0.01905 0.0042,-0.03387 0.0042,-0.01693 0.01905,-0.02963 0.01482,-0.0127 0.04022,-0.02117 0.02752,-0.01058 0.06985,-0.01482 0.03175,-0.0021 0.05503,-0.0042 0.0254,-0.0021 0.04868,-0.0021 0.02328,-0.0021 0.04868,-0.0021 0.02752,0 0.0635,0 0.1143,0 0.220134,0.0021 0.105834,0 0.220134,0.0063 0.0508,0.0042 0.07832,0.0127 0.02752,0.0063 0.04233,0.01905 0.01482,0.0127 0.01693,0.02963 0.0042,0.01693 0.0042,0.0381 0,0.0381 -0.02752,0.0635 -0.0254,0.0254 -0.112183,0.02963 z" />
  <path
     inkscape:connector-curvature="0"
     id="path883"
     style="font-style:normal;font-variant:normal;font-weight:normal;font-stretch:normal;font-size:2.11667418px;line-height:1.25;font-family:Sniglet;-inkscape-font-specification:'Sniglet, Normal';font-variant-ligatures:normal;font-variant-caps:normal;font-variant-numeric:normal;font-feature-settings:normal;text-align:start;letter-spacing:0px;word-spacing:0px;writing-mode:lr-tb;text-anchor:start;fill:#000000;fill-opacity:1;stroke:none;stroke-width:0.26458427"
     d="m 16.141518,79.101699 q -0.0042,-0.0762 -0.0064,-0.15875 0,-0.08255 -0.0021,-0.177801 -0.0021,-0.09525 -0.0021,-0.205317 0,-0.112184 0,-0.249768 v -0.264584 l -0.127,0.06562 q -0.05292,0.03387 -0.08467,0.04022 -0.02963,0.0063 -0.06562,0.0063 -0.03175,0 -0.05715,-0.02752 -0.02328,-0.02752 -0.02328,-0.06562 0,-0.0381 0.0254,-0.06562 0.02752,-0.02963 0.0635,-0.05292 0.04657,-0.03175 0.09948,-0.0635 0.05503,-0.03175 0.105834,-0.05715 0.0508,-0.02752 0.09313,-0.04233 0.04445,-0.01693 0.07408,-0.01693 0.01482,0 0.02963,0.0042 0.01693,0.0042 0.02963,0.01693 0.01482,0.0127 0.02328,0.04022 0.01058,0.0254 0.0127,0.06985 0.0042,0.0762 0.0064,0.13335 0.0021,0.05715 0.0042,0.112184 0.0021,0.05292 0.0021,0.112184 0,0.05927 0,0.137583 0,0.09525 0,0.182034 0,0.08678 -0.0021,0.171451 -0.0021,0.08467 -0.0042,0.171451 -0.0021,0.08678 -0.0064,0.182034 -0.0021,0.0508 -0.01058,0.07832 -0.0063,0.02752 -0.01905,0.04233 -0.0127,0.01482 -0.02963,0.01693 -0.01482,0.0042 -0.03598,0.0042 -0.0381,0 -0.0635,-0.0254 -0.0254,-0.02752 -0.02963,-0.114301 z" />
  <path
     inkscape:connector-curvature="0"
     id="path885"
     style="font-style:normal;font-variant:normal;font-weight:normal;font-stretch:normal;font-size:2.11667418px;line-height:1.25;font-family:Sniglet;-inkscape-font-specification:'Sniglet, Normal';font-variant-ligatures:normal;font-variant-caps:normal;font-variant-numeric:normal;font-feature-settings:normal;text-align:start;letter-spacing:0px;word-spacing:0px;writing-mode:lr-tb;text-anchor:start;fill:#000000;fill-opacity:1;stroke:none;stroke-width:0.26458427"
     d="m 19.306983,78.864632 q -0.09525,0.09948 -0.162984,0.17145 -0.06562,0.06985 -0.112184,0.116417 -0.04657,0.04445 -0.07832,0.06562 -0.02963,0.02117 -0.05503,0.02117 -0.02963,0 -0.05927,-0.0254 -0.02752,-0.0254 -0.02752,-0.05503 0,-0.0254 0.03598,-0.0762 0.03598,-0.05292 0.0889,-0.116417 0.05292,-0.0635 0.1143,-0.131234 0.06138,-0.06985 0.112184,-0.131234 -0.06773,-0.07832 -0.129117,-0.1524 -0.05927,-0.07408 -0.103717,-0.137584 -0.04445,-0.0635 -0.07197,-0.112184 -0.0254,-0.04868 -0.0254,-0.0762 0,-0.02752 0.02752,-0.04657 0.02752,-0.02117 0.0508,-0.02117 0.01905,0 0.06562,0.04233 0.04657,0.04022 0.103718,0.09948 0.05927,0.05715 0.118533,0.122767 0.06138,0.06562 0.110067,0.116417 0.04657,-0.0508 0.103717,-0.1143 0.05927,-0.06562 0.116417,-0.122768 0.05715,-0.05715 0.105834,-0.09737 0.04868,-0.04022 0.0762,-0.04022 0.02328,0 0.04657,0.01693 0.02328,0.01693 0.02328,0.04445 0,0.02752 -0.02752,0.0762 -0.0254,0.04868 -0.06985,0.112184 -0.04445,0.0635 -0.105834,0.137584 -0.05927,0.07408 -0.127,0.1524 0.05292,0.05927 0.1143,0.129118 0.06138,0.06773 0.1143,0.13335 0.05292,0.0635 0.08678,0.116417 0.03598,0.0508 0.03598,0.0762 0,0.02963 -0.02963,0.05503 -0.02752,0.0254 -0.05715,0.0254 -0.02752,0 -0.07408,-0.03387 -0.04445,-0.03598 -0.1016,-0.0889 -0.05503,-0.05503 -0.116417,-0.12065 -0.05927,-0.06773 -0.116417,-0.131234 z" />
  <path
     inkscape:connector-curvature="0"
     id="path887"
     style="font-style:normal;font-variant:normal;font-weight:normal;font-stretch:normal;font-size:2.11667418px;line-height:1.25;font-family:Sniglet;-inkscape-font-specification:'Sniglet, Normal';font-variant-ligatures:normal;font-variant-caps:normal;font-variant-numeric:normal;font-feature-settings:normal;text-align:start;letter-spacing:0px;word-spacing:0px;writing-mode:lr-tb;text-anchor:start;fill:#000000;fill-opacity:1;stroke:none;stroke-width:0.26458427"
     d="m 20.254955,79.101699 q -0.0042,-0.0762 -0.0064,-0.15875 0,-0.08255 -0.0021,-0.177801 -0.0021,-0.09525 -0.0021,-0.205317 0,-0.112184 0,-0.249768 v -0.264584 l -0.127,0.06562 q -0.05292,0.03387 -0.08467,0.04022 -0.02963,0.0063 -0.06562,0.0063 -0.03175,0 -0.05715,-0.02752 -0.02328,-0.02752 -0.02328,-0.06562 0,-0.0381 0.0254,-0.06562 0.02752,-0.02963 0.0635,-0.05292 0.04657,-0.03175 0.09948,-0.0635 0.05503,-0.03175 0.105833,-0.05715 0.0508,-0.02752 0.09313,-0.04233 0.04445,-0.01693 0.07408,-0.01693 0.01482,0 0.02963,0.0042 0.01693,0.0042 0.02963,0.01693 0.01482,0.0127 0.02328,0.04022 0.01058,0.0254 0.0127,0.06985 0.0042,0.0762 0.0064,0.13335 0.0021,0.05715 0.0042,0.112184 0.0021,0.05292 0.0021,0.112184 0,0.05927 0,0.137583 0,0.09525 0,0.182034 0,0.08678 -0.0021,0.171451 -0.0021,0.08467 -0.0042,0.171451 -0.0021,0.08678 -0.0064,0.182034 -0.0021,0.0508 -0.01058,0.07832 -0.0063,0.02752 -0.01905,0.04233 -0.0127,0.01482 -0.02963,0.01693 -0.01482,0.0042 -0.03598,0.0042 -0.0381,0 -0.0635,-0.0254 -0.0254,-0.02752 -0.02963,-0.114301 z" />
</svg>
