<?xml version="1.0" encoding="UTF-8" standalone="no"?>
<!-- Created with Inkscape (http://www.inkscape.org/) -->

<svg
   xmlns:dc="http://purl.org/dc/elements/1.1/"
   xmlns:cc="http://creativecommons.org/ns#"
   xmlns:rdf="http://www.w3.org/1999/02/22-rdf-syntax-ns#"
   xmlns:svg="http://www.w3.org/2000/svg"
   xmlns="http://www.w3.org/2000/svg"
   xmlns:xlink="http://www.w3.org/1999/xlink"
   xmlns:sodipodi="http://sodipodi.sourceforge.net/DTD/sodipodi-0.dtd"
   xmlns:inkscape="http://www.inkscape.org/namespaces/inkscape"
   width="8.3556204mm"
   height="8.3556299mm"
   viewBox="0 0 8.3556203 8.3556298"
   version="1.1"
   id="svg15246"
   sodipodi:docname="CL1362.svg"
   inkscape:version="0.92.2 (5c3e80d, 2017-08-06)">
  <defs
     id="defs15240">
    <clipPath
       id="clip89">
      <rect
         y="0"
         x="0"
         width="18"
         height="19"
         id="rect4864" />
    </clipPath>
    <clipPath
       id="clip90">
      <path
         inkscape:connector-curvature="0"
         d="m 0.898438,0.128906 h 16.25 v 17.882813 h -16.25 z m 0,0"
         id="path4861" />
    </clipPath>
    <mask
       id="mask44">
      <g
         style="filter:url(#alpha)"
         id="g4858"
         transform="matrix(0.26458333,0,0,0.26458333,89.358789,128.57765)">
        <rect
           x="0"
           y="0"
           width="3052.8701"
           height="3351.5"
           style="fill:#000000;fill-opacity:0.14999402;stroke:none"
           id="rect4856" />
      </g>
    </mask>
    <filter
       id="alpha"
       filterUnits="objectBoundingBox"
       x="0"
       y="0"
       width="1"
       height="1">
      <feColorMatrix
         type="matrix"
         in="SourceGraphic"
         values="0 0 0 0 1 0 0 0 0 1 0 0 0 0 1 0 0 0 1 0"
         id="feColorMatrix4149" />
    </filter>
    <clipPath
       id="clipPath17821">
      <rect
         y="0"
         x="0"
         width="18"
         height="19"
         id="rect17819" />
    </clipPath>
    <clipPath
       id="clipPath17825">
      <path
         inkscape:connector-curvature="0"
         d="m 0.898438,0.128906 h 16.25 v 17.882813 h -16.25 z m 0,0"
         id="path17823" />
    </clipPath>
    <clipPath
       id="clip87">
      <rect
         y="0"
         x="0"
         width="24"
         height="26"
         id="rect4848" />
    </clipPath>
    <clipPath
       id="clip88">
      <path
         inkscape:connector-curvature="0"
         d="m 0.683594,0.921875 h 22.679687 v 24.9375 H 0.683594 Z m 0,0"
         id="path4845" />
    </clipPath>
    <mask
       id="mask43">
      <g
         style="filter:url(#alpha)"
         id="g4842"
         transform="matrix(0.26458333,0,0,0.26458333,89.358789,128.57765)">
        <rect
           x="0"
           y="0"
           width="3052.8701"
           height="3351.5"
           style="fill:#000000;fill-opacity:0.14999402;stroke:none"
           id="rect4840" />
      </g>
    </mask>
    <filter
       id="filter17836"
       filterUnits="objectBoundingBox"
       x="0"
       y="0"
       width="1"
       height="1">
      <feColorMatrix
         type="matrix"
         in="SourceGraphic"
         values="0 0 0 0 1 0 0 0 0 1 0 0 0 0 1 0 0 0 1 0"
         id="feColorMatrix17834" />
    </filter>
    <clipPath
       id="clipPath17840">
      <rect
         y="0"
         x="0"
         width="24"
         height="26"
         id="rect17838" />
    </clipPath>
    <clipPath
       id="clipPath17844">
      <path
         inkscape:connector-curvature="0"
         d="m 0.683594,0.921875 h 22.679687 v 24.9375 H 0.683594 Z m 0,0"
         id="path17842" />
    </clipPath>
    <linearGradient
       inkscape:collect="always"
       xlink:href="#linearGradient7151"
       id="linearGradient7207"
       x1="71.210869"
       y1="98.810158"
       x2="62.229797"
       y2="90.211205"
       gradientUnits="userSpaceOnUse"
       gradientTransform="matrix(0.82707751,0,0,0.82707751,38.233026,45.482287)" />
    <linearGradient
       inkscape:collect="always"
       id="linearGradient7151">
      <stop
         style="stop-color:#000000;stop-opacity:1"
         offset="0"
         id="stop7147" />
      <stop
         style="stop-color:#ffffff;stop-opacity:1"
         offset="1"
         id="stop7149" />
    </linearGradient>
    <linearGradient
       inkscape:collect="always"
       xlink:href="#linearGradient7151"
       id="linearGradient7153"
       x1="65.962311"
       y1="98.939285"
       x2="65.962311"
       y2="89.419891"
       gradientUnits="userSpaceOnUse"
       gradientTransform="matrix(0.82707751,0,0,0.82707751,38.233026,45.482287)" />
    <linearGradient
       inkscape:collect="always"
       xlink:href="#linearGradient7151"
       id="linearGradient7173"
       x1="62.100452"
       y1="98.042397"
       x2="69.812355"
       y2="90.317513"
       gradientUnits="userSpaceOnUse"
       gradientTransform="matrix(0.57760085,-0.59197506,0.59197506,0.57760085,-1.0630978,108.02603)" />
    <linearGradient
       inkscape:collect="always"
       xlink:href="#linearGradient7151"
       id="linearGradient7161"
       x1="65.926147"
       y1="91.073631"
       x2="65.948357"
       y2="97.287651"
       gradientUnits="userSpaceOnUse"
       gradientTransform="matrix(0.82707751,0,0,0.82707751,38.232992,45.482282)" />
  </defs>
  <sodipodi:namedview
     id="base"
     pagecolor="#ffffff"
     bordercolor="#666666"
     borderopacity="1.0"
     inkscape:pageopacity="0.0"
     inkscape:pageshadow="2"
     inkscape:zoom="15.839192"
     inkscape:cx="-12.053672"
     inkscape:cy="18.595727"
     inkscape:document-units="mm"
     inkscape:current-layer="layer1"
     showgrid="false"
     inkscape:window-width="1920"
     inkscape:window-height="1018"
     inkscape:window-x="-8"
     inkscape:window-y="-8"
     inkscape:window-maximized="1"
     units="px"
     fit-margin-top="0"
     fit-margin-left="0"
     fit-margin-right="0"
     fit-margin-bottom="0" />
  <metadata
     id="metadata15243">
    <rdf:RDF>
      <cc:Work
         rdf:about="">
        <dc:format>image/svg+xml</dc:format>
        <dc:type
           rdf:resource="http://purl.org/dc/dcmitype/StillImage" />
        <dc:title />
      </cc:Work>
    </rdf:RDF>
  </metadata>
  <g
     inkscape:label="Layer 1"
     inkscape:groupmode="layer"
     id="layer1"
     transform="translate(-88.611154,-119.19859)">
    <g
       id="g1557">
      <path
         d="m 88.611372,123.33361 a 4.1778107,4.1778107 0 0 1 4.213138,-4.13486 4.1778107,4.1778107 0 0 1 4.142168,4.20595 4.1778107,4.1778107 0 0 1 -4.198751,4.14947 4.1778107,4.1778107 0 0 1 -4.156752,-4.19154"
         sodipodi:open="true"
         sodipodi:end="3.1448913"
         sodipodi:start="3.1518377"
         sodipodi:ry="4.1778107"
         sodipodi:rx="4.1778107"
         sodipodi:cy="123.37641"
         sodipodi:cx="92.788963"
         sodipodi:type="arc"
         id="path7199"
         style="opacity:1;fill:url(#linearGradient7207);fill-opacity:1;stroke:none;stroke-width:0.053;stroke-linecap:round;stroke-linejoin:round;stroke-miterlimit:4;stroke-dasharray:none;stroke-dashoffset:0;stroke-opacity:1" />
      <path
         inkscape:connector-curvature="0"
         id="path7145"
         d="m 92.688676,127.29583 c -0.08347,-0.025 -0.159141,-0.10872 -0.172234,-0.19059 -0.0081,-0.0505 -0.02433,-0.0779 -0.05418,-0.0915 -0.05971,-0.0272 -0.09804,-0.007 -0.129448,0.0681 -0.05781,0.13834 -0.240453,0.19839 -0.388584,0.12775 -0.08793,-0.0419 -0.158885,-0.15203 -0.158885,-0.24654 0,-0.12606 -0.107858,-0.14965 -0.171493,-0.0375 -0.06777,0.11943 -0.269075,0.14332 -0.395455,0.0469 -0.08107,-0.0618 -0.121447,-0.15473 -0.115765,-0.26633 0.0039,-0.0756 -0.0015,-0.0888 -0.04604,-0.11429 -0.04846,-0.0277 -0.05274,-0.0266 -0.111512,0.0293 -0.07595,0.0723 -0.160186,0.0915 -0.268265,0.0613 -0.156931,-0.0439 -0.253064,-0.23574 -0.184555,-0.36822 0.02422,-0.0469 0.02562,-0.0648 0.0073,-0.0942 -0.03316,-0.0531 -0.0887,-0.0603 -0.146599,-0.0191 -0.06435,0.0458 -0.196457,0.0477 -0.287953,0.004 -0.126602,-0.0604 -0.183354,-0.27966 -0.101961,-0.39396 0.04123,-0.0579 0.03399,-0.11344 -0.01913,-0.1466 -0.02933,-0.0183 -0.04733,-0.0169 -0.09418,0.007 -0.134693,0.0696 -0.32363,-0.0253 -0.368378,-0.18513 -0.0301,-0.10749 -0.01074,-0.19189 0.06142,-0.26769 0.05594,-0.0588 0.05707,-0.0631 0.02934,-0.11152 -0.02552,-0.0446 -0.03866,-0.0499 -0.114292,-0.046 -0.111604,0.006 -0.204486,-0.0347 -0.266323,-0.11576 -0.09543,-0.12512 -0.0705,-0.32886 0.0485,-0.39636 0.110696,-0.0628 0.08601,-0.17059 -0.03907,-0.17059 -0.09452,0 -0.204608,-0.071 -0.24654,-0.15888 -0.07064,-0.14814 -0.01059,-0.33079 0.127748,-0.38859 0.07516,-0.0314 0.09534,-0.0697 0.06813,-0.12945 -0.01373,-0.0301 -0.04111,-0.0461 -0.09335,-0.0545 -0.266994,-0.0427 -0.26544,-0.50199 0.0019,-0.54473 0.05046,-0.008 0.07791,-0.0243 0.09151,-0.0542 0.02721,-0.0597 0.007,-0.098 -0.06813,-0.12945 -0.138341,-0.0578 -0.198388,-0.24045 -0.127749,-0.38858 0.04194,-0.0879 0.152027,-0.15889 0.24654,-0.15889 0.12606,0 0.149644,-0.10786 0.0375,-0.17149 -0.09842,-0.0559 -0.138056,-0.21175 -0.08531,-0.33556 0.04961,-0.11643 0.166814,-0.18335 0.307797,-0.17575 0.07269,0.004 0.08581,-0.001 0.111512,-0.0468 0.02821,-0.0496 0.02726,-0.053 -0.02952,-0.10618 -0.07148,-0.067 -0.09328,-0.16814 -0.0601,-0.27888 0.04558,-0.15213 0.237404,-0.24542 0.366923,-0.17844 0.04686,0.0242 0.06485,0.0256 0.09418,0.007 0.05311,-0.0332 0.06036,-0.0887 0.01913,-0.1466 -0.04716,-0.0662 -0.04757,-0.201 -8.87e-4,-0.29249 0.06345,-0.12435 0.266858,-0.17538 0.393101,-0.0986 0.06583,0.04 0.111651,0.0343 0.1443,-0.0179 0.01831,-0.0293 0.01691,-0.0473 -0.0073,-0.0942 -0.06851,-0.13248 0.02763,-0.32428 0.184555,-0.36822 0.108079,-0.0303 0.192325,-0.011 0.268265,0.0613 0.05853,0.0557 0.06325,0.057 0.111512,0.0298 0.0459,-0.0258 0.05044,-0.0382 0.05083,-0.13908 4.63e-4,-0.12808 0.02152,-0.1738 0.111451,-0.2424 0.125915,-0.096 0.327348,-0.0719 0.39499,0.0473 0.06363,0.11215 0.171493,0.0886 0.171493,-0.0375 0,-0.0945 0.07095,-0.2046 0.158886,-0.24654 0.148132,-0.0706 0.330781,-0.0106 0.388584,0.12775 0.0314,0.0752 0.06973,0.0953 0.129447,0.0681 0.03014,-0.0137 0.04611,-0.0411 0.05447,-0.0934 0.04269,-0.26699 0.501993,-0.26544 0.544733,0.002 0.0081,0.0505 0.02432,0.0779 0.05418,0.0915 0.05971,0.0272 0.09804,0.007 0.129446,-0.0681 0.05781,-0.13834 0.240452,-0.19838 0.388584,-0.12775 0.08794,0.0419 0.158886,0.15203 0.158886,0.24655 0,0.12507 0.107796,0.14976 0.170588,0.0391 0.06738,-0.11878 0.271246,-0.14393 0.395895,-0.0489 0.08993,0.0686 0.110954,0.11431 0.111452,0.24239 3.7e-4,0.10088 0.0048,0.11328 0.05083,0.13908 0.04826,0.0271 0.05297,0.0259 0.111512,-0.0298 0.07595,-0.0723 0.160185,-0.0915 0.268265,-0.0613 0.156931,0.0439 0.253064,0.23574 0.184554,0.36822 -0.02422,0.0469 -0.02562,0.0648 -0.0073,0.0942 0.03316,0.0531 0.0887,0.0604 0.146598,0.0191 0.06436,-0.0458 0.196457,-0.0477 0.287955,-0.004 0.1266,0.0604 0.183352,0.27966 0.101959,0.39397 -0.04123,0.0579 -0.03399,0.11343 0.01913,0.14659 0.02933,0.0183 0.04733,0.0169 0.09418,-0.007 0.13248,-0.0685 0.32428,0.0276 0.368219,0.18456 0.03026,0.10808 0.01101,0.19232 -0.06126,0.26827 -0.05571,0.0585 -0.05698,0.0632 -0.02985,0.11151 0.0258,0.0459 0.0382,0.0504 0.139083,0.0508 0.128079,4.9e-4 0.173803,0.0215 0.242396,0.11145 0.09556,0.12528 0.07194,0.32693 -0.04622,0.39474 -0.06606,0.0379 -0.08436,0.0914 -0.0495,0.14458 0.0197,0.0301 0.03984,0.037 0.09002,0.0312 0.08347,-0.01 0.199197,0.0642 0.242446,0.15487 0.07064,0.14814 0.01059,0.33078 -0.127749,0.38859 -0.07516,0.0314 -0.09533,0.0697 -0.06813,0.12944 0.01373,0.0301 0.04111,0.0461 0.09335,0.0545 0.266992,0.0427 0.265439,0.502 -0.0019,0.54474 -0.05045,0.008 -0.07791,0.0243 -0.09151,0.0542 -0.02721,0.0597 -0.007,0.098 0.06813,0.12945 0.13834,0.0578 0.198388,0.24045 0.127748,0.38858 -0.04193,0.0879 -0.152026,0.15889 -0.24654,0.15889 -0.126059,0 -0.149644,0.10785 -0.0375,0.17149 0.119433,0.0678 0.14332,0.26907 0.04693,0.39545 -0.06184,0.0811 -0.154719,0.12145 -0.266324,0.11577 -0.07564,-0.004 -0.08877,0.001 -0.114291,0.046 -0.02773,0.0485 -0.0266,0.0527 0.02934,0.11151 0.07228,0.076 0.09152,0.16019 0.06126,0.26826 -0.04394,0.15694 -0.235739,0.25307 -0.368219,0.18456 -0.04686,-0.0242 -0.06485,-0.0256 -0.09418,-0.007 -0.05311,0.0332 -0.06035,0.0887 -0.01913,0.1466 0.08139,0.1143 0.02463,0.33359 -0.10196,0.39396 -0.0915,0.0436 -0.2236,0.0418 -0.287954,-0.004 -0.0579,-0.0412 -0.113432,-0.034 -0.146598,0.0191 -0.01831,0.0293 -0.01691,0.0473 0.0073,0.0942 0.06698,0.12951 -0.02631,0.32133 -0.178444,0.36691 -0.111678,0.0335 -0.214801,0.0112 -0.279321,-0.0603 -0.05117,-0.0567 -0.05425,-0.0576 -0.104838,-0.0293 -0.04661,0.026 -0.05167,0.0382 -0.04777,0.1146 0.0057,0.1116 -0.0347,0.20449 -0.115767,0.26632 -0.126379,0.0964 -0.327683,0.0725 -0.395453,-0.0469 -0.06363,-0.11214 -0.171493,-0.0886 -0.171493,0.0375 0,0.0945 -0.07094,0.20461 -0.158886,0.24655 -0.148132,0.0707 -0.330781,0.0106 -0.388584,-0.12775 -0.03141,-0.0752 -0.06973,-0.0953 -0.129448,-0.0681 -0.02985,0.0136 -0.04611,0.0411 -0.05418,0.0915 -0.0243,0.15188 -0.200719,0.24208 -0.372795,0.19059 z"
         style="fill:url(#linearGradient7153);fill-opacity:1;stroke:#9c9c9c;stroke-width:0.05;stroke-miterlimit:4;stroke-dasharray:none;stroke-opacity:1" />
      <path
         style="fill:url(#linearGradient7173);fill-opacity:1;fill-rule:nonzero;stroke:#797979;stroke-width:0.053;stroke-miterlimit:4;stroke-dasharray:none;stroke-opacity:1"
         d="m 90.551548,125.66953 c -1.266064,-1.23532 -1.29101,-3.26449 -0.05569,-4.53055 1.235324,-1.26607 3.264488,-1.291 4.530552,-0.0557 1.266879,1.23612 1.290989,3.26447 0.05566,4.53053 -1.235323,1.26607 -3.26365,1.29182 -4.53053,0.0557"
         id="path9183"
         inkscape:connector-curvature="0" />
      <path
         inkscape:connector-curvature="0"
         id="path18865"
         d="m 90.334124,123.37615 c 0,-1.35513 1.097984,-2.45482 2.454813,-2.45482 1.355133,0 2.454811,1.09969 2.454811,2.45482 0,1.35683 -1.099678,2.45647 -2.454811,2.45647 -1.356829,0 -2.454813,-1.09964 -2.454813,-2.45647"
         style="fill:url(#linearGradient7161);fill-opacity:1;fill-rule:nonzero;stroke:#9fa19f;stroke-width:0.05;stroke-miterlimit:4;stroke-dasharray:none;stroke-opacity:1" />
      <path
         style="fill:#000000;fill-opacity:1;fill-rule:nonzero;stroke:none;stroke-width:0.35277772"
         d="m 91.1352,123.37642 c 0,-0.91293 0.739696,-1.65377 1.65377,-1.65377 0.912934,0 1.653771,0.74084 1.653771,1.65377 0,0.91408 -0.740837,1.65489 -1.653771,1.65489 -0.914074,0 -1.65377,-0.74081 -1.65377,-1.65489"
         id="path9185"
         inkscape:connector-curvature="0" />
    </g>
  </g>
</svg>
