<?xml version="1.0" encoding="UTF-8" standalone="no"?>
<svg
   xmlns:dc="http://purl.org/dc/elements/1.1/"
   xmlns:cc="http://creativecommons.org/ns#"
   xmlns:rdf="http://www.w3.org/1999/02/22-rdf-syntax-ns#"
   xmlns:svg="http://www.w3.org/2000/svg"
   xmlns="http://www.w3.org/2000/svg"
   xmlns:xlink="http://www.w3.org/1999/xlink"
   xmlns:sodipodi="http://sodipodi.sourceforge.net/DTD/sodipodi-0.dtd"
   xmlns:inkscape="http://www.inkscape.org/namespaces/inkscape"
   width="255"
   height="380"
   viewBox="0 0 67.469 100.542"
   version="1.1"
   id="svg1483"
   sodipodi:docname="BigButtonSeq_dark.svg"
   inkscape:version="0.92.2 (5c3e80d, 2017-08-06)">
  <metadata
     id="metadata1487">
    <rdf:RDF>
      <cc:Work
         rdf:about="">
        <dc:format>image/svg+xml</dc:format>
        <dc:type
           rdf:resource="http://purl.org/dc/dcmitype/StillImage" />
      </cc:Work>
    </rdf:RDF>
  </metadata>
  <sodipodi:namedview
     pagecolor="#ffffff"
     bordercolor="#666666"
     borderopacity="1"
     objecttolerance="10"
     gridtolerance="10"
     guidetolerance="10"
     inkscape:pageopacity="0"
     inkscape:pageshadow="2"
     inkscape:window-width="1600"
     inkscape:window-height="838"
     id="namedview1485"
     showgrid="false"
     inkscape:snap-global="false"
     inkscape:zoom="1"
     inkscape:cx="302.22844"
     inkscape:cy="217.64826"
     inkscape:window-x="-8"
     inkscape:window-y="-8"
     inkscape:window-maximized="1"
     inkscape:current-layer="svg1483" />
  <defs
     id="defs1261">
    <linearGradient
       id="v">
      <stop
         offset="0"
         stop-color="#626262"
         id="stop1152" />
      <stop
         offset="1"
         stop-color="#929292"
         id="stop1154" />
    </linearGradient>
    <linearGradient
       id="u">
      <stop
         offset="0"
         id="stop1157" />
      <stop
         offset="1"
         stop-color="#fff"
         id="stop1159" />
    </linearGradient>
    <filter
       height="1"
       width="1"
       y="0"
       x="0"
       filterUnits="objectBoundingBox"
       id="a">
      <feColorMatrix
         values="0 0 0 0 1 0 0 0 0 1 0 0 0 0 1 0 0 0 1 0"
         in="SourceGraphic"
         id="feColorMatrix1162" />
    </filter>
    <filter
       height="1"
       width="1"
       y="0"
       x="0"
       filterUnits="objectBoundingBox"
       id="b">
      <feColorMatrix
         values="0 0 0 0 1 0 0 0 0 1 0 0 0 0 1 0 0 0 1 0"
         in="SourceGraphic"
         id="feColorMatrix1165" />
    </filter>
    <filter
       height="1"
       width="1"
       y="0"
       x="0"
       filterUnits="objectBoundingBox"
       id="c">
      <feColorMatrix
         values="0 0 0 0 1 0 0 0 0 1 0 0 0 0 1 0 0 0 1 0"
         in="SourceGraphic"
         id="feColorMatrix1168" />
    </filter>
    <filter
       height="1"
       width="1"
       y="0"
       x="0"
       filterUnits="objectBoundingBox"
       id="d">
      <feColorMatrix
         values="0 0 0 0 1 0 0 0 0 1 0 0 0 0 1 0 0 0 1 0"
         in="SourceGraphic"
         id="feColorMatrix1171" />
    </filter>
    <filter
       height="1"
       width="1"
       y="0"
       x="0"
       filterUnits="objectBoundingBox"
       id="e">
      <feColorMatrix
         values="0 0 0 0 1 0 0 0 0 1 0 0 0 0 1 0 0 0 1 0"
         in="SourceGraphic"
         id="feColorMatrix1174" />
    </filter>
    <filter
       height="1"
       width="1"
       y="0"
       x="0"
       filterUnits="objectBoundingBox"
       id="f">
      <feColorMatrix
         values="0 0 0 0 1 0 0 0 0 1 0 0 0 0 1 0 0 0 1 0"
         in="SourceGraphic"
         id="feColorMatrix1177" />
    </filter>
    <filter
       height="1"
       width="1"
       y="0"
       x="0"
       filterUnits="objectBoundingBox"
       id="g">
      <feColorMatrix
         values="0 0 0 0 1 0 0 0 0 1 0 0 0 0 1 0 0 0 1 0"
         in="SourceGraphic"
         id="feColorMatrix1180" />
    </filter>
    <filter
       height="1"
       width="1"
       y="0"
       x="0"
       filterUnits="objectBoundingBox"
       id="h">
      <feColorMatrix
         values="0 0 0 0 1 0 0 0 0 1 0 0 0 0 1 0 0 0 1 0"
         in="SourceGraphic"
         id="feColorMatrix1183" />
    </filter>
    <filter
       height="1"
       width="1"
       y="0"
       x="0"
       filterUnits="objectBoundingBox"
       id="i">
      <feColorMatrix
         values="0 0 0 0 1 0 0 0 0 1 0 0 0 0 1 0 0 0 1 0"
         in="SourceGraphic"
         id="feColorMatrix1186" />
    </filter>
    <filter
       height="1"
       width="1"
       y="0"
       x="0"
       filterUnits="objectBoundingBox"
       id="j">
      <feColorMatrix
         values="0 0 0 0 1 0 0 0 0 1 0 0 0 0 1 0 0 0 1 0"
         in="SourceGraphic"
         id="feColorMatrix1189" />
    </filter>
    <filter
       height="1"
       width="1"
       y="0"
       x="0"
       filterUnits="objectBoundingBox"
       id="k">
      <feColorMatrix
         values="0 0 0 0 1 0 0 0 0 1 0 0 0 0 1 0 0 0 1 0"
         in="SourceGraphic"
         id="feColorMatrix1192" />
    </filter>
    <filter
       height="1"
       width="1"
       y="0"
       x="0"
       filterUnits="objectBoundingBox"
       id="l">
      <feColorMatrix
         values="0 0 0 0 1 0 0 0 0 1 0 0 0 0 1 0 0 0 1 0"
         in="SourceGraphic"
         id="feColorMatrix1195" />
    </filter>
    <filter
       height="1"
       width="1"
       y="0"
       x="0"
       filterUnits="objectBoundingBox"
       id="m">
      <feColorMatrix
         values="0 0 0 0 1 0 0 0 0 1 0 0 0 0 1 0 0 0 1 0"
         in="SourceGraphic"
         id="feColorMatrix1198" />
    </filter>
    <filter
       height="1"
       width="1"
       y="0"
       x="0"
       filterUnits="objectBoundingBox"
       id="n">
      <feColorMatrix
         values="0 0 0 0 1 0 0 0 0 1 0 0 0 0 1 0 0 0 1 0"
         in="SourceGraphic"
         id="feColorMatrix1201" />
    </filter>
    <filter
       height="1"
       width="1"
       y="0"
       x="0"
       filterUnits="objectBoundingBox"
       id="o">
      <feColorMatrix
         values="0 0 0 0 1 0 0 0 0 1 0 0 0 0 1 0 0 0 1 0"
         in="SourceGraphic"
         id="feColorMatrix1204" />
    </filter>
    <filter
       height="1"
       width="1"
       y="0"
       x="0"
       filterUnits="objectBoundingBox"
       id="p">
      <feColorMatrix
         values="0 0 0 0 1 0 0 0 0 1 0 0 0 0 1 0 0 0 1 0"
         in="SourceGraphic"
         id="feColorMatrix1207" />
    </filter>
    <filter
       height="1"
       width="1"
       y="0"
       x="0"
       filterUnits="objectBoundingBox"
       id="q">
      <feColorMatrix
         values="0 0 0 0 1 0 0 0 0 1 0 0 0 0 1 0 0 0 1 0"
         in="SourceGraphic"
         id="feColorMatrix1210" />
    </filter>
    <filter
       height="1"
       width="1"
       y="0"
       x="0"
       filterUnits="objectBoundingBox"
       id="r">
      <feColorMatrix
         values="0 0 0 0 1 0 0 0 0 1 0 0 0 0 1 0 0 0 1 0"
         in="SourceGraphic"
         id="feColorMatrix1213" />
    </filter>
    <filter
       height="1"
       width="1"
       y="0"
       x="0"
       filterUnits="objectBoundingBox"
       id="s">
      <feColorMatrix
         values="0 0 0 0 1 0 0 0 0 1 0 0 0 0 1 0 0 0 1 0"
         in="SourceGraphic"
         id="feColorMatrix1216" />
    </filter>
    <filter
       height="1"
       width="1"
       y="0"
       x="0"
       filterUnits="objectBoundingBox"
       id="t">
      <feColorMatrix
         values="0 0 0 0 1 0 0 0 0 1 0 0 0 0 1 0 0 0 1 0"
         in="SourceGraphic"
         id="feColorMatrix1219" />
    </filter>
    <linearGradient
       xlink:href="#u"
       id="I"
       gradientUnits="userSpaceOnUse"
       gradientTransform="matrix(1.25816,0,0,1.25816,32.958,-15.82)"
       x1="24.039"
       y1="62.948"
       x2="24.039"
       y2="59.622" />
    <linearGradient
       xlink:href="#u"
       id="J"
       gradientUnits="userSpaceOnUse"
       gradientTransform="matrix(1.00722,0,0,1.00722,-69.402,-137.27)"
       x1="24.039"
       y1="62.948"
       x2="24.039"
       y2="59.622" />
    <linearGradient
       xlink:href="#u"
       id="K"
       gradientUnits="userSpaceOnUse"
       gradientTransform="matrix(1.25816,0,0,1.25816,32.958,-15.82)"
       x1="24.039"
       y1="62.948"
       x2="24.039"
       y2="59.622" />
    <linearGradient
       xlink:href="#u"
       id="L"
       gradientUnits="userSpaceOnUse"
       gradientTransform="matrix(1.00722,0,0,1.00722,-69.402,-137.27)"
       x1="24.039"
       y1="62.948"
       x2="24.039"
       y2="59.622" />
    <linearGradient
       xlink:href="#u"
       id="M"
       gradientUnits="userSpaceOnUse"
       gradientTransform="matrix(1.25816,0,0,1.25816,32.958,-15.82)"
       x1="24.039"
       y1="62.948"
       x2="24.039"
       y2="59.622" />
    <linearGradient
       xlink:href="#u"
       id="N"
       gradientUnits="userSpaceOnUse"
       gradientTransform="matrix(1.00722,0,0,1.00722,-69.402,-137.27)"
       x1="24.039"
       y1="62.948"
       x2="24.039"
       y2="59.622" />
    <linearGradient
       xlink:href="#u"
       id="O"
       gradientUnits="userSpaceOnUse"
       gradientTransform="matrix(1.25816,0,0,1.25816,32.958,-15.82)"
       x1="24.039"
       y1="62.948"
       x2="24.039"
       y2="59.622" />
    <linearGradient
       xlink:href="#u"
       id="P"
       gradientUnits="userSpaceOnUse"
       gradientTransform="matrix(1.00722,0,0,1.00722,-69.402,-137.27)"
       x1="24.039"
       y1="62.948"
       x2="24.039"
       y2="59.622" />
    <linearGradient
       xlink:href="#u"
       id="Q"
       gradientUnits="userSpaceOnUse"
       gradientTransform="matrix(1.25816,0,0,1.25816,32.958,-15.82)"
       x1="24.039"
       y1="62.948"
       x2="24.039"
       y2="59.622" />
    <linearGradient
       xlink:href="#u"
       id="R"
       gradientUnits="userSpaceOnUse"
       gradientTransform="matrix(1.00722,0,0,1.00722,-69.402,-137.27)"
       x1="24.039"
       y1="62.948"
       x2="24.039"
       y2="59.622" />
    <linearGradient
       xlink:href="#u"
       id="S"
       gradientUnits="userSpaceOnUse"
       gradientTransform="matrix(1.25816,0,0,1.25816,32.958,-15.82)"
       x1="24.039"
       y1="62.948"
       x2="24.039"
       y2="59.622" />
    <linearGradient
       xlink:href="#u"
       id="T"
       gradientUnits="userSpaceOnUse"
       gradientTransform="matrix(1.00722,0,0,1.00722,-69.402,-137.27)"
       x1="24.039"
       y1="62.948"
       x2="24.039"
       y2="59.622" />
    <linearGradient
       xlink:href="#u"
       id="U"
       gradientUnits="userSpaceOnUse"
       gradientTransform="matrix(1.25816,0,0,1.25816,32.958,-15.82)"
       x1="24.039"
       y1="62.948"
       x2="24.039"
       y2="59.622" />
    <linearGradient
       xlink:href="#u"
       id="V"
       gradientUnits="userSpaceOnUse"
       gradientTransform="matrix(1.00722,0,0,1.00722,-69.402,-137.27)"
       x1="24.039"
       y1="62.948"
       x2="24.039"
       y2="59.622" />
    <linearGradient
       xlink:href="#v"
       id="z"
       x1="45.259"
       y1="102.973"
       x2="45.259"
       y2="34.751"
       gradientUnits="userSpaceOnUse"
       gradientTransform="matrix(0.26458,0,0,0.26458,0,-0.257)" />
    <linearGradient
       xlink:href="#u"
       id="W"
       x1="30.566"
       y1="174.548"
       x2="30.566"
       y2="173.613"
       gradientUnits="userSpaceOnUse"
       gradientTransform="translate(-26.791,-160.307)" />
    <linearGradient
       gradientTransform="translate(-19.151,-160.307)"
       xlink:href="#u"
       id="X"
       x1="30.566"
       y1="174.548"
       x2="30.566"
       y2="173.613"
       gradientUnits="userSpaceOnUse" />
    <linearGradient
       gradientTransform="translate(-8.644,-160.307)"
       xlink:href="#u"
       id="Z"
       x1="30.566"
       y1="174.548"
       x2="30.566"
       y2="173.613"
       gradientUnits="userSpaceOnUse" />
    <linearGradient
       xlink:href="#u"
       id="Y"
       x1="30.566"
       y1="174.548"
       x2="30.566"
       y2="173.613"
       gradientUnits="userSpaceOnUse"
       gradientTransform="translate(-16.285,-160.307)" />
    <linearGradient
       gradientTransform="translate(2.02,-160.307)"
       xlink:href="#u"
       id="ab"
       x1="30.566"
       y1="174.548"
       x2="30.566"
       y2="173.613"
       gradientUnits="userSpaceOnUse" />
    <linearGradient
       xlink:href="#u"
       id="aa"
       x1="30.566"
       y1="174.548"
       x2="30.566"
       y2="173.613"
       gradientUnits="userSpaceOnUse"
       gradientTransform="translate(-5.621,-160.307)" />
    <linearGradient
       gradientTransform="translate(12.59,-160.307)"
       xlink:href="#u"
       id="ad"
       x1="30.566"
       y1="174.548"
       x2="30.566"
       y2="173.613"
       gradientUnits="userSpaceOnUse" />
    <linearGradient
       xlink:href="#u"
       id="ac"
       x1="30.566"
       y1="174.548"
       x2="30.566"
       y2="173.613"
       gradientUnits="userSpaceOnUse"
       gradientTransform="translate(4.95,-160.307)" />
    <linearGradient
       gradientTransform="translate(23.111,-160.307)"
       xlink:href="#u"
       id="af"
       x1="30.566"
       y1="174.548"
       x2="30.566"
       y2="173.613"
       gradientUnits="userSpaceOnUse" />
    <linearGradient
       xlink:href="#u"
       id="ae"
       x1="30.566"
       y1="174.548"
       x2="30.566"
       y2="173.613"
       gradientUnits="userSpaceOnUse"
       gradientTransform="translate(15.471,-160.307)" />
    <linearGradient
       gradientTransform="translate(33.64,-160.307)"
       xlink:href="#u"
       id="ah"
       x1="30.566"
       y1="174.548"
       x2="30.566"
       y2="173.613"
       gradientUnits="userSpaceOnUse" />
    <linearGradient
       xlink:href="#u"
       id="ag"
       x1="30.566"
       y1="174.548"
       x2="30.566"
       y2="173.613"
       gradientUnits="userSpaceOnUse"
       gradientTransform="translate(26,-160.307)" />
    <linearGradient
       xlink:href="#u"
       id="y"
       x1="45.259"
       y1="102.973"
       x2="45.259"
       y2="34.751"
       gradientUnits="userSpaceOnUse"
       gradientTransform="matrix(0.2846,0,0,0.27725,-0.541,-1.129)" />
    <linearGradient
       xlink:href="#u"
       id="A"
       gradientUnits="userSpaceOnUse"
       gradientTransform="matrix(0.2846,0,0,0.27725,9.983,-1.104)"
       x1="45.259"
       y1="102.973"
       x2="45.259"
       y2="34.751" />
    <linearGradient
       xlink:href="#v"
       id="B"
       gradientUnits="userSpaceOnUse"
       gradientTransform="matrix(0.26458,0,0,0.26458,10.524,-0.232)"
       x1="45.259"
       y1="102.973"
       x2="45.259"
       y2="34.751" />
    <linearGradient
       xlink:href="#u"
       id="w"
       gradientUnits="userSpaceOnUse"
       gradientTransform="matrix(0.2846,0,0,0.27725,20.459,-1.244)"
       x1="45.259"
       y1="102.973"
       x2="45.259"
       y2="34.751" />
    <linearGradient
       xlink:href="#v"
       id="x"
       gradientUnits="userSpaceOnUse"
       gradientTransform="matrix(0.26458,0,0,0.26458,21,-0.372)"
       x1="45.259"
       y1="102.973"
       x2="45.259"
       y2="34.751" />
    <linearGradient
       xlink:href="#u"
       id="C"
       gradientUnits="userSpaceOnUse"
       gradientTransform="matrix(0.2846,0,0,0.27725,31.124,-1.244)"
       x1="45.259"
       y1="102.973"
       x2="45.259"
       y2="34.751" />
    <linearGradient
       xlink:href="#v"
       id="D"
       gradientUnits="userSpaceOnUse"
       gradientTransform="matrix(0.26458,0,0,0.26458,31.665,-0.372)"
       x1="45.259"
       y1="102.973"
       x2="45.259"
       y2="34.751" />
    <linearGradient
       xlink:href="#u"
       id="E"
       gradientUnits="userSpaceOnUse"
       gradientTransform="matrix(0.2846,0,0,0.27725,41.694,-1.291)"
       x1="45.259"
       y1="102.973"
       x2="45.259"
       y2="34.751" />
    <linearGradient
       xlink:href="#v"
       id="F"
       gradientUnits="userSpaceOnUse"
       gradientTransform="matrix(0.26458,0,0,0.26458,42.235,-0.419)"
       x1="45.259"
       y1="102.973"
       x2="45.259"
       y2="34.751" />
    <linearGradient
       xlink:href="#u"
       id="G"
       gradientUnits="userSpaceOnUse"
       gradientTransform="matrix(0.2846,0,0,0.27725,52.359,-1.431)"
       x1="45.259"
       y1="102.973"
       x2="45.259"
       y2="34.751" />
    <linearGradient
       xlink:href="#v"
       id="H"
       gradientUnits="userSpaceOnUse"
       gradientTransform="matrix(0.26458,0,0,0.26458,52.9,-0.559)"
       x1="45.259"
       y1="102.973"
       x2="45.259"
       y2="34.751" />
    <linearGradient
       xlink:href="#u"
       id="ai"
       x1="90.01"
       y1="192.064"
       x2="90.01"
       y2="200.961"
       gradientUnits="userSpaceOnUse"
       gradientTransform="translate(-26.543,-161.307)" />
    <linearGradient
       xlink:href="#u"
       id="ai-1"
       x1="90.010002"
       y1="192.064"
       x2="90.010002"
       y2="200.961"
       gradientUnits="userSpaceOnUse"
       gradientTransform="matrix(0.6265307,0,0,0.9929576,-7.8124457,-159.9057)" />
    <linearGradient
       xlink:href="#w-8"
       id="E-4"
       x1="26.759001"
       y1="162"
       x2="30.999001"
       y2="162"
       gradientUnits="userSpaceOnUse"
       gradientTransform="matrix(1,0,0,0.56406,0,70.452)" />
    <linearGradient
       id="w-8">
      <stop
         offset="0"
         stop-color="#fff"
         id="stop1562" />
      <stop
         offset="1"
         stop-color="#fff"
         stop-opacity="0"
         id="stop1564" />
    </linearGradient>
    <linearGradient
       xlink:href="#x-2"
       id="F-4"
       x1="26.759001"
       y1="162"
       x2="30.999001"
       y2="162"
       gradientUnits="userSpaceOnUse"
       gradientTransform="matrix(0.99995,0,0,0.53173,135.453,-112.052)" />
    <linearGradient
       id="x-2">
      <stop
         offset="0"
         stop-color="#fff"
         stop-opacity=".992"
         id="stop1568" />
      <stop
         offset="1"
         stop-color="#fff"
         stop-opacity="0"
         id="stop1570" />
    </linearGradient>
  </defs>
  <path
     style="fill:#191919"
     inkscape:connector-curvature="0"
     id="path1263"
     d="M 0,0 H 67.47 V 100.541 H 0 Z m 0,0" />
  <path
     style="fill:url(#w)"
     inkscape:connector-curvature="0"
     id="path1265"
     d="m 28.157,8.441 c -2.834,0 -5.132,2.238 -5.132,4.999 0.001,0.085 0.004,0.17 0.01,0.254 h -0.001 l 0.054,0.504 c 0.01,0.065 0.022,0.13 0.036,0.195 l 1.813,10.05 h 0.004 c 0.27,1.62 1.707,2.812 3.392,2.812 1.899,0 3.438,-1.5 3.438,-3.349 l -0.002,-0.039 1.41,-9.406 c 0.04,-0.192 0.07,-0.386 0.087,-0.581 l 0.017,-0.319 v -0.002 l 0.005,-0.12 c 0,-2.76 -2.297,-4.999 -5.131,-4.999 z" />
  <path
     style="fill:url(#x)"
     inkscape:connector-curvature="0"
     id="path1267"
     d="m 28.157,8.871 a 4.77,4.77 0 0 0 -4.771,4.77 c 0,0.082 0.004,0.163 0.009,0.244 h -0.001 l 0.05,0.48 0.033,0.186 1.686,9.591 h 0.004 a 3.196,3.196 0 0 0 6.35,-0.512 l -0.002,-0.037 1.31,-8.977 c 0.038,-0.183 0.066,-0.368 0.082,-0.555 l 0.016,-0.304 -0.001,-0.002 0.005,-0.114 a 4.77,4.77 0 0 0 -4.77,-4.77 z" />
  <text
     id="text1269"
     word-spacing="0"
     letter-spacing="0"
     font-size="10.583"
     font-weight="400"
     y="59.389"
     x="70.710999"
     style="font-weight:400;font-size:10.58300018px;line-height:1.25;font-family:sans-serif;letter-spacing:0;word-spacing:0;stroke-width:0.26499999" />
  <g
     id="g1279"
     word-spacing="0"
     letter-spacing="0"
     font-size="5.644"
     font-weight="400"
     style="font-weight:400;font-size:5.64400005px;line-height:1.25;font-family:'Casual Caps';letter-spacing:0;word-spacing:0;fill:#c8c8c8;stroke-width:0.26499999"
     aria-label="BIG-BUTTON-SEQ"
     transform="translate(-26.543,-161.307)">
    <path
       inkscape:connector-curvature="0"
       id="path1271"
       style="-inkscape-font-specification:'Casual Caps'"
       d="m 42.697,163.132 q 0.584,0 1.254,0.931 v 0.226 q 0,0.364 -0.805,0.932 -0.193,0.27 -0.193,0.352 0,0.177 0.998,1.158 0.16,0.33 0.16,0.482 0,0.805 -1.64,0.805 h -0.16 q -0.965,0 -0.965,-0.29 v -0.096 q 0.11,-0.193 0.356,-0.193 0.284,-4.084 0.579,-4.084 0.138,-0.224 0.416,-0.224 z m -0.482,4.338 0.096,0.066 q 1.193,-0.053 1.254,-0.29 v -0.033 q 0,-0.231 -0.931,-1.124 -0.163,-0.243 -0.163,-0.42 v -0.225 q 0,-0.372 0.805,-0.962 0.16,-0.171 0.16,-0.26 -0.237,-0.402 -0.706,-0.545 -0.281,0 -0.515,3.792 z m 2.656,-4.082 h 0.709 q 0.173,0 0.256,0.16 v 0.193 l -0.256,0.226 q -0.163,0.832 -0.323,2.99 0.364,0.16 0.386,0.256 v 0.193 q 0,0.044 -0.16,0.16 H 45.45 q -0.416,-0.096 -0.449,-0.096 h -0.033 q -0.312,0.066 -0.353,0.066 h -0.063 q -0.163,-0.083 -0.163,-0.26 v -0.063 q 0.02,-0.088 0.323,-0.256 0.256,-2.357 0.352,-2.99 -0.286,-0.097 -0.385,-0.257 v -0.096 q 0.055,-0.146 0.192,-0.226 z" />
    <path
       inkscape:connector-curvature="0"
       id="path1273"
       style="-inkscape-font-specification:'Casual Caps'"
       d="m 47.876,163.132 h 0.063 q 0.852,0 1.094,1.413 0,0.312 -0.226,0.45 h -0.16 q -0.044,0 -0.162,-0.16 v -0.033 q 0,-0.116 0.033,-0.29 -0.212,-0.868 -0.579,-0.868 h -0.13 q -0.75,0.223 -1.22,0.998 -0.45,0.86 -0.45,1.414 v 0.16 q 0,0.733 0.739,0.964 0.025,0 0.193,0.033 1.22,-0.195 1.22,-0.642 0,-0.146 -0.705,-0.226 -0.058,0.033 -0.13,0.033 -0.2,-0.066 -0.225,-0.162 v -0.193 q 0,-0.042 0.162,-0.16 h 0.193 q 0.984,0 1.221,0.515 l 0.033,0.193 q 0,0.59 -1.03,1.028 -0.348,0.097 -0.676,0.097 h -0.16 q -0.815,0 -1.254,-0.932 -0.096,-0.248 -0.096,-0.675 0,-1.552 1.543,-2.764 0.438,-0.193 0.709,-0.193 z m 2.538,1.736 q 0.772,0 0.772,0.193 v 0.16 q 0,0.044 -0.163,0.16 H 50.8 q -0.378,0 -0.772,-0.03 l -0.805,0.093 q -0.132,-0.044 -0.193,-0.16 v -0.16 q 0,-0.22 0.902,-0.256 z m 1.808,-1.736 q 0.584,0 1.254,0.931 v 0.226 q 0,0.364 -0.805,0.932 -0.193,0.27 -0.193,0.352 0,0.177 0.998,1.158 0.16,0.33 0.16,0.482 0,0.805 -1.64,0.805 h -0.16 q -0.965,0 -0.965,-0.29 v -0.096 q 0.11,-0.193 0.356,-0.193 0.284,-4.084 0.579,-4.084 0.138,-0.224 0.416,-0.224 z m -0.482,4.338 0.096,0.066 q 1.193,-0.053 1.254,-0.29 v -0.033 q 0,-0.231 -0.931,-1.124 -0.163,-0.243 -0.163,-0.42 v -0.225 q 0,-0.372 0.805,-0.962 0.16,-0.171 0.16,-0.26 -0.237,-0.402 -0.706,-0.545 -0.281,0 -0.515,3.792 z m 2.946,-4.372 q 0.146,0.053 0.184,0.124 0.042,0.07 0.042,0.133 0,0.151 -0.42,2.797 -0.062,0.35 -0.062,0.805 v 0.193 q 0.068,0.46 0.212,0.518 0.022,0.011 0.047,0.011 0.13,0 0.311,-0.262 0.215,-0.311 0.52,-1.361 0.13,-0.408 0.354,-1.362 0.226,-0.953 0.295,-1.017 0.069,-0.063 0.19,-0.063 0.102,0 0.198,0.151 0.033,0.055 0.033,0.188 0,0.223 -0.102,0.667 -0.138,0.6 -0.138,2.51 0,0.326 0.003,0.687 -0.022,0.28 -0.21,0.314 -0.04,0.008 -0.076,0.008 -0.127,0 -0.182,-0.097 -0.053,-0.082 -0.053,-0.261 0,-0.083 0.011,-0.182 v -0.579 q 0,-0.138 -0.022,-0.138 -0.013,0 -0.041,0.075 -0.548,1.317 -0.998,1.317 h -0.03 q -0.711,0 -0.838,-1.254 0,-0.667 0.482,-3.6 0,-0.129 0.061,-0.225 0.06,-0.097 0.229,-0.097 z m 4.55,0.482 q 0.13,0.144 0.13,0.16 v 0.163 q 0,0.193 -0.612,0.193 h -0.257 q -0.046,0 -0.096,0.097 0,0.14 -0.033,1.444 0,0.4 0.13,2.218 -0.136,0.13 -0.257,0.13 -0.29,0 -0.29,-0.835 -0.065,-0.568 -0.065,-1.447 v -1.48 q 0,-0.044 -0.094,-0.097 -0.108,0 -0.708,0.097 h -0.097 q -0.05,0 -0.13,-0.127 v -0.193 q 0,-0.322 2.38,-0.322 z m 2.789,0 q 0.13,0.144 0.13,0.16 v 0.163 q 0,0.193 -0.612,0.193 h -0.256 q -0.047,0 -0.097,0.097 0,0.14 -0.033,1.444 0,0.4 0.13,2.218 -0.135,0.13 -0.257,0.13 -0.29,0 -0.29,-0.835 -0.065,-0.568 -0.065,-1.447 v -1.48 q 0,-0.044 -0.094,-0.097 -0.107,0 -0.708,0.097 h -0.097 q -0.05,0 -0.13,-0.127 v -0.193 q 0,-0.322 2.38,-0.322 z" />
    <path
       inkscape:connector-curvature="0"
       id="path1275"
       style="-inkscape-font-specification:'Casual Caps'"
       d="m 64.112,164.008 q 0.807,0.67 0.807,1.695 v 0.223 q 0,1.246 -1.414,1.77 -0.242,0.063 -0.449,0.063 H 62.83 q -0.827,0 -1.188,-0.965 -0.066,-0.223 -0.066,-0.386 v -0.352 q 0,-1.034 0.901,-2.09 -0.041,-0.085 -0.041,-0.16 0,-0.217 0.372,-0.324 0.085,-0.025 0.182,-0.025 0.455,0 1.122,0.55 z m -2.054,2.177 q 0,0.924 0.805,1.092 h 0.097 q 0.587,0 1.157,-0.546 0.292,-0.455 0.32,-0.901 0,-0.808 -0.802,-1.444 -0.43,-0.26 -0.516,-0.26 -0.176,0 -0.705,0.805 -0.356,0.72 -0.356,1.254 z m 6.254,-3.216 q 0.146,0.055 0.223,0.193 v 0.066 q -0.353,1.38 -0.898,4.178 l -0.163,0.13 h -0.223 q -0.265,0 -0.838,-2.572 -0.102,-0.322 -0.16,-0.322 -0.256,0.595 -0.546,2.731 0,0.612 -0.226,0.612 h -0.063 q -0.13,0 -0.226,-0.16 0,-1.273 0.612,-3.57 0.19,-0.481 0.482,-0.481 0.41,0 0.675,1.35 l 0.32,1.158 h 0.033 q 0.064,-0.047 0.386,-1.833 0.328,-1.37 0.45,-1.447 z m 1.405,1.899 q 0.772,0 0.772,0.193 v 0.16 q 0,0.044 -0.162,0.16 h -0.224 q -0.377,0 -0.771,-0.03 l -0.805,0.093 q -0.132,-0.044 -0.193,-0.16 v -0.16 q 0,-0.22 0.901,-0.256 z m 3.818,-1.254 h 0.355 q 0.711,0 1.028,0.482 0.033,0.083 0.033,0.146 0,0.075 -0.044,0.127 -0.052,0.066 -0.168,0.066 -0.063,0 -0.143,-0.02 -0.334,-0.319 -0.932,-0.319 -1.3,0 -2.249,1.028 -0.13,0.176 -0.13,0.353 0,0.256 0.852,0.256 0.852,0 1.43,0.11 0.58,0.11 0.58,0.75 0,0.64 -1.029,1.136 -0.261,0.096 -0.482,0.096 H 72.54 q -0.932,-0.085 -0.932,-0.934 v -0.127 q 0,-0.174 0.223,-0.201 h 0.042 q 0.184,0 0.2,0.223 0.017,0.25 0.128,0.389 0.11,0.135 0.273,0.135 h 0.192 q 0.965,-0.27 0.965,-0.709 0.003,-0.016 0.003,-0.035 0,-0.353 -1.05,-0.367 -1.103,-0.011 -1.436,-0.116 -0.334,-0.107 -0.378,-0.573 0,-0.978 1.737,-1.736 0.56,-0.16 1.028,-0.16 z m 3.045,-0.516 h 0.323 q 0.705,0 0.705,0.386 v 0.064 q 0,0.044 -0.16,0.162 h -0.13 q -0.369,-0.13 -0.608,-0.13 -0.81,0 -0.932,0.516 -0.163,0.265 -0.259,1.284 l 0.066,0.034 q 0.736,-0.193 0.962,-0.193 0.044,0 0.163,0.16 v 0.16 q 0,0.137 -0.516,0.258 -0.609,0.147 -0.609,0.224 v 0.033 q 0.1,1.077 0.61,1.22 0.176,0.034 0.256,0.034 0.038,0 0.611,-0.16 0.133,0.044 0.193,0.16 v 0.193 q -0.21,0.29 -0.708,0.29 h -0.256 q -1.003,0 -1.221,-1.608 -0.033,-0.308 -0.033,-0.612 v -0.063 q 0,-1.723 0.741,-2.252 0.345,-0.16 0.802,-0.16 z" />
    <path
       inkscape:connector-curvature="0"
       id="path1277"
       style="-inkscape-font-specification:'Casual Caps'"
       d="m 79.416,163.3 q 0.579,0.113 1.364,1.405 0.257,0.612 0.257,1.094 0,0.645 -0.45,1.254 v 0.064 q 0,0.055 0.483,0.546 v 0.192 q 0,0.045 -0.16,0.163 h -0.066 q -0.15,0 -0.706,-0.579 -0.818,0.353 -1.416,0.353 -0.96,0 -1.285,-0.675 -0.13,-0.298 -0.13,-0.546 v -0.163 q 0,-1.493 1.607,-2.86 -0.008,-0.042 -0.008,-0.078 0,-0.195 0.273,-0.195 0.1,0 0.237,0.025 z m -1.626,3.108 q 0,0.745 0.708,0.869 0.144,0 0.193,0.033 1.028,-0.15 1.028,-0.353 l -0.096,-0.163 v -0.16 q 0,-0.044 0.16,-0.16 h 0.193 q 0.137,0.127 0.259,0.127 0.29,-0.283 0.29,-0.835 -0.08,-0.68 -0.343,-1.1 -0.262,-0.421 -0.719,-0.763 -0.648,0.133 -1.384,1.447 -0.289,0.783 -0.289,1.059 z" />
  </g>
  <path
     style="fill:#552100"
     inkscape:connector-curvature="0"
     id="path1281"
     d="m 28.85,98.374 c 0,0 3.88,-0.711 5.052,-1.131 1.172,-0.42 2.27,-1.196 2.27,-1.196 0,0 1.318,0.145 1.172,0.42 -0.147,0.275 -0.366,0.663 -0.366,0.663 0,0 2.49,-0.518 2.562,-1.002 0.073,-0.485 -0.732,-1.212 -0.732,-1.212 0,0 1.172,-0.049 1.757,0.226 0.586,0.275 0.366,1.099 0.366,1.099 0,0 4.394,-1.148 3.222,-2.408 -1.171,-1.26 -5.711,-2.134 -5.711,-2.134 0,0 1.977,0.663 1.025,1.245 -0.952,0.582 -2.709,0.905 -2.709,0.905 0,0 0.44,-0.307 0.512,-0.485 0.074,-0.178 -0.073,-0.469 -0.073,-0.469 0,0 -2.562,0.34 -3.148,0.905 -0.586,0.566 -0.44,1.6 -0.44,1.6 0,0 -1.537,-0.727 -1.83,-0.937 -0.293,-0.21 -0.659,-0.76 -0.659,-0.76 l -0.879,0.324 c 0,0 -0.878,-0.227 -0.585,-0.582 0.293,-0.356 0.805,-0.614 0.805,-0.614 0,0 -0.952,0.064 -1.171,0.242 -0.22,0.178 -0.513,0.453 -0.513,0.453 0,0 -1.318,-0.51 -0.586,-1.059 0.732,-0.55 2.307,-0.937 2.307,-0.937 0,0 -4.1,0.331 -5.748,1.09 -1.647,0.76 -1.61,1.261 -1.391,1.609 0.22,0.347 0.915,0.92 1.977,1.268 1.061,0.348 1.5,0.453 1.5,0.453 0,0 -0.915,-0.727 -1.024,-0.954 -0.11,-0.226 0.293,-0.71 0.293,-0.71 0,0 2.05,0.46 2.892,1.01 0.842,0.549 1.94,1.187 1.61,1.672 -0.329,0.485 -1.757,1.406 -1.757,1.406 z" />
  <g
     id="g1285"
     word-spacing="0"
     letter-spacing="0"
     font-size="4.688"
     font-weight="400"
     style="font-weight:400;font-size:4.6880002px;line-height:1.25;font-family:'Casual Caps';letter-spacing:0;word-spacing:0;fill:#c8c8c8;stroke-width:0.117"
     aria-label="IMPROMPTU"
     transform="translate(-26.543,-161.307)">
    <path
       inkscape:connector-curvature="0"
       id="path1283"
       style="-inkscape-font-specification:'Casual Caps'"
       d="m 49.007,256.389 h 0.588 q 0.145,0 0.213,0.133 v 0.16 l -0.213,0.188 q -0.135,0.69 -0.267,2.483 0.302,0.133 0.32,0.213 v 0.16 q 0,0.037 -0.133,0.133 h -0.027 q -0.346,-0.08 -0.373,-0.08 h -0.028 q -0.259,0.055 -0.293,0.055 h -0.052 q -0.136,-0.069 -0.136,-0.215 v -0.053 q 0.016,-0.073 0.268,-0.213 0.213,-1.957 0.293,-2.483 -0.238,-0.08 -0.32,-0.213 v -0.08 q 0.046,-0.122 0.16,-0.188 z m 2.971,-0.108 q 0.364,0 0.428,0.616 0.348,1.708 0.561,3.338 -0.078,0.185 -0.24,0.185 -0.21,0 -0.24,-0.746 -0.401,-2.273 -0.509,-2.724 h -0.025 q -0.426,1.174 -0.616,1.334 h -0.132 q -0.33,0 -0.454,-0.72 h -0.027 q -0.094,0 -0.32,1.389 -0.117,1.094 -0.266,1.094 h -0.08 q -0.215,-0.014 -0.215,-0.213 0.295,-2.136 0.64,-3.072 0.142,-0.24 0.32,-0.24 0.17,0 0.349,0.8 0.016,0.241 0.08,0.241 l 0.48,-1.147 q 0.14,-0.135 0.266,-0.135 z m 2.097,-0.105 h 0.133 q 1.002,0 1.657,0.721 0.053,0.096 0.053,0.213 v 0.027 q 0,0.66 -1.31,0.987 -0.265,0.108 -0.934,0.213 0,0.027 -0.025,0.027 0.053,1.047 0.053,1.736 -0.078,0.187 -0.24,0.187 h -0.053 q -0.037,0 -0.135,-0.133 0,-0.141 0.027,-0.24 -0.052,-0.842 -0.052,-1.602 l -0.055,-0.188 v -0.027 q 0,-0.023 0.055,-0.213 v -0.373 q 0,-1.335 0.826,-1.335 z m -0.426,1.655 0.08,0.053 q 1.053,-0.151 1.655,-0.534 0.106,-0.112 0.106,-0.212 0,-0.234 -1.067,-0.536 -0.034,0 -0.268,-0.025 -0.426,0 -0.426,0.425 -0.061,0 -0.08,0.83 z m 3.624,-1.575 h 0.107 q 1.058,0 1.603,0.614 0.052,0.087 0.052,0.16 v 0.16 q 0,0.426 -1.442,0.854 -0.428,0.09 -0.428,0.16 0,0.071 0.641,0.48 1.248,0.685 1.417,0.83 l 0.025,0.052 v 0.133 q -0.069,0.135 -0.213,0.135 -1.149,-0.522 -2.03,-1.202 -0.069,0 -0.318,-0.295 h -0.028 l -0.027,0.055 q 0.16,0.975 0.16,1.254 v 0.268 q -0.069,0.133 -0.213,0.133 -0.107,0 -0.188,-0.133 v -0.028 q 0,-0.192 -0.24,-2.083 v -0.212 q 0,-1.335 1.122,-1.335 z m -0.694,1.227 v 0.48 q 0.01,0.056 0.053,0.056 0.15,-0.24 1.149,-0.481 0.698,-0.231 0.801,-0.4 0,-0.321 -1.257,-0.481 -0.718,0.084 -0.718,0.613 -0.028,0.028 -0.028,0.213 z m 4.791,-0.579 q 0.67,0.556 0.67,1.408 v 0.185 q 0,1.035 -1.173,1.47 -0.202,0.052 -0.374,0.052 h -0.187 q -0.687,0 -0.987,-0.8 -0.055,-0.186 -0.055,-0.321 v -0.293 q 0,-0.859 0.749,-1.735 -0.035,-0.071 -0.035,-0.133 0,-0.181 0.31,-0.27 0.07,-0.02 0.15,-0.02 0.378,0 0.932,0.457 z m -1.705,1.808 q 0,0.767 0.668,0.907 h 0.08 q 0.488,0 0.962,-0.453 0.242,-0.378 0.265,-0.749 0,-0.67 -0.666,-1.2 -0.357,-0.215 -0.428,-0.215 -0.146,0 -0.586,0.669 -0.295,0.597 -0.295,1.041 z m 4.555,-2.431 q 0.364,0 0.428,0.616 0.348,1.708 0.56,3.338 -0.077,0.185 -0.24,0.185 -0.21,0 -0.24,-0.746 -0.4,-2.273 -0.508,-2.724 h -0.025 q -0.426,1.174 -0.616,1.334 h -0.133 q -0.33,0 -0.453,-0.72 h -0.027 q -0.094,0 -0.32,1.389 -0.118,1.094 -0.266,1.094 H 62.3 q -0.216,-0.014 -0.216,-0.213 0.296,-2.136 0.641,-3.072 0.142,-0.24 0.32,-0.24 0.17,0 0.349,0.8 0.016,0.241 0.08,0.241 l 0.48,-1.147 q 0.14,-0.135 0.266,-0.135 z m 2.097,-0.105 h 0.132 q 1.003,0 1.658,0.721 0.052,0.096 0.052,0.213 v 0.027 q 0,0.66 -1.309,0.987 -0.265,0.108 -0.934,0.213 0,0.027 -0.025,0.027 0.053,1.047 0.053,1.736 -0.078,0.187 -0.24,0.187 h -0.053 q -0.037,0 -0.135,-0.133 0,-0.141 0.027,-0.24 -0.053,-0.842 -0.053,-1.602 l -0.055,-0.188 v -0.027 q 0,-0.023 0.055,-0.213 v -0.373 q 0,-1.335 0.827,-1.335 z m -0.426,1.655 0.08,0.053 q 1.053,-0.151 1.655,-0.534 0.105,-0.112 0.105,-0.212 0,-0.234 -1.066,-0.536 -0.035,0 -0.268,-0.025 -0.426,0 -0.426,0.425 -0.062,0 -0.08,0.83 z m 4.477,-1.281 q 0.108,0.118 0.108,0.132 v 0.135 q 0,0.16 -0.508,0.16 h -0.213 q -0.04,0 -0.08,0.08 0,0.117 -0.028,1.2 0,0.332 0.108,1.842 -0.112,0.108 -0.213,0.108 -0.24,0 -0.24,-0.694 -0.055,-0.471 -0.055,-1.201 v -1.23 q 0,-0.036 -0.078,-0.08 -0.09,0 -0.588,0.08 h -0.08 q -0.042,0 -0.108,-0.105 v -0.16 q 0,-0.268 1.975,-0.268 z m 0.634,-0.401 q 0.122,0.043 0.154,0.103 0.034,0.057 0.034,0.11 0,0.125 -0.348,2.323 -0.053,0.29 -0.053,0.668 v 0.16 q 0.058,0.383 0.177,0.43 0.018,0.01 0.039,0.01 0.107,0 0.258,-0.218 0.179,-0.258 0.433,-1.13 0.107,-0.34 0.293,-1.131 0.188,-0.792 0.245,-0.845 0.057,-0.053 0.158,-0.053 0.084,0 0.165,0.126 0.027,0.046 0.027,0.156 0,0.185 -0.085,0.554 -0.114,0.499 -0.114,2.085 l 0.002,0.57 q -0.018,0.234 -0.174,0.261 -0.034,0.007 -0.064,0.007 -0.105,0 -0.15,-0.08 -0.044,-0.069 -0.044,-0.217 0,-0.07 0.009,-0.151 v -0.481 q 0,-0.115 -0.019,-0.115 -0.011,0 -0.034,0.062 -0.455,1.094 -0.828,1.094 h -0.026 q -0.59,0 -0.696,-1.041 0,-0.554 0.401,-2.99 0,-0.107 0.05,-0.187 0.05,-0.08 0.19,-0.08 z" />
  </g>
  <g
     style="fill:none;stroke:#c8c8c8;stroke-width:0.26499999;stroke-linecap:round;stroke-linejoin:round"
     id="g1289"
     transform="translate(-26.543,-161.307)">
    <path
       inkscape:connector-curvature="0"
       id="path1287"
       d="m 30.882,242.072 c -1.276,1.977 0.063,4.402 0.063,4.402 -0.526,-0.463 -1.371,-0.431 -1.371,-0.431 m 1.356,0.399 c 0.127,-0.718 0.494,-1.18 0.494,-1.18" />
  </g>
  <path
     style="fill:#ff6e0f;stroke:#950e00;stroke-width:0.28999999"
     inkscape:connector-curvature="0"
     id="path1291"
     d="m 28.695,58.64 c 0,0 3.88,3.37 5.052,5.362 1.171,1.992 2.27,5.669 2.27,5.669 0,0 1.317,-0.69 1.171,-1.992 -0.146,-1.302 -0.366,-3.14 -0.366,-3.14 0,0 2.49,2.45 2.563,4.749 0.073,2.298 -0.733,5.745 -0.733,5.745 0,0 1.172,0.23 1.758,-1.072 0.585,-1.303 0.366,-5.21 0.366,-5.21 0,0 4.393,5.44 3.221,11.415 -1.171,5.975 -5.71,10.112 -5.71,10.112 0,0 1.976,-3.14 1.024,-5.899 -0.952,-2.758 -2.709,-4.29 -2.709,-4.29 0,0 0.44,1.456 0.513,2.299 0.073,0.842 -0.073,2.221 -0.073,2.221 0,0 -2.563,-1.609 -3.149,-4.29 -0.586,-2.681 -0.44,-7.584 -0.44,-7.584 0,0 -1.537,3.447 -1.83,4.443 -0.293,0.996 -0.659,3.6 -0.659,3.6 l -0.878,-1.531 c 0,0 -0.879,1.072 -0.586,2.757 0.293,1.686 0.805,2.912 0.805,2.912 0,0 -0.952,-0.307 -1.171,-1.15 -0.22,-0.842 -0.513,-2.145 -0.513,-2.145 0,0 -1.318,2.414 -0.585,5.018 0.732,2.605 2.306,4.443 2.306,4.443 0,0 -4.1,-1.57 -5.748,-5.17 -1.647,-3.601 -1.61,-5.976 -1.39,-7.623 0.219,-1.647 0.914,-4.367 1.976,-6.014 1.062,-1.647 1.501,-2.145 1.501,-2.145 0,0 -0.915,3.448 -1.025,4.52 -0.11,1.073 0.293,3.371 0.293,3.371 0,0 2.05,-2.183 2.892,-4.788 0.842,-2.605 1.94,-5.63 1.61,-7.929 -0.329,-2.298 -1.756,-6.664 -1.756,-6.664 z" />
  <path
     style="fill:#ffba1a;stroke:#ff8a0d;stroke-width:0.50199997;stroke-opacity:0.99500002"
     inkscape:connector-curvature="0"
     id="path1293"
     d="m 30.623,61.941 c 0.39,1.357 0.686,2.061 0.86,3.27 0.391,2.733 -0.816,5.804 -1.649,8.382 -0.939,2.905 -3.117,5.168 -3.117,5.168 a 1.011,1.011 0 0 1 -1.733,-0.517 c 0,0 -0.105,-0.597 -0.195,-1.334 -0.028,-0.225 -0.01,-0.468 -0.033,-0.707 -0.225,0.82 -0.44,1.664 -0.52,2.267 -0.204,1.536 -0.266,3.628 1.309,7.07 0.495,1.084 1.276,1.903 2.078,2.604 -0.176,-0.428 -0.393,-0.698 -0.53,-1.181 -0.861,-3.066 0.673,-5.776 0.673,-5.776 a 1.011,1.011 0 0 1 0.93,-0.523 c 0.22,-1.141 0.64,-2.008 0.64,-2.008 a 1.011,1.011 0 0 1 1.092,-0.322 c 0.11,-0.617 0.12,-0.932 0.256,-1.391 0.192,-0.654 0.641,-1.712 1.066,-2.707 0.425,-0.995 0.81,-1.863 0.81,-1.863 a 1.011,1.011 0 0 1 1.934,0.441 c 0,0 -0.105,4.944 0.418,7.34 0.192,0.88 0.684,1.605 1.19,2.207 -0.097,-0.665 -0.436,-1.93 -0.436,-1.93 a 1.011,1.011 0 0 1 1.63,-1.054 c 0,0 1.962,1.711 3,4.722 0.211,0.61 0.21,1.202 0.23,1.791 1.028,-1.598 2.055,-3.544 2.511,-5.87 0.6,-3.063 -0.346,-5.74 -1.37,-7.759 -0.047,0.746 -0.014,1.519 -0.304,2.162 -0.405,0.902 -1.142,1.41 -1.74,1.583 -0.598,0.171 -1.135,0.068 -1.135,0.068 a 1.011,1.011 0 0 1 -0.789,-1.223 c 0,0 0.772,-3.452 0.707,-5.482 -0.007,-0.222 -0.238,-0.495 -0.312,-0.748 -0.364,1.313 -1.578,1.996 -1.578,1.996 a 1.011,1.011 0 0 1 -1.438,-0.608 c 0,0 -1.136,-3.686 -2.172,-5.447 -0.379,-0.644 -1.373,-1.687 -2.283,-2.62 z" />
  <g
     style="fill:none;stroke:#c8c8c8;stroke-width:0.26499999;stroke-linecap:round;stroke-linejoin:round"
     id="g1297"
     transform="translate(-26.543,-161.307)">
    <path
       inkscape:connector-curvature="0"
       id="path1295"
       d="m 63.415,222.451 c 1.276,1.978 -0.064,4.402 -0.064,4.402 0.527,-0.463 1.372,-0.43 1.372,-0.43 m -1.356,0.398 c -0.127,-0.718 -0.494,-1.18 -0.494,-1.18" />
  </g>
  <g
     style="fill:none;stroke:#c8c8c8;stroke-width:0.26499999;stroke-linecap:round;stroke-linejoin:round"
     id="g1301"
     transform="translate(-26.543,-161.307)">
    <path
       inkscape:connector-curvature="0"
       id="path1299"
       d="m 47.787,228.229 c 1.276,1.977 -0.064,4.402 -0.064,4.402 0.527,-0.463 1.372,-0.43 1.372,-0.43 m -1.355,0.398 c -0.128,-0.718 -0.495,-1.18 -0.495,-1.18" />
  </g>
  <g
     style="fill:none;stroke:#c8c8c8;stroke-width:0.26499999;stroke-linecap:round;stroke-linejoin:round"
     id="g1305"
     transform="translate(-26.543,-161.307)">
    <path
       inkscape:connector-curvature="0"
       id="path1303"
       d="m 78.94,228.161 c 1.275,1.978 -0.064,4.402 -0.064,4.402 0.526,-0.462 1.371,-0.43 1.371,-0.43 m -1.356,0.398 c -0.127,-0.718 -0.494,-1.18 -0.494,-1.18" />
  </g>
  <g
     style="fill:none;stroke:#c8c8c8;stroke-width:0.26499999;stroke-linecap:round;stroke-linejoin:round"
     id="g1309"
     transform="translate(-26.543,-161.307)">
    <path
       inkscape:connector-curvature="0"
       id="path1307"
       d="m 83.765,241.784 c -1.275,1.978 0.064,4.402 0.064,4.402 -0.526,-0.462 -1.371,-0.43 -1.371,-0.43 m 1.355,0.398 c 0.128,-0.717 0.495,-1.18 0.495,-1.18" />
  </g>
  <path
     style="fill:url(#y)"
     inkscape:connector-curvature="0"
     id="path1311"
     d="m 7.157,8.556 c -2.834,0 -5.132,2.238 -5.132,4.999 10e-4,0.085 0.004,0.17 0.01,0.254 H 2.034 l 0.054,0.504 c 0.01,0.065 0.022,0.13 0.036,0.195 l 1.813,10.05 h 0.004 c 0.27,1.62 1.707,2.812 3.392,2.812 1.899,0 3.438,-1.5 3.438,-3.349 l -0.002,-0.039 1.41,-9.406 c 0.04,-0.192 0.07,-0.386 0.087,-0.581 l 0.017,-0.319 v -0.002 l 0.005,-0.12 c 0,-2.76 -2.297,-4.999 -5.131,-4.999 z" />
  <path
     style="fill:url(#z)"
     inkscape:connector-curvature="0"
     id="path1313"
     d="m 7.157,8.986 a 4.77,4.77 0 0 0 -4.771,4.77 c 0,0.082 0.004,0.163 0.009,0.244 H 2.394 l 0.05,0.48 0.033,0.186 1.686,9.591 h 0.004 a 3.196,3.196 0 0 0 6.35,-0.512 l -0.002,-0.037 1.31,-8.977 c 0.038,-0.183 0.066,-0.368 0.082,-0.555 l 0.016,-0.304 -10e-4,-0.002 0.005,-0.114 a 4.77,4.77 0 0 0 -4.77,-4.77 z" />
  <path
     style="font-weight:400;font-size:3.77200007px;font-family:'Casual Caps';letter-spacing:0;word-spacing:0;stroke-width:0.094"
     inkscape:connector-curvature="0"
     id="path1315"
     word-spacing="0"
     letter-spacing="0"
     font-size="3.772"
     font-weight="400"
     aria-label="1"
     d="m 7.209,9.765 q 0.29,0 0.323,0.365 -0.28,1.556 -0.28,2.083 0.193,0.081 0.193,0.216 0,0.079 -0.15,0.15 -0.143,0 -0.515,0.043 -0.09,-0.03 -0.129,-0.107 v -0.108 q 0.1,-0.15 0.258,-0.15 l 0.02,-0.044 q 0,-0.722 0.258,-2.083 L 7.123,10.088 q -0.21,0.02 -0.43,0.064 -0.128,0 -0.15,-0.173 V 9.937 Q 6.6,9.765 7.081,9.765 Z" />
  <path
     style="fill:url(#A)"
     inkscape:connector-curvature="0"
     id="path1317"
     d="m 17.681,8.581 c -2.834,0 -5.132,2.238 -5.132,4.999 0.001,0.085 0.004,0.17 0.01,0.254 h -10e-4 l 0.054,0.504 c 0.01,0.065 0.022,0.13 0.036,0.195 l 1.813,10.05 h 0.004 c 0.27,1.62 1.707,2.812 3.392,2.812 1.899,0 3.438,-1.5 3.438,-3.349 l -0.002,-0.039 1.41,-9.406 c 0.04,-0.192 0.07,-0.386 0.087,-0.581 l 0.017,-0.319 v -0.002 l 0.005,-0.12 c 0,-2.76 -2.297,-4.999 -5.131,-4.999 z" />
  <path
     style="fill:url(#B)"
     inkscape:connector-curvature="0"
     id="path1319"
     d="m 17.681,9.011 a 4.77,4.77 0 0 0 -4.771,4.77 c 0,0.082 0.004,0.163 0.009,0.244 h -0.001 l 0.05,0.48 0.033,0.186 1.686,9.591 h 0.004 a 3.196,3.196 0 0 0 6.35,-0.512 l -0.002,-0.037 1.31,-8.977 c 0.038,-0.183 0.066,-0.368 0.082,-0.555 l 0.016,-0.304 -10e-4,-0.002 0.005,-0.114 a 4.77,4.77 0 0 0 -4.77,-4.77 z" />
  <path
     style="font-weight:400;font-size:3.77200007px;font-family:'Casual Caps';letter-spacing:0;word-spacing:0;stroke-width:0.094"
     inkscape:connector-curvature="0"
     id="path1321"
     word-spacing="0"
     letter-spacing="0"
     font-size="3.772"
     font-weight="400"
     aria-label="2"
     d="m 17.798,9.7 h 0.171 q 0.332,0 0.387,0.622 v 0.022 q 0,0.853 -1.01,1.805 v 0.043 q 0.023,0 0.023,0.022 1.053,-0.087 1.354,-0.087 l 0.064,0.087 v 0.129 q 0,0.149 -0.818,0.149 0,0.028 -1.18,0.087 -0.098,-0.035 -0.151,-0.13 v -0.128 q 0,-0.022 0.709,-0.645 0.645,-0.737 0.667,-1.267 v -0.13 q 0,-0.194 -0.13,-0.257 -0.252,0 -0.73,0.558 h -0.15 q -0.035,0 -0.086,-0.085 V 10.367 Q 17.433,9.7 17.798,9.7 Z" />
  <path
     style="font-weight:400;font-size:3.77200007px;font-family:'Casual Caps';letter-spacing:0;word-spacing:0;stroke-width:0.094"
     inkscape:connector-curvature="0"
     id="path1323"
     word-spacing="0"
     letter-spacing="0"
     font-size="3.772"
     font-weight="400"
     aria-label="3"
     d="m 28.928,9.737 h 0.194 q 0.17,0 0.17,0.172 v 0.086 q -0.143,0.179 -0.793,0.71 l -0.022,0.042 q 0.731,0.423 0.731,1.096 0,0.294 -0.302,0.622 -0.298,0.258 -0.73,0.258 -0.526,0 -0.86,-0.516 V 12.1 q 0,-0.03 0.11,-0.106 h 0.064 q 0.1,0 0.257,0.213 0.24,0.173 0.408,0.173 h 0.064 q 0.645,-0.092 0.645,-0.58 0,-0.35 -0.387,-0.644 -0.473,-0.17 -0.473,-0.345 v -0.042 q 0,-0.146 0.602,-0.603 v -0.02 l -0.022,-0.044 q -0.739,0.129 -0.923,0.129 h -0.042 q -0.116,0 -0.151,-0.085 v -0.15 q 0,-0.093 0.664,-0.152 0.487,-0.107 0.796,-0.107 z" />
  <path
     style="fill:url(#C)"
     inkscape:connector-curvature="0"
     id="path1325"
     d="m 38.822,8.441 c -2.834,0 -5.132,2.238 -5.132,4.999 0.001,0.085 0.004,0.17 0.01,0.254 h -0.001 l 0.054,0.504 c 0.01,0.065 0.022,0.13 0.036,0.195 l 1.813,10.05 h 0.004 c 0.27,1.62 1.707,2.812 3.392,2.812 1.899,0 3.438,-1.5 3.438,-3.349 l -0.002,-0.039 1.41,-9.406 c 0.04,-0.192 0.07,-0.386 0.087,-0.581 l 0.017,-0.319 v -0.002 l 0.005,-0.12 c 0,-2.76 -2.297,-4.999 -5.131,-4.999 z" />
  <path
     style="fill:url(#D)"
     inkscape:connector-curvature="0"
     id="path1327"
     d="m 38.822,8.871 a 4.77,4.77 0 0 0 -4.771,4.77 c 0,0.082 0.004,0.163 0.009,0.244 h -0.001 l 0.05,0.48 0.033,0.186 1.686,9.591 h 0.004 a 3.196,3.196 0 0 0 6.35,-0.512 l -0.002,-0.037 1.31,-8.977 c 0.038,-0.183 0.066,-0.368 0.082,-0.555 l 0.016,-0.304 -10e-4,-0.002 0.005,-0.114 a 4.77,4.77 0 0 0 -4.77,-4.77 z" />
  <path
     style="font-weight:400;font-size:3.77200007px;font-family:'Casual Caps';letter-spacing:0;word-spacing:0;stroke-width:0.094"
     inkscape:connector-curvature="0"
     id="path1329"
     word-spacing="0"
     letter-spacing="0"
     font-size="3.772"
     font-weight="400"
     aria-label="4"
     d="m 39.487,9.794 q 0.09,0.03 0.129,0.107 v 0.087 q -0.107,0.784 -0.172,1.48 l 0.065,0.045 h 0.171 l 0.129,-0.022 q 0.081,0 0.173,0.129 v 0.086 q 0,0.03 -0.129,0.13 h -0.387 q -0.03,0 -0.064,0.064 -0.022,0.45 -0.022,0.622 -0.063,0.151 -0.194,0.151 -0.07,0 -0.15,-0.15 0.021,-0.516 0.044,-0.623 0,-0.06 -0.732,-0.087 -0.173,-0.057 -0.258,-0.193 v -0.13 q 0,-0.215 0.752,-1.03 0.284,-0.347 0.473,-0.645 0.019,0 0.172,-0.02 z m -1.01,1.675 q 0.109,0.044 0.387,0.044 h 0.171 q 0.107,0 0.13,-0.731 0.021,0 0.021,-0.107 l -0.042,-0.022 q -0.101,0.048 -0.602,0.687 -0.065,0.084 -0.065,0.129 z" />
  <path
     style="fill:url(#E)"
     inkscape:connector-curvature="0"
     id="path1331"
     d="m 49.392,8.394 c -2.834,0 -5.132,2.238 -5.132,4.999 0.001,0.085 0.004,0.17 0.01,0.254 h -0.001 l 0.054,0.504 c 0.01,0.065 0.022,0.13 0.036,0.195 l 1.813,10.05 h 0.004 c 0.27,1.62 1.707,2.812 3.392,2.812 1.899,0 3.438,-1.5 3.438,-3.349 l -0.002,-0.039 1.41,-9.406 c 0.04,-0.192 0.07,-0.386 0.087,-0.581 l 0.017,-0.319 v -0.002 l 0.005,-0.12 c 0,-2.76 -2.297,-4.999 -5.131,-4.999 z" />
  <path
     style="fill:url(#F)"
     inkscape:connector-curvature="0"
     id="path1333"
     d="m 49.392,8.824 a 4.77,4.77 0 0 0 -4.771,4.77 c 0,0.082 0.004,0.163 0.009,0.244 h -0.001 l 0.05,0.48 0.033,0.186 1.686,9.591 h 0.004 a 3.196,3.196 0 0 0 6.35,-0.512 l -0.002,-0.037 1.31,-8.977 c 0.038,-0.183 0.066,-0.368 0.082,-0.555 l 0.016,-0.304 -0.001,-0.002 0.005,-0.114 a 4.77,4.77 0 0 0 -4.77,-4.77 z" />
  <path
     style="font-weight:400;font-size:3.77200007px;font-family:'Casual Caps';letter-spacing:0;word-spacing:0;stroke-width:0.094"
     inkscape:connector-curvature="0"
     id="path1335"
     word-spacing="0"
     letter-spacing="0"
     font-size="3.772"
     font-weight="400"
     aria-label="5"
     d="m 50.292,9.727 q 0.088,0.03 0.129,0.107 v 0.129 q 0,0.03 -0.107,0.109 -1.225,0 -1.225,0.129 -0.065,0.173 -0.065,0.322 v 0.042 q 0,0.07 0.623,0.151 0.86,0.35 0.86,0.965 v 0.194 q 0,0.499 -0.538,0.753 -0.092,0.043 -0.387,0.065 -0.51,0 -0.793,-0.323 v -0.129 q 0,-0.035 0.084,-0.086 h 0.087 q 0.44,0.193 0.536,0.193 h 0.109 q 0.558,-0.057 0.558,-0.473 0.022,0 0.022,-0.107 0,-0.595 -0.903,-0.774 -0.429,0 -0.602,-0.235 v -0.216 q 0.064,-0.73 0.366,-0.73 0,-0.049 1.246,-0.086 z" />
  <path
     style="fill:url(#G)"
     inkscape:connector-curvature="0"
     id="path1337"
     d="m 60.057,8.254 c -2.834,0 -5.132,2.238 -5.132,4.999 0.001,0.085 0.004,0.17 0.01,0.254 h -0.001 l 0.054,0.504 c 0.01,0.065 0.022,0.13 0.036,0.195 l 1.813,10.05 h 0.004 c 0.27,1.62 1.707,2.812 3.392,2.812 1.899,0 3.438,-1.5 3.438,-3.349 l -0.002,-0.039 1.41,-9.406 c 0.04,-0.192 0.07,-0.386 0.087,-0.581 l 0.017,-0.319 v -0.002 l 0.005,-0.12 c 0,-2.76 -2.297,-4.999 -5.131,-4.999 z" />
  <path
     style="fill:url(#H)"
     inkscape:connector-curvature="0"
     id="path1339"
     d="m 60.057,8.684 a 4.77,4.77 0 0 0 -4.771,4.77 c 0,0.082 0.004,0.163 0.009,0.244 h -0.001 l 0.05,0.48 0.033,0.186 1.686,9.591 h 0.004 a 3.196,3.196 0 0 0 6.35,-0.512 l -0.002,-0.037 1.31,-8.977 c 0.038,-0.183 0.066,-0.368 0.082,-0.555 l 0.016,-0.304 -10e-4,-0.002 0.005,-0.114 a 4.77,4.77 0 0 0 -4.77,-4.77 z" />
  <path
     style="font-weight:400;font-size:3.77200007px;font-family:'Casual Caps';letter-spacing:0;word-spacing:0;stroke-width:0.094"
     inkscape:connector-curvature="0"
     id="path1341"
     word-spacing="0"
     letter-spacing="0"
     font-size="3.772"
     font-weight="400"
     aria-label="6"
     d="m 60.737,9.593 h 0.108 q 0.173,0 0.173,0.173 V 9.83 q 0,0.092 -0.323,0.129 -0.692,0.407 -0.989,1.332 v 0.042 l 0.065,0.042 h 0.15 q 0.664,0 0.881,0.516 0.022,0.085 0.022,0.173 v 0.02 q 0,0.42 -0.45,0.603 l -0.13,0.022 h -0.173 q -0.433,0 -0.687,-0.645 -0.042,-0.107 -0.064,-0.409 0,-1.042 1.073,-1.911 0.194,-0.151 0.345,-0.151 z m -1.073,2.17 q 0,0.231 0.236,0.515 0.17,0.108 0.28,0.108 0.3,-0.086 0.3,-0.28 v -0.064 q 0,-0.245 -0.58,-0.344 h -0.107 q -0.077,0 -0.129,0.064 z" />
  <g
     id="g1347"
     word-spacing="0"
     letter-spacing="0"
     font-size="2.799"
     font-weight="400"
     style="font-weight:400;font-size:2.79900002px;line-height:1.25;font-family:'Casual Caps';letter-spacing:0;word-spacing:0;fill:#c8c8c8;stroke-width:0.175"
     aria-label="CLEAR"
     transform="translate(-26.543,-161.307)">
    <path
       inkscape:connector-curvature="0"
       id="path1343"
       style="-inkscape-font-specification:'Casual Caps'"
       d="m 42.504,218.668 0.093,-0.02 q 0.226,-0.02 0.267,0.169 -0.01,0.104 -0.054,0.127 -0.094,0.02 -0.145,-0.009 -0.051,-0.03 -0.06,-0.027 l -0.03,0.006 q -0.262,0.127 -0.468,0.545 -0.212,0.515 -0.142,0.83 l 0.007,0.03 q 0.146,0.41 0.597,0.343 0.331,-0.073 0.669,-0.377 0.03,-0.018 0.057,-0.024 0.078,-0.017 0.13,0.065 0.018,0.078 -0.032,0.163 -0.05,0.084 -0.483,0.31 -0.118,0.06 -0.258,0.09 l -0.031,0.007 q -0.546,0.12 -0.815,-0.294 -0.068,-0.156 -0.087,-0.242 -0.144,-0.65 0.422,-1.416 0.208,-0.242 0.363,-0.276 z m 0.738,-0.244 q 0.027,-0.087 0.109,-0.105 h 0.002 q 0.083,-0.018 0.126,0.068 l 0.024,0.11 0.306,1.826 q 0.057,0.194 0.162,0.171 0.004,0 0.006,-0.003 0.111,-0.03 0.246,-0.145 0.027,-0.017 0.052,-0.023 0.047,-0.01 0.082,0.023 0.032,0.03 0.04,0.067 0.006,0.026 0,0.057 -0.134,0.225 -0.38,0.28 l -0.025,0.005 q -0.162,0.036 -0.255,-0.027 -0.099,-0.068 -0.153,-0.315 l -0.002,-0.008 q -0.09,-0.403 -0.34,-1.981 z" />
    <path
       inkscape:connector-curvature="0"
       id="path1345"
       style="-inkscape-font-specification:'Casual Caps'"
       d="m 44.48,218.085 0.156,-0.035 q 0.342,-0.075 0.383,0.112 l 0.007,0.03 q 0.005,0.022 -0.06,0.096 l -0.063,0.014 q -0.192,-0.023 -0.308,0.002 -0.393,0.087 -0.396,0.35 -0.05,0.145 0.012,0.65 l 0.035,0.008 q 0.336,-0.172 0.445,-0.196 0.022,-0.005 0.096,0.06 l 0.017,0.077 q 0.015,0.067 -0.222,0.18 -0.279,0.137 -0.27,0.174 l 0.003,0.016 q 0.163,0.511 0.425,0.526 0.09,-0.003 0.128,-0.011 0.019,-0.004 0.28,-0.143 0.068,0.007 0.11,0.057 l 0.02,0.093 q -0.07,0.163 -0.312,0.216 l -0.124,0.027 q -0.486,0.108 -0.763,-0.647 -0.049,-0.146 -0.081,-0.293 l -0.007,-0.03 q -0.184,-0.834 0.118,-1.17 0.15,-0.114 0.371,-0.163 z m 0.962,-0.311 q 0.201,-0.044 0.525,0.75 0.284,0.541 0.715,1.54 l 0.007,0.031 q -0.023,0.086 -0.107,0.105 -0.126,0.028 -0.253,-0.336 -0.051,-0.119 -0.106,-0.107 -0.58,0.256 -0.568,0.305 0.033,0.15 -0.062,0.242 l -0.077,0.017 q -0.021,0.005 -0.096,-0.06 -0.16,-1.324 -0.15,-2.008 0.002,-0.441 0.172,-0.479 z m 0.092,0.487 q 0.002,1.119 0.08,1.467 0.032,0.01 0.05,0.006 0.438,-0.18 0.482,-0.254 -0.563,-1.23 -0.612,-1.22 z m 1.236,-0.616 0.064,-0.014 q 0.616,-0.136 1.013,0.151 0.042,0.044 0.051,0.087 l 0.02,0.093 q 0.056,0.248 -0.73,0.684 -0.238,0.107 -0.229,0.148 0.01,0.042 0.436,0.198 0.815,0.238 0.932,0.3 l 0.022,0.028 0.017,0.077 q -0.023,0.088 -0.107,0.107 -0.737,-0.157 -1.338,-0.44 -0.04,0.01 -0.224,-0.13 l -0.016,0.003 -0.009,0.035 q 0.22,0.548 0.255,0.711 l 0.035,0.156 q -0.023,0.086 -0.107,0.105 -0.063,0.014 -0.127,-0.053 l -0.003,-0.016 q -0.025,-0.112 -0.409,-1.184 l -0.027,-0.124 q -0.172,-0.778 0.482,-0.922 z m -0.245,0.804 0.061,0.28 q 0.013,0.031 0.038,0.026 0.057,-0.16 0.608,-0.429 0.377,-0.224 0.416,-0.336 -0.042,-0.187 -0.795,-0.119 -0.408,0.142 -0.34,0.45 -0.012,0.02 0.012,0.128 z" />
  </g>
  <path
     style="fill:#ff6e0f;stroke:#950e00;stroke-width:0.18841808"
     inkscape:connector-curvature="0"
     id="path1349"
     d="m 33.237667,45.960353 c 0,0 -2.865578,1.926187 -4.559416,2.508015 -1.693837,0.581331 -4.820464,1.126918 -4.820464,1.126918 0,0 0.586721,0.653812 1.693837,0.581332 1.107117,-0.07248 2.670005,-0.181697 2.670005,-0.181697 0,0 -2.083284,1.236135 -4.038169,1.272375 -1.954036,0.03624 -4.885089,-0.36389 -4.885089,-0.36389 0,0 -0.195573,0.581827 0.911543,0.872741 1.107967,0.290418 4.430167,0.181697 4.430167,0.181697 0,0 -4.62574,2.180861 -9.706402,1.599034 -5.0806624,-0.581332 -8.5984362,-2.834673 -8.5984362,-2.834673 0,0 2.6700048,0.980966 5.0160372,0.508355 2.345183,-0.472611 3.647873,-1.344856 3.647873,-1.344856 0,0 -1.238066,0.218433 -1.954885,0.254674 -0.71597,0.03624 -1.888561,-0.03624 -1.888561,-0.03624 0,0 1.368165,-1.272375 3.647873,-1.563289 2.279708,-0.290914 6.448827,-0.218434 6.448827,-0.218434 0,0 -2.931053,-0.763028 -3.777972,-0.908485 -0.846919,-0.145457 -3.061152,-0.327154 -3.061152,-0.327154 l 1.30184,-0.435874 c 0,0 -0.911543,-0.436371 -2.344333,-0.290914 -1.433639,0.145457 -2.476131,0.399634 -2.476131,0.399634 0,0 0.261048,-0.472611 0.977868,-0.581331 0.715969,-0.109217 1.823936,-0.254674 1.823936,-0.254674 0,0 -2.052672,-0.654308 -4.2669057,-0.290417 -2.2150836,0.363394 -3.7779718,1.14479 -3.7779718,1.14479 0,0 1.3350024,-2.035404 4.3961545,-2.853537 3.062002,-0.817636 5.081512,-0.799268 6.481989,-0.690051 1.400477,0.10872 3.713348,0.453746 5.113825,0.980965 1.400477,0.527219 1.823936,0.745157 1.823936,0.745157 0,0 -2.931903,-0.454243 -3.843446,-0.508851 -0.912394,-0.05461 -2.866429,0.145456 -2.866429,0.145456 0,0 1.856249,1.017702 4.071332,1.435705 2.215084,0.418002 4.787302,0.963094 6.742187,0.799268 1.954036,-0.163328 5.666533,-0.871748 5.666533,-0.871748 z" />
  <path
     style="fill:#ffba1a;stroke:#ff8a0d;stroke-width:0.32615817;stroke-opacity:0.99500002"
     inkscape:connector-curvature="0"
     id="path1351"
     d="m 30.430761,46.917489 c -1.153885,0.193612 -1.75251,0.340558 -2.780547,0.426938 -2.323924,0.194108 -4.935257,-0.405095 -7.127382,-0.818629 -2.47018,-0.466157 -4.394454,-1.547404 -4.394454,-1.547404 a 0.85967352,0.50190084 0 0 1 0.439616,-0.86033 c 0,0 0.507641,-0.05213 1.134327,-0.09681 0.191322,-0.0139 0.397949,-0.005 0.601176,-0.01638 -0.697263,-0.111699 -1.414933,-0.218434 -1.927676,-0.258149 -1.306091,-0.101274 -3.084961,-0.132053 -6.011762,0.64984 -0.9217469,0.245738 -1.618159,0.633457 -2.2142333,1.031602 0.3639369,-0.08737 0.5935233,-0.195101 1.0042279,-0.263113 2.6070814,-0.427435 4.9114484,0.334104 4.9114484,0.334104 a 0.85967352,0.50190084 0 0 1 0.444717,0.461689 c 0.970215,0.109217 1.707443,0.317722 1.707443,0.317722 a 0.85967352,0.50190084 0 0 1 0.273803,0.542112 c 0.524647,0.05461 0.792498,0.05957 1.182795,0.127089 0.556109,0.09532 1.455748,0.318218 2.301816,0.529205 0.846069,0.210987 1.584146,0.402116 1.584146,0.402116 a 0.85967352,0.50190084 0 0 1 -0.374991,0.960115 c 0,0 -4.203982,-0.05213 -6.241349,0.207512 -0.748281,0.09532 -1.364763,0.339565 -1.876656,0.590764 0.565463,-0.04816 1.641118,-0.216448 1.641118,-0.216448 a 0.85967352,0.50190084 0 0 1 0.896237,0.809197 c 0,0 -1.454897,0.974015 -4.015211,1.48932 -0.518695,0.104749 -1.022085,0.104253 -1.522923,0.114181 1.358811,0.510341 3.013534,1.020185 4.991378,1.246561 2.604531,0.297864 4.880837,-0.171768 6.597633,-0.680123 -0.634338,-0.02333 -1.291636,-0.0069 -1.838392,-0.150917 -0.766988,-0.201059 -1.198951,-0.566935 -1.346056,-0.863806 -0.145405,-0.296871 -0.05782,-0.563459 -0.05782,-0.563459 a 0.85967352,0.50190084 0 0 1 1.039941,-0.391692 c 0,0 2.935305,0.383252 4.661455,0.350984 0.188771,-0.0035 0.420908,-0.118153 0.636039,-0.15489 -1.11647,-0.180704 -1.697239,-0.783382 -1.697239,-0.783382 a 0.85967352,0.50190084 0 0 1 0.516995,-0.713881 c 0,0 3.134279,-0.563956 4.631693,-1.078267 0.547606,-0.188151 1.43449,-0.681613 2.227838,-1.133373 z" />
  <g
     id="g1357"
     word-spacing="0"
     letter-spacing="0"
     font-size="2.799"
     font-weight="400"
     style="font-weight:400;font-size:2.79900002px;line-height:1.25;font-family:'Casual Caps';letter-spacing:0;word-spacing:0;fill:#c8c8c8;stroke:#ca4c07;stroke-width:0.096;stroke-opacity:0.997"
     aria-label="LEN"
     transform="translate(-26.543,-161.307)">
    <path
       inkscape:connector-curvature="0"
       id="path1353"
       style="-inkscape-font-specification:'Casual Caps'"
       d="m 31.83,214.262 q 0.064,-0.065 0.144,-0.043 h 0.003 q 0.081,0.025 0.08,0.12 l -0.03,0.108 -0.581,1.759 q -0.04,0.198 0.064,0.227 h 0.007 q 0.112,0.025 0.284,-0.014 0.032,-0.002 0.057,0.004 0.046,0.013 0.062,0.059 0.015,0.04 0.005,0.077 -0.008,0.027 -0.027,0.051 -0.223,0.137 -0.466,0.07 l -0.025,-0.006 q -0.16,-0.044 -0.213,-0.143 -0.056,-0.106 0.01,-0.35 l 0.003,-0.008 q 0.109,-0.398 0.623,-1.911 z" />
    <path
       inkscape:connector-curvature="0"
       id="path1355"
       style="-inkscape-font-specification:'Casual Caps'"
       d="m 33.083,214.538 0.154,0.043 q 0.338,0.092 0.287,0.277 l -0.008,0.03 q -0.006,0.02 -0.098,0.057 l -0.062,-0.017 q -0.16,-0.11 -0.274,-0.142 -0.388,-0.106 -0.513,0.124 -0.113,0.106 -0.292,0.58 l 0.027,0.025 q 0.377,0.004 0.485,0.034 0.021,0.006 0.057,0.098 l -0.02,0.076 q -0.019,0.066 -0.281,0.057 -0.31,-0.01 -0.32,0.027 l -0.005,0.015 q -0.094,0.529 0.131,0.664 0.08,0.04 0.118,0.05 0.019,0.005 0.314,0.003 0.058,0.039 0.071,0.102 l -0.025,0.092 q -0.138,0.111 -0.377,0.046 l -0.122,-0.034 q -0.48,-0.131 -0.374,-0.928 0.025,-0.152 0.065,-0.297 l 0.008,-0.03 q 0.226,-0.824 0.65,-0.98 0.185,-0.032 0.404,0.028 z m 1.942,0.465 q 0.062,0.046 0.081,0.122 l -0.009,0.032 q -0.35,0.614 -0.977,1.88 l -0.094,0.04 -0.107,-0.028 q -0.127,-0.035 -0.064,-1.34 -0.007,-0.168 -0.034,-0.175 -0.2,0.251 -0.619,1.235 -0.08,0.292 -0.188,0.263 l -0.03,-0.008 q -0.063,-0.017 -0.088,-0.107 0.167,-0.609 0.76,-1.626 0.155,-0.206 0.294,-0.168 0.197,0.054 0.146,0.734 l 0.002,0.596 0.015,0.004 q 0.037,-0.014 0.425,-0.826 0.336,-0.612 0.404,-0.633 z" />
  </g>
  <path
     style="fill:#ff6e0f;stroke:#950e00;stroke-width:0.18841808"
     inkscape:connector-curvature="0"
     id="path1359"
     d="m 10.022333,37.712647 c 0,0 2.865578,-1.926187 4.559416,-2.508015 1.693837,-0.581331 4.820464,-1.126918 4.820464,-1.126918 0,0 -0.586721,-0.653812 -1.693837,-0.581332 -1.107117,0.07248 -2.670005,0.181697 -2.670005,0.181697 0,0 2.083284,-1.236135 4.038169,-1.272375 1.954036,-0.03624 4.885089,0.36389 4.885089,0.36389 0,0 0.195573,-0.581827 -0.911543,-0.872741 -1.107967,-0.290418 -4.430167,-0.181697 -4.430167,-0.181697 0,0 4.62574,-2.180861 9.706402,-1.599034 5.080662,0.581332 8.598436,2.834673 8.598436,2.834673 0,0 -2.670005,-0.980966 -5.016037,-0.508355 -2.345183,0.472611 -3.647873,1.344856 -3.647873,1.344856 0,0 1.238066,-0.218433 1.954885,-0.254674 0.71597,-0.03624 1.888561,0.03624 1.888561,0.03624 0,0 -1.368165,1.272375 -3.647873,1.563289 -2.279708,0.290914 -6.448827,0.218434 -6.448827,0.218434 0,0 2.931053,0.763028 3.777972,0.908485 0.846919,0.145457 3.061152,0.327154 3.061152,0.327154 l -1.30184,0.435874 c 0,0 0.911543,0.436371 2.344333,0.290914 1.433639,-0.145457 2.476131,-0.399634 2.476131,-0.399634 0,0 -0.261048,0.472611 -0.977868,0.581331 -0.715969,0.109217 -1.823936,0.254674 -1.823936,0.254674 0,0 2.052672,0.654308 4.266906,0.290417 2.215083,-0.363394 3.777971,-1.14479 3.777971,-1.14479 0,0 -1.335002,2.035404 -4.396154,2.853537 -3.062002,0.817636 -5.081512,0.799268 -6.481989,0.690051 -1.400477,-0.10872 -3.713348,-0.453746 -5.113825,-0.980965 -1.400477,-0.527219 -1.823936,-0.745157 -1.823936,-0.745157 0,0 2.931903,0.454243 3.843446,0.508851 0.912394,0.05461 2.866429,-0.145456 2.866429,-0.145456 0,0 -1.856249,-1.017702 -4.071332,-1.435705 -2.215084,-0.418002 -4.787302,-0.963094 -6.742187,-0.799268 -1.954036,0.163328 -5.666533,0.871748 -5.666533,0.871748 z" />
  <path
     style="fill:#ffba1a;stroke:#ff8a0d;stroke-width:0.32615817;stroke-opacity:0.99500002"
     inkscape:connector-curvature="0"
     id="path1361"
     d="m 12.829239,36.755511 c 1.153885,-0.193612 1.75251,-0.340558 2.780547,-0.426938 2.323924,-0.194108 4.935257,0.405095 7.127382,0.818629 2.47018,0.466157 4.394454,1.547404 4.394454,1.547404 a 0.85967352,0.50190084 0 0 1 -0.439616,0.86033 c 0,0 -0.507641,0.05213 -1.134327,0.09681 -0.191322,0.0139 -0.397949,0.005 -0.601176,0.01638 0.697263,0.111699 1.414933,0.218434 1.927676,0.258149 1.306091,0.101274 3.084961,0.132053 6.011762,-0.64984 0.921747,-0.245738 1.618159,-0.633457 2.214233,-1.031602 -0.363937,0.08737 -0.593523,0.195101 -1.004228,0.263113 -2.607081,0.427435 -4.911448,-0.334104 -4.911448,-0.334104 a 0.85967352,0.50190084 0 0 1 -0.444717,-0.461689 c -0.970215,-0.109217 -1.707443,-0.317722 -1.707443,-0.317722 a 0.85967352,0.50190084 0 0 1 -0.273803,-0.542112 c -0.524647,-0.05461 -0.792498,-0.05957 -1.182795,-0.127089 -0.556109,-0.09532 -1.455748,-0.318218 -2.301816,-0.529205 -0.846069,-0.210987 -1.584146,-0.402116 -1.584146,-0.402116 a 0.85967352,0.50190084 0 0 1 0.374991,-0.960115 c 0,0 4.203982,0.05213 6.241349,-0.207512 0.748281,-0.09532 1.364763,-0.339565 1.876656,-0.590764 -0.565463,0.04816 -1.641118,0.216448 -1.641118,0.216448 a 0.85967352,0.50190084 0 0 1 -0.896237,-0.809197 c 0,0 1.454897,-0.974015 4.015211,-1.48932 0.518695,-0.104749 1.022085,-0.104253 1.522923,-0.114181 -1.358811,-0.510341 -3.013534,-1.020185 -4.991378,-1.246561 -2.604531,-0.297864 -4.880837,0.171768 -6.597633,0.680123 0.634338,0.02333 1.291636,0.0069 1.838392,0.150917 0.766988,0.201059 1.198951,0.566935 1.346056,0.863806 0.145405,0.296871 0.05782,0.563459 0.05782,0.563459 a 0.85967352,0.50190084 0 0 1 -1.039941,0.391692 c 0,0 -2.935305,-0.383252 -4.661455,-0.350984 -0.188771,0.0035 -0.420908,0.118153 -0.636039,0.15489 1.11647,0.180704 1.697239,0.783382 1.697239,0.783382 a 0.85967352,0.50190084 0 0 1 -0.516995,0.713881 c 0,0 -3.134279,0.563956 -4.631693,1.078267 -0.547606,0.188151 -1.43449,0.681613 -2.227838,1.133373 z" />
  <g
     id="g1365"
     word-spacing="0"
     letter-spacing="0"
     font-size="2.799"
     font-weight="400"
     style="font-weight:400;font-size:2.79900002px;line-height:1.25;font-family:'Casual Caps';letter-spacing:0;word-spacing:0;fill:#c8c8c8;stroke:#ca4c07;stroke-width:0.096;stroke-opacity:0.997"
     aria-label="CHAN"
     transform="translate(-26.543,-161.307)">
    <path
       inkscape:connector-curvature="0"
       id="path1363"
       style="-inkscape-font-specification:'Casual Caps'"
       d="m 61.928,201.923 0.091,-0.03 q 0.223,-0.04 0.283,0.142 0,0.105 -0.042,0.132 -0.091,0.03 -0.145,0.006 -0.054,-0.025 -0.062,-0.022 l -0.03,0.01 q -0.248,0.151 -0.412,0.587 -0.16,0.534 -0.06,0.84 l 0.01,0.03 q 0.185,0.393 0.628,0.283 0.322,-0.105 0.628,-0.441 0.028,-0.02 0.055,-0.03 0.076,-0.024 0.137,0.052 0.024,0.076 -0.017,0.165 -0.042,0.089 -0.45,0.356 -0.112,0.071 -0.249,0.116 l -0.03,0.01 q -0.531,0.173 -0.84,-0.214 -0.083,-0.148 -0.11,-0.231 -0.207,-0.634 0.281,-1.45 0.184,-0.262 0.334,-0.311 z m 0.728,-0.472 q 0.088,-0.029 0.17,0.06 0.112,0.496 0.366,1.273 l 0.044,0.137 0.045,0.035 0.102,-0.049 0.5,-0.163 q 0.06,-0.02 -0.025,-0.278 -0.126,-0.386 -0.369,-1.237 0.04,-0.063 0.09,-0.08 l 0.016,-0.005 q 0.124,-0.029 0.155,0.066 0.097,0.398 0.594,2.02 0.019,0.057 -0.052,0.15 l -0.03,0.011 q -0.125,0.03 -0.156,-0.066 -0.06,-0.235 -0.088,-0.323 -0.01,-0.031 -0.304,0.049 -0.27,0.103 -0.359,0.133 -0.017,0.047 -0.01,0.07 0.146,0.394 0.17,0.466 l -0.058,0.084 -0.075,0.025 q -0.108,-0.022 -0.14,-0.12 -0.071,-0.22 -0.209,-0.587 -0.368,-1.18 -0.415,-1.424 -0.032,-0.052 -0.059,-0.132 0.056,-0.102 0.097,-0.115 z m 1.646,-0.555 q 0.196,-0.064 0.596,0.694 0.335,0.512 0.863,1.462 l 0.01,0.031 q -0.014,0.088 -0.096,0.115 -0.124,0.04 -0.285,-0.31 -0.063,-0.112 -0.116,-0.095 -0.552,0.31 -0.536,0.359 0.048,0.147 -0.037,0.246 l -0.076,0.025 q -0.02,0.007 -0.1,-0.05 -0.29,-1.302 -0.347,-1.984 -0.041,-0.439 0.124,-0.493 z m 0.14,0.475 q 0.111,1.114 0.222,1.453 0.034,0.006 0.05,0 0.42,-0.221 0.456,-0.3 -0.68,-1.169 -0.729,-1.153 z m 2.151,-1.191 q 0.077,0.004 0.135,0.057 l 0.01,0.032 q 0.046,0.705 0.22,2.108 l -0.057,0.086 -0.105,0.034 q -0.125,0.04 -0.79,-1.083 -0.099,-0.136 -0.126,-0.128 -0.029,0.32 0.163,1.372 0.095,0.288 -0.012,0.323 l -0.03,0.01 q -0.06,0.02 -0.131,-0.04 -0.196,-0.6 -0.261,-1.777 0.015,-0.257 0.153,-0.302 0.194,-0.063 0.526,0.533 l 0.33,0.496 0.015,-0.005 q 0.022,-0.032 -0.1,-0.923 -0.057,-0.696 -0.011,-0.751 z" />
  </g>
  <g
     id="g1369"
     word-spacing="0"
     letter-spacing="0"
     font-size="2.799"
     font-weight="400"
     style="font-weight:400;font-size:2.79900002px;line-height:1.25;font-family:'Casual Caps';letter-spacing:0;word-spacing:0;fill:#c8c8c8;stroke-width:0.175"
     aria-label="DEL"
     transform="translate(-26.543,-161.307)">
    <path
       inkscape:connector-curvature="0"
       id="path1367"
       style="-inkscape-font-specification:'Casual Caps'"
       d="m 73.88,218.313 0.093,-0.022 q 0.162,-0.039 0.905,0.637 0.425,0.409 0.51,0.764 0.121,0.51 -0.67,0.897 -0.13,0.046 -0.215,0.067 -0.114,0 -0.13,-0.068 -0.367,-1.19 -0.525,-1.857 l -0.04,-0.17 q -0.034,-0.14 0.072,-0.248 z m 0.205,0.312 -0.008,0.035 q 0.2,0.77 0.48,1.672 0.045,0.022 0.07,0.016 0.587,-0.286 0.51,-0.613 l -0.004,-0.016 q -0.095,-0.395 -1.013,-1.085 z m 1.78,-0.817 0.155,-0.037 q 0.34,-0.081 0.385,0.105 l 0.007,0.03 q 0.005,0.022 -0.058,0.097 l -0.063,0.015 q -0.193,-0.02 -0.309,0.008 -0.39,0.093 -0.39,0.355 -0.048,0.147 0.023,0.65 l 0.036,0.008 q 0.332,-0.178 0.441,-0.203 0.022,-0.006 0.097,0.058 l 0.019,0.077 q 0.015,0.067 -0.22,0.184 -0.276,0.14 -0.267,0.178 l 0.003,0.016 q 0.172,0.508 0.435,0.519 0.088,-0.004 0.127,-0.014 0.019,-0.004 0.277,-0.147 0.069,0.006 0.111,0.055 l 0.022,0.093 q -0.067,0.164 -0.308,0.221 l -0.124,0.03 q -0.484,0.115 -0.773,-0.635 -0.052,-0.146 -0.087,-0.292 l -0.007,-0.03 q -0.198,-0.831 0.099,-1.172 0.148,-0.116 0.369,-0.169 z m 0.629,-0.084 q 0.025,-0.087 0.106,-0.107 h 0.003 q 0.083,-0.019 0.127,0.066 l 0.026,0.11 0.335,1.82 q 0.06,0.194 0.165,0.169 l 0.007,-0.003 q 0.11,-0.032 0.242,-0.15 0.027,-0.017 0.052,-0.023 0.047,-0.01 0.083,0.021 0.032,0.03 0.04,0.067 0.007,0.026 0.002,0.057 -0.13,0.228 -0.375,0.286 l -0.025,0.006 q -0.162,0.038 -0.256,-0.024 -0.1,-0.066 -0.158,-0.312 l -0.002,-0.008 q -0.096,-0.401 -0.372,-1.975 z" />
  </g>
  <g
     id="g1373"
     word-spacing="0"
     letter-spacing="0"
     font-size="2.799"
     font-weight="400"
     style="font-weight:400;font-size:2.79900002px;line-height:1.25;font-family:'Casual Caps';letter-spacing:0;word-spacing:0;fill:#c8c8c8;stroke-width:0.175"
     aria-label="FILL"
     transform="translate(-26.543,-161.307)">
    <path
       inkscape:connector-curvature="0"
       id="path1371"
       style="-inkscape-font-specification:'Casual Caps'"
       d="m 85.355,232.027 0.078,-0.018 q 0.389,-0.088 0.537,0.057 l 0.014,0.063 q 0.005,0.02 -0.06,0.095 l -0.062,0.014 q -0.32,-0.008 -0.438,0.019 -0.369,0.084 -0.442,0.427 -0.02,0.197 0.023,0.388 l 0.032,0.14 q 0.025,0.11 0.07,0.163 0.283,-0.082 0.415,-0.112 l 0.093,-0.021 q 0.022,-0.005 0.097,0.06 l 0.018,0.078 q 0.02,0.093 -0.399,0.189 -0.152,0.052 -0.141,0.098 0.16,0.411 0.2,0.592 l 0.018,0.077 q 0.005,0.022 -0.06,0.095 l -0.078,0.018 q -0.088,-0.026 -0.099,-0.075 -0.319,-0.896 -0.368,-1.11 l -0.053,-0.233 q -0.131,-0.577 0.305,-0.886 0.126,-0.078 0.3,-0.118 z m 0.823,-0.057 0.342,-0.078 q 0.084,-0.02 0.142,0.049 l 0.02,0.093 -0.098,0.138 q 0.013,0.42 0.174,1.481 0.193,0.037 0.215,0.081 l 0.02,0.094 q 0.006,0.02 -0.059,0.095 l -0.016,0.003 q -0.212,0 -0.228,0.003 l -0.016,0.004 q -0.143,0.066 -0.163,0.07 l -0.03,0.008 q -0.088,-0.022 -0.108,-0.108 l -0.007,-0.03 q 0,-0.045 0.128,-0.16 -0.136,-1.167 -0.16,-1.485 -0.148,-0.015 -0.214,-0.08 L 86.11,232.1 q 0.01,-0.076 0.068,-0.13 z m 0.562,-0.21 q 0.026,-0.087 0.107,-0.105 l 0.003,-0.001 q 0.083,-0.018 0.126,0.068 l 0.025,0.11 0.318,1.823 q 0.058,0.195 0.164,0.17 0.004,0 0.006,-0.002 0.11,-0.031 0.244,-0.147 0.027,-0.018 0.052,-0.023 0.047,-0.01 0.082,0.022 0.032,0.029 0.04,0.066 0.007,0.027 0.001,0.058 -0.132,0.226 -0.377,0.282 l -0.025,0.006 q -0.163,0.037 -0.256,-0.026 -0.1,-0.067 -0.155,-0.314 l -0.002,-0.008 q -0.092,-0.402 -0.353,-1.979 z m 0.895,-0.204 q 0.026,-0.087 0.108,-0.106 h 0.002 q 0.083,-0.018 0.127,0.068 l 0.025,0.109 0.317,1.824 q 0.059,0.194 0.164,0.17 0.004,0 0.006,-0.003 0.111,-0.03 0.244,-0.146 0.027,-0.018 0.053,-0.024 0.046,-0.01 0.082,0.022 0.032,0.03 0.04,0.067 0.006,0.027 0,0.057 -0.131,0.227 -0.377,0.283 l -0.025,0.005 q -0.162,0.037 -0.255,-0.026 -0.1,-0.067 -0.156,-0.313 l -0.002,-0.008 q -0.092,-0.403 -0.353,-1.979 z" />
  </g>
  <g
     id="g1381"
     word-spacing="0"
     letter-spacing="0"
     font-size="2.799"
     font-weight="400"
     style="font-weight:400;font-size:2.79900002px;line-height:1.25;font-family:'Casual Caps';letter-spacing:0;word-spacing:0;fill:#c8c8c8;stroke-width:0.175"
     aria-label="RESET"
     transform="translate(-26.543,-161.307)">
    <path
       inkscape:connector-curvature="0"
       id="path1375"
       style="-inkscape-font-specification:'Casual Caps'"
       d="m 30.795,232.495 0.062,-0.018 q 0.609,-0.167 1.02,0.1 0.044,0.041 0.056,0.083 l 0.025,0.093 q 0.068,0.245 -0.695,0.72 -0.232,0.12 -0.22,0.16 0.01,0.04 0.445,0.175 0.826,0.196 0.947,0.252 l 0.022,0.027 0.021,0.076 q -0.018,0.089 -0.1,0.111 -0.745,-0.118 -1.36,-0.37 -0.04,0.012 -0.23,-0.119 l -0.016,0.005 -0.007,0.036 q 0.247,0.535 0.291,0.696 l 0.043,0.154 q -0.019,0.088 -0.102,0.11 -0.062,0.018 -0.129,-0.046 l -0.004,-0.016 q -0.03,-0.11 -0.469,-1.16 l -0.034,-0.123 q -0.211,-0.769 0.434,-0.946 z m -0.204,0.816 0.076,0.277 q 0.014,0.03 0.039,0.023 0.049,-0.163 0.585,-0.46 0.365,-0.243 0.398,-0.357 -0.051,-0.184 -0.8,-0.077 -0.4,0.163 -0.316,0.467 -0.012,0.02 0.018,0.127 z m 2.071,-1.398 0.155,-0.042 q 0.337,-0.093 0.388,0.091 l 0.008,0.03 q 0.006,0.022 -0.055,0.1 l -0.062,0.017 q -0.193,-0.014 -0.308,0.018 -0.387,0.107 -0.378,0.37 -0.042,0.147 0.046,0.647 l 0.036,0.007 q 0.326,-0.189 0.434,-0.219 0.021,-0.005 0.099,0.055 l 0.021,0.077 q 0.018,0.066 -0.212,0.192 -0.272,0.15 -0.262,0.187 l 0.004,0.015 q 0.19,0.502 0.452,0.504 0.09,-0.008 0.127,-0.018 0.019,-0.005 0.272,-0.157 0.069,0.003 0.113,0.05 l 0.025,0.093 q -0.062,0.166 -0.3,0.232 l -0.123,0.033 q -0.48,0.133 -0.795,-0.607 -0.056,-0.143 -0.096,-0.288 l -0.009,-0.03 q -0.227,-0.824 0.058,-1.174 0.144,-0.122 0.362,-0.183 z" />
    <path
       inkscape:connector-curvature="0"
       id="path1377"
       style="-inkscape-font-specification:'Casual Caps'"
       d="m 34.236,231.745 0.17,-0.047 q 0.34,-0.094 0.555,0.095 0.027,0.035 0.035,0.066 0.01,0.035 -0.004,0.066 -0.016,0.039 -0.072,0.054 -0.03,0.008 -0.07,0.01 -0.202,-0.11 -0.488,-0.03 -0.622,0.17 -0.94,0.787 -0.039,0.101 -0.015,0.186 0.033,0.122 0.44,0.01 0.408,-0.112 0.699,-0.136 0.291,-0.023 0.375,0.283 0.085,0.305 -0.342,0.678 -0.112,0.08 -0.217,0.11 l -0.047,0.012 q -0.456,0.082 -0.568,-0.324 l -0.017,-0.06 q -0.023,-0.083 0.08,-0.126 l 0.02,-0.005 q 0.089,-0.025 0.126,0.08 0.04,0.118 0.112,0.169 0.07,0.05 0.148,0.029 l 0.092,-0.026 q 0.426,-0.256 0.368,-0.466 0,-0.008 -0.003,-0.017 -0.047,-0.169 -0.55,-0.037 -0.53,0.14 -0.702,0.134 -0.174,-0.008 -0.256,-0.224 -0.13,-0.468 0.601,-1.06 0.246,-0.15 0.47,-0.211 z m 1.388,-0.648 0.155,-0.042 q 0.337,-0.093 0.388,0.091 l 0.008,0.03 q 0.006,0.022 -0.055,0.1 l -0.062,0.016 q -0.193,-0.013 -0.308,0.019 -0.387,0.107 -0.378,0.369 -0.042,0.148 0.046,0.648 l 0.036,0.007 q 0.326,-0.189 0.434,-0.219 0.021,-0.006 0.099,0.055 l 0.021,0.077 q 0.018,0.066 -0.212,0.191 -0.272,0.15 -0.262,0.187 l 0.004,0.016 q 0.19,0.502 0.452,0.504 0.09,-0.008 0.127,-0.018 0.019,-0.005 0.272,-0.157 0.069,0.003 0.113,0.05 l 0.025,0.093 q -0.062,0.166 -0.3,0.232 l -0.123,0.033 q -0.48,0.132 -0.795,-0.607 -0.056,-0.143 -0.096,-0.288 l -0.009,-0.03 q -0.227,-0.824 0.058,-1.175 0.144,-0.121 0.362,-0.182 z" />
    <path
       inkscape:connector-curvature="0"
       id="path1379"
       style="-inkscape-font-specification:'Casual Caps'"
       d="m 37.257,230.895 q 0.081,0.052 0.083,0.06 l 0.022,0.078 q 0.025,0.092 -0.267,0.172 l -0.123,0.034 q -0.022,0.006 -0.033,0.059 0.018,0.067 0.174,0.695 0.053,0.19 0.354,1.043 -0.047,0.08 -0.105,0.096 -0.139,0.038 -0.249,-0.361 -0.106,-0.263 -0.222,-0.683 l -0.195,-0.708 q -0.006,-0.02 -0.057,-0.033 -0.052,0.014 -0.326,0.139 l -0.046,0.013 q -0.024,0.006 -0.079,-0.044 l -0.025,-0.092 q -0.043,-0.154 1.094,-0.468 z" />
  </g>
  <g
     id="g1385"
     word-spacing="0"
     letter-spacing="0"
     font-size="2.799"
     font-weight="400"
     style="font-weight:400;font-size:2.79900002px;line-height:1.25;font-family:'Casual Caps';letter-spacing:0;word-spacing:0;fill:#c8c8c8;stroke-width:0.175"
     aria-label="CLK"
     transform="translate(-26.543,-161.307)">
    <path
       inkscape:connector-curvature="0"
       id="path1383"
       style="-inkscape-font-specification:'Casual Caps'"
       d="m 32.894,189.98 h 0.095 q 0.225,0.03 0.225,0.222 -0.033,0.1 -0.081,0.112 -0.096,0 -0.14,-0.04 -0.043,-0.039 -0.051,-0.039 H 32.91 q -0.283,0.067 -0.574,0.43 -0.318,0.458 -0.318,0.781 v 0.031 q 0.054,0.43 0.51,0.464 0.338,0 0.733,-0.224 0.033,-0.011 0.062,-0.011 0.08,0 0.113,0.091 0,0.08 -0.067,0.152 -0.067,0.071 -0.538,0.198 -0.129,0.033 -0.272,0.033 h -0.031 q -0.56,0 -0.733,-0.463 -0.033,-0.167 -0.033,-0.255 0,-0.667 0.718,-1.291 0.255,-0.192 0.414,-0.192 z m 0.773,-0.08 q 0.045,-0.08 0.129,-0.08 h 0.003 q 0.084,0.002 0.108,0.095 v 0.112 l -0.096,1.85 q 0.014,0.202 0.122,0.202 0.004,0 0.006,-0.002 0.115,-0.005 0.271,-0.088 0.03,-0.011 0.056,-0.011 0.048,0 0.075,0.04 0.025,0.035 0.025,0.073 0,0.027 -0.013,0.056 -0.179,0.191 -0.43,0.191 h -0.026 q -0.167,0 -0.243,-0.082 -0.082,-0.087 -0.082,-0.34 v -0.008 q 0,-0.413 0.095,-2.008 z m 1.143,-0.08 q 0.098,0 0.11,0.128 v 0.015 q 0,0.126 -0.062,0.495 l 0.031,0.016 q 0.54,-0.417 0.701,-0.59 h 0.08 q 0.022,0 0.08,0.08 v 0.111 q -0.078,0.094 -0.796,0.686 -0.144,0.159 -0.144,0.238 0.078,0.216 0.701,1.165 0.032,0.051 0.032,0.095 v 0.032 q 0,0.021 -0.08,0.08 h -0.095 q -0.06,-0.033 -0.527,-0.782 0,-0.023 -0.047,-0.047 h -0.017 q -0.031,0.005 -0.031,0.031 0,0.237 -0.017,0.638 l -0.079,0.065 h -0.08 q -0.021,0 -0.08,-0.081 v -0.127 q 0,-0.94 0.208,-2.2 0.059,-0.048 0.112,-0.048 z" />
  </g>
  <g
     id="g1391"
     word-spacing="0"
     letter-spacing="0"
     font-size="2.799"
     font-weight="400"
     style="font-weight:400;font-size:2.79900002px;line-height:1.25;font-family:'Casual Caps';letter-spacing:0;word-spacing:0;fill:#c8c8c8;stroke-width:0.175"
     aria-label="LEN"
     transform="translate(-26.543,-161.307)">
    <path
       inkscape:connector-curvature="0"
       id="path1387"
       style="-inkscape-font-specification:'Casual Caps'"
       d="m 82.657,188.928 q 0.045,-0.08 0.128,-0.08 h 0.003 q 0.085,0.002 0.108,0.095 v 0.112 l -0.096,1.85 q 0.014,0.201 0.122,0.201 l 0.007,-0.001 q 0.115,-0.006 0.27,-0.089 0.03,-0.01 0.056,-0.01 0.048,0 0.076,0.039 0.024,0.035 0.024,0.074 0,0.027 -0.012,0.056 -0.18,0.191 -0.43,0.191 h -0.027 q -0.166,0 -0.243,-0.082 -0.082,-0.087 -0.082,-0.34 v -0.009 q 0,-0.412 0.096,-2.007 z" />
    <path
       inkscape:connector-curvature="0"
       id="path1389"
       style="-inkscape-font-specification:'Casual Caps'"
       d="m 83.939,188.864 h 0.16 q 0.35,0 0.35,0.19 v 0.032 q 0,0.022 -0.08,0.081 h -0.064 q -0.183,-0.064 -0.302,-0.064 -0.402,0 -0.462,0.255 -0.08,0.132 -0.128,0.637 l 0.032,0.017 q 0.365,-0.096 0.477,-0.096 0.022,0 0.081,0.08 v 0.078 q 0,0.069 -0.256,0.129 -0.302,0.072 -0.302,0.11 v 0.017 q 0.05,0.534 0.302,0.606 0.088,0.016 0.128,0.016 0.019,0 0.303,-0.08 0.066,0.023 0.096,0.08 v 0.096 q -0.104,0.143 -0.352,0.143 h -0.127 q -0.497,0 -0.605,-0.797 -0.017,-0.153 -0.017,-0.303 v -0.032 q 0,-0.854 0.368,-1.116 0.17,-0.08 0.398,-0.08 z m 1.995,-0.064 q 0.073,0.027 0.111,0.095 v 0.033 Q 85.87,189.613 85.599,191 l -0.08,0.064 h -0.11 q -0.132,0 -0.416,-1.275 -0.051,-0.16 -0.08,-0.16 -0.127,0.295 -0.27,1.354 0,0.304 -0.112,0.304 h -0.032 q -0.064,0 -0.112,-0.08 0,-0.63 0.304,-1.77 0.094,-0.239 0.239,-0.239 0.203,0 0.335,0.67 l 0.158,0.574 h 0.016 q 0.032,-0.023 0.192,-0.909 0.162,-0.679 0.223,-0.717 z" />
  </g>
  <g
     id="g1395"
     word-spacing="0"
     letter-spacing="0"
     font-size="2.799"
     font-weight="400"
     style="font-weight:400;font-size:2.79900002px;line-height:1.25;font-family:'Casual Caps';letter-spacing:0;word-spacing:0;fill:#c8c8c8;stroke-width:0.175"
     aria-label="TAP"
     transform="translate(-26.543,-161.307)">
    <path
       inkscape:connector-curvature="0"
       id="path1393"
       style="-inkscape-font-specification:'Casual Caps'"
       d="m 43.923,253.367 q 0.053,0.08 0.052,0.087 l -0.012,0.08 q -0.014,0.095 -0.314,0.051 l -0.126,-0.018 q -0.023,-0.003 -0.054,0.04 -0.01,0.07 -0.119,0.707 -0.028,0.196 -0.094,1.098 -0.075,0.054 -0.135,0.046 -0.142,-0.021 -0.082,-0.43 0.007,-0.284 0.07,-0.716 l 0.105,-0.726 q 0.003,-0.022 -0.039,-0.054 -0.053,-0.008 -0.354,-0.003 l -0.048,-0.007 q -0.024,-0.003 -0.054,-0.071 l 0.013,-0.095 q 0.023,-0.158 1.19,0.01 z m 0.509,-0.265 q 0.204,0.03 0.226,0.886 0.074,0.608 0.125,1.694 l -0.004,0.032 q -0.052,0.073 -0.138,0.06 -0.128,-0.018 -0.118,-0.404 -0.006,-0.129 -0.061,-0.137 -0.632,0.034 -0.64,0.084 -0.022,0.153 -0.142,0.205 l -0.079,-0.012 q -0.022,-0.003 -0.068,-0.09 0.317,-1.295 0.57,-1.93 0.157,-0.413 0.329,-0.388 z m -0.086,0.488 q -0.393,1.047 -0.445,1.4 0.028,0.021 0.045,0.024 0.475,-0.013 0.542,-0.067 -0.092,-1.35 -0.142,-1.357 z m 1.364,-0.19 0.079,0.012 q 0.592,0.086 0.917,0.568 0.023,0.061 0.013,0.13 l -0.002,0.016 q -0.057,0.39 -0.858,0.471 -0.166,0.041 -0.57,0.046 -0.003,0.016 -0.018,0.014 -0.058,0.623 -0.117,1.03 -0.062,0.104 -0.158,0.09 l -0.031,-0.004 q -0.022,-0.003 -0.069,-0.09 0.013,-0.084 0.037,-0.14 0.041,-0.502 0.106,-0.951 l -0.016,-0.116 0.002,-0.016 q 0.002,-0.014 0.05,-0.121 l 0.033,-0.22 q 0.114,-0.79 0.602,-0.719 z m -0.393,0.942 0.043,0.038 q 0.635,0 1.023,-0.174 0.072,-0.057 0.08,-0.116 0.02,-0.138 -0.584,-0.408 -0.02,-0.003 -0.156,-0.038 -0.251,-0.036 -0.288,0.215 -0.036,-0.005 -0.118,0.483 z" />
  </g>
  <g
     id="g1401"
     transform="translate(-13.601,-37.268)">
    <circle
       style="fill:url(#I)"
       id="circle1397"
       cx="63.202999"
       cy="61.278999"
       r="2.082" />
    <circle
       style="fill:url(#J)"
       id="circle1399"
       cx="-45.188999"
       cy="-75.549004"
       r="1.6670001"
       transform="rotate(165)" />
  </g>
  <g
     id="g1407"
     transform="translate(-3.009,-37.268)">
    <circle
       style="fill:url(#K)"
       id="circle1403"
       cx="63.202999"
       cy="61.278999"
       r="2.082" />
    <circle
       style="fill:url(#L)"
       id="circle1405"
       cx="-45.188999"
       cy="-75.549004"
       r="1.6670001"
       transform="rotate(165)" />
  </g>
  <g
     id="g1413"
     transform="translate(-24.143,-37.268)">
    <circle
       style="fill:url(#M)"
       id="circle1409"
       cx="63.202999"
       cy="61.278999"
       r="2.082" />
    <circle
       style="fill:url(#N)"
       id="circle1411"
       cx="-45.188999"
       cy="-75.549004"
       r="1.6670001"
       transform="rotate(165)" />
  </g>
  <g
     id="g1419"
     transform="translate(-34.759,-37.268)">
    <circle
       style="fill:url(#O)"
       id="circle1415"
       cx="63.202999"
       cy="61.278999"
       r="2.082" />
    <circle
       style="fill:url(#P)"
       id="circle1417"
       cx="-45.188999"
       cy="-75.549004"
       r="1.6670001"
       transform="rotate(165)" />
  </g>
  <g
     id="g1425"
     transform="translate(-45.343,-37.268)">
    <circle
       style="fill:url(#Q)"
       id="circle1421"
       cx="63.202999"
       cy="61.278999"
       r="2.082" />
    <circle
       style="fill:url(#R)"
       id="circle1423"
       cx="-45.188999"
       cy="-75.549004"
       r="1.6670001"
       transform="rotate(165)" />
  </g>
  <g
     id="g1431"
     transform="translate(-55.893,-37.268)">
    <circle
       style="fill:url(#S)"
       id="circle1427"
       cx="63.202999"
       cy="61.278999"
       r="2.082" />
    <circle
       style="fill:url(#T)"
       id="circle1429"
       cx="-45.188999"
       cy="-75.549004"
       r="1.6670001"
       transform="rotate(165)" />
  </g>
  <g
     id="g1437"
     transform="translate(-14.122,26.662)">
    <circle
       style="fill:url(#U)"
       id="circle1433"
       cx="63.202999"
       cy="61.278999"
       r="2.082" />
    <circle
       style="fill:url(#V)"
       id="circle1435"
       cx="-45.188999"
       cy="-75.549004"
       r="1.6670001"
       transform="rotate(165)" />
  </g>
  <path
     style="fill:#ff6e0f;stroke:#950e00;stroke-width:0.18841808"
     inkscape:connector-curvature="0"
     id="path1439"
     d="m 33.835333,50.743647 c 0,0 2.865578,-1.926187 4.559416,-2.508015 1.693837,-0.581331 4.820464,-1.126918 4.820464,-1.126918 0,0 -0.586721,-0.653812 -1.693837,-0.581332 -1.107117,0.07248 -2.670005,0.181697 -2.670005,0.181697 0,0 2.083284,-1.236135 4.038169,-1.272375 1.954036,-0.03624 4.885089,0.36389 4.885089,0.36389 0,0 0.195573,-0.581827 -0.911543,-0.872741 -1.107967,-0.290418 -4.430167,-0.181697 -4.430167,-0.181697 0,0 4.62574,-2.180861 9.706402,-1.599034 5.080662,0.581332 8.598436,2.834673 8.598436,2.834673 0,0 -2.670005,-0.980966 -5.016037,-0.508355 -2.345183,0.472611 -3.647873,1.344856 -3.647873,1.344856 0,0 1.238066,-0.218433 1.954885,-0.254674 0.71597,-0.03624 1.888561,0.03624 1.888561,0.03624 0,0 -1.368165,1.272375 -3.647873,1.563289 -2.279708,0.290914 -6.448827,0.218434 -6.448827,0.218434 0,0 2.931053,0.763028 3.777972,0.908485 0.846919,0.145457 3.061152,0.327154 3.061152,0.327154 l -1.30184,0.435874 c 0,0 0.911543,0.436371 2.344333,0.290914 1.433639,-0.145457 2.476131,-0.399634 2.476131,-0.399634 0,0 -0.261048,0.472611 -0.977868,0.581331 -0.715969,0.109217 -1.823936,0.254674 -1.823936,0.254674 0,0 2.052672,0.654308 4.266906,0.290417 2.215083,-0.363394 3.777971,-1.14479 3.777971,-1.14479 0,0 -1.335002,2.035404 -4.396154,2.853537 -3.062002,0.817636 -5.081512,0.799268 -6.481989,0.690051 -1.400477,-0.10872 -3.713348,-0.453746 -5.113825,-0.980965 -1.400477,-0.527219 -1.823936,-0.745157 -1.823936,-0.745157 0,0 2.931903,0.454243 3.843446,0.508851 0.912394,0.05461 2.866429,-0.145456 2.866429,-0.145456 0,0 -1.856249,-1.017702 -4.071332,-1.435705 -2.215084,-0.418002 -4.787302,-0.963094 -6.742187,-0.799268 -1.954036,0.163328 -5.666533,0.871748 -5.666533,0.871748 z" />
  <path
     style="fill:#ffba1a;stroke:#ff8a0d;stroke-width:0.32615817;stroke-opacity:0.99500002"
     inkscape:connector-curvature="0"
     id="path1441"
     d="m 36.642239,49.786511 c 1.153885,-0.193612 1.75251,-0.340558 2.780547,-0.426938 2.323924,-0.194108 4.935257,0.405095 7.127382,0.818629 2.47018,0.466157 4.394454,1.547404 4.394454,1.547404 a 0.85967352,0.50190084 0 0 1 -0.439616,0.86033 c 0,0 -0.507641,0.05213 -1.134327,0.09681 -0.191322,0.0139 -0.397949,0.005 -0.601176,0.01638 0.697263,0.111699 1.414933,0.218434 1.927676,0.258149 1.306091,0.101274 3.084961,0.132053 6.011762,-0.64984 0.921747,-0.245738 1.618159,-0.633457 2.214233,-1.031602 -0.363937,0.08737 -0.593523,0.195101 -1.004228,0.263113 -2.607081,0.427435 -4.911448,-0.334104 -4.911448,-0.334104 a 0.85967352,0.50190084 0 0 1 -0.444717,-0.461689 c -0.970215,-0.109217 -1.707443,-0.317722 -1.707443,-0.317722 a 0.85967352,0.50190084 0 0 1 -0.273803,-0.542112 c -0.524647,-0.05461 -0.792498,-0.05957 -1.182795,-0.127089 -0.556109,-0.09532 -1.455748,-0.318218 -2.301816,-0.529205 -0.846069,-0.210987 -1.584146,-0.402116 -1.584146,-0.402116 a 0.85967352,0.50190084 0 0 1 0.374991,-0.960115 c 0,0 4.203982,0.05213 6.241349,-0.207512 0.748281,-0.09532 1.364763,-0.339565 1.876656,-0.590764 -0.565463,0.04816 -1.641118,0.216448 -1.641118,0.216448 a 0.85967352,0.50190084 0 0 1 -0.896237,-0.809197 c 0,0 1.454897,-0.974015 4.015211,-1.48932 0.518695,-0.104749 1.022085,-0.104253 1.522923,-0.114181 -1.358811,-0.510341 -3.013534,-1.020185 -4.991378,-1.246561 -2.604531,-0.297864 -4.880837,0.171768 -6.597633,0.680123 0.634338,0.02333 1.291636,0.0069 1.838392,0.150917 0.766988,0.201059 1.198951,0.566935 1.346056,0.863806 0.145405,0.296871 0.05782,0.563459 0.05782,0.563459 a 0.85967352,0.50190084 0 0 1 -1.039941,0.391692 c 0,0 -2.935305,-0.383252 -4.661455,-0.350984 -0.188771,0.0035 -0.420908,0.118153 -0.636039,0.15489 1.11647,0.180704 1.697239,0.783382 1.697239,0.783382 a 0.85967352,0.50190084 0 0 1 -0.516995,0.713881 c 0,0 -3.134279,0.563956 -4.631693,1.078267 -0.547606,0.188151 -1.43449,0.681613 -2.227838,1.133373 z" />
  <g
     id="g1445"
     word-spacing="0"
     letter-spacing="0"
     font-size="2.799"
     font-weight="400"
     style="font-weight:400;font-size:2.79900002px;line-height:1.25;font-family:'Casual Caps';letter-spacing:0;word-spacing:0;fill:#c8c8c8;stroke-width:0.175"
     aria-label="BANK"
     transform="translate(-26.543,-161.307)">
    <path
       inkscape:connector-curvature="0"
       id="path1443"
       style="-inkscape-font-specification:'Casual Caps'"
       d="m 57.852,212.705 q 0.283,-0.061 0.706,0.32 l 0.024,0.109 q 0.038,0.176 -0.291,0.536 -0.065,0.151 -0.057,0.192 0.019,0.085 0.606,0.455 0.112,0.143 0.128,0.217 0.085,0.39 -0.71,0.563 l -0.077,0.017 q -0.467,0.102 -0.497,-0.038 l -0.01,-0.047 q 0.032,-0.105 0.151,-0.131 -0.294,-2.01 -0.15,-2.04 0.042,-0.123 0.177,-0.153 z m 0.225,2.153 0.054,0.022 q 0.572,-0.151 0.577,-0.273 l -0.004,-0.016 q -0.024,-0.112 -0.57,-0.446 -0.105,-0.1 -0.123,-0.186 l -0.024,-0.11 q -0.04,-0.18 0.288,-0.55 0.06,-0.1 0.05,-0.143 -0.157,-0.17 -0.4,-0.19 -0.135,0.03 0.152,1.892 z m 1.116,-2.56 q 0.202,-0.044 0.523,0.75 0.282,0.544 0.711,1.543 l 0.007,0.032 q -0.023,0.086 -0.107,0.104 -0.127,0.028 -0.253,-0.337 -0.05,-0.118 -0.105,-0.107 -0.58,0.254 -0.57,0.304 0.034,0.15 -0.061,0.241 l -0.078,0.017 q -0.021,0.005 -0.096,-0.06 -0.157,-1.324 -0.144,-2.008 0.003,-0.442 0.173,-0.479 z m 0.09,0.487 q 0,1.12 0.076,1.468 0.033,0.01 0.05,0.006 0.44,-0.179 0.484,-0.253 -0.56,-1.232 -0.61,-1.221 z m 2.262,-0.967 q 0.076,0.011 0.128,0.07 l 0.007,0.032 q -0.025,0.706 0.006,2.119 l -0.065,0.08 -0.108,0.024 q -0.128,0.027 -0.678,-1.158 -0.083,-0.145 -0.111,-0.14 -0.061,0.316 0.024,1.382 0.065,0.296 -0.045,0.32 l -0.03,0.007 q -0.063,0.014 -0.127,-0.054 -0.134,-0.617 -0.08,-1.794 0.04,-0.253 0.182,-0.284 0.2,-0.044 0.47,0.583 l 0.277,0.527 0.016,-0.004 q 0.026,-0.03 -0.007,-0.929 0.015,-0.698 0.065,-0.748 z m 0.375,-0.033 q 0.097,-0.021 0.136,0.102 l 0.003,0.014 q 0.027,0.123 0.044,0.497 l 0.035,0.01 q 0.438,-0.523 0.559,-0.727 l 0.077,-0.017 q 0.022,-0.004 0.096,0.06 l 0.024,0.11 q -0.056,0.109 -0.632,0.84 -0.107,0.186 -0.09,0.263 0.122,0.194 0.933,0.988 0.042,0.044 0.051,0.087 l 0.007,0.03 q 0.005,0.022 -0.06,0.097 l -0.094,0.02 q -0.064,-0.02 -0.68,-0.652 -0.005,-0.022 -0.057,-0.036 l -0.016,0.003 q -0.03,0.012 -0.024,0.038 0.05,0.23 0.12,0.627 l -0.064,0.08 -0.078,0.016 q -0.021,0.005 -0.096,-0.061 l -0.027,-0.125 q -0.2,-0.917 -0.266,-2.194 0.048,-0.059 0.1,-0.07 z" />
  </g>
  <g
     id="g1449"
     word-spacing="0"
     letter-spacing="0"
     font-size="2.799"
     font-weight="400"
     style="font-weight:400;font-size:2.79900002px;line-height:1.25;font-family:'Casual Caps';letter-spacing:0;word-spacing:0;fill:#c8c8c8;stroke:#ca4c07;stroke-width:0.096;stroke-opacity:0.997"
     aria-label="RND"
     transform="translate(-26.543,-161.307)">
    <path
       inkscape:connector-curvature="0"
       id="path1447"
       style="-inkscape-font-specification:'Casual Caps'"
       d="m 84.615,214.882 0.063,-0.012 q 0.62,-0.123 1.01,0.173 0.04,0.045 0.05,0.088 l 0.018,0.093 q 0.05,0.25 -0.746,0.668 -0.24,0.102 -0.232,0.143 0.009,0.042 0.431,0.208 0.81,0.256 0.927,0.32 l 0.02,0.028 0.016,0.078 q -0.025,0.087 -0.11,0.104 -0.733,-0.172 -1.328,-0.468 -0.04,0.008 -0.22,-0.136 l -0.017,0.003 -0.01,0.035 q 0.208,0.553 0.24,0.716 l 0.031,0.157 q -0.024,0.086 -0.109,0.103 -0.063,0.012 -0.125,-0.056 l -0.003,-0.016 q -0.023,-0.113 -0.383,-1.192 l -0.025,-0.125 q -0.155,-0.782 0.502,-0.912 z m -0.264,0.8 0.056,0.28 q 0.012,0.032 0.037,0.027 0.061,-0.158 0.618,-0.415 0.382,-0.217 0.422,-0.328 -0.037,-0.187 -0.792,-0.135 -0.41,0.133 -0.35,0.442 -0.012,0.02 0.01,0.128 z m 3.046,-1.482 q 0.077,0.012 0.128,0.072 l 0.006,0.032 q -0.038,0.706 -0.034,2.119 l -0.067,0.079 -0.108,0.021 q -0.129,0.026 -0.656,-1.17 -0.08,-0.147 -0.109,-0.141 -0.067,0.314 -0.002,1.381 0.06,0.298 -0.05,0.32 l -0.031,0.006 q -0.063,0.012 -0.126,-0.056 -0.123,-0.62 -0.046,-1.796 0.046,-0.253 0.188,-0.28 0.2,-0.04 0.458,0.591 l 0.268,0.532 0.016,-0.003 q 0.026,-0.029 0.01,-0.929 0.028,-0.698 0.08,-0.747 z m 0.386,0.02 0.094,-0.018 q 0.164,-0.033 0.88,0.671 0.409,0.425 0.48,0.783 0.102,0.515 -0.704,0.87 -0.13,0.042 -0.217,0.06 -0.113,-0.005 -0.127,-0.073 -0.32,-1.204 -0.454,-1.876 l -0.034,-0.172 q -0.028,-0.14 0.082,-0.245 z m 0.193,0.32 -0.01,0.034 q 0.171,0.777 0.418,1.69 0.043,0.023 0.067,0.019 0.599,-0.264 0.533,-0.594 l -0.003,-0.016 q -0.079,-0.398 -0.97,-1.123 z" />
  </g>
  <g
     style="fill:none;stroke:#c8c8c8;stroke-width:0.26499999;stroke-linecap:round;stroke-linejoin:round"
     id="g1453"
     transform="translate(-26.543,-161.307)">
    <path
       inkscape:connector-curvature="0"
       id="path1451"
       transform="matrix(-0.38285,-1.32585,1.14806,-0.44214,-218.33,401.607)"
       d="m 30.882,242.072 c -1.276,1.977 0.063,4.402 0.063,4.402 -0.526,-0.463 -1.371,-0.431 -1.371,-0.431 m 1.356,0.399 c 0.127,-0.718 0.494,-1.18 0.494,-1.18" />
  </g>
  <circle
     style="fill:url(#W)"
     id="circle1455"
     r="0.46799999"
     cy="13.773002"
     cx="3.3070004" />
  <circle
     style="fill:url(#X)"
     id="circle1457"
     r="0.46799999"
     cy="13.773002"
     cx="10.948001" />
  <circle
     style="fill:url(#Y)"
     id="circle1459"
     r="0.46799999"
     cy="13.773002"
     cx="13.812999" />
  <circle
     style="fill:url(#Z)"
     id="circle1461"
     r="0.46799999"
     cy="13.773002"
     cx="21.454002" />
  <circle
     style="fill:url(#aa)"
     id="circle1463"
     r="0.46799999"
     cy="13.773002"
     cx="24.477001" />
  <circle
     style="fill:url(#ab)"
     id="circle1465"
     r="0.46799999"
     cy="13.773002"
     cx="32.118" />
  <circle
     style="fill:url(#ac)"
     id="circle1467"
     r="0.46799999"
     cy="13.773002"
     cx="35.048" />
  <circle
     style="fill:url(#ad)"
     id="circle1469"
     r="0.46799999"
     cy="13.773002"
     cx="42.688004" />
  <circle
     style="fill:url(#ae)"
     id="circle1471"
     r="0.46799999"
     cy="13.773002"
     cx="45.569" />
  <circle
     style="fill:url(#af)"
     id="circle1473"
     r="0.46799999"
     cy="13.773002"
     cx="53.209" />
  <circle
     style="fill:url(#ag)"
     id="circle1475"
     r="0.46799999"
     cy="13.773002"
     cx="56.098" />
  <circle
     style="fill:url(#ah)"
     id="circle1477"
     r="0.46799999"
     cy="13.773002"
     cx="63.737999" />
  <rect
     style="fill:url(#ai)"
     id="rect1479"
     rx="1.418"
     y="30.756996"
     x="51.891998"
     height="8.8970003"
     width="11.576" />
  <rect
     style="fill:url(#ai-1);stroke-width:0.78874487"
     id="rect1479-0"
     rx="0.88842058"
     y="30.805721"
     x="41.329491"
     height="8.8343439"
     width="7.2527199" />
  <g
     id="g1733"
     transform="translate(-26.435408,-161.22043)">
    <rect
       style="fill:url(#E-4)"
       id="rect1729"
       width="4.2399998"
       height="0.43900001"
       x="26.759001"
       y="161.61099"
       ry="0.206" />
    <rect
       style="fill:url(#F-4)"
       id="rect1731"
       width="4.2399998"
       height="0.41299999"
       x="162.21001"
       y="-26.118999"
       ry="0.19400001"
       transform="matrix(0.00655,0.99998,-0.99973,0.02317,0,0)" />
  </g>
</svg>
