<?xml version="1.0" encoding="UTF-8" standalone="no"?>
<svg
   xmlns:dc="http://purl.org/dc/elements/1.1/"
   xmlns:cc="http://creativecommons.org/ns#"
   xmlns:rdf="http://www.w3.org/1999/02/22-rdf-syntax-ns#"
   xmlns:svg="http://www.w3.org/2000/svg"
   xmlns="http://www.w3.org/2000/svg"
   xmlns:sodipodi="http://sodipodi.sourceforge.net/DTD/sodipodi-0.dtd"
   xmlns:inkscape="http://www.inkscape.org/namespaces/inkscape"
   width="24"
   height="24"
   viewBox="0 0 6.35 6.35"
   version="1.1"
   id="svg8"
   sodipodi:docname="RoundSmallBlackKnobNoMark.svg"
   inkscape:version="0.92.3 (2405546, 2018-03-11)">
  <metadata
     id="metadata14">
    <rdf:RDF>
      <cc:Work
         rdf:about="">
        <dc:format>image/svg+xml</dc:format>
        <dc:type
           rdf:resource="http://purl.org/dc/dcmitype/StillImage" />
        <dc:title></dc:title>
      </cc:Work>
    </rdf:RDF>
  </metadata>
  <defs
     id="defs12" />
  <sodipodi:namedview
     pagecolor="#ffffff"
     bordercolor="#666666"
     borderopacity="1"
     objecttolerance="10"
     gridtolerance="10"
     guidetolerance="10"
     inkscape:pageopacity="0"
     inkscape:pageshadow="2"
     inkscape:window-width="724"
     inkscape:window-height="480"
     id="namedview10"
     showgrid="false"
     inkscape:zoom="9.8333333"
     inkscape:cx="12"
     inkscape:cy="12"
     inkscape:window-x="0"
     inkscape:window-y="0"
     inkscape:window-maximized="0"
     inkscape:current-layer="svg8" />
  <path
     d="M6.268 2.845c-.137-.221-.367-.438-.495-.748-.128-.308-.12-.624-.178-.875a3.123 3.123 0 0 0-.469-.469C4.874.694 4.56.703 4.251.575 3.94.446 3.723.217 3.503.08a3.124 3.124 0 0 0-.658 0c-.221.137-.439.366-.749.495-.308.127-.623.12-.875.178a3.121 3.121 0 0 0-.469.468c-.058.252-.05.568-.179.876-.127.31-.357.527-.494.748a3.124 3.124 0 0 0 0 .658c.137.221.366.438.494.748.128.308.12.624.18.875.139.173.295.33.468.47.252.058.567.05.875.178.31.128.528.358.749.494a3.174 3.174 0 0 0 .658 0c.22-.137.437-.365.747-.494.31-.128.624-.12.876-.179.173-.139.33-.296.469-.468.059-.252.05-.568.178-.876.128-.31.358-.527.495-.748a3.19 3.19 0 0 0 0-.658"
     fill-rule="evenodd"
     stroke="#787878"
     stroke-width=".127"
     stroke-linecap="round"
     stroke-linejoin="round"
     id="path2" />
  <circle
     r="2.478"
     cy="3.174"
     cx="3.15"
     fill="#464646"
     stroke="#595959"
     stroke-width=".086"
     id="circle4" />
</svg>
